G75*
%MOIN*%
%OFA0B0*%
%FSLAX25Y25*%
%IPPOS*%
%LPD*%
%AMOC8*
5,1,8,0,0,1.08239X$1,22.5*
%
%ADD10R,0.06706X0.05918*%
%ADD11R,0.05918X0.06706*%
%ADD12C,0.04300*%
%ADD13C,0.06800*%
%ADD14R,0.38300X0.25800*%
%ADD15C,0.08200*%
%ADD16R,0.02493X0.01902*%
%ADD17R,0.06115X0.01784*%
%ADD18C,0.06146*%
%ADD19C,0.07099*%
%ADD20C,0.06300*%
%ADD21C,0.09650*%
%ADD22R,0.04737X0.18910*%
%ADD23R,0.07099X0.14186*%
%ADD24C,0.03778*%
%ADD25C,0.03900*%
D10*
X0219500Y0211760D03*
X0219500Y0219240D03*
X0219500Y0226760D03*
X0219500Y0234240D03*
X0212000Y0234260D03*
X0212000Y0241740D03*
D11*
X0219510Y0242750D03*
X0226990Y0242750D03*
X0213240Y0255500D03*
X0205760Y0255500D03*
D12*
X0373000Y0348500D03*
X0381000Y0348500D03*
X0377000Y0368500D03*
X0488500Y0170000D03*
X0484500Y0150000D03*
X0492500Y0150000D03*
D13*
X0400500Y0306000D02*
X0394500Y0306000D01*
X0394500Y0316000D02*
X0400500Y0316000D01*
X0400500Y0326000D02*
X0394500Y0326000D01*
D14*
X0364500Y0036500D03*
X0061500Y0036500D03*
D15*
X0398000Y0234500D03*
X0398000Y0244500D03*
X0398000Y0254500D03*
X0398000Y0264500D03*
X0398000Y0274500D03*
X0398000Y0284500D03*
X0398000Y0294500D03*
D16*
X0495500Y0175004D03*
X0495500Y0172996D03*
D17*
X0491067Y0039118D03*
X0491067Y0036559D03*
X0491067Y0034000D03*
X0491067Y0031441D03*
X0491067Y0028882D03*
D18*
X0489689Y0025040D03*
X0489689Y0042960D03*
D19*
X0501500Y0050437D03*
X0501500Y0017563D03*
D20*
X0493500Y0065100D03*
X0493500Y0073000D03*
X0493500Y0080900D03*
D21*
X0493500Y0089150D03*
X0493500Y0056850D03*
D22*
X0456437Y0040567D03*
X0448563Y0040567D03*
D23*
X0439114Y0020094D03*
X0465886Y0020094D03*
D24*
X0056500Y0042000D03*
X0061500Y0042000D03*
X0066500Y0042000D03*
X0149500Y0118000D03*
X0164500Y0103000D03*
X0161500Y0075000D03*
X0203098Y0127500D03*
X0261500Y0126500D03*
X0281500Y0124000D03*
X0296500Y0132000D03*
X0269500Y0096000D03*
X0274500Y0054000D03*
X0359000Y0042000D03*
X0364000Y0042000D03*
X0369000Y0042000D03*
X0444500Y0053000D03*
X0444500Y0057000D03*
X0444500Y0061000D03*
X0448500Y0061000D03*
X0448500Y0057000D03*
X0448500Y0053000D03*
X0474500Y0045500D03*
X0482000Y0039000D03*
X0471500Y0077500D03*
X0471500Y0137000D03*
X0471500Y0141000D03*
X0462500Y0141000D03*
X0459500Y0138500D03*
X0454000Y0142500D03*
X0449500Y0143000D03*
X0444500Y0143000D03*
X0439500Y0143000D03*
X0459740Y0150260D03*
X0463000Y0159000D03*
X0463500Y0163000D03*
X0462500Y0173000D03*
X0465500Y0176000D03*
X0465500Y0181500D03*
X0457902Y0176000D03*
X0454331Y0173169D03*
X0452500Y0176398D03*
X0451524Y0179976D03*
X0449489Y0183000D03*
X0449500Y0193000D03*
X0440500Y0205000D03*
X0443500Y0208000D03*
X0472500Y0212000D03*
X0477000Y0190000D03*
X0472870Y0182886D03*
X0495000Y0185000D03*
X0497000Y0188500D03*
X0502500Y0171000D03*
X0495739Y0169000D03*
X0502500Y0164500D03*
X0495869Y0156869D03*
X0481500Y0159500D03*
X0486500Y0141000D03*
X0486500Y0137000D03*
X0370500Y0206461D03*
X0357000Y0225500D03*
X0360578Y0226000D03*
X0363500Y0229000D03*
X0371500Y0230000D03*
X0373500Y0249000D03*
X0382250Y0249750D03*
X0389500Y0254500D03*
X0382500Y0279000D03*
X0346500Y0249000D03*
X0340500Y0244000D03*
X0340500Y0235000D03*
X0336500Y0229000D03*
X0350500Y0226000D03*
X0339500Y0206000D03*
X0334000Y0284000D03*
X0325489Y0296500D03*
X0319000Y0291500D03*
X0294000Y0291500D03*
X0300000Y0317000D03*
X0320500Y0331500D03*
X0328000Y0331500D03*
X0323500Y0323000D03*
X0332500Y0322000D03*
X0344000Y0312000D03*
X0331500Y0344000D03*
X0334500Y0369000D03*
X0331500Y0371500D03*
X0333500Y0381000D03*
X0340500Y0395500D03*
X0336970Y0397030D03*
X0328500Y0403000D03*
X0324500Y0405489D03*
X0339500Y0408500D03*
X0353783Y0395000D03*
X0364500Y0388000D03*
X0382111Y0375500D03*
X0382000Y0358500D03*
X0385000Y0355000D03*
X0371000Y0360500D03*
X0369500Y0354000D03*
X0361000Y0409500D03*
X0296500Y0371500D03*
X0296500Y0361500D03*
X0299500Y0356000D03*
X0282500Y0350500D03*
X0271500Y0337000D03*
X0253500Y0335000D03*
X0236500Y0336000D03*
X0225151Y0322151D03*
X0213000Y0331000D03*
X0218000Y0348000D03*
X0192500Y0357000D03*
X0188500Y0346000D03*
X0207030Y0369470D03*
X0204000Y0371500D03*
X0206000Y0380500D03*
X0219411Y0381000D03*
X0217502Y0366998D03*
X0241500Y0361000D03*
X0251000Y0369500D03*
X0241500Y0375000D03*
X0238500Y0389000D03*
X0244500Y0403000D03*
X0240000Y0406441D03*
X0206500Y0411500D03*
X0169000Y0377000D03*
X0114682Y0410250D03*
X0168500Y0315500D03*
X0181500Y0299000D03*
X0173902Y0293000D03*
X0196500Y0276500D03*
X0211000Y0264000D03*
X0201000Y0253000D03*
X0205000Y0238378D03*
X0204000Y0233000D03*
X0204000Y0229000D03*
X0219510Y0242750D03*
X0226500Y0236500D03*
X0219500Y0205500D03*
X0181400Y0235100D03*
X0183000Y0239500D03*
X0144000Y0289000D03*
X0116769Y0280337D03*
X0211000Y0290000D03*
X0227000Y0308500D03*
X0262000Y0282500D03*
X0131500Y0176500D03*
D25*
X0127682Y0162750D03*
X0111000Y0143000D03*
X0096500Y0169500D03*
X0114682Y0186250D03*
X0114682Y0194250D03*
X0126000Y0202000D03*
X0095500Y0226500D03*
X0116682Y0237750D03*
X0089500Y0253000D03*
X0117216Y0262716D03*
X0144000Y0270500D03*
X0168500Y0264000D03*
X0127879Y0295250D03*
X0101000Y0317000D03*
X0097500Y0330000D03*
X0114682Y0347750D03*
X0114682Y0355750D03*
X0126000Y0363000D03*
X0128682Y0374750D03*
X0099000Y0370000D03*
X0098500Y0383500D03*
X0114682Y0400250D03*
X0125682Y0323250D03*
X0089500Y0281000D03*
M02*
