G75*
%MOIN*%
%OFA0B0*%
%FSLAX26Y26*%
%IPPOS*%
%LPD*%
%AMOC8*
5,1,8,0,0,1.08239X$1,22.5*
%
%ADD10R,0.051181X0.059055*%
%ADD11R,0.059055X0.051181*%
%ADD12R,0.035433X0.027559*%
%ADD13R,0.031496X0.031496*%
%ADD14R,0.062992X0.070984*%
%ADD15R,0.039370X0.043307*%
%ADD16R,0.011000X0.058000*%
%ADD17R,0.102362X0.019685*%
%ADD18R,0.019685X0.102362*%
%ADD19R,0.094488X0.028346*%
%ADD20R,0.039370X0.027559*%
%ADD21R,0.050000X0.025000*%
%ADD22R,0.125984X0.077165*%
%ADD23R,0.090551X0.098425*%
%ADD24R,0.354331X0.590551*%
%ADD25R,0.157480X0.062992*%
%ADD26R,0.035433X0.037402*%
%ADD27R,0.027559X0.039370*%
%ADD28R,0.037402X0.035433*%
%ADD29R,0.106299X0.062992*%
%ADD30R,0.043307X0.039370*%
%ADD31R,0.059055X0.157480*%
%ADD32R,0.055118X0.216535*%
%ADD33R,0.070866X0.125984*%
%ADD34R,0.375000X0.250000*%
%ADD35R,0.027559X0.035433*%
D10*
X01822598Y00470000D03*
X01897402Y00470000D03*
X01982598Y00470000D03*
X02057402Y00470000D03*
X01682402Y01530000D03*
X01607598Y01530000D03*
X01539902Y01532500D03*
X01465098Y01532500D03*
X01442598Y01610000D03*
X01517402Y01610000D03*
X01667598Y01605000D03*
X01742402Y01605000D03*
X01692402Y02150000D03*
X01617598Y02150000D03*
X01637402Y02240000D03*
X01712598Y02240000D03*
X01787402Y02240000D03*
X01882598Y02240000D03*
X01957402Y02240000D03*
X02032598Y02240000D03*
X02107402Y02240000D03*
X02027402Y02140000D03*
X01952598Y02140000D03*
X01562598Y02240000D03*
X01467402Y02240000D03*
X01392598Y02240000D03*
X01287402Y02240000D03*
X01212598Y02240000D03*
X01117402Y02240000D03*
X01042598Y02240000D03*
X00977402Y02230000D03*
X00902598Y02230000D03*
X01142598Y02140000D03*
X01217402Y02140000D03*
X01342598Y02140000D03*
X01417402Y02140000D03*
X00764902Y01482500D03*
X00690098Y01482500D03*
D11*
X00582500Y01487402D03*
X00582500Y01412598D03*
X00770000Y01377402D03*
X00770000Y01302598D03*
X00690000Y01254902D03*
X00690000Y01180098D03*
X00872500Y01407598D03*
X00872500Y01482402D03*
X01959500Y01575098D03*
X01959500Y01649902D03*
X02940000Y00587402D03*
X02940000Y00512598D03*
X02940000Y00397402D03*
X02940000Y00322598D03*
D12*
X03420000Y01849409D03*
X03470000Y01849409D03*
X03470000Y01900591D03*
X03420000Y01900591D03*
X02990000Y02194409D03*
X02990000Y02245591D03*
X02880000Y02245591D03*
X02880000Y02194409D03*
X02930000Y02464409D03*
X02980000Y02464409D03*
X02980000Y02515591D03*
X02930000Y02515591D03*
D13*
X03417000Y02038528D03*
X03470000Y02039528D03*
X03470000Y01980472D03*
X03417000Y01979472D03*
D14*
X02483984Y01370000D03*
X02372016Y01370000D03*
X02033484Y01925000D03*
X01921516Y01925000D03*
X02209016Y02350000D03*
X02320984Y02350000D03*
X01208484Y01405000D03*
X01096516Y01405000D03*
D15*
X01256535Y02000000D03*
X01323465Y02000000D03*
D16*
X01442000Y01950000D03*
X01462000Y01950000D03*
X01482000Y01950000D03*
X01501000Y01950000D03*
X01521000Y01950000D03*
X01541000Y01950000D03*
X01560000Y01950000D03*
X01580000Y01950000D03*
X01600000Y01950000D03*
X01619000Y01950000D03*
X01639000Y01950000D03*
X01659000Y01950000D03*
X01678000Y01950000D03*
X01698000Y01950000D03*
X01718000Y01950000D03*
X01718000Y01720000D03*
X01698000Y01720000D03*
X01678000Y01720000D03*
X01659000Y01720000D03*
X01639000Y01720000D03*
X01619000Y01720000D03*
X01600000Y01720000D03*
X01580000Y01720000D03*
X01560000Y01720000D03*
X01541000Y01720000D03*
X01521000Y01720000D03*
X01501000Y01720000D03*
X01482000Y01720000D03*
X01462000Y01720000D03*
X01442000Y01720000D03*
D17*
X03093504Y02152520D03*
X03093504Y02184016D03*
X03093504Y02215512D03*
X03093504Y02247008D03*
X03093504Y02278504D03*
X03093504Y02310000D03*
X03093504Y02341496D03*
X03093504Y02372992D03*
X03093504Y02404488D03*
X03093504Y02435984D03*
X03093504Y02467480D03*
X03093504Y02498976D03*
X03093504Y02530472D03*
X03093504Y02561969D03*
X03093504Y02593465D03*
X03093504Y02624961D03*
X03093504Y02656457D03*
X03093504Y02687953D03*
X03406496Y02498976D03*
X03406496Y02467480D03*
X03406496Y02435984D03*
X03406496Y02404488D03*
X03406496Y02372992D03*
X03406496Y02341496D03*
X03406496Y02310000D03*
X03406496Y02278504D03*
X03406496Y02247008D03*
X03406496Y02215512D03*
X03406496Y02184016D03*
X03406496Y02152520D03*
D18*
X03328740Y02119055D03*
X03297244Y02119055D03*
X03265748Y02119055D03*
X03234252Y02119055D03*
X03202756Y02119055D03*
X03171260Y02119055D03*
D19*
X02956772Y01960000D03*
X02956772Y01910000D03*
X02956772Y01860000D03*
X02956772Y01810000D03*
X02956772Y01760000D03*
X02803228Y01760000D03*
X02803228Y01810000D03*
X02803228Y01860000D03*
X02803228Y01910000D03*
X02803228Y01960000D03*
D20*
X02017244Y01822402D03*
X02017244Y01747598D03*
X01922756Y01785000D03*
D21*
X00610000Y00580000D03*
X00610000Y00430000D03*
X02860000Y00395000D03*
X02860000Y00545000D03*
D22*
X02700000Y00571732D03*
X02700000Y00288268D03*
D23*
X00760000Y00355354D03*
X00760000Y00524646D03*
D24*
X01283307Y00830000D03*
X02551693Y00835000D03*
D25*
X02138307Y00735000D03*
X02138307Y00935000D03*
X01696693Y00930000D03*
X01696693Y00730000D03*
D26*
X02379992Y01295000D03*
X02504008Y01295000D03*
D27*
X02294402Y01387244D03*
X02219598Y01387244D03*
X02257000Y01292756D03*
X03212598Y01587244D03*
X03287402Y01587244D03*
X03250000Y01492756D03*
D28*
X01785000Y01767992D03*
X01785000Y01892008D03*
D29*
X01550000Y02454882D03*
X01550000Y02565118D03*
X01550000Y02664882D03*
X01550000Y02775118D03*
D30*
X01323465Y02055000D03*
X01256535Y02055000D03*
D31*
X01379370Y02759252D03*
X01720630Y02759252D03*
X02299370Y02759252D03*
X00800630Y02759252D03*
D32*
X00893150Y02540748D03*
X00971890Y02540748D03*
X01050630Y02540748D03*
X01129370Y02540748D03*
X01208110Y02540748D03*
X01286850Y02540748D03*
X01813150Y02540748D03*
X01891890Y02540748D03*
X01970630Y02540748D03*
X02049370Y02540748D03*
X02128110Y02540748D03*
X02206850Y02540748D03*
D33*
X00910236Y00670000D03*
X00689764Y00670000D03*
D34*
X00490000Y00240000D03*
X00455000Y00900000D03*
X03210000Y00230000D03*
X03230000Y00830000D03*
D35*
X03224409Y01635000D03*
X03275591Y01635000D03*
M02*
