G75*
%MOIN*%
%OFA0B0*%
%FSLAX26Y26*%
%IPPOS*%
%LPD*%
%AMOC8*
5,1,8,0,0,1.08239X$1,22.5*
%
%ADD10C,0.108000*%
%ADD11R,0.059181X0.067055*%
%ADD12R,0.067055X0.059181*%
%ADD13R,0.043433X0.035559*%
%ADD14R,0.039496X0.039496*%
%ADD15R,0.070992X0.078984*%
%ADD16R,0.047370X0.051307*%
%ADD17C,0.068000*%
%ADD18R,0.019000X0.066000*%
%ADD19R,0.110362X0.027685*%
%ADD20R,0.027685X0.110362*%
%ADD21R,0.102488X0.036346*%
%ADD22R,0.047370X0.035559*%
%ADD23R,0.047244X0.055118*%
%ADD24R,0.133984X0.085165*%
%ADD25R,0.098551X0.106425*%
%ADD26R,0.362331X0.598551*%
%ADD27R,0.165480X0.070992*%
%ADD28R,0.043433X0.045402*%
%ADD29R,0.035559X0.047370*%
%ADD30R,0.045402X0.043433*%
%ADD31R,0.114299X0.070992*%
%ADD32R,0.051307X0.047370*%
%ADD33R,0.067055X0.165480*%
%ADD34R,0.063118X0.224535*%
%ADD35R,0.078866X0.133984*%
%ADD36R,0.383000X0.258000*%
%ADD37R,0.035559X0.043433*%
%ADD38C,0.039000*%
D10*
X00300000Y02625000D03*
X03375000Y01375000D03*
D11*
X02107402Y02240000D03*
X02032598Y02240000D03*
X01957402Y02240000D03*
X01882598Y02240000D03*
X01787402Y02240000D03*
X01712598Y02240000D03*
X01637402Y02240000D03*
X01562598Y02240000D03*
X01467402Y02240000D03*
X01392598Y02240000D03*
X01287402Y02240000D03*
X01212598Y02240000D03*
X01117402Y02240000D03*
X01042598Y02240000D03*
X00977402Y02230000D03*
X00902598Y02230000D03*
X01142598Y02140000D03*
X01217402Y02140000D03*
X01342598Y02140000D03*
X01417402Y02140000D03*
X01617598Y02150000D03*
X01692402Y02150000D03*
X01952598Y02140000D03*
X02027402Y02140000D03*
X01742402Y01605000D03*
X01667598Y01605000D03*
X01682402Y01530000D03*
X01607598Y01530000D03*
X01539902Y01532500D03*
X01465098Y01532500D03*
X01442598Y01610000D03*
X01517402Y01610000D03*
X00764902Y01482500D03*
X00690098Y01482500D03*
X01822598Y00470000D03*
X01897402Y00470000D03*
X01982598Y00470000D03*
X02057402Y00470000D03*
D12*
X02940000Y00512598D03*
X02940000Y00587402D03*
X02940000Y00397402D03*
X02940000Y00322598D03*
X01959500Y01575098D03*
X01959500Y01649902D03*
X00872500Y01482402D03*
X00872500Y01407598D03*
X00770000Y01377402D03*
X00770000Y01302598D03*
X00690000Y01254902D03*
X00690000Y01180098D03*
X00582500Y01412598D03*
X00582500Y01487402D03*
D13*
X02880000Y02194409D03*
X02880000Y02245591D03*
X02990000Y02245591D03*
X02990000Y02194409D03*
X02980000Y02464409D03*
X02930000Y02464409D03*
X02930000Y02515591D03*
X02980000Y02515591D03*
X03420000Y01900591D03*
X03470000Y01900591D03*
X03470000Y01849409D03*
X03420000Y01849409D03*
D14*
X03417000Y01979472D03*
X03470000Y01980472D03*
X03470000Y02039528D03*
X03417000Y02038528D03*
D15*
X02483984Y01370000D03*
X02372016Y01370000D03*
X02033484Y01925000D03*
X01921516Y01925000D03*
X02209016Y02350000D03*
X02320984Y02350000D03*
X01208484Y01405000D03*
X01096516Y01405000D03*
D16*
X01256535Y02000000D03*
X01323465Y02000000D03*
D17*
X00619000Y02462000D02*
X00619000Y02522000D01*
X00441000Y02522000D02*
X00441000Y02462000D01*
X00415000Y02260000D02*
X00475000Y02260000D01*
X00475000Y02160000D02*
X00415000Y02160000D01*
X00441000Y02718000D02*
X00441000Y02778000D01*
X00619000Y02778000D02*
X00619000Y02718000D01*
X02535000Y02695000D02*
X02535000Y02755000D01*
X02635000Y02755000D02*
X02635000Y02695000D01*
X03400000Y01700000D02*
X03460000Y01700000D01*
X03460000Y01600000D02*
X03400000Y01600000D01*
X03070000Y01580000D02*
X03070000Y01520000D01*
X02970000Y01520000D02*
X02970000Y01580000D01*
X02870000Y01580000D02*
X02870000Y01520000D01*
D18*
X01718000Y01720000D03*
X01698000Y01720000D03*
X01678000Y01720000D03*
X01659000Y01720000D03*
X01639000Y01720000D03*
X01619000Y01720000D03*
X01600000Y01720000D03*
X01580000Y01720000D03*
X01560000Y01720000D03*
X01541000Y01720000D03*
X01521000Y01720000D03*
X01501000Y01720000D03*
X01482000Y01720000D03*
X01462000Y01720000D03*
X01442000Y01720000D03*
X01442000Y01950000D03*
X01462000Y01950000D03*
X01482000Y01950000D03*
X01501000Y01950000D03*
X01521000Y01950000D03*
X01541000Y01950000D03*
X01560000Y01950000D03*
X01580000Y01950000D03*
X01600000Y01950000D03*
X01619000Y01950000D03*
X01639000Y01950000D03*
X01659000Y01950000D03*
X01678000Y01950000D03*
X01698000Y01950000D03*
X01718000Y01950000D03*
D19*
X03093504Y02152520D03*
X03093504Y02184016D03*
X03093504Y02215512D03*
X03093504Y02247008D03*
X03093504Y02278504D03*
X03093504Y02310000D03*
X03093504Y02341496D03*
X03093504Y02372992D03*
X03093504Y02404488D03*
X03093504Y02435984D03*
X03093504Y02467480D03*
X03093504Y02498976D03*
X03093504Y02530472D03*
X03093504Y02561969D03*
X03093504Y02593465D03*
X03093504Y02624961D03*
X03093504Y02656457D03*
X03093504Y02687953D03*
X03406496Y02498976D03*
X03406496Y02467480D03*
X03406496Y02435984D03*
X03406496Y02404488D03*
X03406496Y02372992D03*
X03406496Y02341496D03*
X03406496Y02310000D03*
X03406496Y02278504D03*
X03406496Y02247008D03*
X03406496Y02215512D03*
X03406496Y02184016D03*
X03406496Y02152520D03*
D20*
X03328740Y02119055D03*
X03297244Y02119055D03*
X03265748Y02119055D03*
X03234252Y02119055D03*
X03202756Y02119055D03*
X03171260Y02119055D03*
D21*
X02956772Y01960000D03*
X02956772Y01910000D03*
X02956772Y01860000D03*
X02956772Y01810000D03*
X02956772Y01760000D03*
X02803228Y01760000D03*
X02803228Y01810000D03*
X02803228Y01860000D03*
X02803228Y01910000D03*
X02803228Y01960000D03*
D22*
X02017244Y01822402D03*
X02017244Y01747598D03*
X01922756Y01785000D03*
D23*
X00610000Y00505000D03*
X02860000Y00470000D03*
D24*
X02700000Y00571732D03*
X02700000Y00288268D03*
D25*
X00760000Y00355354D03*
X00760000Y00524646D03*
D26*
X01283307Y00830000D03*
X02551693Y00835000D03*
D27*
X02138307Y00735000D03*
X02138307Y00935000D03*
X01696693Y00930000D03*
X01696693Y00730000D03*
D28*
X02379992Y01295000D03*
X02504008Y01295000D03*
D29*
X02294402Y01387244D03*
X02219598Y01387244D03*
X02257000Y01292756D03*
X03212598Y01587244D03*
X03287402Y01587244D03*
X03250000Y01492756D03*
D30*
X01785000Y01767992D03*
X01785000Y01892008D03*
D31*
X01550000Y02454882D03*
X01550000Y02565118D03*
X01550000Y02664882D03*
X01550000Y02775118D03*
D32*
X01323465Y02055000D03*
X01256535Y02055000D03*
D33*
X01379370Y02759252D03*
X01720630Y02759252D03*
X02299370Y02759252D03*
X00800630Y02759252D03*
D34*
X00893150Y02540748D03*
X00971890Y02540748D03*
X01050630Y02540748D03*
X01129370Y02540748D03*
X01208110Y02540748D03*
X01286850Y02540748D03*
X01813150Y02540748D03*
X01891890Y02540748D03*
X01970630Y02540748D03*
X02049370Y02540748D03*
X02128110Y02540748D03*
X02206850Y02540748D03*
D35*
X00910236Y00670000D03*
X00689764Y00670000D03*
D36*
X00490000Y00240000D03*
X00455000Y00900000D03*
X03210000Y00230000D03*
X03230000Y00830000D03*
D37*
X03224409Y01635000D03*
X03275591Y01635000D03*
D38*
X02935000Y01735000D03*
X02770000Y01760000D03*
X02640000Y01825000D03*
X02730000Y02005000D03*
X02830000Y02005000D03*
X03000000Y02115000D03*
X03060000Y02120000D03*
X03115000Y02110000D03*
X03170000Y02020000D03*
X03375000Y02115000D03*
X03320000Y02435000D03*
X02940000Y02230000D03*
X02820000Y02195000D03*
X02625000Y02160000D03*
X02700000Y02395000D03*
X02765000Y02445000D03*
X02820000Y02510000D03*
X02800000Y02545000D03*
X02840000Y02545000D03*
X02320000Y02440000D03*
X02100000Y02330000D03*
X02000000Y02325000D03*
X01900000Y02325000D03*
X01810000Y02325000D03*
X01700000Y02325000D03*
X01637402Y02430000D03*
X01470000Y02465000D03*
X01410000Y02385000D03*
X01400000Y02325000D03*
X01300000Y02325000D03*
X01200000Y02325000D03*
X01100000Y02325000D03*
X01000000Y02145000D03*
X01100000Y02065000D03*
X01205000Y02060000D03*
X01300000Y02145000D03*
X01400000Y02142500D03*
X01520000Y02075000D03*
X01605000Y02080000D03*
X01700000Y02145000D03*
X01810000Y02144016D03*
X01850000Y02085000D03*
X01900000Y02080000D03*
X01920000Y02035000D03*
X02100000Y02085000D03*
X02120000Y01870000D03*
X02065000Y01835000D03*
X02235000Y01815000D03*
X02185000Y01670000D03*
X02455000Y01700000D03*
X02560000Y01350000D03*
X02320000Y01285000D03*
X02210000Y01210000D03*
X02210000Y01125000D03*
X02165000Y01125000D03*
X02120000Y01125000D03*
X02075000Y01125000D03*
X02030000Y01125000D03*
X01985000Y01125000D03*
X01940000Y01125000D03*
X01890000Y01125000D03*
X01845000Y01125000D03*
X01800000Y01125000D03*
X01755000Y01125000D03*
X01710000Y01125000D03*
X01665000Y01125000D03*
X01620000Y01125000D03*
X01575000Y01125000D03*
X01575000Y01075000D03*
X01620000Y01075000D03*
X01665000Y01075000D03*
X01665000Y01025000D03*
X01620000Y01025000D03*
X01575000Y01025000D03*
X01710000Y01025000D03*
X01755000Y01025000D03*
X01800000Y01025000D03*
X01800000Y01075000D03*
X01755000Y01075000D03*
X01710000Y01075000D03*
X01845000Y01075000D03*
X01890000Y01075000D03*
X01890000Y01025000D03*
X01845000Y01025000D03*
X01940000Y01025000D03*
X01940000Y01075000D03*
X01985000Y01075000D03*
X02030000Y01075000D03*
X02075000Y01075000D03*
X02075000Y01025000D03*
X02030000Y01025000D03*
X01985000Y01025000D03*
X02120000Y01025000D03*
X02165000Y01025000D03*
X02210000Y01025000D03*
X02210000Y01075000D03*
X02165000Y01075000D03*
X02120000Y01075000D03*
X02255000Y01075000D03*
X02255000Y01025000D03*
X02255000Y01125000D03*
X02485000Y01050000D03*
X02485000Y01000000D03*
X02530000Y01000000D03*
X02575000Y01000000D03*
X02620000Y01000000D03*
X02620000Y01050000D03*
X02575000Y01050000D03*
X02530000Y01050000D03*
X02530000Y00950000D03*
X02575000Y00950000D03*
X02620000Y00950000D03*
X02620000Y00900000D03*
X02575000Y00900000D03*
X02530000Y00900000D03*
X02485000Y00900000D03*
X02485000Y00850000D03*
X02485000Y00800000D03*
X02530000Y00800000D03*
X02575000Y00800000D03*
X02620000Y00800000D03*
X02620000Y00850000D03*
X02575000Y00850000D03*
X02530000Y00850000D03*
X02530000Y00750000D03*
X02575000Y00750000D03*
X02620000Y00750000D03*
X02620000Y00700000D03*
X02575000Y00700000D03*
X02530000Y00700000D03*
X02530000Y00650000D03*
X02575000Y00650000D03*
X02620000Y00650000D03*
X02620000Y00600000D03*
X02575000Y00600000D03*
X02530000Y00600000D03*
X02485000Y00600000D03*
X02485000Y00650000D03*
X02485000Y00700000D03*
X02485000Y00750000D03*
X02265000Y00655000D03*
X02220000Y00655000D03*
X02175000Y00655000D03*
X02130000Y00655000D03*
X02130000Y00605000D03*
X02175000Y00605000D03*
X02220000Y00605000D03*
X02265000Y00605000D03*
X02265000Y00555000D03*
X02220000Y00555000D03*
X02175000Y00555000D03*
X02130000Y00555000D03*
X02080000Y00555000D03*
X02035000Y00555000D03*
X01990000Y00555000D03*
X01945000Y00555000D03*
X01900000Y00555000D03*
X01855000Y00555000D03*
X01810000Y00555000D03*
X01765000Y00555000D03*
X01712500Y00555000D03*
X01667500Y00555000D03*
X01622500Y00555000D03*
X01577500Y00555000D03*
X01577500Y00605000D03*
X01622500Y00605000D03*
X01667500Y00605000D03*
X01712500Y00605000D03*
X01765000Y00605000D03*
X01810000Y00605000D03*
X01855000Y00605000D03*
X01900000Y00605000D03*
X01945000Y00605000D03*
X01990000Y00605000D03*
X02035000Y00605000D03*
X02080000Y00605000D03*
X02080000Y00655000D03*
X02035000Y00655000D03*
X01990000Y00655000D03*
X01945000Y00655000D03*
X01900000Y00655000D03*
X01855000Y00655000D03*
X01810000Y00655000D03*
X01765000Y00655000D03*
X01712500Y00655000D03*
X01667500Y00655000D03*
X01622500Y00655000D03*
X01577500Y00655000D03*
X01570000Y00730000D03*
X01370000Y00710000D03*
X01370000Y00750000D03*
X01370000Y00790000D03*
X01330000Y00790000D03*
X01330000Y00750000D03*
X01330000Y00710000D03*
X01330000Y00670000D03*
X01330000Y00630000D03*
X01370000Y00630000D03*
X01370000Y00670000D03*
X01370000Y00590000D03*
X01370000Y00550000D03*
X01330000Y00550000D03*
X01330000Y00590000D03*
X01290000Y00590000D03*
X01290000Y00550000D03*
X01250000Y00550000D03*
X01250000Y00590000D03*
X01210000Y00590000D03*
X01210000Y00550000D03*
X01210000Y00630000D03*
X01210000Y00670000D03*
X01250000Y00670000D03*
X01250000Y00630000D03*
X01290000Y00630000D03*
X01290000Y00670000D03*
X01290000Y00710000D03*
X01290000Y00750000D03*
X01290000Y00790000D03*
X01250000Y00790000D03*
X01250000Y00750000D03*
X01250000Y00710000D03*
X01210000Y00710000D03*
X01210000Y00750000D03*
X01210000Y00790000D03*
X01210000Y00830000D03*
X01210000Y00870000D03*
X01250000Y00870000D03*
X01250000Y00830000D03*
X01290000Y00830000D03*
X01290000Y00870000D03*
X01290000Y00910000D03*
X01290000Y00950000D03*
X01290000Y00990000D03*
X01250000Y00990000D03*
X01250000Y00950000D03*
X01250000Y00910000D03*
X01210000Y00910000D03*
X01210000Y00950000D03*
X01210000Y00990000D03*
X01210000Y01030000D03*
X01210000Y01070000D03*
X01210000Y01110000D03*
X01250000Y01110000D03*
X01250000Y01070000D03*
X01250000Y01030000D03*
X01290000Y01030000D03*
X01290000Y01070000D03*
X01290000Y01110000D03*
X01330000Y01110000D03*
X01330000Y01070000D03*
X01330000Y01030000D03*
X01370000Y01030000D03*
X01370000Y01070000D03*
X01370000Y01110000D03*
X01370000Y00990000D03*
X01370000Y00950000D03*
X01370000Y00910000D03*
X01330000Y00910000D03*
X01330000Y00950000D03*
X01330000Y00990000D03*
X01330000Y00870000D03*
X01330000Y00830000D03*
X01370000Y00830000D03*
X01370000Y00870000D03*
X01210000Y01270000D03*
X01395000Y01545000D03*
X01595000Y01635000D03*
X01580000Y01790000D03*
X01625000Y01805000D03*
X01635000Y01860000D03*
X01555000Y01885000D03*
X01510000Y01835000D03*
X01475000Y01855000D03*
X01405000Y01740000D03*
X01355000Y01735000D03*
X01285000Y01940000D03*
X00815000Y01680000D03*
X00815000Y01630000D03*
X00725000Y01720000D03*
X00645000Y01735000D03*
X00580000Y01665000D03*
X00580000Y01620000D03*
X00765000Y01820000D03*
X00745000Y01135000D03*
X00745000Y01090000D03*
X00695000Y01090000D03*
X00695000Y01135000D03*
X00645000Y01135000D03*
X00645000Y01090000D03*
X00595000Y01090000D03*
X00595000Y01135000D03*
X00545000Y01135000D03*
X00545000Y01090000D03*
X00495000Y01090000D03*
X00495000Y01135000D03*
X00705000Y01025000D03*
X00750000Y01025000D03*
X00750000Y00975000D03*
X00705000Y00975000D03*
X00705000Y00925000D03*
X00750000Y00925000D03*
X00750000Y00875000D03*
X00750000Y00825000D03*
X00705000Y00825000D03*
X00705000Y00875000D03*
X00705000Y00775000D03*
X00750000Y00775000D03*
X00575000Y00880000D03*
X00575000Y00925000D03*
X00525000Y00925000D03*
X00475000Y00925000D03*
X00475000Y00880000D03*
X00525000Y00880000D03*
X00425000Y00880000D03*
X00375000Y00880000D03*
X00375000Y00925000D03*
X00425000Y00925000D03*
X00325000Y00925000D03*
X00325000Y00880000D03*
X00325000Y00695000D03*
X00325000Y00650000D03*
X00275000Y00650000D03*
X00275000Y00695000D03*
X00275000Y00605000D03*
X00325000Y00605000D03*
X00325000Y00560000D03*
X00275000Y00560000D03*
X00375000Y00560000D03*
X00425000Y00560000D03*
X00425000Y00605000D03*
X00375000Y00605000D03*
X00375000Y00650000D03*
X00375000Y00695000D03*
X00425000Y00695000D03*
X00425000Y00650000D03*
X00475000Y00650000D03*
X00475000Y00695000D03*
X00525000Y00695000D03*
X00525000Y00650000D03*
X00525000Y00605000D03*
X00475000Y00605000D03*
X00475000Y00560000D03*
X00525000Y00560000D03*
X00750000Y00220000D03*
X00800000Y00220000D03*
X00800000Y00175000D03*
X00800000Y00130000D03*
X00750000Y00130000D03*
X00750000Y00175000D03*
X00750000Y00085000D03*
X00800000Y00085000D03*
X00850000Y00085000D03*
X00900000Y00085000D03*
X00900000Y00130000D03*
X00900000Y00175000D03*
X00850000Y00175000D03*
X00850000Y00130000D03*
X00850000Y00220000D03*
X00900000Y00220000D03*
X00950000Y00220000D03*
X01000000Y00220000D03*
X01050000Y00220000D03*
X01050000Y00175000D03*
X01050000Y00130000D03*
X01000000Y00130000D03*
X01000000Y00175000D03*
X00950000Y00175000D03*
X00950000Y00130000D03*
X00950000Y00085000D03*
X01000000Y00085000D03*
X01050000Y00085000D03*
X01100000Y00085000D03*
X01150000Y00085000D03*
X01150000Y00130000D03*
X01150000Y00175000D03*
X01100000Y00175000D03*
X01100000Y00130000D03*
X01100000Y00220000D03*
X01100000Y00270000D03*
X01150000Y00270000D03*
X01150000Y00220000D03*
X01200000Y00220000D03*
X01200000Y00270000D03*
X01250000Y00270000D03*
X01250000Y00315000D03*
X01250000Y00360000D03*
X01200000Y00360000D03*
X01200000Y00315000D03*
X01150000Y00315000D03*
X01150000Y00360000D03*
X01100000Y00360000D03*
X01100000Y00315000D03*
X01100000Y00405000D03*
X01150000Y00405000D03*
X01200000Y00405000D03*
X01250000Y00405000D03*
X01300000Y00405000D03*
X01350000Y00405000D03*
X01350000Y00360000D03*
X01350000Y00315000D03*
X01300000Y00315000D03*
X01300000Y00360000D03*
X01300000Y00270000D03*
X01350000Y00270000D03*
X01400000Y00270000D03*
X01450000Y00270000D03*
X01450000Y00315000D03*
X01450000Y00360000D03*
X01400000Y00360000D03*
X01400000Y00315000D03*
X01400000Y00405000D03*
X01450000Y00405000D03*
X01500000Y00405000D03*
X01550000Y00405000D03*
X01550000Y00360000D03*
X01550000Y00315000D03*
X01500000Y00315000D03*
X01500000Y00360000D03*
X01500000Y00270000D03*
X01550000Y00270000D03*
X01200000Y00175000D03*
X01200000Y00130000D03*
X01200000Y00085000D03*
X02130000Y00270000D03*
X02180000Y00270000D03*
X02180000Y00315000D03*
X02180000Y00360000D03*
X02130000Y00360000D03*
X02130000Y00315000D03*
X02130000Y00405000D03*
X02180000Y00405000D03*
X02230000Y00405000D03*
X02280000Y00405000D03*
X02280000Y00360000D03*
X02280000Y00315000D03*
X02230000Y00315000D03*
X02230000Y00360000D03*
X02230000Y00270000D03*
X02280000Y00270000D03*
X02330000Y00270000D03*
X02380000Y00270000D03*
X02380000Y00315000D03*
X02380000Y00360000D03*
X02330000Y00360000D03*
X02330000Y00315000D03*
X02330000Y00405000D03*
X02380000Y00405000D03*
X02430000Y00405000D03*
X02480000Y00405000D03*
X02480000Y00360000D03*
X02480000Y00315000D03*
X02430000Y00315000D03*
X02430000Y00360000D03*
X02430000Y00270000D03*
X02480000Y00270000D03*
X02475000Y00220000D03*
X02525000Y00220000D03*
X02530000Y00270000D03*
X02580000Y00270000D03*
X02575000Y00220000D03*
X02625000Y00220000D03*
X02625000Y00175000D03*
X02625000Y00130000D03*
X02575000Y00130000D03*
X02575000Y00175000D03*
X02525000Y00175000D03*
X02525000Y00130000D03*
X02475000Y00130000D03*
X02475000Y00175000D03*
X02475000Y00085000D03*
X02525000Y00085000D03*
X02575000Y00085000D03*
X02625000Y00085000D03*
X02675000Y00085000D03*
X02725000Y00085000D03*
X02725000Y00130000D03*
X02725000Y00175000D03*
X02675000Y00175000D03*
X02675000Y00130000D03*
X02675000Y00220000D03*
X02725000Y00220000D03*
X02775000Y00220000D03*
X02825000Y00220000D03*
X02825000Y00175000D03*
X02825000Y00130000D03*
X02775000Y00130000D03*
X02775000Y00175000D03*
X02775000Y00085000D03*
X02825000Y00085000D03*
X02875000Y00085000D03*
X02925000Y00085000D03*
X02925000Y00130000D03*
X02925000Y00175000D03*
X02875000Y00175000D03*
X02875000Y00130000D03*
X02875000Y00220000D03*
X02925000Y00220000D03*
X03005000Y00520000D03*
X03005000Y00565000D03*
X03005000Y00610000D03*
X03005000Y00655000D03*
X03055000Y00655000D03*
X03105000Y00655000D03*
X03105000Y00610000D03*
X03105000Y00565000D03*
X03055000Y00565000D03*
X03055000Y00610000D03*
X03055000Y00520000D03*
X03105000Y00520000D03*
X03155000Y00520000D03*
X03205000Y00520000D03*
X03205000Y00565000D03*
X03205000Y00610000D03*
X03155000Y00610000D03*
X03155000Y00565000D03*
X03155000Y00655000D03*
X03205000Y00655000D03*
X03255000Y00655000D03*
X03305000Y00655000D03*
X03305000Y00610000D03*
X03305000Y00565000D03*
X03255000Y00565000D03*
X03255000Y00610000D03*
X03255000Y00520000D03*
X03305000Y00520000D03*
X03355000Y00520000D03*
X03405000Y00520000D03*
X03405000Y00565000D03*
X03405000Y00610000D03*
X03355000Y00610000D03*
X03355000Y00565000D03*
X03355000Y00655000D03*
X03405000Y00655000D03*
X03455000Y00655000D03*
X03455000Y00610000D03*
X03455000Y00565000D03*
X03455000Y00520000D03*
X03425000Y01015000D03*
X03425000Y01060000D03*
X03425000Y01105000D03*
X03425000Y01150000D03*
X03375000Y01150000D03*
X03325000Y01150000D03*
X03325000Y01105000D03*
X03325000Y01060000D03*
X03375000Y01060000D03*
X03375000Y01105000D03*
X03375000Y01015000D03*
X03325000Y01015000D03*
X03275000Y01015000D03*
X03225000Y01015000D03*
X03225000Y01060000D03*
X03225000Y01105000D03*
X03275000Y01105000D03*
X03275000Y01060000D03*
X03275000Y01150000D03*
X03225000Y01150000D03*
X03175000Y01150000D03*
X03125000Y01150000D03*
X03125000Y01105000D03*
X03125000Y01060000D03*
X03175000Y01060000D03*
X03175000Y01105000D03*
X03175000Y01015000D03*
X03125000Y01015000D03*
X03075000Y01015000D03*
X03025000Y01015000D03*
X02975000Y01015000D03*
X02975000Y01060000D03*
X02975000Y01105000D03*
X03025000Y01105000D03*
X03025000Y01060000D03*
X03075000Y01060000D03*
X03075000Y01105000D03*
X03075000Y01150000D03*
X03025000Y01150000D03*
X02975000Y01150000D03*
X02485000Y00950000D03*
X02290000Y00930000D03*
X02530000Y00405000D03*
X02580000Y00405000D03*
X02580000Y00360000D03*
X02580000Y00315000D03*
X02530000Y00315000D03*
X02530000Y00360000D03*
X01715000Y01460000D03*
X01750000Y01540000D03*
X01750000Y01665000D03*
X01820000Y01710000D03*
X01880000Y01685000D03*
X01785000Y01830000D03*
X00970000Y02720000D03*
M02*
