G75*
%MOIN*%
%OFA0B0*%
%FSLAX26Y26*%
%IPPOS*%
%LPD*%
%AMOC8*
5,1,8,0,0,1.08239X$1,22.5*
%
%ADD10C,0.000000*%
%ADD11C,0.004000*%
%ADD12C,0.005000*%
%ADD13C,0.003000*%
%ADD14C,0.002000*%
%ADD15C,0.006000*%
%ADD16C,0.008000*%
%ADD17R,0.005906X0.011811*%
%ADD18R,0.011811X0.011811*%
%ADD19R,0.188976X0.157480*%
%ADD20C,0.007874*%
%ADD21R,0.246063X0.088583*%
%ADD22R,0.137795X0.044291*%
%ADD23R,0.037402X0.059055*%
%ADD24R,0.059055X0.037402*%
D10*
X00175000Y00000000D02*
X03550000Y00000000D01*
X03550000Y02850000D01*
X00175000Y02850000D01*
X00175000Y00000000D01*
X00250000Y02625000D02*
X00250015Y02626227D01*
X00250060Y02627453D01*
X00250135Y02628678D01*
X00250241Y02629901D01*
X00250376Y02631121D01*
X00250541Y02632337D01*
X00250736Y02633548D01*
X00250961Y02634755D01*
X00251215Y02635955D01*
X00251498Y02637149D01*
X00251811Y02638336D01*
X00252153Y02639514D01*
X00252524Y02640684D01*
X00252923Y02641844D01*
X00253350Y02642995D01*
X00253806Y02644134D01*
X00254290Y02645262D01*
X00254801Y02646378D01*
X00255339Y02647481D01*
X00255904Y02648570D01*
X00256496Y02649645D01*
X00257114Y02650705D01*
X00257757Y02651750D01*
X00258427Y02652779D01*
X00259121Y02653790D01*
X00259840Y02654785D01*
X00260583Y02655762D01*
X00261349Y02656720D01*
X00262140Y02657659D01*
X00262952Y02658578D01*
X00263788Y02659477D01*
X00264645Y02660355D01*
X00265523Y02661212D01*
X00266422Y02662048D01*
X00267341Y02662860D01*
X00268280Y02663651D01*
X00269238Y02664417D01*
X00270215Y02665160D01*
X00271210Y02665879D01*
X00272221Y02666573D01*
X00273250Y02667243D01*
X00274295Y02667886D01*
X00275355Y02668504D01*
X00276430Y02669096D01*
X00277519Y02669661D01*
X00278622Y02670199D01*
X00279738Y02670710D01*
X00280866Y02671194D01*
X00282005Y02671650D01*
X00283156Y02672077D01*
X00284316Y02672476D01*
X00285486Y02672847D01*
X00286664Y02673189D01*
X00287851Y02673502D01*
X00289045Y02673785D01*
X00290245Y02674039D01*
X00291452Y02674264D01*
X00292663Y02674459D01*
X00293879Y02674624D01*
X00295099Y02674759D01*
X00296322Y02674865D01*
X00297547Y02674940D01*
X00298773Y02674985D01*
X00300000Y02675000D01*
X00301227Y02674985D01*
X00302453Y02674940D01*
X00303678Y02674865D01*
X00304901Y02674759D01*
X00306121Y02674624D01*
X00307337Y02674459D01*
X00308548Y02674264D01*
X00309755Y02674039D01*
X00310955Y02673785D01*
X00312149Y02673502D01*
X00313336Y02673189D01*
X00314514Y02672847D01*
X00315684Y02672476D01*
X00316844Y02672077D01*
X00317995Y02671650D01*
X00319134Y02671194D01*
X00320262Y02670710D01*
X00321378Y02670199D01*
X00322481Y02669661D01*
X00323570Y02669096D01*
X00324645Y02668504D01*
X00325705Y02667886D01*
X00326750Y02667243D01*
X00327779Y02666573D01*
X00328790Y02665879D01*
X00329785Y02665160D01*
X00330762Y02664417D01*
X00331720Y02663651D01*
X00332659Y02662860D01*
X00333578Y02662048D01*
X00334477Y02661212D01*
X00335355Y02660355D01*
X00336212Y02659477D01*
X00337048Y02658578D01*
X00337860Y02657659D01*
X00338651Y02656720D01*
X00339417Y02655762D01*
X00340160Y02654785D01*
X00340879Y02653790D01*
X00341573Y02652779D01*
X00342243Y02651750D01*
X00342886Y02650705D01*
X00343504Y02649645D01*
X00344096Y02648570D01*
X00344661Y02647481D01*
X00345199Y02646378D01*
X00345710Y02645262D01*
X00346194Y02644134D01*
X00346650Y02642995D01*
X00347077Y02641844D01*
X00347476Y02640684D01*
X00347847Y02639514D01*
X00348189Y02638336D01*
X00348502Y02637149D01*
X00348785Y02635955D01*
X00349039Y02634755D01*
X00349264Y02633548D01*
X00349459Y02632337D01*
X00349624Y02631121D01*
X00349759Y02629901D01*
X00349865Y02628678D01*
X00349940Y02627453D01*
X00349985Y02626227D01*
X00350000Y02625000D01*
X00349985Y02623773D01*
X00349940Y02622547D01*
X00349865Y02621322D01*
X00349759Y02620099D01*
X00349624Y02618879D01*
X00349459Y02617663D01*
X00349264Y02616452D01*
X00349039Y02615245D01*
X00348785Y02614045D01*
X00348502Y02612851D01*
X00348189Y02611664D01*
X00347847Y02610486D01*
X00347476Y02609316D01*
X00347077Y02608156D01*
X00346650Y02607005D01*
X00346194Y02605866D01*
X00345710Y02604738D01*
X00345199Y02603622D01*
X00344661Y02602519D01*
X00344096Y02601430D01*
X00343504Y02600355D01*
X00342886Y02599295D01*
X00342243Y02598250D01*
X00341573Y02597221D01*
X00340879Y02596210D01*
X00340160Y02595215D01*
X00339417Y02594238D01*
X00338651Y02593280D01*
X00337860Y02592341D01*
X00337048Y02591422D01*
X00336212Y02590523D01*
X00335355Y02589645D01*
X00334477Y02588788D01*
X00333578Y02587952D01*
X00332659Y02587140D01*
X00331720Y02586349D01*
X00330762Y02585583D01*
X00329785Y02584840D01*
X00328790Y02584121D01*
X00327779Y02583427D01*
X00326750Y02582757D01*
X00325705Y02582114D01*
X00324645Y02581496D01*
X00323570Y02580904D01*
X00322481Y02580339D01*
X00321378Y02579801D01*
X00320262Y02579290D01*
X00319134Y02578806D01*
X00317995Y02578350D01*
X00316844Y02577923D01*
X00315684Y02577524D01*
X00314514Y02577153D01*
X00313336Y02576811D01*
X00312149Y02576498D01*
X00310955Y02576215D01*
X00309755Y02575961D01*
X00308548Y02575736D01*
X00307337Y02575541D01*
X00306121Y02575376D01*
X00304901Y02575241D01*
X00303678Y02575135D01*
X00302453Y02575060D01*
X00301227Y02575015D01*
X00300000Y02575000D01*
X00298773Y02575015D01*
X00297547Y02575060D01*
X00296322Y02575135D01*
X00295099Y02575241D01*
X00293879Y02575376D01*
X00292663Y02575541D01*
X00291452Y02575736D01*
X00290245Y02575961D01*
X00289045Y02576215D01*
X00287851Y02576498D01*
X00286664Y02576811D01*
X00285486Y02577153D01*
X00284316Y02577524D01*
X00283156Y02577923D01*
X00282005Y02578350D01*
X00280866Y02578806D01*
X00279738Y02579290D01*
X00278622Y02579801D01*
X00277519Y02580339D01*
X00276430Y02580904D01*
X00275355Y02581496D01*
X00274295Y02582114D01*
X00273250Y02582757D01*
X00272221Y02583427D01*
X00271210Y02584121D01*
X00270215Y02584840D01*
X00269238Y02585583D01*
X00268280Y02586349D01*
X00267341Y02587140D01*
X00266422Y02587952D01*
X00265523Y02588788D01*
X00264645Y02589645D01*
X00263788Y02590523D01*
X00262952Y02591422D01*
X00262140Y02592341D01*
X00261349Y02593280D01*
X00260583Y02594238D01*
X00259840Y02595215D01*
X00259121Y02596210D01*
X00258427Y02597221D01*
X00257757Y02598250D01*
X00257114Y02599295D01*
X00256496Y02600355D01*
X00255904Y02601430D01*
X00255339Y02602519D01*
X00254801Y02603622D01*
X00254290Y02604738D01*
X00253806Y02605866D01*
X00253350Y02607005D01*
X00252923Y02608156D01*
X00252524Y02609316D01*
X00252153Y02610486D01*
X00251811Y02611664D01*
X00251498Y02612851D01*
X00251215Y02614045D01*
X00250961Y02615245D01*
X00250736Y02616452D01*
X00250541Y02617663D01*
X00250376Y02618879D01*
X00250241Y02620099D01*
X00250135Y02621322D01*
X00250060Y02622547D01*
X00250015Y02623773D01*
X00250000Y02625000D01*
X03325000Y01375000D02*
X03325015Y01376227D01*
X03325060Y01377453D01*
X03325135Y01378678D01*
X03325241Y01379901D01*
X03325376Y01381121D01*
X03325541Y01382337D01*
X03325736Y01383548D01*
X03325961Y01384755D01*
X03326215Y01385955D01*
X03326498Y01387149D01*
X03326811Y01388336D01*
X03327153Y01389514D01*
X03327524Y01390684D01*
X03327923Y01391844D01*
X03328350Y01392995D01*
X03328806Y01394134D01*
X03329290Y01395262D01*
X03329801Y01396378D01*
X03330339Y01397481D01*
X03330904Y01398570D01*
X03331496Y01399645D01*
X03332114Y01400705D01*
X03332757Y01401750D01*
X03333427Y01402779D01*
X03334121Y01403790D01*
X03334840Y01404785D01*
X03335583Y01405762D01*
X03336349Y01406720D01*
X03337140Y01407659D01*
X03337952Y01408578D01*
X03338788Y01409477D01*
X03339645Y01410355D01*
X03340523Y01411212D01*
X03341422Y01412048D01*
X03342341Y01412860D01*
X03343280Y01413651D01*
X03344238Y01414417D01*
X03345215Y01415160D01*
X03346210Y01415879D01*
X03347221Y01416573D01*
X03348250Y01417243D01*
X03349295Y01417886D01*
X03350355Y01418504D01*
X03351430Y01419096D01*
X03352519Y01419661D01*
X03353622Y01420199D01*
X03354738Y01420710D01*
X03355866Y01421194D01*
X03357005Y01421650D01*
X03358156Y01422077D01*
X03359316Y01422476D01*
X03360486Y01422847D01*
X03361664Y01423189D01*
X03362851Y01423502D01*
X03364045Y01423785D01*
X03365245Y01424039D01*
X03366452Y01424264D01*
X03367663Y01424459D01*
X03368879Y01424624D01*
X03370099Y01424759D01*
X03371322Y01424865D01*
X03372547Y01424940D01*
X03373773Y01424985D01*
X03375000Y01425000D01*
X03376227Y01424985D01*
X03377453Y01424940D01*
X03378678Y01424865D01*
X03379901Y01424759D01*
X03381121Y01424624D01*
X03382337Y01424459D01*
X03383548Y01424264D01*
X03384755Y01424039D01*
X03385955Y01423785D01*
X03387149Y01423502D01*
X03388336Y01423189D01*
X03389514Y01422847D01*
X03390684Y01422476D01*
X03391844Y01422077D01*
X03392995Y01421650D01*
X03394134Y01421194D01*
X03395262Y01420710D01*
X03396378Y01420199D01*
X03397481Y01419661D01*
X03398570Y01419096D01*
X03399645Y01418504D01*
X03400705Y01417886D01*
X03401750Y01417243D01*
X03402779Y01416573D01*
X03403790Y01415879D01*
X03404785Y01415160D01*
X03405762Y01414417D01*
X03406720Y01413651D01*
X03407659Y01412860D01*
X03408578Y01412048D01*
X03409477Y01411212D01*
X03410355Y01410355D01*
X03411212Y01409477D01*
X03412048Y01408578D01*
X03412860Y01407659D01*
X03413651Y01406720D01*
X03414417Y01405762D01*
X03415160Y01404785D01*
X03415879Y01403790D01*
X03416573Y01402779D01*
X03417243Y01401750D01*
X03417886Y01400705D01*
X03418504Y01399645D01*
X03419096Y01398570D01*
X03419661Y01397481D01*
X03420199Y01396378D01*
X03420710Y01395262D01*
X03421194Y01394134D01*
X03421650Y01392995D01*
X03422077Y01391844D01*
X03422476Y01390684D01*
X03422847Y01389514D01*
X03423189Y01388336D01*
X03423502Y01387149D01*
X03423785Y01385955D01*
X03424039Y01384755D01*
X03424264Y01383548D01*
X03424459Y01382337D01*
X03424624Y01381121D01*
X03424759Y01379901D01*
X03424865Y01378678D01*
X03424940Y01377453D01*
X03424985Y01376227D01*
X03425000Y01375000D01*
X03424985Y01373773D01*
X03424940Y01372547D01*
X03424865Y01371322D01*
X03424759Y01370099D01*
X03424624Y01368879D01*
X03424459Y01367663D01*
X03424264Y01366452D01*
X03424039Y01365245D01*
X03423785Y01364045D01*
X03423502Y01362851D01*
X03423189Y01361664D01*
X03422847Y01360486D01*
X03422476Y01359316D01*
X03422077Y01358156D01*
X03421650Y01357005D01*
X03421194Y01355866D01*
X03420710Y01354738D01*
X03420199Y01353622D01*
X03419661Y01352519D01*
X03419096Y01351430D01*
X03418504Y01350355D01*
X03417886Y01349295D01*
X03417243Y01348250D01*
X03416573Y01347221D01*
X03415879Y01346210D01*
X03415160Y01345215D01*
X03414417Y01344238D01*
X03413651Y01343280D01*
X03412860Y01342341D01*
X03412048Y01341422D01*
X03411212Y01340523D01*
X03410355Y01339645D01*
X03409477Y01338788D01*
X03408578Y01337952D01*
X03407659Y01337140D01*
X03406720Y01336349D01*
X03405762Y01335583D01*
X03404785Y01334840D01*
X03403790Y01334121D01*
X03402779Y01333427D01*
X03401750Y01332757D01*
X03400705Y01332114D01*
X03399645Y01331496D01*
X03398570Y01330904D01*
X03397481Y01330339D01*
X03396378Y01329801D01*
X03395262Y01329290D01*
X03394134Y01328806D01*
X03392995Y01328350D01*
X03391844Y01327923D01*
X03390684Y01327524D01*
X03389514Y01327153D01*
X03388336Y01326811D01*
X03387149Y01326498D01*
X03385955Y01326215D01*
X03384755Y01325961D01*
X03383548Y01325736D01*
X03382337Y01325541D01*
X03381121Y01325376D01*
X03379901Y01325241D01*
X03378678Y01325135D01*
X03377453Y01325060D01*
X03376227Y01325015D01*
X03375000Y01325000D01*
X03373773Y01325015D01*
X03372547Y01325060D01*
X03371322Y01325135D01*
X03370099Y01325241D01*
X03368879Y01325376D01*
X03367663Y01325541D01*
X03366452Y01325736D01*
X03365245Y01325961D01*
X03364045Y01326215D01*
X03362851Y01326498D01*
X03361664Y01326811D01*
X03360486Y01327153D01*
X03359316Y01327524D01*
X03358156Y01327923D01*
X03357005Y01328350D01*
X03355866Y01328806D01*
X03354738Y01329290D01*
X03353622Y01329801D01*
X03352519Y01330339D01*
X03351430Y01330904D01*
X03350355Y01331496D01*
X03349295Y01332114D01*
X03348250Y01332757D01*
X03347221Y01333427D01*
X03346210Y01334121D01*
X03345215Y01334840D01*
X03344238Y01335583D01*
X03343280Y01336349D01*
X03342341Y01337140D01*
X03341422Y01337952D01*
X03340523Y01338788D01*
X03339645Y01339645D01*
X03338788Y01340523D01*
X03337952Y01341422D01*
X03337140Y01342341D01*
X03336349Y01343280D01*
X03335583Y01344238D01*
X03334840Y01345215D01*
X03334121Y01346210D01*
X03333427Y01347221D01*
X03332757Y01348250D01*
X03332114Y01349295D01*
X03331496Y01350355D01*
X03330904Y01351430D01*
X03330339Y01352519D01*
X03329801Y01353622D01*
X03329290Y01354738D01*
X03328806Y01355866D01*
X03328350Y01357005D01*
X03327923Y01358156D01*
X03327524Y01359316D01*
X03327153Y01360486D01*
X03326811Y01361664D01*
X03326498Y01362851D01*
X03326215Y01364045D01*
X03325961Y01365245D01*
X03325736Y01366452D01*
X03325541Y01367663D01*
X03325376Y01368879D01*
X03325241Y01370099D01*
X03325135Y01371322D01*
X03325060Y01372547D01*
X03325015Y01373773D01*
X03325000Y01375000D01*
D11*
X03261653Y01562000D02*
X03230961Y01562000D01*
X03246307Y01562000D02*
X03246307Y01608039D01*
X03230961Y01592693D01*
X03215614Y01600366D02*
X03215614Y01585020D01*
X03207941Y01577346D01*
X03184921Y01577346D01*
X03184921Y01562000D02*
X03184921Y01608039D01*
X03207941Y01608039D01*
X03215614Y01600366D01*
X03200268Y01577346D02*
X03215614Y01562000D01*
X03346961Y01852000D02*
X03346961Y01875020D01*
X03354634Y01882693D01*
X03369980Y01882693D01*
X03377654Y01875020D01*
X03377654Y01852000D01*
X03393000Y01852000D02*
X03346961Y01852000D01*
X03377654Y01867346D02*
X03393000Y01882693D01*
X03396961Y01875020D02*
X03404634Y01882693D01*
X03419980Y01882693D01*
X03427654Y01875020D01*
X03427654Y01852000D01*
X03443000Y01852000D02*
X03396961Y01852000D01*
X03396961Y01875020D01*
X03404634Y01898039D02*
X03396961Y01905712D01*
X03396961Y01921059D01*
X03404634Y01928732D01*
X03412307Y01928732D01*
X03419980Y01921059D01*
X03427654Y01928732D01*
X03435327Y01928732D01*
X03443000Y01921059D01*
X03443000Y01905712D01*
X03435327Y01898039D01*
X03443961Y01897882D02*
X03490000Y01897882D01*
X03490000Y01928575D01*
X03496961Y01929575D02*
X03496961Y01898882D01*
X03543000Y01898882D01*
X03543000Y01929575D01*
X03543000Y01944921D02*
X03543000Y01967941D01*
X03535327Y01975614D01*
X03504634Y01975614D01*
X03496961Y01967941D01*
X03496961Y01944921D01*
X03543000Y01944921D01*
X03519980Y01914228D02*
X03519980Y01898882D01*
X03543000Y01883535D02*
X03543000Y01852843D01*
X03496961Y01852843D01*
X03490000Y01851843D02*
X03490000Y01882535D01*
X03466980Y01897882D02*
X03466980Y01913228D01*
X03443961Y01928575D02*
X03443961Y01897882D01*
X03443000Y01882693D02*
X03427654Y01867346D01*
X03443961Y01851843D02*
X03490000Y01851843D01*
X03419980Y01913386D02*
X03419980Y01921059D01*
X03393000Y01921059D02*
X03393000Y01905712D01*
X03385327Y01898039D01*
X03369980Y01898039D02*
X03362307Y01913386D01*
X03362307Y01921059D01*
X03369980Y01928732D01*
X03385327Y01928732D01*
X03393000Y01921059D01*
X03396961Y01944078D02*
X03396961Y01974771D01*
X03404634Y01974771D01*
X03435327Y01944078D01*
X03443000Y01944078D01*
X03443961Y01943921D02*
X03443961Y01966941D01*
X03451634Y01974614D01*
X03482327Y01974614D01*
X03490000Y01966941D01*
X03490000Y01943921D01*
X03443961Y01943921D01*
X03393000Y01951752D02*
X03393000Y01967098D01*
X03385327Y01974771D01*
X03354634Y01974771D01*
X03346961Y01967098D01*
X03346961Y01951752D01*
X03354634Y01944078D01*
X03362307Y01944078D01*
X03369980Y01951752D01*
X03369980Y01974771D01*
X03393000Y01951752D02*
X03385327Y01944078D01*
X03369980Y01898039D02*
X03346961Y01898039D01*
X03346961Y01928732D01*
X03443961Y01989960D02*
X03443961Y02020653D01*
X03451634Y02020653D01*
X03482327Y01989960D01*
X03490000Y01989960D01*
X03496961Y01998633D02*
X03496961Y02013980D01*
X03504634Y02021653D01*
X03512307Y02021653D01*
X03519980Y02013980D01*
X03519980Y01998633D01*
X03512307Y01990960D01*
X03504634Y01990960D01*
X03496961Y01998633D01*
X03519980Y01998633D02*
X03527654Y01990960D01*
X03535327Y01990960D01*
X03543000Y01998633D01*
X03543000Y02013980D01*
X03535327Y02021653D01*
X03527654Y02021653D01*
X03519980Y02013980D01*
X03063000Y02108882D02*
X03016961Y02108882D01*
X03016961Y02131902D01*
X03024634Y02139575D01*
X03039980Y02139575D01*
X03047654Y02131902D01*
X03047654Y02108882D01*
X03047654Y02124228D02*
X03063000Y02139575D01*
X03055327Y02154921D02*
X03063000Y02162594D01*
X03063000Y02177941D01*
X03055327Y02185614D01*
X03039980Y02185614D01*
X03032307Y02177941D01*
X03032307Y02170268D01*
X03039980Y02154921D01*
X03016961Y02154921D01*
X03016961Y02185614D01*
X03024634Y02200961D02*
X03032307Y02200961D01*
X03039980Y02208634D01*
X03039980Y02223980D01*
X03047654Y02231653D01*
X03055327Y02231653D01*
X03063000Y02223980D01*
X03063000Y02208634D01*
X03055327Y02200961D01*
X03047654Y02200961D01*
X03039980Y02208634D01*
X03039980Y02223980D02*
X03032307Y02231653D01*
X03024634Y02231653D01*
X03016961Y02223980D01*
X03016961Y02208634D01*
X03024634Y02200961D01*
X02953000Y02200961D02*
X02945327Y02200961D01*
X02914634Y02231653D01*
X02906961Y02231653D01*
X02906961Y02200961D01*
X02906961Y02185614D02*
X02906961Y02154921D01*
X02929980Y02154921D01*
X02922307Y02170268D01*
X02922307Y02177941D01*
X02929980Y02185614D01*
X02945327Y02185614D01*
X02953000Y02177941D01*
X02953000Y02162594D01*
X02945327Y02154921D01*
X02953000Y02139575D02*
X02937654Y02124228D01*
X02937654Y02131902D02*
X02937654Y02108882D01*
X02953000Y02108882D02*
X02906961Y02108882D01*
X02906961Y02131902D01*
X02914634Y02139575D01*
X02929980Y02139575D01*
X02937654Y02131902D01*
X02945327Y02467000D02*
X02914634Y02467000D01*
X02906961Y02474673D01*
X02906961Y02490020D01*
X02914634Y02497693D01*
X02903000Y02490020D02*
X02895327Y02497693D01*
X02903000Y02490020D02*
X02903000Y02474673D01*
X02895327Y02467000D01*
X02864634Y02467000D01*
X02856961Y02474673D01*
X02856961Y02490020D01*
X02864634Y02497693D01*
X02864634Y02513039D02*
X02856961Y02520712D01*
X02856961Y02536059D01*
X02864634Y02543732D01*
X02872307Y02543732D01*
X02903000Y02513039D01*
X02903000Y02543732D01*
X02906961Y02536059D02*
X02906961Y02520712D01*
X02914634Y02513039D01*
X02906961Y02536059D02*
X02914634Y02543732D01*
X02922307Y02543732D01*
X02953000Y02513039D01*
X02953000Y02543732D01*
X02945327Y02559078D02*
X02953000Y02566752D01*
X02953000Y02582098D01*
X02945327Y02589771D01*
X02914634Y02589771D01*
X02906961Y02582098D01*
X02906961Y02566752D01*
X02914634Y02559078D01*
X02922307Y02559078D01*
X02929980Y02566752D01*
X02929980Y02589771D01*
X02903000Y02582098D02*
X02903000Y02566752D01*
X02895327Y02559078D01*
X02887654Y02559078D01*
X02879980Y02566752D01*
X02879980Y02582098D01*
X02887654Y02589771D01*
X02895327Y02589771D01*
X02903000Y02582098D01*
X02879980Y02582098D02*
X02872307Y02589771D01*
X02864634Y02589771D01*
X02856961Y02582098D01*
X02856961Y02566752D01*
X02864634Y02559078D01*
X02872307Y02559078D01*
X02879980Y02566752D01*
X02945327Y02497693D02*
X02953000Y02490020D01*
X02953000Y02474673D01*
X02945327Y02467000D01*
X02301653Y02290366D02*
X02301653Y02259673D01*
X02293980Y02252000D01*
X02278634Y02252000D01*
X02270961Y02259673D01*
X02301653Y02290366D01*
X02293980Y02298039D01*
X02278634Y02298039D01*
X02270961Y02290366D01*
X02270961Y02259673D01*
X02255614Y02259673D02*
X02247941Y02252000D01*
X02232594Y02252000D01*
X02224921Y02259673D01*
X02209575Y02252000D02*
X02194228Y02267346D01*
X02201902Y02267346D02*
X02178882Y02267346D01*
X02178882Y02252000D02*
X02178882Y02298039D01*
X02201902Y02298039D01*
X02209575Y02290366D01*
X02209575Y02275020D01*
X02201902Y02267346D01*
X02224921Y02290366D02*
X02232594Y02298039D01*
X02247941Y02298039D01*
X02255614Y02290366D01*
X02255614Y02282693D01*
X02247941Y02275020D01*
X02255614Y02267346D01*
X02255614Y02259673D01*
X02247941Y02275020D02*
X02240268Y02275020D01*
X02106653Y02180366D02*
X02098980Y02188039D01*
X02083634Y02188039D01*
X02075961Y02180366D01*
X02106653Y02180366D02*
X02106653Y02172693D01*
X02075961Y02142000D01*
X02106653Y02142000D01*
X02060614Y02142000D02*
X02029921Y02142000D01*
X02045268Y02142000D02*
X02045268Y02188039D01*
X02029921Y02172693D01*
X02014575Y02180366D02*
X02006902Y02188039D01*
X01991555Y02188039D01*
X01983882Y02180366D01*
X01983882Y02149673D01*
X01991555Y02142000D01*
X02006902Y02142000D01*
X02014575Y02149673D01*
X01956653Y02149673D02*
X01948980Y02142000D01*
X01933634Y02142000D01*
X01925961Y02149673D01*
X01956653Y02180366D01*
X01956653Y02149673D01*
X01925961Y02149673D02*
X01925961Y02180366D01*
X01933634Y02188039D01*
X01948980Y02188039D01*
X01956653Y02180366D01*
X01910614Y02142000D02*
X01879921Y02142000D01*
X01895268Y02142000D02*
X01895268Y02188039D01*
X01879921Y02172693D01*
X01864575Y02180366D02*
X01856902Y02188039D01*
X01841555Y02188039D01*
X01833882Y02180366D01*
X01833882Y02149673D01*
X01841555Y02142000D01*
X01856902Y02142000D01*
X01864575Y02149673D01*
X01911555Y02088039D02*
X01903882Y02080366D01*
X01903882Y02049673D01*
X01911555Y02042000D01*
X01926902Y02042000D01*
X01934575Y02049673D01*
X01949921Y02042000D02*
X01980614Y02042000D01*
X01995961Y02042000D02*
X02026653Y02042000D01*
X02011307Y02042000D02*
X02011307Y02088039D01*
X01995961Y02072693D01*
X01965268Y02088039D02*
X01965268Y02042000D01*
X01949921Y02072693D02*
X01965268Y02088039D01*
X01934575Y02080366D02*
X01926902Y02088039D01*
X01911555Y02088039D01*
X01786653Y02149673D02*
X01786653Y02180366D01*
X01778980Y02188039D01*
X01763634Y02188039D01*
X01755961Y02180366D01*
X01755961Y02172693D01*
X01763634Y02165020D01*
X01786653Y02165020D01*
X01786653Y02149673D02*
X01778980Y02142000D01*
X01763634Y02142000D01*
X01755961Y02149673D01*
X01740614Y02149673D02*
X01732941Y02142000D01*
X01717594Y02142000D01*
X01709921Y02149673D01*
X01709921Y02180366D01*
X01717594Y02188039D01*
X01732941Y02188039D01*
X01740614Y02180366D01*
X01683980Y02098039D02*
X01691653Y02090366D01*
X01691653Y02082693D01*
X01683980Y02075020D01*
X01691653Y02067346D01*
X01691653Y02059673D01*
X01683980Y02052000D01*
X01668634Y02052000D01*
X01660961Y02059673D01*
X01645614Y02052000D02*
X01614921Y02052000D01*
X01630268Y02052000D02*
X01630268Y02098039D01*
X01614921Y02082693D01*
X01599575Y02090366D02*
X01591902Y02098039D01*
X01576555Y02098039D01*
X01568882Y02090366D01*
X01568882Y02059673D01*
X01576555Y02052000D01*
X01591902Y02052000D01*
X01599575Y02059673D01*
X01660961Y02090366D02*
X01668634Y02098039D01*
X01683980Y02098039D01*
X01683980Y02075020D02*
X01676307Y02075020D01*
X01628980Y02142000D02*
X01613634Y02142000D01*
X01605961Y02149673D01*
X01605961Y02157346D01*
X01613634Y02165020D01*
X01628980Y02165020D01*
X01636653Y02157346D01*
X01636653Y02149673D01*
X01628980Y02142000D01*
X01628980Y02165020D02*
X01636653Y02172693D01*
X01636653Y02180366D01*
X01628980Y02188039D01*
X01613634Y02188039D01*
X01605961Y02180366D01*
X01605961Y02172693D01*
X01613634Y02165020D01*
X01590614Y02180366D02*
X01582941Y02188039D01*
X01567594Y02188039D01*
X01559921Y02180366D01*
X01559921Y02149673D01*
X01567594Y02142000D01*
X01582941Y02142000D01*
X01590614Y02149673D01*
X01466653Y02180366D02*
X01435961Y02149673D01*
X01435961Y02142000D01*
X01420614Y02149673D02*
X01412941Y02142000D01*
X01397594Y02142000D01*
X01389921Y02149673D01*
X01389921Y02180366D01*
X01397594Y02188039D01*
X01412941Y02188039D01*
X01420614Y02180366D01*
X01435961Y02188039D02*
X01466653Y02188039D01*
X01466653Y02180366D01*
X01416653Y02088039D02*
X01401307Y02080366D01*
X01385961Y02065020D01*
X01408980Y02065020D01*
X01416653Y02057346D01*
X01416653Y02049673D01*
X01408980Y02042000D01*
X01393634Y02042000D01*
X01385961Y02049673D01*
X01385961Y02065020D01*
X01382098Y02057693D02*
X01389771Y02050020D01*
X01389771Y02034673D01*
X01382098Y02027000D01*
X01366752Y02027000D01*
X01359078Y02034673D01*
X01362941Y02042000D02*
X01347594Y02042000D01*
X01339921Y02049673D01*
X01339921Y02080366D01*
X01347594Y02088039D01*
X01362941Y02088039D01*
X01370614Y02080366D01*
X01359078Y02073039D02*
X01389771Y02073039D01*
X01382098Y02057693D02*
X01374425Y02057693D01*
X01359078Y02050020D01*
X01359078Y02073039D01*
X01343732Y02065366D02*
X01336059Y02073039D01*
X01320712Y02073039D01*
X01313039Y02065366D01*
X01297693Y02065366D02*
X01297693Y02050020D01*
X01290020Y02042346D01*
X01267000Y02042346D01*
X01270961Y02028039D02*
X01270961Y02005020D01*
X01286307Y02012693D01*
X01293980Y02012693D01*
X01301653Y02005020D01*
X01301653Y01989673D01*
X01293980Y01982000D01*
X01278634Y01982000D01*
X01270961Y01989673D01*
X01255614Y02005020D02*
X01224921Y02005020D01*
X01247941Y02028039D01*
X01247941Y01982000D01*
X01209575Y01989673D02*
X01201902Y01982000D01*
X01186555Y01982000D01*
X01178882Y01989673D01*
X01178882Y02020366D01*
X01186555Y02028039D01*
X01201902Y02028039D01*
X01209575Y02020366D01*
X01208980Y02042000D02*
X01208980Y02088039D01*
X01185961Y02065020D01*
X01216653Y02065020D01*
X01170614Y02080366D02*
X01162941Y02088039D01*
X01147594Y02088039D01*
X01139921Y02080366D01*
X01139921Y02049673D01*
X01147594Y02042000D01*
X01162941Y02042000D01*
X01170614Y02049673D01*
X01267000Y02027000D02*
X01267000Y02073039D01*
X01290020Y02073039D01*
X01297693Y02065366D01*
X01282346Y02042346D02*
X01297693Y02027000D01*
X01301653Y02028039D02*
X01270961Y02028039D01*
X01313039Y02027000D02*
X01343732Y02057693D01*
X01343732Y02065366D01*
X01362941Y02042000D02*
X01370614Y02049673D01*
X01343732Y02027000D02*
X01313039Y02027000D01*
X01278980Y02142000D02*
X01263634Y02142000D01*
X01255961Y02149673D01*
X01255961Y02165020D02*
X01271307Y02172693D01*
X01278980Y02172693D01*
X01286653Y02165020D01*
X01286653Y02149673D01*
X01278980Y02142000D01*
X01255961Y02165020D02*
X01255961Y02188039D01*
X01286653Y02188039D01*
X01240614Y02180366D02*
X01232941Y02188039D01*
X01217594Y02188039D01*
X01209921Y02180366D01*
X01209921Y02149673D01*
X01217594Y02142000D01*
X01232941Y02142000D01*
X01240614Y02149673D01*
X01116653Y02149673D02*
X01108980Y02142000D01*
X01093634Y02142000D01*
X01085961Y02149673D01*
X01070614Y02149673D02*
X01062941Y02142000D01*
X01047594Y02142000D01*
X01039921Y02149673D01*
X01039921Y02180366D01*
X01047594Y02188039D01*
X01062941Y02188039D01*
X01070614Y02180366D01*
X01085961Y02180366D02*
X01093634Y02188039D01*
X01108980Y02188039D01*
X01116653Y02180366D01*
X01116653Y02172693D01*
X01108980Y02165020D01*
X01116653Y02157346D01*
X01116653Y02149673D01*
X01108980Y02165020D02*
X01101307Y02165020D01*
X00968732Y02282000D02*
X00938039Y02282000D01*
X00968732Y02312693D01*
X00968732Y02320366D01*
X00961059Y02328039D01*
X00945712Y02328039D01*
X00938039Y02320366D01*
X00922693Y02320366D02*
X00915020Y02328039D01*
X00899673Y02328039D01*
X00892000Y02320366D01*
X00892000Y02289673D01*
X00899673Y02282000D01*
X00915020Y02282000D01*
X00922693Y02289673D01*
X00563039Y02288000D02*
X00563039Y02264980D01*
X00555366Y02257307D01*
X00547693Y02257307D01*
X00540020Y02264980D01*
X00540020Y02288000D01*
X00563039Y02288000D02*
X00517000Y02288000D01*
X00517000Y02264980D01*
X00524673Y02257307D01*
X00532346Y02257307D01*
X00540020Y02264980D01*
X00555366Y02241961D02*
X00524673Y02241961D01*
X00517000Y02234288D01*
X00517000Y02218941D01*
X00524673Y02211268D01*
X00555366Y02211268D01*
X00563039Y02218941D01*
X00563039Y02234288D01*
X00555366Y02241961D01*
X00555366Y02195922D02*
X00524673Y02195922D01*
X00517000Y02188248D01*
X00517000Y02172902D01*
X00524673Y02165229D01*
X00555366Y02165229D01*
X00563039Y02172902D01*
X00563039Y02188248D01*
X00555366Y02195922D01*
X00563039Y02149882D02*
X00563039Y02119189D01*
X00563039Y02134536D02*
X00517000Y02134536D01*
X00388000Y02522000D02*
X00341961Y02522000D01*
X00341961Y02545020D01*
X00349634Y02552693D01*
X00357307Y02552693D01*
X00364980Y02545020D01*
X00364980Y02522000D01*
X00364980Y02545020D02*
X00372654Y02552693D01*
X00380327Y02552693D01*
X00388000Y02545020D01*
X00388000Y02522000D01*
X00380327Y02568039D02*
X00349634Y02568039D01*
X00341961Y02575712D01*
X00341961Y02591059D01*
X00349634Y02598732D01*
X00380327Y02598732D01*
X00388000Y02591059D01*
X00388000Y02575712D01*
X00380327Y02568039D01*
X00380327Y02614078D02*
X00349634Y02614078D01*
X00341961Y02621752D01*
X00341961Y02637098D01*
X00349634Y02644771D01*
X00380327Y02644771D01*
X00388000Y02637098D01*
X00388000Y02621752D01*
X00380327Y02614078D01*
X00341961Y02660118D02*
X00341961Y02690811D01*
X00341961Y02675464D02*
X00388000Y02675464D01*
X01626961Y02681902D02*
X01626961Y02666555D01*
X01634634Y02658882D01*
X01665327Y02658882D01*
X01673000Y02666555D01*
X01673000Y02681902D01*
X01665327Y02689575D01*
X01673000Y02704921D02*
X01642307Y02735614D01*
X01634634Y02735614D01*
X01626961Y02727941D01*
X01626961Y02712594D01*
X01634634Y02704921D01*
X01634634Y02689575D02*
X01626961Y02681902D01*
X01673000Y02704921D02*
X01673000Y02735614D01*
X01673000Y02750961D02*
X01673000Y02781653D01*
X01673000Y02766307D02*
X01626961Y02766307D01*
X01642307Y02750961D01*
X01673000Y02571653D02*
X01673000Y02540961D01*
X01673000Y02556307D02*
X01626961Y02556307D01*
X01642307Y02540961D01*
X01634634Y02525614D02*
X01626961Y02517941D01*
X01626961Y02502594D01*
X01634634Y02494921D01*
X01665327Y02494921D01*
X01673000Y02502594D01*
X01673000Y02517941D01*
X01665327Y02525614D01*
X01891382Y01873039D02*
X01914402Y01873039D01*
X01922075Y01865366D01*
X01922075Y01850020D01*
X01914402Y01842346D01*
X01891382Y01842346D01*
X01891382Y01827000D02*
X01891382Y01873039D01*
X01906728Y01842346D02*
X01922075Y01827000D01*
X01937421Y01834673D02*
X01945094Y01827000D01*
X01960441Y01827000D01*
X01968114Y01834673D01*
X01968114Y01842346D01*
X01960441Y01850020D01*
X01952768Y01850020D01*
X01960441Y01850020D02*
X01968114Y01857693D01*
X01968114Y01865366D01*
X01960441Y01873039D01*
X01945094Y01873039D01*
X01937421Y01865366D01*
X01983461Y01873039D02*
X01983461Y01850020D01*
X01998807Y01857693D01*
X02006480Y01857693D01*
X02014153Y01850020D01*
X02014153Y01834673D01*
X02006480Y01827000D01*
X01991134Y01827000D01*
X01983461Y01834673D01*
X01983461Y01873039D02*
X02014153Y01873039D01*
X01907500Y01679598D02*
X01861461Y01679598D01*
X01884480Y01656578D01*
X01884480Y01687271D01*
X01884480Y01641232D02*
X01884480Y01610539D01*
X01861461Y01633559D01*
X01907500Y01633559D01*
X01899827Y01595193D02*
X01907500Y01587520D01*
X01907500Y01572173D01*
X01899827Y01564500D01*
X01869134Y01564500D01*
X01861461Y01572173D01*
X01861461Y01587520D01*
X01869134Y01595193D01*
X01716653Y01545366D02*
X01716653Y01514673D01*
X01708980Y01507000D01*
X01693634Y01507000D01*
X01685961Y01514673D01*
X01716653Y01545366D01*
X01708980Y01553039D01*
X01693634Y01553039D01*
X01685961Y01545366D01*
X01685961Y01514673D01*
X01670614Y01507000D02*
X01639921Y01507000D01*
X01670614Y01537693D01*
X01670614Y01545366D01*
X01662941Y01553039D01*
X01647594Y01553039D01*
X01639921Y01545366D01*
X01624575Y01545366D02*
X01624575Y01530020D01*
X01616902Y01522346D01*
X01593882Y01522346D01*
X01593882Y01507000D02*
X01593882Y01553039D01*
X01616902Y01553039D01*
X01624575Y01545366D01*
X01609228Y01522346D02*
X01624575Y01507000D01*
X01641307Y01470366D02*
X01625961Y01455020D01*
X01648980Y01455020D01*
X01656653Y01447346D01*
X01656653Y01439673D01*
X01648980Y01432000D01*
X01633634Y01432000D01*
X01625961Y01439673D01*
X01625961Y01455020D01*
X01641307Y01470366D02*
X01656653Y01478039D01*
X01610614Y01432000D02*
X01579921Y01432000D01*
X01564575Y01432000D02*
X01549228Y01447346D01*
X01556902Y01447346D02*
X01533882Y01447346D01*
X01533882Y01432000D02*
X01533882Y01478039D01*
X01556902Y01478039D01*
X01564575Y01470366D01*
X01564575Y01455020D01*
X01556902Y01447346D01*
X01579921Y01462693D02*
X01595268Y01478039D01*
X01595268Y01432000D01*
X01491653Y01512000D02*
X01460961Y01512000D01*
X01476307Y01512000D02*
X01476307Y01558039D01*
X01460961Y01542693D01*
X01445614Y01542693D02*
X01445614Y01550366D01*
X01437941Y01558039D01*
X01422594Y01558039D01*
X01414921Y01550366D01*
X01399575Y01550366D02*
X01399575Y01535020D01*
X01391902Y01527346D01*
X01368882Y01527346D01*
X01368882Y01512000D02*
X01368882Y01558039D01*
X01391902Y01558039D01*
X01399575Y01550366D01*
X01384228Y01527346D02*
X01399575Y01512000D01*
X01414921Y01512000D02*
X01445614Y01542693D01*
X01445614Y01512000D02*
X01414921Y01512000D01*
X01462173Y01584500D02*
X01477520Y01584500D01*
X01485193Y01592173D01*
X01500539Y01584500D02*
X01531232Y01615193D01*
X01531232Y01622866D01*
X01523559Y01630539D01*
X01508212Y01630539D01*
X01500539Y01622866D01*
X01485193Y01622866D02*
X01477520Y01630539D01*
X01462173Y01630539D01*
X01454500Y01622866D01*
X01454500Y01592173D01*
X01462173Y01584500D01*
X01500539Y01584500D02*
X01531232Y01584500D01*
X01546578Y01592173D02*
X01546578Y01622866D01*
X01554252Y01630539D01*
X01569598Y01630539D01*
X01577271Y01622866D01*
X01546578Y01592173D01*
X01554252Y01584500D01*
X01569598Y01584500D01*
X01577271Y01592173D01*
X01577271Y01622866D01*
X01189153Y01353039D02*
X01189153Y01345366D01*
X01158461Y01314673D01*
X01158461Y01307000D01*
X01143114Y01307000D02*
X01112421Y01307000D01*
X01097075Y01307000D02*
X01081728Y01322346D01*
X01089402Y01322346D02*
X01066382Y01322346D01*
X01066382Y01307000D02*
X01066382Y01353039D01*
X01089402Y01353039D01*
X01097075Y01345366D01*
X01097075Y01330020D01*
X01089402Y01322346D01*
X01112421Y01337693D02*
X01127768Y01353039D01*
X01127768Y01307000D01*
X01158461Y01353039D02*
X01189153Y01353039D01*
X00868000Y01343980D02*
X00868000Y01328634D01*
X00860327Y01320961D01*
X00844980Y01320961D02*
X00837307Y01336307D01*
X00837307Y01343980D01*
X00844980Y01351653D01*
X00860327Y01351653D01*
X00868000Y01343980D01*
X00844980Y01320961D02*
X00821961Y01320961D01*
X00821961Y01351653D01*
X00812827Y01397000D02*
X00782134Y01397000D01*
X00774461Y01404673D01*
X00774461Y01420020D01*
X00782134Y01427693D01*
X00789807Y01443039D02*
X00774461Y01458386D01*
X00820500Y01458386D01*
X00820500Y01473732D02*
X00820500Y01443039D01*
X00812827Y01427693D02*
X00820500Y01420020D01*
X00820500Y01404673D01*
X00812827Y01397000D01*
X00764153Y01407520D02*
X00733461Y01407520D01*
X00756480Y01430539D01*
X00756480Y01384500D01*
X00718114Y01384500D02*
X00687421Y01384500D01*
X00680500Y01386902D02*
X00672827Y01394575D01*
X00672075Y01392173D02*
X00664402Y01384500D01*
X00649055Y01384500D01*
X00641382Y01392173D01*
X00641382Y01422866D01*
X00649055Y01430539D01*
X00664402Y01430539D01*
X00672075Y01422866D01*
X00680500Y01425268D02*
X00634461Y01425268D01*
X00649807Y01409921D01*
X00642134Y01394575D02*
X00634461Y01386902D01*
X00634461Y01371555D01*
X00642134Y01363882D01*
X00672827Y01363882D01*
X00680500Y01371555D01*
X00680500Y01386902D01*
X00702768Y01384500D02*
X00702768Y01430539D01*
X00687421Y01415193D01*
X00680500Y01409921D02*
X00680500Y01440614D01*
X00672827Y01455961D02*
X00680500Y01463634D01*
X00680500Y01478980D01*
X00672827Y01486653D01*
X00657480Y01486653D01*
X00649807Y01478980D01*
X00649807Y01471307D01*
X00657480Y01455961D01*
X00634461Y01455961D01*
X00634461Y01486653D01*
X00774461Y01519771D02*
X00782134Y01504425D01*
X00797480Y01489078D01*
X00797480Y01512098D01*
X00805154Y01519771D01*
X00812827Y01519771D01*
X00820500Y01512098D01*
X00820500Y01496752D01*
X00812827Y01489078D01*
X00797480Y01489078D01*
X00868000Y01305614D02*
X00868000Y01274921D01*
X00868000Y01259575D02*
X00852654Y01244228D01*
X00852654Y01251902D02*
X00852654Y01228882D01*
X00868000Y01228882D02*
X00821961Y01228882D01*
X00821961Y01251902D01*
X00829634Y01259575D01*
X00844980Y01259575D01*
X00852654Y01251902D01*
X00837307Y01274921D02*
X00821961Y01290268D01*
X00868000Y01290268D01*
X00788000Y01221480D02*
X00741961Y01221480D01*
X00764980Y01198461D01*
X00764980Y01229153D01*
X00788000Y01183114D02*
X00788000Y01152421D01*
X00788000Y01137075D02*
X00772654Y01121728D01*
X00772654Y01129402D02*
X00772654Y01106382D01*
X00788000Y01106382D02*
X00741961Y01106382D01*
X00741961Y01129402D01*
X00749634Y01137075D01*
X00764980Y01137075D01*
X00772654Y01129402D01*
X00757307Y01152421D02*
X00741961Y01167768D01*
X00788000Y01167768D01*
X00864980Y01061700D02*
X00864980Y01031007D01*
X00841961Y01015660D02*
X00872654Y00984968D01*
X00864980Y00992641D02*
X00888000Y01015660D01*
X00888000Y00984968D02*
X00841961Y00984968D01*
X00841961Y00969621D02*
X00888000Y00969621D01*
X00841961Y00938928D01*
X00888000Y00938928D01*
X00888000Y00923582D02*
X00888000Y00908235D01*
X00888000Y00915909D02*
X00841961Y00915909D01*
X00841961Y00923582D02*
X00841961Y00908235D01*
X00849634Y00892889D02*
X00841961Y00885216D01*
X00841961Y00869869D01*
X00849634Y00862196D01*
X00857307Y00862196D01*
X00864980Y00869869D01*
X00864980Y00885216D01*
X00872654Y00892889D01*
X00880327Y00892889D01*
X00888000Y00885216D01*
X00888000Y00869869D01*
X00880327Y00862196D01*
X00888000Y00831503D02*
X00841961Y00831503D01*
X00841961Y00816157D02*
X00841961Y00846850D01*
X00857307Y00800811D02*
X00888000Y00800811D01*
X00864980Y00800811D02*
X00864980Y00770118D01*
X00857307Y00770118D02*
X00841961Y00785464D01*
X00857307Y00800811D01*
X00857307Y00770118D02*
X00888000Y00770118D01*
X00888000Y00754771D02*
X00888000Y00724078D01*
X00841961Y00724078D01*
X00841961Y00754771D01*
X00824771Y00754673D02*
X00817098Y00747000D01*
X00801752Y00747000D01*
X00794078Y00754673D01*
X00778732Y00754673D02*
X00771059Y00747000D01*
X00755712Y00747000D01*
X00748039Y00754673D01*
X00748039Y00770020D02*
X00763386Y00777693D01*
X00771059Y00777693D01*
X00778732Y00770020D01*
X00778732Y00754673D01*
X00794078Y00770020D02*
X00809425Y00777693D01*
X00817098Y00777693D01*
X00824771Y00770020D01*
X00824771Y00754673D01*
X00794078Y00770020D02*
X00794078Y00793039D01*
X00824771Y00793039D01*
X00778732Y00793039D02*
X00748039Y00793039D01*
X00748039Y00770020D01*
X00732693Y00770020D02*
X00725020Y00762346D01*
X00702000Y00762346D01*
X00702000Y00747000D02*
X00702000Y00793039D01*
X00725020Y00793039D01*
X00732693Y00785366D01*
X00732693Y00770020D01*
X00717346Y00762346D02*
X00732693Y00747000D01*
X00841961Y00708732D02*
X00888000Y00708732D01*
X00864980Y00708732D02*
X00864980Y00678039D01*
X00864980Y00662693D02*
X00864980Y00632000D01*
X00841961Y00678039D02*
X00888000Y00678039D01*
X00864980Y00724078D02*
X00864980Y00739425D01*
X00243000Y00822000D02*
X00243000Y00845020D01*
X00235327Y00852693D01*
X00227654Y00852693D01*
X00219980Y00845020D01*
X00219980Y00822000D01*
X00196961Y00822000D02*
X00196961Y00845020D01*
X00204634Y00852693D01*
X00212307Y00852693D01*
X00219980Y00845020D01*
X00219980Y00868039D02*
X00219980Y00898732D01*
X00212307Y00898732D02*
X00243000Y00898732D01*
X00243000Y00868039D02*
X00212307Y00868039D01*
X00196961Y00883386D01*
X00212307Y00898732D01*
X00196961Y00914078D02*
X00196961Y00944771D01*
X00196961Y00929425D02*
X00243000Y00929425D01*
X00196961Y00960118D02*
X00196961Y00990811D01*
X00196961Y00975464D02*
X00243000Y00975464D01*
X00219980Y01006157D02*
X00219980Y01036850D01*
X00243000Y00822000D02*
X00196961Y00822000D01*
X00229980Y00356850D02*
X00229980Y00326157D01*
X00214634Y00341503D02*
X00245327Y00341503D01*
X00206961Y00310811D02*
X00206961Y00280118D01*
X00206961Y00295464D02*
X00253000Y00295464D01*
X00253000Y00249425D02*
X00206961Y00249425D01*
X00206961Y00264771D02*
X00206961Y00234078D01*
X00222307Y00218732D02*
X00253000Y00218732D01*
X00229980Y00218732D02*
X00229980Y00188039D01*
X00222307Y00188039D02*
X00253000Y00188039D01*
X00245327Y00172693D02*
X00253000Y00165020D01*
X00253000Y00142000D01*
X00206961Y00142000D01*
X00206961Y00165020D01*
X00214634Y00172693D01*
X00222307Y00172693D01*
X00229980Y00165020D01*
X00229980Y00142000D01*
X00229980Y00165020D02*
X00237654Y00172693D01*
X00245327Y00172693D01*
X00222307Y00188039D02*
X00206961Y00203386D01*
X00222307Y00218732D01*
X01773882Y00379673D02*
X01781555Y00372000D01*
X01796902Y00372000D01*
X01804575Y00379673D01*
X01819921Y00372000D02*
X01850614Y00372000D01*
X01865961Y00372000D02*
X01865961Y00379673D01*
X01896653Y00410366D01*
X01896653Y00418039D01*
X01865961Y00418039D01*
X01835268Y00418039D02*
X01835268Y00372000D01*
X01819921Y00402693D02*
X01835268Y00418039D01*
X01804575Y00410366D02*
X01796902Y00418039D01*
X01781555Y00418039D01*
X01773882Y00410366D01*
X01773882Y00379673D01*
X01933882Y00379673D02*
X01941555Y00372000D01*
X01956902Y00372000D01*
X01964575Y00379673D01*
X01979921Y00372000D02*
X02010614Y00372000D01*
X01995268Y00372000D02*
X01995268Y00418039D01*
X01979921Y00402693D01*
X01964575Y00410366D02*
X01956902Y00418039D01*
X01941555Y00418039D01*
X01933882Y00410366D01*
X01933882Y00379673D01*
X02025961Y00379673D02*
X02025961Y00387346D01*
X02033634Y00395020D01*
X02048980Y00395020D01*
X02056653Y00387346D01*
X02056653Y00379673D01*
X02048980Y00372000D01*
X02033634Y00372000D01*
X02025961Y00379673D01*
X02033634Y00395020D02*
X02025961Y00402693D01*
X02025961Y00410366D01*
X02033634Y00418039D01*
X02048980Y00418039D01*
X02056653Y00410366D01*
X02056653Y00402693D01*
X02048980Y00395020D01*
X02946961Y00637992D02*
X02993000Y00637992D01*
X02969980Y00637992D02*
X02969980Y00668685D01*
X02969980Y00684031D02*
X02969980Y00699378D01*
X02946961Y00684031D02*
X02993000Y00684031D01*
X02993000Y00714724D01*
X02993000Y00730071D02*
X02962307Y00730071D01*
X02946961Y00745417D01*
X02962307Y00760764D01*
X02993000Y00760764D01*
X02969980Y00760764D02*
X02969980Y00730071D01*
X02946961Y00714724D02*
X02946961Y00684031D01*
X02946961Y00668685D02*
X02993000Y00668685D01*
X02969980Y00622646D02*
X02969980Y00591953D01*
X02991961Y00586653D02*
X02999634Y00571307D01*
X03014980Y00555961D01*
X03014980Y00578980D01*
X03022654Y00586653D01*
X03030327Y00586653D01*
X03038000Y00578980D01*
X03038000Y00563634D01*
X03030327Y00555961D01*
X03014980Y00555961D01*
X03007307Y00540614D02*
X02999634Y00540614D01*
X02991961Y00532941D01*
X02991961Y00517594D01*
X02999634Y00509921D01*
X02999634Y00494575D02*
X02991961Y00486902D01*
X02991961Y00471555D01*
X02999634Y00463882D01*
X03030327Y00463882D01*
X03038000Y00471555D01*
X03038000Y00486902D01*
X03030327Y00494575D01*
X03038000Y00509921D02*
X03007307Y00540614D01*
X03038000Y00540614D02*
X03038000Y00509921D01*
X02999634Y00396653D02*
X03030327Y00365961D01*
X03038000Y00365961D01*
X03038000Y00350614D02*
X03038000Y00319921D01*
X03007307Y00350614D01*
X02999634Y00350614D01*
X02991961Y00342941D01*
X02991961Y00327594D01*
X02999634Y00319921D01*
X02999634Y00304575D02*
X02991961Y00296902D01*
X02991961Y00281555D01*
X02999634Y00273882D01*
X03030327Y00273882D01*
X03038000Y00281555D01*
X03038000Y00296902D01*
X03030327Y00304575D01*
X02991961Y00365961D02*
X02991961Y00396653D01*
X02999634Y00396653D01*
X02946961Y00776110D02*
X02946961Y00806803D01*
X02946961Y00791456D02*
X02993000Y00791456D01*
X02985327Y00822149D02*
X02993000Y00829822D01*
X02993000Y00845169D01*
X02985327Y00852842D01*
X02977654Y00852842D01*
X02969980Y00845169D01*
X02969980Y00829822D01*
X02962307Y00822149D01*
X02954634Y00822149D01*
X02946961Y00829822D01*
X02946961Y00845169D01*
X02954634Y00852842D01*
X02946961Y00868188D02*
X02946961Y00883535D01*
X02946961Y00875862D02*
X02993000Y00875862D01*
X02993000Y00883535D02*
X02993000Y00868188D01*
X02993000Y00898881D02*
X02946961Y00898881D01*
X02993000Y00929574D01*
X02946961Y00929574D01*
X02946961Y00944921D02*
X02993000Y00944921D01*
X02977654Y00944921D02*
X02946961Y00975613D01*
X02969980Y00990960D02*
X02969980Y01021653D01*
X02993000Y00975613D02*
X02969980Y00952594D01*
X03431961Y00951948D02*
X03431961Y00936601D01*
X03439634Y00928928D01*
X03470327Y00928928D01*
X03478000Y00936601D01*
X03478000Y00951948D01*
X03470327Y00959621D01*
X03454980Y00959621D01*
X03454980Y00944275D01*
X03439634Y00959621D02*
X03431961Y00951948D01*
X03431961Y00974968D02*
X03478000Y00974968D01*
X03478000Y01005660D01*
X03454980Y00990314D02*
X03454980Y00974968D01*
X03431961Y00974968D02*
X03431961Y01005660D01*
X03454980Y01021007D02*
X03454980Y01051700D01*
X03454980Y00913582D02*
X03439634Y00913582D01*
X03431961Y00905909D01*
X03431961Y00882889D01*
X03478000Y00882889D01*
X03462654Y00882889D02*
X03462654Y00905909D01*
X03454980Y00913582D01*
X03462654Y00898235D02*
X03478000Y00913582D01*
X03478000Y00867543D02*
X03447307Y00867543D01*
X03431961Y00852196D01*
X03447307Y00836850D01*
X03478000Y00836850D01*
X03478000Y00821503D02*
X03431961Y00821503D01*
X03454980Y00821503D02*
X03454980Y00790811D01*
X03439634Y00775464D02*
X03431961Y00767791D01*
X03431961Y00752444D01*
X03439634Y00744771D01*
X03470327Y00744771D01*
X03478000Y00752444D01*
X03478000Y00767791D01*
X03470327Y00775464D01*
X03478000Y00790811D02*
X03431961Y00790811D01*
X03454980Y00836850D02*
X03454980Y00867543D01*
X03462654Y00729425D02*
X03470327Y00729425D01*
X03478000Y00721752D01*
X03478000Y00706405D01*
X03470327Y00698732D01*
X03478000Y00683386D02*
X03478000Y00668039D01*
X03478000Y00675712D02*
X03431961Y00675712D01*
X03431961Y00668039D02*
X03431961Y00683386D01*
X03439634Y00698732D02*
X03447307Y00698732D01*
X03454980Y00706405D01*
X03454980Y00721752D01*
X03462654Y00729425D01*
X03439634Y00729425D02*
X03431961Y00721752D01*
X03431961Y00706405D01*
X03439634Y00698732D01*
X03439634Y00652693D02*
X03431961Y00645020D01*
X03431961Y00622000D01*
X03478000Y00622000D01*
X03478000Y00645020D01*
X03470327Y00652693D01*
X03439634Y00652693D01*
X03454980Y00451700D02*
X03454980Y00421007D01*
X03439634Y00436353D02*
X03470327Y00436353D01*
X03478000Y00405660D02*
X03478000Y00374968D01*
X03431961Y00374968D01*
X03431961Y00405660D01*
X03454980Y00390314D02*
X03454980Y00374968D01*
X03454980Y00359621D02*
X03454980Y00344275D01*
X03454980Y00359621D02*
X03470327Y00359621D01*
X03478000Y00351948D01*
X03478000Y00336601D01*
X03470327Y00328928D01*
X03439634Y00328928D01*
X03431961Y00336601D01*
X03431961Y00351948D01*
X03439634Y00359621D01*
X03439634Y00313582D02*
X03454980Y00313582D01*
X03462654Y00305909D01*
X03462654Y00282889D01*
X03478000Y00282889D02*
X03431961Y00282889D01*
X03431961Y00305909D01*
X03439634Y00313582D01*
X03462654Y00298235D02*
X03478000Y00313582D01*
X03478000Y00267543D02*
X03447307Y00267543D01*
X03431961Y00252196D01*
X03447307Y00236850D01*
X03478000Y00236850D01*
X03478000Y00221503D02*
X03431961Y00221503D01*
X03454980Y00221503D02*
X03454980Y00190811D01*
X03439634Y00175464D02*
X03431961Y00167791D01*
X03431961Y00152444D01*
X03439634Y00144771D01*
X03470327Y00144771D01*
X03478000Y00152444D01*
X03478000Y00167791D01*
X03470327Y00175464D01*
X03478000Y00190811D02*
X03431961Y00190811D01*
X03454980Y00236850D02*
X03454980Y00267543D01*
X03462654Y00129425D02*
X03470327Y00129425D01*
X03478000Y00121752D01*
X03478000Y00106405D01*
X03470327Y00098732D01*
X03478000Y00083386D02*
X03478000Y00068039D01*
X03478000Y00075712D02*
X03431961Y00075712D01*
X03431961Y00068039D02*
X03431961Y00083386D01*
X03439634Y00098732D02*
X03447307Y00098732D01*
X03454980Y00106405D01*
X03454980Y00121752D01*
X03462654Y00129425D01*
X03439634Y00129425D02*
X03431961Y00121752D01*
X03431961Y00106405D01*
X03439634Y00098732D01*
X03439634Y00052693D02*
X03431961Y00045020D01*
X03431961Y00022000D01*
X03478000Y00022000D01*
X03478000Y00045020D01*
X03470327Y00052693D01*
X03439634Y00052693D01*
X02495098Y01422000D02*
X02479752Y01422000D01*
X02472078Y01429673D01*
X02472078Y01437346D01*
X02479752Y01445020D01*
X02495098Y01445020D01*
X02502771Y01437346D01*
X02502771Y01429673D01*
X02495098Y01422000D01*
X02495098Y01445020D02*
X02502771Y01452693D01*
X02502771Y01460366D01*
X02495098Y01468039D01*
X02479752Y01468039D01*
X02472078Y01460366D01*
X02472078Y01452693D01*
X02479752Y01445020D01*
X02456732Y01422000D02*
X02426039Y01422000D01*
X02410693Y01422000D02*
X02395346Y01437346D01*
X02403020Y01437346D02*
X02380000Y01437346D01*
X02380000Y01422000D02*
X02380000Y01468039D01*
X02403020Y01468039D01*
X02410693Y01460366D01*
X02410693Y01445020D01*
X02403020Y01437346D01*
X02426039Y01452693D02*
X02441386Y01468039D01*
X02441386Y01422000D01*
D12*
X02390819Y01324528D02*
X02390819Y01265472D01*
X02493181Y01265472D01*
X02493181Y01324528D01*
X02390819Y01324528D01*
X02314087Y01308504D02*
X02314087Y01371496D01*
X02199913Y01371496D01*
X02199913Y01308504D01*
X02314087Y01308504D01*
X02295000Y01135000D02*
X02195000Y01135000D01*
X02345000Y00985000D01*
X02345000Y00976732D01*
X02250512Y00976732D01*
X02250512Y00960984D01*
X02093031Y00960984D01*
X02093031Y00913740D01*
X02250512Y00913740D01*
X02250512Y00897992D01*
X02345000Y00897992D01*
X02345000Y00866496D01*
X02250512Y00866496D01*
X02250512Y00803504D01*
X02345000Y00803504D01*
X02345000Y00772008D01*
X02250512Y00772008D01*
X02250512Y00756260D01*
X02093031Y00756260D01*
X02093031Y00709016D01*
X02250512Y00709016D01*
X02250512Y00693268D01*
X02345000Y00693268D01*
X02345000Y00635000D01*
X02745000Y00635000D01*
X02845000Y00535000D01*
X02295000Y00535000D01*
X02145000Y00685000D01*
X02245000Y00685000D02*
X02345000Y00585000D01*
X02295000Y00535000D02*
X02145000Y00535000D01*
X02045000Y00635000D01*
X02045000Y00835000D01*
X02095000Y00785000D01*
X02045000Y00835000D02*
X02045000Y01085000D01*
X02145000Y00985000D01*
X02245000Y00985000D02*
X02095000Y01135000D01*
X02195000Y01135000D01*
X02095000Y01135000D02*
X02045000Y01135000D01*
X02045000Y01085000D01*
X02250512Y00960984D02*
X02250512Y00913740D01*
X02195000Y00885000D02*
X02245000Y00835000D01*
X02195000Y00785000D02*
X02095000Y00885000D01*
X02250512Y00756260D02*
X02250512Y00709016D01*
X02345000Y00693268D02*
X02345000Y00772008D01*
X02345000Y00803504D02*
X02345000Y00866496D01*
X02345000Y00897992D02*
X02345000Y00976732D01*
X02345000Y00985000D02*
X02345000Y01035000D01*
X02395000Y01035000D01*
X02295000Y01135000D01*
X02745000Y01135000D01*
X03045000Y00835000D01*
X03045000Y00735000D01*
X02795000Y00985000D01*
X02745000Y01035000D01*
X02745000Y00635000D01*
X02795000Y00685000D01*
X02945000Y00535000D01*
X02845000Y00535000D01*
X02945000Y00535000D02*
X03045000Y00535000D01*
X02795000Y00785000D01*
X02795000Y00685000D01*
X02795000Y00785000D02*
X02795000Y00885000D01*
X03045000Y00635000D01*
X03045000Y00535000D01*
X03045000Y00635000D02*
X03045000Y00735000D01*
X03045000Y00835000D02*
X03045000Y00935000D01*
X02845000Y01135000D01*
X02945000Y01135000D01*
X03045000Y01035000D01*
X03045000Y00935000D01*
X03045000Y01035000D02*
X03045000Y01135000D01*
X02945000Y01135000D01*
X02845000Y01135000D02*
X02745000Y01135000D01*
X02745000Y01035000D02*
X02395000Y01035000D01*
X02795000Y00985000D02*
X02795000Y00885000D01*
X02145000Y00535000D02*
X02045000Y00535000D01*
X02045000Y00635000D01*
X01790000Y00580000D02*
X01790000Y00830000D01*
X01740000Y00880000D01*
X01741969Y00908740D02*
X01741969Y00955984D01*
X01584488Y00955984D01*
X01584488Y00971732D01*
X01490000Y00971732D01*
X01490000Y01030000D01*
X01090000Y01030000D01*
X00990000Y01130000D01*
X01540000Y01130000D01*
X01690000Y00980000D01*
X01741969Y00908740D02*
X01584488Y00908740D01*
X01584488Y00955984D01*
X01590000Y00980000D02*
X01490000Y01080000D01*
X01540000Y01130000D02*
X01690000Y01130000D01*
X01790000Y01030000D01*
X01790000Y00830000D01*
X01740000Y00780000D02*
X01640000Y00880000D01*
X01584488Y00892992D02*
X01584488Y00908740D01*
X01584488Y00892992D02*
X01490000Y00892992D01*
X01490000Y00971732D01*
X01490000Y00892992D02*
X01490000Y00861496D01*
X01584488Y00861496D01*
X01584488Y00798504D01*
X01490000Y00798504D01*
X01490000Y00861496D01*
X01490000Y00798504D02*
X01490000Y00767008D01*
X01584488Y00767008D01*
X01584488Y00751260D01*
X01741969Y00751260D01*
X01741969Y00704016D01*
X01584488Y00704016D01*
X01584488Y00751260D01*
X01584488Y00704016D02*
X01584488Y00688268D01*
X01490000Y00688268D01*
X01490000Y00767008D01*
X01490000Y00688268D02*
X01490000Y00680000D01*
X01640000Y00530000D01*
X01540000Y00530000D01*
X01440000Y00630000D01*
X01490000Y00630000D01*
X01490000Y00680000D01*
X01440000Y00630000D02*
X01090000Y00630000D01*
X01090000Y01030000D01*
X01040000Y00980000D01*
X00890000Y01130000D01*
X00990000Y01130000D01*
X00890000Y01130000D02*
X00790000Y01130000D01*
X01040000Y00880000D01*
X01040000Y00980000D01*
X01040000Y00880000D02*
X01040000Y00780000D01*
X00790000Y01030000D01*
X00790000Y01130000D01*
X00790000Y01030000D02*
X00790000Y00930000D01*
X01040000Y00680000D01*
X01090000Y00630000D01*
X01040000Y00680000D02*
X01040000Y00780000D01*
X00790000Y00730000D02*
X00790000Y00630000D01*
X00890000Y00530000D01*
X00790000Y00530000D01*
X00790000Y00630000D01*
X00790000Y00730000D02*
X00990000Y00530000D01*
X00890000Y00530000D01*
X00828898Y00523661D02*
X00828898Y00356339D01*
X00691102Y00356339D01*
X00691102Y00523661D01*
X00828898Y00523661D01*
X00990000Y00530000D02*
X01090000Y00530000D01*
X00790000Y00830000D01*
X00790000Y00930000D01*
X00790000Y00830000D02*
X00790000Y00730000D01*
X01090000Y00530000D02*
X01540000Y00530000D01*
X01640000Y00530000D02*
X01740000Y00530000D01*
X01590000Y00680000D01*
X01690000Y00680000D02*
X01790000Y00580000D01*
X01790000Y00530000D01*
X01740000Y00530000D01*
X01640000Y00780000D02*
X01590000Y00830000D01*
X01790000Y01030000D02*
X01790000Y01130000D01*
X01690000Y01130000D01*
X01938504Y01727913D02*
X02001496Y01727913D01*
X02001496Y01842087D01*
X01938504Y01842087D01*
X01938504Y01727913D01*
X01814528Y01778819D02*
X01755472Y01778819D01*
X01755472Y01881181D01*
X01814528Y01881181D01*
X01814528Y01778819D01*
X01660000Y02450000D02*
X01660000Y02825000D01*
X02360000Y02825000D01*
X02360000Y02450000D01*
X01660000Y02450000D01*
X01440000Y02450000D02*
X00740000Y02450000D01*
X00740000Y02825000D01*
X01440000Y02825000D01*
X01440000Y02450000D01*
X00722500Y02657928D02*
X00714994Y02650421D01*
X00722500Y02657928D02*
X00722500Y02672941D01*
X00714994Y02680447D01*
X00707487Y02680447D01*
X00699981Y02672941D01*
X00699981Y02657928D01*
X00692474Y02650421D01*
X00684968Y02650421D01*
X00677462Y02657928D01*
X00677462Y02672941D01*
X00684968Y02680447D01*
X00684968Y02696461D02*
X00677462Y02703967D01*
X00677462Y02718980D01*
X00684968Y02726486D01*
X00692474Y02726486D01*
X00699981Y02718980D01*
X00707487Y02726486D01*
X00714994Y02726486D01*
X00722500Y02718980D01*
X00722500Y02703967D01*
X00714994Y02696461D01*
X00699981Y02711473D02*
X00699981Y02718980D01*
X00362994Y02231604D02*
X00370500Y02224098D01*
X00370500Y02209085D01*
X00362994Y02201578D01*
X00347981Y02216591D02*
X00347981Y02224098D01*
X00355487Y02231604D01*
X00362994Y02231604D01*
X00347981Y02224098D02*
X00340474Y02231604D01*
X00332968Y02231604D01*
X00325462Y02224098D01*
X00325462Y02209085D01*
X00332968Y02201578D01*
X00332968Y02185565D02*
X00347981Y02185565D01*
X00355487Y02178058D01*
X00355487Y02155539D01*
X00370500Y02155539D02*
X00325462Y02155539D01*
X00325462Y02178058D01*
X00332968Y02185565D01*
X00325462Y02139526D02*
X00325462Y02124513D01*
X00325462Y02132019D02*
X00362994Y02132019D01*
X00370500Y02124513D01*
X00370500Y02117006D01*
X00362994Y02109500D01*
X02484500Y02807006D02*
X02492006Y02799500D01*
X02499513Y02799500D01*
X02507019Y02807006D01*
X02507019Y02844538D01*
X02499513Y02844538D02*
X02514526Y02844538D01*
X02530539Y02844538D02*
X02530539Y02799500D01*
X02530539Y02814513D02*
X02553058Y02814513D01*
X02560565Y02822019D01*
X02560565Y02837032D01*
X02553058Y02844538D01*
X02530539Y02844538D01*
X02576578Y02829526D02*
X02591591Y02844538D01*
X02591591Y02799500D01*
X02576578Y02799500D02*
X02606604Y02799500D01*
X03069882Y02714528D02*
X03069882Y02095433D01*
X03430118Y02095433D01*
X03430118Y02714528D01*
X03069882Y02714528D01*
X03504462Y01731980D02*
X03526981Y01709461D01*
X03526981Y01739486D01*
X03549500Y01731980D02*
X03504462Y01731980D01*
X03511968Y01693447D02*
X03526981Y01693447D01*
X03534487Y01685940D01*
X03534487Y01663421D01*
X03549500Y01663421D02*
X03504462Y01663421D01*
X03504462Y01685940D01*
X03511968Y01693447D01*
X03504462Y01647408D02*
X03504462Y01632395D01*
X03504462Y01639901D02*
X03541994Y01639901D01*
X03549500Y01632395D01*
X03549500Y01624888D01*
X03541994Y01617382D01*
X03307087Y01571496D02*
X03307087Y01508504D01*
X03192913Y01508504D01*
X03192913Y01571496D01*
X03307087Y01571496D01*
X02941604Y01632006D02*
X02934098Y01624500D01*
X02919085Y01624500D01*
X02911578Y01632006D01*
X02911578Y01647019D02*
X02926591Y01654526D01*
X02934098Y01654526D01*
X02941604Y01647019D01*
X02941604Y01632006D01*
X02911578Y01647019D02*
X02911578Y01669538D01*
X02941604Y01669538D01*
X02895565Y01662032D02*
X02895565Y01647019D01*
X02888058Y01639513D01*
X02865539Y01639513D01*
X02865539Y01624500D02*
X02865539Y01669538D01*
X02888058Y01669538D01*
X02895565Y01662032D01*
X02849526Y01669538D02*
X02834513Y01669538D01*
X02842019Y01669538D02*
X02842019Y01632006D01*
X02834513Y01624500D01*
X02827006Y01624500D01*
X02819500Y01632006D01*
X02816646Y00257547D02*
X02798297Y00257547D01*
X02789123Y00248373D01*
X02807472Y00230023D02*
X02816646Y00230023D01*
X02825821Y00220849D01*
X02825821Y00211674D01*
X02816646Y00202500D01*
X02798297Y00202500D01*
X02789123Y00211674D01*
X02770674Y00211674D02*
X02770674Y00202500D01*
X02761499Y00202500D01*
X02761499Y00211674D01*
X02770674Y00211674D01*
X02742950Y00202500D02*
X02706252Y00202500D01*
X02724601Y00202500D02*
X02724601Y00257547D01*
X02706252Y00239198D01*
X02687703Y00239198D02*
X02669354Y00202500D01*
X02651005Y00239198D01*
X02577275Y00239198D02*
X02558926Y00239198D01*
X02568101Y00248373D02*
X02568101Y00211674D01*
X02577275Y00202500D01*
X02540377Y00202500D02*
X02540377Y00230023D01*
X02531203Y00239198D01*
X02503679Y00239198D01*
X02503679Y00202500D01*
X02485130Y00220849D02*
X02448432Y00220849D01*
X02448432Y00230023D02*
X02457606Y00239198D01*
X02475955Y00239198D01*
X02485130Y00230023D01*
X02485130Y00220849D01*
X02475955Y00202500D02*
X02457606Y00202500D01*
X02448432Y00211674D01*
X02448432Y00230023D01*
X02429883Y00230023D02*
X02429883Y00202500D01*
X02411534Y00202500D02*
X02411534Y00230023D01*
X02420708Y00239198D01*
X02429883Y00230023D01*
X02411534Y00230023D02*
X02402359Y00239198D01*
X02393185Y00239198D01*
X02393185Y00202500D01*
X02374636Y00220849D02*
X02337938Y00220849D01*
X02337938Y00230023D02*
X02347112Y00239198D01*
X02365461Y00239198D01*
X02374636Y00230023D01*
X02374636Y00220849D01*
X02365461Y00202500D02*
X02347112Y00202500D01*
X02337938Y00211674D01*
X02337938Y00230023D01*
X02319388Y00239198D02*
X02319388Y00193326D01*
X02310214Y00184151D01*
X02301039Y00184151D01*
X02291865Y00202500D02*
X02282690Y00211674D01*
X02282690Y00230023D01*
X02291865Y00239198D01*
X02319388Y00239198D01*
X02319388Y00202500D02*
X02291865Y00202500D01*
X02264141Y00202500D02*
X02264141Y00230023D01*
X02254967Y00239198D01*
X02236618Y00239198D01*
X02236618Y00220849D02*
X02264141Y00220849D01*
X02264141Y00202500D02*
X02236618Y00202500D01*
X02227443Y00211674D01*
X02236618Y00220849D01*
X02208894Y00230023D02*
X02208894Y00202500D01*
X02208894Y00230023D02*
X02199720Y00239198D01*
X02172196Y00239198D01*
X02172196Y00202500D01*
X02153647Y00202500D02*
X02126123Y00202500D01*
X02116949Y00211674D01*
X02126123Y00220849D01*
X02153647Y00220849D01*
X02153647Y00230023D02*
X02153647Y00202500D01*
X02153647Y00230023D02*
X02144472Y00239198D01*
X02126123Y00239198D01*
X02098400Y00257547D02*
X02098400Y00202500D01*
X02119293Y00187547D02*
X02119293Y00132500D01*
X02091770Y00132500D01*
X02082595Y00141674D01*
X02082595Y00160023D01*
X02091770Y00169198D01*
X02119293Y00169198D01*
X02064046Y00160023D02*
X02064046Y00141674D01*
X02054872Y00132500D01*
X02036523Y00132500D01*
X02027348Y00141674D01*
X02027348Y00160023D01*
X02036523Y00169198D01*
X02054872Y00169198D01*
X02064046Y00160023D01*
X02061702Y00202500D02*
X02061702Y00257547D01*
X02080051Y00239198D01*
X02098400Y00257547D01*
X01987905Y00239198D02*
X01987905Y00193326D01*
X01978731Y00184151D01*
X01969556Y00184151D01*
X01953552Y00187547D02*
X01953552Y00132500D01*
X01972101Y00141674D02*
X01981275Y00132500D01*
X01999624Y00132500D01*
X02008799Y00141674D01*
X02008799Y00160023D01*
X01999624Y00169198D01*
X01981275Y00169198D01*
X01972101Y00160023D01*
X01972101Y00141674D01*
X01953552Y00160023D02*
X01916854Y00160023D01*
X01916854Y00132500D02*
X01916854Y00187547D01*
X01905168Y00202500D02*
X01905168Y00239198D01*
X01905168Y00220849D02*
X01923517Y00239198D01*
X01932692Y00239198D01*
X01951207Y00239198D02*
X01951207Y00211674D01*
X01960382Y00202500D01*
X01987905Y00202500D01*
X01886619Y00220849D02*
X01849921Y00220849D01*
X01849921Y00230023D02*
X01859095Y00239198D01*
X01877445Y00239198D01*
X01886619Y00230023D01*
X01886619Y00220849D01*
X01877445Y00202500D02*
X01859095Y00202500D01*
X01849921Y00211674D01*
X01849921Y00230023D01*
X01831438Y00239198D02*
X01813090Y00239198D01*
X01822264Y00248373D02*
X01822264Y00211674D01*
X01831438Y00202500D01*
X01843057Y00169198D02*
X01815534Y00169198D01*
X01806359Y00160023D01*
X01815534Y00150849D01*
X01833883Y00150849D01*
X01843057Y00141674D01*
X01833883Y00132500D01*
X01806359Y00132500D01*
X01787810Y00150849D02*
X01787810Y00160023D01*
X01778636Y00169198D01*
X01760287Y00169198D01*
X01751112Y00160023D01*
X01751112Y00141674D01*
X01760287Y00132500D01*
X01778636Y00132500D01*
X01787810Y00150849D02*
X01751112Y00150849D01*
X01732630Y00132500D02*
X01714281Y00132500D01*
X01723455Y00132500D02*
X01723455Y00187547D01*
X01714281Y00187547D01*
X01730185Y00202500D02*
X01721011Y00211674D01*
X01730185Y00220849D01*
X01757709Y00220849D01*
X01757709Y00230023D02*
X01757709Y00202500D01*
X01730185Y00202500D01*
X01702462Y00211674D02*
X01702462Y00220849D01*
X01693287Y00230023D01*
X01665764Y00230023D01*
X01665764Y00202500D02*
X01693287Y00202500D01*
X01702462Y00211674D01*
X01693287Y00230023D02*
X01702462Y00239198D01*
X01702462Y00248373D01*
X01693287Y00257547D01*
X01665764Y00257547D01*
X01665764Y00202500D01*
X01668242Y00169198D02*
X01668242Y00132500D01*
X01668242Y00150849D02*
X01686590Y00169198D01*
X01695765Y00169198D01*
X01649692Y00160023D02*
X01649692Y00132500D01*
X01622169Y00132500D01*
X01612994Y00141674D01*
X01622169Y00150849D01*
X01649692Y00150849D01*
X01649692Y00160023D02*
X01640518Y00169198D01*
X01622169Y00169198D01*
X01594445Y00160023D02*
X01594445Y00132500D01*
X01594445Y00160023D02*
X01585271Y00169198D01*
X01566922Y00169198D01*
X01557747Y00160023D01*
X01539198Y00141674D02*
X01530023Y00132500D01*
X01511674Y00132500D01*
X01502500Y00141674D01*
X01502500Y00178373D01*
X01511674Y00187547D01*
X01530023Y00187547D01*
X01539198Y00178373D01*
X01557747Y00187547D02*
X01557747Y00132500D01*
X01564444Y00202500D02*
X01555269Y00211674D01*
X01555269Y00230023D01*
X01564444Y00239198D01*
X01591967Y00239198D01*
X01591967Y00257547D02*
X01591967Y00202500D01*
X01564444Y00202500D01*
X01536754Y00239198D02*
X01527579Y00239198D01*
X01509230Y00220849D01*
X01509230Y00202500D02*
X01509230Y00239198D01*
X01490681Y00230023D02*
X01490681Y00202500D01*
X01463157Y00202500D01*
X01453983Y00211674D01*
X01463157Y00220849D01*
X01490681Y00220849D01*
X01490681Y00230023D02*
X01481507Y00239198D01*
X01463157Y00239198D01*
X01435434Y00230023D02*
X01435434Y00211674D01*
X01426259Y00202500D01*
X01407910Y00202500D01*
X01398736Y00211674D01*
X01398736Y00230023D01*
X01407910Y00239198D01*
X01426259Y00239198D01*
X01435434Y00230023D01*
X01380187Y00230023D02*
X01380187Y00211674D01*
X01371012Y00202500D01*
X01343489Y00202500D01*
X01343489Y00257547D01*
X01343489Y00239198D02*
X01371012Y00239198D01*
X01380187Y00230023D01*
X01324939Y00239198D02*
X01324939Y00193326D01*
X01315765Y00184151D01*
X01306590Y00184151D01*
X01297416Y00202500D02*
X01288242Y00211674D01*
X01288242Y00230023D01*
X01297416Y00239198D01*
X01324939Y00239198D01*
X01324939Y00202500D02*
X01297416Y00202500D01*
X01269692Y00202500D02*
X01269692Y00230023D01*
X01260518Y00239198D01*
X01232994Y00239198D01*
X01232994Y00202500D01*
X01214445Y00211674D02*
X01214445Y00230023D01*
X01205271Y00239198D01*
X01186922Y00239198D01*
X01177747Y00230023D01*
X01177747Y00211674D01*
X01186922Y00202500D01*
X01205271Y00202500D01*
X01214445Y00211674D01*
X01159198Y00202500D02*
X01122500Y00202500D01*
X01122500Y00257547D01*
X01730185Y00239198D02*
X01748534Y00239198D01*
X01757709Y00230023D01*
X01776258Y00239198D02*
X01794607Y00239198D01*
X01785433Y00248373D02*
X01785433Y00211674D01*
X01794607Y00202500D01*
X02816646Y00230023D02*
X02825821Y00239198D01*
X02825821Y00248373D01*
X02816646Y00257547D01*
D13*
X02820810Y01341500D02*
X02808466Y01341500D01*
X02802294Y01347672D01*
X02808466Y01360016D02*
X02820810Y01360016D01*
X02826982Y01353844D01*
X02826982Y01347672D01*
X02820810Y01341500D01*
X02839125Y01341500D02*
X02839125Y01378532D01*
X02851469Y01366188D01*
X02863813Y01378532D01*
X02863813Y01341500D01*
X02875957Y01341500D02*
X02894473Y01341500D01*
X02900645Y01347672D01*
X02900645Y01353844D01*
X02894473Y01360016D01*
X02875957Y01360016D01*
X02894473Y01360016D02*
X02900645Y01366188D01*
X02900645Y01372360D01*
X02894473Y01378532D01*
X02875957Y01378532D01*
X02875957Y01341500D01*
X02912788Y01347672D02*
X02918960Y01341500D01*
X02937476Y01341500D01*
X02937476Y01366188D01*
X02949620Y01360016D02*
X02955792Y01366188D01*
X02974307Y01366188D01*
X02968135Y01353844D02*
X02974307Y01347672D01*
X02968135Y01341500D01*
X02949620Y01341500D01*
X02955792Y01353844D02*
X02949620Y01360016D01*
X02955792Y01353844D02*
X02968135Y01353844D01*
X02986451Y01341500D02*
X03011139Y01378532D01*
X03023283Y01378532D02*
X03035626Y01378532D01*
X03029454Y01378532D02*
X03029454Y01341500D01*
X03023283Y01341500D02*
X03035626Y01341500D01*
X03047837Y01341500D02*
X03072525Y01366188D01*
X03072525Y01372360D01*
X03066353Y01378532D01*
X03054009Y01378532D01*
X03047837Y01372360D01*
X03084668Y01372360D02*
X03084668Y01347672D01*
X03090840Y01341500D01*
X03103184Y01341500D01*
X03109356Y01347672D01*
X03109356Y01372360D02*
X03103184Y01378532D01*
X03090840Y01378532D01*
X03084668Y01372360D01*
X03072525Y01341500D02*
X03047837Y01341500D01*
X02912788Y01347672D02*
X02912788Y01366188D01*
X02826982Y01372360D02*
X02820810Y01378532D01*
X02808466Y01378532D01*
X02802294Y01372360D01*
X02802294Y01366188D01*
X02808466Y01360016D01*
X03311468Y01601500D02*
X03348500Y01601500D01*
X03348500Y01626188D01*
X03342328Y01638331D02*
X03348500Y01644503D01*
X03348500Y01656847D01*
X03342328Y01663019D01*
X03336156Y01663019D01*
X03329984Y01656847D01*
X03329984Y01644503D01*
X03323812Y01638331D01*
X03317640Y01638331D01*
X03311468Y01644503D01*
X03311468Y01656847D01*
X03317640Y01663019D01*
X03317640Y01675163D02*
X03342328Y01675163D01*
X03348500Y01681335D01*
X03348500Y01693679D01*
X03342328Y01699851D01*
X03317640Y01699851D02*
X03311468Y01693679D01*
X03311468Y01681335D01*
X03317640Y01675163D01*
X03311468Y01626188D02*
X03311468Y01601500D01*
X03329984Y01601500D02*
X03329984Y01613844D01*
X01427660Y01688500D02*
X01396300Y01719860D01*
X01411980Y01719860D02*
X01411980Y01688500D01*
X01396300Y01688500D02*
X01427660Y01719860D01*
X01427660Y01704180D02*
X01396300Y01704180D01*
D14*
X01392492Y01791000D02*
X01392492Y01800008D01*
X01395495Y01803010D01*
X01398498Y01803010D01*
X01401500Y01800008D01*
X01401500Y01791000D01*
X01383485Y01791000D01*
X01383485Y01800008D01*
X01386487Y01803010D01*
X01389490Y01803010D01*
X01392492Y01800008D01*
X01386487Y01809416D02*
X01383485Y01812418D01*
X01383485Y01818423D01*
X01386487Y01821426D01*
X01398498Y01821426D01*
X01401500Y01818423D01*
X01401500Y01812418D01*
X01398498Y01809416D01*
X01386487Y01809416D01*
X01395495Y01815421D02*
X01401500Y01821426D01*
X01401500Y01827831D02*
X01398498Y01827831D01*
X01386487Y01839842D01*
X01383485Y01839842D01*
X01383485Y01827831D01*
X01392492Y01846247D02*
X01392492Y01855255D01*
X01395495Y01858257D01*
X01398498Y01858257D01*
X01401500Y01855255D01*
X01401500Y01849250D01*
X01398498Y01846247D01*
X01392492Y01846247D01*
X01386487Y01852252D01*
X01383485Y01858257D01*
X01386487Y01864663D02*
X01389490Y01864663D01*
X01392492Y01867665D01*
X01392492Y01876673D01*
X01386487Y01876673D02*
X01383485Y01873671D01*
X01383485Y01867665D01*
X01386487Y01864663D01*
X01386487Y01876673D02*
X01398498Y01876673D01*
X01401500Y01873671D01*
X01401500Y01867665D01*
X01398498Y01864663D01*
X01398498Y01883079D02*
X01401500Y01886081D01*
X01401500Y01892086D01*
X01398498Y01895089D01*
X01395495Y01895089D01*
X01392492Y01892086D01*
X01392492Y01889084D01*
X01392492Y01892086D02*
X01389490Y01895089D01*
X01386487Y01895089D01*
X01383485Y01892086D01*
X01383485Y01886081D01*
X01386487Y01883079D01*
X01386487Y01901494D02*
X01383485Y01904497D01*
X01383485Y01910502D01*
X01386487Y01913505D01*
X01398498Y01901494D01*
X01401500Y01904497D01*
X01401500Y01910502D01*
X01398498Y01913505D01*
X01386487Y01913505D01*
X01386487Y01901494D02*
X01398498Y01901494D01*
X00650000Y02570000D02*
X00640000Y02570000D01*
X00640000Y02670000D01*
X00650000Y02670000D01*
X00420000Y02670000D02*
X00420000Y02575000D01*
X00410000Y02575000D01*
X00410000Y02670000D02*
X00420000Y02670000D01*
X02377215Y02659020D02*
X02377215Y02636000D01*
X02377215Y02643673D02*
X02388725Y02643673D01*
X02392561Y02647510D01*
X02392561Y02655183D01*
X02388725Y02659020D01*
X02377215Y02659020D01*
X02400234Y02651346D02*
X02400234Y02636000D01*
X02400234Y02643673D02*
X02407907Y02651346D01*
X02411744Y02651346D01*
X02419417Y02647510D02*
X02423254Y02651346D01*
X02430927Y02651346D01*
X02434764Y02647510D01*
X02434764Y02643673D01*
X02419417Y02643673D01*
X02419417Y02639836D02*
X02419417Y02647510D01*
X02419417Y02639836D02*
X02423254Y02636000D01*
X02430927Y02636000D01*
X02442437Y02636000D02*
X02453947Y02636000D01*
X02457783Y02639836D01*
X02453947Y02643673D01*
X02446273Y02643673D01*
X02442437Y02647510D01*
X02446273Y02651346D01*
X02457783Y02651346D01*
X02465456Y02647510D02*
X02469293Y02651346D01*
X02480803Y02651346D01*
X02488476Y02651346D02*
X02488476Y02639836D01*
X02492313Y02636000D01*
X02503822Y02636000D01*
X02503822Y02651346D01*
X02511496Y02651346D02*
X02511496Y02636000D01*
X02511496Y02643673D02*
X02519169Y02651346D01*
X02523005Y02651346D01*
X02530679Y02647510D02*
X02530679Y02639836D01*
X02534515Y02636000D01*
X02542188Y02636000D01*
X02546025Y02643673D02*
X02530679Y02643673D01*
X02530679Y02647510D02*
X02534515Y02651346D01*
X02542188Y02651346D01*
X02546025Y02647510D01*
X02546025Y02643673D01*
X02576718Y02639836D02*
X02580554Y02636000D01*
X02588227Y02636000D01*
X02592064Y02639836D01*
X02592064Y02643673D01*
X02588227Y02647510D01*
X02580554Y02647510D01*
X02576718Y02651346D01*
X02576718Y02655183D01*
X02580554Y02659020D01*
X02588227Y02659020D01*
X02592064Y02655183D01*
X02599737Y02647510D02*
X02599737Y02639836D01*
X02603574Y02636000D01*
X02611247Y02636000D01*
X02615084Y02643673D02*
X02599737Y02643673D01*
X02599737Y02647510D02*
X02603574Y02651346D01*
X02611247Y02651346D01*
X02615084Y02647510D01*
X02615084Y02643673D01*
X02622757Y02636000D02*
X02622757Y02651346D01*
X02634266Y02651346D01*
X02638103Y02647510D01*
X02638103Y02636000D01*
X02645776Y02636000D02*
X02657286Y02636000D01*
X02661123Y02639836D01*
X02657286Y02643673D01*
X02649613Y02643673D01*
X02645776Y02647510D01*
X02649613Y02651346D01*
X02661123Y02651346D01*
X02668796Y02647510D02*
X02668796Y02639836D01*
X02672632Y02636000D01*
X02680306Y02636000D01*
X02684142Y02639836D01*
X02684142Y02647510D01*
X02680306Y02651346D01*
X02672632Y02651346D01*
X02668796Y02647510D01*
X02691815Y02651346D02*
X02691815Y02636000D01*
X02691815Y02643673D02*
X02699489Y02651346D01*
X02703325Y02651346D01*
X02480803Y02639836D02*
X02476966Y02643673D01*
X02469293Y02643673D01*
X02465456Y02647510D01*
X02465456Y02636000D02*
X02476966Y02636000D01*
X02480803Y02639836D01*
X02873987Y01459842D02*
X02870985Y01456839D01*
X02870985Y01447831D01*
X02889000Y01447831D01*
X02889000Y01456839D01*
X02885998Y01459842D01*
X02873987Y01459842D01*
X02870985Y01441426D02*
X02889000Y01441426D01*
X02870985Y01429416D01*
X02889000Y01429416D01*
X02885998Y01423010D02*
X02879992Y01423010D01*
X02879992Y01417005D01*
X02873987Y01411000D02*
X02885998Y01411000D01*
X02889000Y01414002D01*
X02889000Y01420008D01*
X02885998Y01423010D01*
X02873987Y01423010D02*
X02870985Y01420008D01*
X02870985Y01414002D01*
X02873987Y01411000D01*
X02970985Y01414002D02*
X02973987Y01411000D01*
X02985998Y01411000D01*
X02989000Y01414002D01*
X02989000Y01420008D01*
X02985998Y01423010D01*
X02989000Y01429416D02*
X02970985Y01429416D01*
X02973987Y01423010D02*
X02970985Y01420008D01*
X02970985Y01414002D01*
X02989000Y01429416D02*
X02989000Y01441426D01*
X02989000Y01447831D02*
X02970985Y01447831D01*
X02979992Y01450834D02*
X02989000Y01459842D01*
X02982995Y01447831D02*
X02970985Y01459842D01*
X03070985Y01459842D02*
X03070985Y01447831D01*
X03070985Y01453836D02*
X03089000Y01453836D01*
X03089000Y01441426D02*
X03076990Y01441426D01*
X03070985Y01435421D01*
X03076990Y01429416D01*
X03089000Y01429416D01*
X03085998Y01423010D02*
X03073987Y01423010D01*
X03070985Y01420008D01*
X03070985Y01411000D01*
X03089000Y01411000D01*
X03089000Y01420008D01*
X03085998Y01423010D01*
X03079992Y01429416D02*
X03079992Y01441426D01*
X03079992Y01466247D02*
X03079992Y01478257D01*
X03076990Y01478257D02*
X03089000Y01478257D01*
X03089000Y01466247D02*
X03076990Y01466247D01*
X03070985Y01472252D01*
X03076990Y01478257D01*
D15*
X03095000Y01500000D02*
X03045000Y01500000D01*
X03020000Y01525000D01*
X02995000Y01500000D01*
X02945000Y01500000D01*
X02920000Y01525000D01*
X02895000Y01500000D01*
X02845000Y01500000D01*
X02820000Y01525000D01*
X02820000Y01575000D01*
X02845000Y01600000D01*
X02895000Y01600000D01*
X02920000Y01575000D01*
X02945000Y01600000D01*
X02995000Y01600000D01*
X03020000Y01575000D01*
X03045000Y01600000D01*
X03095000Y01600000D01*
X03120000Y01575000D01*
X03120000Y01525000D01*
X03095000Y01500000D01*
X03020000Y01525000D02*
X03020000Y01575000D01*
X02920000Y01575000D02*
X02920000Y01525000D01*
X02805000Y01622500D02*
X02805000Y01315000D01*
X03160000Y01315000D01*
X03295000Y01545000D02*
X03295000Y01730000D01*
X03350000Y01785000D02*
X03490000Y01785000D01*
X03490000Y01545000D01*
X03295000Y01545000D01*
X03380000Y01575000D02*
X03380000Y01625000D01*
X03405000Y01650000D01*
X03380000Y01675000D01*
X03380000Y01725000D01*
X03405000Y01750000D01*
X03455000Y01750000D01*
X03480000Y01725000D01*
X03480000Y01675000D01*
X03455000Y01650000D01*
X03480000Y01625000D01*
X03480000Y01575000D01*
X03455000Y01550000D01*
X03405000Y01550000D01*
X03380000Y01575000D01*
X03405000Y01650000D02*
X03455000Y01650000D01*
X02805000Y01625000D02*
X02805000Y01622500D01*
X01736000Y01753000D02*
X01736000Y01917000D01*
X01639000Y01992000D02*
X01639000Y02032000D01*
X01441000Y02032000D02*
X01441000Y01992000D01*
X01424000Y01917000D02*
X01424000Y01847000D01*
X01424000Y01823000D01*
X01424000Y01753000D01*
X01424000Y01823000D02*
X01424292Y01823004D01*
X01424584Y01823014D01*
X01424876Y01823032D01*
X01425167Y01823057D01*
X01425458Y01823089D01*
X01425747Y01823128D01*
X01426036Y01823174D01*
X01426323Y01823227D01*
X01426609Y01823287D01*
X01426894Y01823354D01*
X01427176Y01823428D01*
X01427457Y01823509D01*
X01427736Y01823596D01*
X01428013Y01823691D01*
X01428287Y01823792D01*
X01428558Y01823900D01*
X01428827Y01824014D01*
X01429093Y01824135D01*
X01429357Y01824262D01*
X01429616Y01824395D01*
X01429873Y01824535D01*
X01430126Y01824682D01*
X01430376Y01824834D01*
X01430621Y01824992D01*
X01430863Y01825156D01*
X01431101Y01825326D01*
X01431334Y01825502D01*
X01431563Y01825683D01*
X01431788Y01825870D01*
X01432008Y01826063D01*
X01432223Y01826260D01*
X01432433Y01826463D01*
X01432639Y01826671D01*
X01432839Y01826884D01*
X01433034Y01827102D01*
X01433224Y01827324D01*
X01433408Y01827551D01*
X01433587Y01827782D01*
X01433759Y01828018D01*
X01433927Y01828257D01*
X01434088Y01828501D01*
X01434243Y01828749D01*
X01434392Y01829000D01*
X01434535Y01829255D01*
X01434672Y01829513D01*
X01434803Y01829775D01*
X01434927Y01830039D01*
X01435044Y01830307D01*
X01435155Y01830577D01*
X01435260Y01830850D01*
X01435357Y01831125D01*
X01435448Y01831403D01*
X01435532Y01831683D01*
X01435610Y01831965D01*
X01435680Y01832248D01*
X01435744Y01832534D01*
X01435800Y01832820D01*
X01435850Y01833108D01*
X01435893Y01833397D01*
X01435928Y01833688D01*
X01435956Y01833978D01*
X01435978Y01834270D01*
X01435992Y01834562D01*
X01435999Y01834854D01*
X01435999Y01835146D01*
X01435992Y01835438D01*
X01435978Y01835730D01*
X01435956Y01836022D01*
X01435928Y01836312D01*
X01435893Y01836603D01*
X01435850Y01836892D01*
X01435800Y01837180D01*
X01435744Y01837466D01*
X01435680Y01837752D01*
X01435610Y01838035D01*
X01435532Y01838317D01*
X01435448Y01838597D01*
X01435357Y01838875D01*
X01435260Y01839150D01*
X01435155Y01839423D01*
X01435044Y01839693D01*
X01434927Y01839961D01*
X01434803Y01840225D01*
X01434672Y01840487D01*
X01434535Y01840745D01*
X01434392Y01841000D01*
X01434243Y01841251D01*
X01434088Y01841499D01*
X01433927Y01841743D01*
X01433759Y01841982D01*
X01433587Y01842218D01*
X01433408Y01842449D01*
X01433224Y01842676D01*
X01433034Y01842898D01*
X01432839Y01843116D01*
X01432639Y01843329D01*
X01432433Y01843537D01*
X01432223Y01843740D01*
X01432008Y01843937D01*
X01431788Y01844130D01*
X01431563Y01844317D01*
X01431334Y01844498D01*
X01431101Y01844674D01*
X01430863Y01844844D01*
X01430621Y01845008D01*
X01430376Y01845166D01*
X01430126Y01845318D01*
X01429873Y01845465D01*
X01429616Y01845605D01*
X01429357Y01845738D01*
X01429093Y01845865D01*
X01428827Y01845986D01*
X01428558Y01846100D01*
X01428287Y01846208D01*
X01428013Y01846309D01*
X01427736Y01846404D01*
X01427457Y01846491D01*
X01427176Y01846572D01*
X01426894Y01846646D01*
X01426609Y01846713D01*
X01426323Y01846773D01*
X01426036Y01846826D01*
X01425747Y01846872D01*
X01425458Y01846911D01*
X01425167Y01846943D01*
X01424876Y01846968D01*
X01424584Y01846986D01*
X01424292Y01846996D01*
X01424000Y01847000D01*
X01620000Y01679000D02*
X01620000Y01639000D01*
X00650000Y02535000D02*
X00650000Y02570000D01*
X00650000Y02670000D01*
X00650000Y02705000D01*
X00570000Y02740000D02*
X00560000Y02740000D01*
X00560000Y02750000D01*
X00500000Y02750000D01*
X00500000Y02740000D01*
X00490000Y02740000D01*
X00410000Y02705000D02*
X00410000Y02670000D01*
X00410000Y02575000D01*
X00410000Y02535000D01*
X00490000Y02500000D02*
X00500000Y02500000D01*
X00500000Y02490000D01*
X00560000Y02490000D01*
X00560000Y02500000D01*
X00570000Y02500000D01*
X00520000Y02620000D02*
X00520003Y02620245D01*
X00520012Y02620491D01*
X00520027Y02620736D01*
X00520048Y02620980D01*
X00520075Y02621224D01*
X00520108Y02621467D01*
X00520147Y02621710D01*
X00520192Y02621951D01*
X00520243Y02622191D01*
X00520300Y02622430D01*
X00520362Y02622667D01*
X00520431Y02622903D01*
X00520505Y02623137D01*
X00520585Y02623369D01*
X00520670Y02623599D01*
X00520761Y02623827D01*
X00520858Y02624052D01*
X00520960Y02624276D01*
X00521068Y02624496D01*
X00521181Y02624714D01*
X00521299Y02624929D01*
X00521423Y02625141D01*
X00521551Y02625350D01*
X00521685Y02625556D01*
X00521824Y02625758D01*
X00521968Y02625957D01*
X00522117Y02626152D01*
X00522270Y02626344D01*
X00522428Y02626532D01*
X00522590Y02626716D01*
X00522758Y02626895D01*
X00522929Y02627071D01*
X00523105Y02627242D01*
X00523284Y02627410D01*
X00523468Y02627572D01*
X00523656Y02627730D01*
X00523848Y02627883D01*
X00524043Y02628032D01*
X00524242Y02628176D01*
X00524444Y02628315D01*
X00524650Y02628449D01*
X00524859Y02628577D01*
X00525071Y02628701D01*
X00525286Y02628819D01*
X00525504Y02628932D01*
X00525724Y02629040D01*
X00525948Y02629142D01*
X00526173Y02629239D01*
X00526401Y02629330D01*
X00526631Y02629415D01*
X00526863Y02629495D01*
X00527097Y02629569D01*
X00527333Y02629638D01*
X00527570Y02629700D01*
X00527809Y02629757D01*
X00528049Y02629808D01*
X00528290Y02629853D01*
X00528533Y02629892D01*
X00528776Y02629925D01*
X00529020Y02629952D01*
X00529264Y02629973D01*
X00529509Y02629988D01*
X00529755Y02629997D01*
X00530000Y02630000D01*
X00530245Y02629997D01*
X00530491Y02629988D01*
X00530736Y02629973D01*
X00530980Y02629952D01*
X00531224Y02629925D01*
X00531467Y02629892D01*
X00531710Y02629853D01*
X00531951Y02629808D01*
X00532191Y02629757D01*
X00532430Y02629700D01*
X00532667Y02629638D01*
X00532903Y02629569D01*
X00533137Y02629495D01*
X00533369Y02629415D01*
X00533599Y02629330D01*
X00533827Y02629239D01*
X00534052Y02629142D01*
X00534276Y02629040D01*
X00534496Y02628932D01*
X00534714Y02628819D01*
X00534929Y02628701D01*
X00535141Y02628577D01*
X00535350Y02628449D01*
X00535556Y02628315D01*
X00535758Y02628176D01*
X00535957Y02628032D01*
X00536152Y02627883D01*
X00536344Y02627730D01*
X00536532Y02627572D01*
X00536716Y02627410D01*
X00536895Y02627242D01*
X00537071Y02627071D01*
X00537242Y02626895D01*
X00537410Y02626716D01*
X00537572Y02626532D01*
X00537730Y02626344D01*
X00537883Y02626152D01*
X00538032Y02625957D01*
X00538176Y02625758D01*
X00538315Y02625556D01*
X00538449Y02625350D01*
X00538577Y02625141D01*
X00538701Y02624929D01*
X00538819Y02624714D01*
X00538932Y02624496D01*
X00539040Y02624276D01*
X00539142Y02624052D01*
X00539239Y02623827D01*
X00539330Y02623599D01*
X00539415Y02623369D01*
X00539495Y02623137D01*
X00539569Y02622903D01*
X00539638Y02622667D01*
X00539700Y02622430D01*
X00539757Y02622191D01*
X00539808Y02621951D01*
X00539853Y02621710D01*
X00539892Y02621467D01*
X00539925Y02621224D01*
X00539952Y02620980D01*
X00539973Y02620736D01*
X00539988Y02620491D01*
X00539997Y02620245D01*
X00540000Y02620000D01*
X00539997Y02619755D01*
X00539988Y02619509D01*
X00539973Y02619264D01*
X00539952Y02619020D01*
X00539925Y02618776D01*
X00539892Y02618533D01*
X00539853Y02618290D01*
X00539808Y02618049D01*
X00539757Y02617809D01*
X00539700Y02617570D01*
X00539638Y02617333D01*
X00539569Y02617097D01*
X00539495Y02616863D01*
X00539415Y02616631D01*
X00539330Y02616401D01*
X00539239Y02616173D01*
X00539142Y02615948D01*
X00539040Y02615724D01*
X00538932Y02615504D01*
X00538819Y02615286D01*
X00538701Y02615071D01*
X00538577Y02614859D01*
X00538449Y02614650D01*
X00538315Y02614444D01*
X00538176Y02614242D01*
X00538032Y02614043D01*
X00537883Y02613848D01*
X00537730Y02613656D01*
X00537572Y02613468D01*
X00537410Y02613284D01*
X00537242Y02613105D01*
X00537071Y02612929D01*
X00536895Y02612758D01*
X00536716Y02612590D01*
X00536532Y02612428D01*
X00536344Y02612270D01*
X00536152Y02612117D01*
X00535957Y02611968D01*
X00535758Y02611824D01*
X00535556Y02611685D01*
X00535350Y02611551D01*
X00535141Y02611423D01*
X00534929Y02611299D01*
X00534714Y02611181D01*
X00534496Y02611068D01*
X00534276Y02610960D01*
X00534052Y02610858D01*
X00533827Y02610761D01*
X00533599Y02610670D01*
X00533369Y02610585D01*
X00533137Y02610505D01*
X00532903Y02610431D01*
X00532667Y02610362D01*
X00532430Y02610300D01*
X00532191Y02610243D01*
X00531951Y02610192D01*
X00531710Y02610147D01*
X00531467Y02610108D01*
X00531224Y02610075D01*
X00530980Y02610048D01*
X00530736Y02610027D01*
X00530491Y02610012D01*
X00530245Y02610003D01*
X00530000Y02610000D01*
X00529755Y02610003D01*
X00529509Y02610012D01*
X00529264Y02610027D01*
X00529020Y02610048D01*
X00528776Y02610075D01*
X00528533Y02610108D01*
X00528290Y02610147D01*
X00528049Y02610192D01*
X00527809Y02610243D01*
X00527570Y02610300D01*
X00527333Y02610362D01*
X00527097Y02610431D01*
X00526863Y02610505D01*
X00526631Y02610585D01*
X00526401Y02610670D01*
X00526173Y02610761D01*
X00525948Y02610858D01*
X00525724Y02610960D01*
X00525504Y02611068D01*
X00525286Y02611181D01*
X00525071Y02611299D01*
X00524859Y02611423D01*
X00524650Y02611551D01*
X00524444Y02611685D01*
X00524242Y02611824D01*
X00524043Y02611968D01*
X00523848Y02612117D01*
X00523656Y02612270D01*
X00523468Y02612428D01*
X00523284Y02612590D01*
X00523105Y02612758D01*
X00522929Y02612929D01*
X00522758Y02613105D01*
X00522590Y02613284D01*
X00522428Y02613468D01*
X00522270Y02613656D01*
X00522117Y02613848D01*
X00521968Y02614043D01*
X00521824Y02614242D01*
X00521685Y02614444D01*
X00521551Y02614650D01*
X00521423Y02614859D01*
X00521299Y02615071D01*
X00521181Y02615286D01*
X00521068Y02615504D01*
X00520960Y02615724D01*
X00520858Y02615948D01*
X00520761Y02616173D01*
X00520670Y02616401D01*
X00520585Y02616631D01*
X00520505Y02616863D01*
X00520431Y02617097D01*
X00520362Y02617333D01*
X00520300Y02617570D01*
X00520243Y02617809D01*
X00520192Y02618049D01*
X00520147Y02618290D01*
X00520108Y02618533D01*
X00520075Y02618776D01*
X00520048Y02619020D01*
X00520027Y02619264D01*
X00520012Y02619509D01*
X00520003Y02619755D01*
X00520000Y02620000D01*
X00460000Y02620000D02*
X00460021Y02621718D01*
X00460084Y02623435D01*
X00460190Y02625150D01*
X00460337Y02626861D01*
X00460526Y02628569D01*
X00460758Y02630271D01*
X00461031Y02631967D01*
X00461345Y02633656D01*
X00461701Y02635337D01*
X00462098Y02637009D01*
X00462536Y02638670D01*
X00463014Y02640320D01*
X00463533Y02641958D01*
X00464092Y02643582D01*
X00464691Y02645193D01*
X00465328Y02646788D01*
X00466005Y02648367D01*
X00466721Y02649929D01*
X00467474Y02651473D01*
X00468266Y02652998D01*
X00469094Y02654503D01*
X00469959Y02655987D01*
X00470860Y02657450D01*
X00471797Y02658890D01*
X00472769Y02660307D01*
X00473775Y02661699D01*
X00474816Y02663066D01*
X00475889Y02664408D01*
X00476995Y02665722D01*
X00478133Y02667009D01*
X00479303Y02668268D01*
X00480503Y02669497D01*
X00481732Y02670697D01*
X00482991Y02671867D01*
X00484278Y02673005D01*
X00485592Y02674111D01*
X00486934Y02675184D01*
X00488301Y02676225D01*
X00489693Y02677231D01*
X00491110Y02678203D01*
X00492550Y02679140D01*
X00494013Y02680041D01*
X00495497Y02680906D01*
X00497002Y02681734D01*
X00498527Y02682526D01*
X00500071Y02683279D01*
X00501633Y02683995D01*
X00503212Y02684672D01*
X00504807Y02685309D01*
X00506418Y02685908D01*
X00508042Y02686467D01*
X00509680Y02686986D01*
X00511330Y02687464D01*
X00512991Y02687902D01*
X00514663Y02688299D01*
X00516344Y02688655D01*
X00518033Y02688969D01*
X00519729Y02689242D01*
X00521431Y02689474D01*
X00523139Y02689663D01*
X00524850Y02689810D01*
X00526565Y02689916D01*
X00528282Y02689979D01*
X00530000Y02690000D01*
X00531718Y02689979D01*
X00533435Y02689916D01*
X00535150Y02689810D01*
X00536861Y02689663D01*
X00538569Y02689474D01*
X00540271Y02689242D01*
X00541967Y02688969D01*
X00543656Y02688655D01*
X00545337Y02688299D01*
X00547009Y02687902D01*
X00548670Y02687464D01*
X00550320Y02686986D01*
X00551958Y02686467D01*
X00553582Y02685908D01*
X00555193Y02685309D01*
X00556788Y02684672D01*
X00558367Y02683995D01*
X00559929Y02683279D01*
X00561473Y02682526D01*
X00562998Y02681734D01*
X00564503Y02680906D01*
X00565987Y02680041D01*
X00567450Y02679140D01*
X00568890Y02678203D01*
X00570307Y02677231D01*
X00571699Y02676225D01*
X00573066Y02675184D01*
X00574408Y02674111D01*
X00575722Y02673005D01*
X00577009Y02671867D01*
X00578268Y02670697D01*
X00579497Y02669497D01*
X00580697Y02668268D01*
X00581867Y02667009D01*
X00583005Y02665722D01*
X00584111Y02664408D01*
X00585184Y02663066D01*
X00586225Y02661699D01*
X00587231Y02660307D01*
X00588203Y02658890D01*
X00589140Y02657450D01*
X00590041Y02655987D01*
X00590906Y02654503D01*
X00591734Y02652998D01*
X00592526Y02651473D01*
X00593279Y02649929D01*
X00593995Y02648367D01*
X00594672Y02646788D01*
X00595309Y02645193D01*
X00595908Y02643582D01*
X00596467Y02641958D01*
X00596986Y02640320D01*
X00597464Y02638670D01*
X00597902Y02637009D01*
X00598299Y02635337D01*
X00598655Y02633656D01*
X00598969Y02631967D01*
X00599242Y02630271D01*
X00599474Y02628569D01*
X00599663Y02626861D01*
X00599810Y02625150D01*
X00599916Y02623435D01*
X00599979Y02621718D01*
X00600000Y02620000D01*
X00599979Y02618282D01*
X00599916Y02616565D01*
X00599810Y02614850D01*
X00599663Y02613139D01*
X00599474Y02611431D01*
X00599242Y02609729D01*
X00598969Y02608033D01*
X00598655Y02606344D01*
X00598299Y02604663D01*
X00597902Y02602991D01*
X00597464Y02601330D01*
X00596986Y02599680D01*
X00596467Y02598042D01*
X00595908Y02596418D01*
X00595309Y02594807D01*
X00594672Y02593212D01*
X00593995Y02591633D01*
X00593279Y02590071D01*
X00592526Y02588527D01*
X00591734Y02587002D01*
X00590906Y02585497D01*
X00590041Y02584013D01*
X00589140Y02582550D01*
X00588203Y02581110D01*
X00587231Y02579693D01*
X00586225Y02578301D01*
X00585184Y02576934D01*
X00584111Y02575592D01*
X00583005Y02574278D01*
X00581867Y02572991D01*
X00580697Y02571732D01*
X00579497Y02570503D01*
X00578268Y02569303D01*
X00577009Y02568133D01*
X00575722Y02566995D01*
X00574408Y02565889D01*
X00573066Y02564816D01*
X00571699Y02563775D01*
X00570307Y02562769D01*
X00568890Y02561797D01*
X00567450Y02560860D01*
X00565987Y02559959D01*
X00564503Y02559094D01*
X00562998Y02558266D01*
X00561473Y02557474D01*
X00559929Y02556721D01*
X00558367Y02556005D01*
X00556788Y02555328D01*
X00555193Y02554691D01*
X00553582Y02554092D01*
X00551958Y02553533D01*
X00550320Y02553014D01*
X00548670Y02552536D01*
X00547009Y02552098D01*
X00545337Y02551701D01*
X00543656Y02551345D01*
X00541967Y02551031D01*
X00540271Y02550758D01*
X00538569Y02550526D01*
X00536861Y02550337D01*
X00535150Y02550190D01*
X00533435Y02550084D01*
X00531718Y02550021D01*
X00530000Y02550000D01*
X00528282Y02550021D01*
X00526565Y02550084D01*
X00524850Y02550190D01*
X00523139Y02550337D01*
X00521431Y02550526D01*
X00519729Y02550758D01*
X00518033Y02551031D01*
X00516344Y02551345D01*
X00514663Y02551701D01*
X00512991Y02552098D01*
X00511330Y02552536D01*
X00509680Y02553014D01*
X00508042Y02553533D01*
X00506418Y02554092D01*
X00504807Y02554691D01*
X00503212Y02555328D01*
X00501633Y02556005D01*
X00500071Y02556721D01*
X00498527Y02557474D01*
X00497002Y02558266D01*
X00495497Y02559094D01*
X00494013Y02559959D01*
X00492550Y02560860D01*
X00491110Y02561797D01*
X00489693Y02562769D01*
X00488301Y02563775D01*
X00486934Y02564816D01*
X00485592Y02565889D01*
X00484278Y02566995D01*
X00482991Y02568133D01*
X00481732Y02569303D01*
X00480503Y02570503D01*
X00479303Y02571732D01*
X00478133Y02572991D01*
X00476995Y02574278D01*
X00475889Y02575592D01*
X00474816Y02576934D01*
X00473775Y02578301D01*
X00472769Y02579693D01*
X00471797Y02581110D01*
X00470860Y02582550D01*
X00469959Y02584013D01*
X00469094Y02585497D01*
X00468266Y02587002D01*
X00467474Y02588527D01*
X00466721Y02590071D01*
X00466005Y02591633D01*
X00465328Y02593212D01*
X00464691Y02594807D01*
X00464092Y02596418D01*
X00463533Y02598042D01*
X00463014Y02599680D01*
X00462536Y02601330D01*
X00462098Y02602991D01*
X00461701Y02604663D01*
X00461345Y02606344D01*
X00461031Y02608033D01*
X00460758Y02609729D01*
X00460526Y02611431D01*
X00460337Y02613139D01*
X00460190Y02614850D01*
X00460084Y02616565D01*
X00460021Y02618282D01*
X00460000Y02620000D01*
X00470000Y02310000D02*
X00420000Y02310000D01*
X00395000Y02285000D01*
X00395000Y02235000D01*
X00420000Y02210000D01*
X00470000Y02210000D01*
X00495000Y02235000D01*
X00495000Y02285000D01*
X00470000Y02310000D01*
X00470000Y02210000D02*
X00495000Y02185000D01*
X00495000Y02135000D01*
X00470000Y02110000D01*
X00420000Y02110000D01*
X00395000Y02135000D01*
X00395000Y02185000D01*
X00420000Y02210000D01*
X02450000Y02615000D02*
X02450000Y02805000D01*
X02720000Y02805000D01*
X02720000Y02615000D01*
X02450000Y02615000D01*
X02510000Y02675000D02*
X02485000Y02700000D01*
X02485000Y02750000D01*
X02510000Y02775000D01*
X02560000Y02775000D01*
X02585000Y02750000D01*
X02610000Y02775000D01*
X02660000Y02775000D01*
X02685000Y02750000D01*
X02685000Y02700000D01*
X02660000Y02675000D01*
X02610000Y02675000D01*
X02585000Y02700000D01*
X02560000Y02675000D01*
X02510000Y02675000D01*
X02585000Y02700000D02*
X02585000Y02750000D01*
D16*
X01326000Y01903384D02*
X01326000Y01854009D01*
X01326000Y01878697D02*
X01251937Y01878697D01*
X01276625Y01854009D01*
X01264281Y01827880D02*
X01251937Y01815536D01*
X01251937Y01790848D01*
X01264281Y01778504D01*
X01276625Y01778504D01*
X01288968Y01790848D01*
X01288968Y01815536D01*
X01301312Y01827880D01*
X01313656Y01827880D01*
X01326000Y01815536D01*
X01326000Y01790848D01*
X01313656Y01778504D01*
X01313656Y01752375D02*
X01251937Y01752375D01*
X01239593Y01803192D02*
X01338344Y01803192D01*
X01313656Y01752375D02*
X01326000Y01740032D01*
X01326000Y01715344D01*
X01313656Y01703000D01*
X01251937Y01703000D01*
X02805000Y01622500D02*
X03160000Y01622500D01*
X03160000Y01315000D01*
D17*
X03402236Y02003094D03*
X03431764Y02003094D03*
X03455236Y02004094D03*
X03484764Y02004094D03*
D18*
X03470000Y02004094D03*
X03417000Y02003094D03*
D19*
X03312992Y02609213D03*
D20*
X02823031Y00569764D02*
X02576969Y00569764D01*
X02576969Y00290236D01*
X02823031Y00290236D01*
X02823031Y00569764D01*
D21*
X02700000Y00334528D03*
D22*
X00760000Y00376516D03*
D23*
X02474480Y01295000D03*
D24*
X01785000Y01797520D03*
M02*
