G75*
%MOIN*%
%OFA0B0*%
%FSLAX26Y26*%
%IPPOS*%
%LPD*%
%AMOC8*
5,1,8,0,0,1.08239X$1,22.5*
%
%ADD10R,0.059055X0.051181*%
%ADD11R,0.035433X0.027559*%
%ADD12R,0.027559X0.035433*%
%ADD13R,0.043307X0.039370*%
%ADD14R,0.070984X0.062992*%
%ADD15R,0.062992X0.070984*%
%ADD16C,0.060000*%
%ADD17R,0.035433X0.037402*%
%ADD18R,0.021654X0.037402*%
%ADD19R,0.037402X0.035433*%
%ADD20R,0.019685X0.009449*%
%ADD21R,0.375000X0.250000*%
%ADD22C,0.031000*%
%ADD23C,0.012000*%
%ADD24C,0.008000*%
%ADD25C,0.010000*%
%ADD26C,0.016000*%
%ADD27C,0.006000*%
D10*
X01595000Y01487598D03*
X01595000Y01562402D03*
X01817500Y01562598D03*
X01817500Y01637402D03*
X01930000Y01737598D03*
X01930000Y01812402D03*
D11*
X02275000Y01670591D03*
X02325000Y01670591D03*
X02375000Y01670591D03*
X02375000Y01619409D03*
X02325000Y01619409D03*
X02275000Y01619409D03*
X02710000Y01824409D03*
X02710000Y01875591D03*
X02910000Y01859409D03*
X02970000Y01859409D03*
X02970000Y01910591D03*
X02910000Y01910591D03*
D12*
X02880591Y01950000D03*
X02829409Y01950000D03*
X02909409Y01815000D03*
X02960591Y01815000D03*
X02710591Y01725000D03*
X02659409Y01725000D03*
X02660591Y02625000D03*
X02609409Y02625000D03*
D13*
X02636535Y01775000D03*
X02703465Y01775000D03*
D14*
X02100000Y02144016D03*
X02000000Y02144016D03*
X01900000Y02144016D03*
X01810000Y02144016D03*
X01700000Y02144016D03*
X01590000Y02144016D03*
X01500000Y02144016D03*
X01400000Y02144016D03*
X01300000Y02144016D03*
X01200000Y02144016D03*
X01100000Y02144016D03*
X01000000Y02144016D03*
X01000000Y02255984D03*
X01100000Y02255984D03*
X01200000Y02255984D03*
X01300000Y02255984D03*
X01400000Y02255984D03*
X01500000Y02255984D03*
X01590000Y02255984D03*
X01700000Y02255984D03*
X01810000Y02255984D03*
X01900000Y02255984D03*
X02000000Y02255984D03*
X02100000Y02255984D03*
X00520000Y02574016D03*
X00520000Y02685984D03*
D15*
X01504016Y02350000D03*
X01615984Y02350000D03*
X02376016Y01370000D03*
X02487984Y01370000D03*
D16*
X02870000Y01520000D02*
X02870000Y01580000D01*
X02970000Y01580000D02*
X02970000Y01520000D01*
X03070000Y01520000D02*
X03070000Y01580000D01*
X03400000Y01600000D02*
X03460000Y01600000D01*
X03460000Y01700000D02*
X03400000Y01700000D01*
X02635000Y02695000D02*
X02635000Y02755000D01*
X02535000Y02755000D02*
X02535000Y02695000D01*
X00619000Y02718000D02*
X00619000Y02778000D01*
X00441000Y02778000D02*
X00441000Y02718000D01*
X00441000Y02522000D02*
X00441000Y02462000D01*
X00619000Y02462000D02*
X00619000Y02522000D01*
X00475000Y02260000D02*
X00415000Y02260000D01*
X00415000Y02160000D02*
X00475000Y02160000D01*
D17*
X01572992Y01835000D03*
X01697008Y01835000D03*
D18*
X02816181Y01769370D03*
X02865394Y01769370D03*
X02914606Y01769370D03*
X02963819Y01769370D03*
X02963819Y01690630D03*
X02914606Y01690630D03*
X02865394Y01690630D03*
X02816181Y01690630D03*
D19*
X01990000Y01722992D03*
X01990000Y01847008D03*
D20*
X02770630Y01854252D03*
X02770630Y01838504D03*
X02770630Y01870000D03*
X02770630Y01885748D03*
X02770630Y01901496D03*
X02849370Y01901496D03*
X02849370Y01885748D03*
X02849370Y01870000D03*
X02849370Y01854252D03*
X02849370Y01838504D03*
D21*
X01875000Y00830000D03*
X01870000Y00225000D03*
D22*
X02130000Y00270000D03*
X02180000Y00270000D03*
X02180000Y00315000D03*
X02180000Y00360000D03*
X02130000Y00360000D03*
X02130000Y00315000D03*
X02130000Y00405000D03*
X02180000Y00405000D03*
X02230000Y00405000D03*
X02280000Y00405000D03*
X02280000Y00360000D03*
X02280000Y00315000D03*
X02230000Y00315000D03*
X02230000Y00360000D03*
X02230000Y00270000D03*
X02280000Y00270000D03*
X02330000Y00270000D03*
X02380000Y00270000D03*
X02380000Y00315000D03*
X02380000Y00360000D03*
X02330000Y00360000D03*
X02330000Y00315000D03*
X02330000Y00405000D03*
X02380000Y00405000D03*
X02430000Y00405000D03*
X02480000Y00405000D03*
X02480000Y00360000D03*
X02480000Y00315000D03*
X02430000Y00315000D03*
X02430000Y00360000D03*
X02430000Y00270000D03*
X02480000Y00270000D03*
X02475000Y00220000D03*
X02525000Y00220000D03*
X02530000Y00270000D03*
X02580000Y00270000D03*
X02575000Y00220000D03*
X02625000Y00220000D03*
X02625000Y00175000D03*
X02625000Y00130000D03*
X02575000Y00130000D03*
X02575000Y00175000D03*
X02525000Y00175000D03*
X02525000Y00130000D03*
X02475000Y00130000D03*
X02475000Y00175000D03*
X02475000Y00085000D03*
X02525000Y00085000D03*
X02575000Y00085000D03*
X02625000Y00085000D03*
X02675000Y00085000D03*
X02725000Y00085000D03*
X02725000Y00130000D03*
X02725000Y00175000D03*
X02675000Y00175000D03*
X02675000Y00130000D03*
X02675000Y00220000D03*
X02725000Y00220000D03*
X02775000Y00220000D03*
X02825000Y00220000D03*
X02825000Y00175000D03*
X02825000Y00130000D03*
X02775000Y00130000D03*
X02775000Y00175000D03*
X02775000Y00085000D03*
X02825000Y00085000D03*
X02875000Y00085000D03*
X02925000Y00085000D03*
X02925000Y00130000D03*
X02925000Y00175000D03*
X02875000Y00175000D03*
X02875000Y00130000D03*
X02875000Y00220000D03*
X02925000Y00220000D03*
X03005000Y00520000D03*
X03005000Y00565000D03*
X03005000Y00610000D03*
X03005000Y00655000D03*
X03055000Y00655000D03*
X03105000Y00655000D03*
X03105000Y00610000D03*
X03105000Y00565000D03*
X03055000Y00565000D03*
X03055000Y00610000D03*
X03055000Y00520000D03*
X03105000Y00520000D03*
X03155000Y00520000D03*
X03205000Y00520000D03*
X03205000Y00565000D03*
X03205000Y00610000D03*
X03155000Y00610000D03*
X03155000Y00565000D03*
X03155000Y00655000D03*
X03205000Y00655000D03*
X03255000Y00655000D03*
X03305000Y00655000D03*
X03305000Y00610000D03*
X03305000Y00565000D03*
X03255000Y00565000D03*
X03255000Y00610000D03*
X03255000Y00520000D03*
X03305000Y00520000D03*
X03355000Y00520000D03*
X03405000Y00520000D03*
X03405000Y00565000D03*
X03405000Y00610000D03*
X03355000Y00610000D03*
X03355000Y00565000D03*
X03355000Y00655000D03*
X03405000Y00655000D03*
X03455000Y00655000D03*
X03455000Y00610000D03*
X03455000Y00565000D03*
X03455000Y00520000D03*
X03425000Y01015000D03*
X03425000Y01060000D03*
X03425000Y01105000D03*
X03425000Y01150000D03*
X03375000Y01150000D03*
X03325000Y01150000D03*
X03325000Y01105000D03*
X03325000Y01060000D03*
X03375000Y01060000D03*
X03375000Y01105000D03*
X03375000Y01015000D03*
X03325000Y01015000D03*
X03275000Y01015000D03*
X03225000Y01015000D03*
X03225000Y01060000D03*
X03225000Y01105000D03*
X03275000Y01105000D03*
X03275000Y01060000D03*
X03275000Y01150000D03*
X03225000Y01150000D03*
X03175000Y01150000D03*
X03125000Y01150000D03*
X03125000Y01105000D03*
X03125000Y01060000D03*
X03175000Y01060000D03*
X03175000Y01105000D03*
X03175000Y01015000D03*
X03125000Y01015000D03*
X03075000Y01015000D03*
X03025000Y01015000D03*
X02975000Y01015000D03*
X02975000Y01060000D03*
X02975000Y01105000D03*
X03025000Y01105000D03*
X03025000Y01060000D03*
X03075000Y01060000D03*
X03075000Y01105000D03*
X03075000Y01150000D03*
X03025000Y01150000D03*
X02975000Y01150000D03*
X02620000Y01050000D03*
X02575000Y01050000D03*
X02530000Y01050000D03*
X02530000Y01000000D03*
X02575000Y01000000D03*
X02620000Y01000000D03*
X02620000Y00950000D03*
X02575000Y00950000D03*
X02530000Y00950000D03*
X02485000Y00950000D03*
X02485000Y00900000D03*
X02530000Y00900000D03*
X02575000Y00900000D03*
X02620000Y00900000D03*
X02620000Y00850000D03*
X02575000Y00850000D03*
X02530000Y00850000D03*
X02530000Y00800000D03*
X02575000Y00800000D03*
X02620000Y00800000D03*
X02620000Y00750000D03*
X02575000Y00750000D03*
X02530000Y00750000D03*
X02485000Y00750000D03*
X02485000Y00700000D03*
X02485000Y00650000D03*
X02530000Y00650000D03*
X02575000Y00650000D03*
X02620000Y00650000D03*
X02620000Y00700000D03*
X02575000Y00700000D03*
X02530000Y00700000D03*
X02530000Y00600000D03*
X02575000Y00600000D03*
X02620000Y00600000D03*
X02485000Y00600000D03*
X02265000Y00605000D03*
X02220000Y00605000D03*
X02175000Y00605000D03*
X02130000Y00605000D03*
X02130000Y00555000D03*
X02175000Y00555000D03*
X02220000Y00555000D03*
X02265000Y00555000D03*
X02265000Y00655000D03*
X02220000Y00655000D03*
X02175000Y00655000D03*
X02130000Y00655000D03*
X02080000Y00655000D03*
X02035000Y00655000D03*
X01990000Y00655000D03*
X01945000Y00655000D03*
X01900000Y00655000D03*
X01855000Y00655000D03*
X01810000Y00655000D03*
X01765000Y00655000D03*
X01712500Y00655000D03*
X01667500Y00655000D03*
X01622500Y00655000D03*
X01577500Y00655000D03*
X01577500Y00605000D03*
X01622500Y00605000D03*
X01667500Y00605000D03*
X01712500Y00605000D03*
X01765000Y00605000D03*
X01810000Y00605000D03*
X01855000Y00605000D03*
X01900000Y00605000D03*
X01945000Y00605000D03*
X01990000Y00605000D03*
X02035000Y00605000D03*
X02080000Y00605000D03*
X02080000Y00555000D03*
X02035000Y00555000D03*
X01990000Y00555000D03*
X01945000Y00555000D03*
X01900000Y00555000D03*
X01855000Y00555000D03*
X01810000Y00555000D03*
X01765000Y00555000D03*
X01712500Y00555000D03*
X01667500Y00555000D03*
X01622500Y00555000D03*
X01577500Y00555000D03*
X01550000Y00405000D03*
X01500000Y00405000D03*
X01500000Y00360000D03*
X01500000Y00315000D03*
X01550000Y00315000D03*
X01550000Y00360000D03*
X01550000Y00270000D03*
X01500000Y00270000D03*
X01450000Y00270000D03*
X01400000Y00270000D03*
X01400000Y00315000D03*
X01400000Y00360000D03*
X01450000Y00360000D03*
X01450000Y00315000D03*
X01450000Y00405000D03*
X01400000Y00405000D03*
X01350000Y00405000D03*
X01300000Y00405000D03*
X01300000Y00360000D03*
X01300000Y00315000D03*
X01350000Y00315000D03*
X01350000Y00360000D03*
X01350000Y00270000D03*
X01300000Y00270000D03*
X01250000Y00270000D03*
X01200000Y00270000D03*
X01200000Y00220000D03*
X01200000Y00175000D03*
X01200000Y00130000D03*
X01200000Y00085000D03*
X01150000Y00085000D03*
X01100000Y00085000D03*
X01100000Y00130000D03*
X01100000Y00175000D03*
X01150000Y00175000D03*
X01150000Y00130000D03*
X01150000Y00220000D03*
X01150000Y00270000D03*
X01100000Y00270000D03*
X01100000Y00220000D03*
X01050000Y00220000D03*
X01000000Y00220000D03*
X00950000Y00220000D03*
X00950000Y00175000D03*
X00950000Y00130000D03*
X01000000Y00130000D03*
X01000000Y00175000D03*
X01050000Y00175000D03*
X01050000Y00130000D03*
X01050000Y00085000D03*
X01000000Y00085000D03*
X00950000Y00085000D03*
X00900000Y00085000D03*
X00850000Y00085000D03*
X00850000Y00130000D03*
X00850000Y00175000D03*
X00900000Y00175000D03*
X00900000Y00130000D03*
X00900000Y00220000D03*
X00850000Y00220000D03*
X00800000Y00220000D03*
X00750000Y00220000D03*
X00750000Y00175000D03*
X00750000Y00130000D03*
X00800000Y00130000D03*
X00800000Y00175000D03*
X00800000Y00085000D03*
X00750000Y00085000D03*
X01100000Y00315000D03*
X01100000Y00360000D03*
X01150000Y00360000D03*
X01150000Y00315000D03*
X01200000Y00315000D03*
X01200000Y00360000D03*
X01250000Y00360000D03*
X01250000Y00315000D03*
X01250000Y00405000D03*
X01200000Y00405000D03*
X01150000Y00405000D03*
X01100000Y00405000D03*
X01210000Y00550000D03*
X01210000Y00590000D03*
X01250000Y00590000D03*
X01250000Y00550000D03*
X01290000Y00550000D03*
X01290000Y00590000D03*
X01290000Y00630000D03*
X01290000Y00670000D03*
X01250000Y00670000D03*
X01250000Y00630000D03*
X01210000Y00630000D03*
X01210000Y00670000D03*
X01210000Y00710000D03*
X01210000Y00750000D03*
X01210000Y00790000D03*
X01250000Y00790000D03*
X01250000Y00750000D03*
X01250000Y00710000D03*
X01290000Y00710000D03*
X01290000Y00750000D03*
X01290000Y00790000D03*
X01290000Y00830000D03*
X01290000Y00870000D03*
X01250000Y00870000D03*
X01250000Y00830000D03*
X01210000Y00830000D03*
X01210000Y00870000D03*
X01210000Y00910000D03*
X01210000Y00950000D03*
X01210000Y00990000D03*
X01250000Y00990000D03*
X01250000Y00950000D03*
X01250000Y00910000D03*
X01290000Y00910000D03*
X01290000Y00950000D03*
X01290000Y00990000D03*
X01290000Y01030000D03*
X01290000Y01070000D03*
X01290000Y01110000D03*
X01250000Y01110000D03*
X01250000Y01070000D03*
X01250000Y01030000D03*
X01210000Y01030000D03*
X01210000Y01070000D03*
X01210000Y01110000D03*
X01330000Y01110000D03*
X01330000Y01070000D03*
X01330000Y01030000D03*
X01370000Y01030000D03*
X01370000Y01070000D03*
X01370000Y01110000D03*
X01370000Y00990000D03*
X01370000Y00950000D03*
X01370000Y00910000D03*
X01330000Y00910000D03*
X01330000Y00950000D03*
X01330000Y00990000D03*
X01330000Y00870000D03*
X01330000Y00830000D03*
X01370000Y00830000D03*
X01370000Y00870000D03*
X01370000Y00790000D03*
X01370000Y00750000D03*
X01370000Y00710000D03*
X01330000Y00710000D03*
X01330000Y00750000D03*
X01330000Y00790000D03*
X01330000Y00670000D03*
X01330000Y00630000D03*
X01370000Y00630000D03*
X01370000Y00670000D03*
X01370000Y00590000D03*
X01370000Y00550000D03*
X01330000Y00550000D03*
X01330000Y00590000D03*
X01570000Y00730000D03*
X01575000Y01025000D03*
X01620000Y01025000D03*
X01665000Y01025000D03*
X01665000Y01075000D03*
X01620000Y01075000D03*
X01575000Y01075000D03*
X01575000Y01125000D03*
X01620000Y01125000D03*
X01665000Y01125000D03*
X01710000Y01125000D03*
X01755000Y01125000D03*
X01800000Y01125000D03*
X01845000Y01125000D03*
X01890000Y01125000D03*
X01940000Y01125000D03*
X01985000Y01125000D03*
X02030000Y01125000D03*
X02075000Y01125000D03*
X02120000Y01125000D03*
X02165000Y01125000D03*
X02210000Y01125000D03*
X02255000Y01125000D03*
X02255000Y01075000D03*
X02255000Y01025000D03*
X02210000Y01025000D03*
X02165000Y01025000D03*
X02120000Y01025000D03*
X02120000Y01075000D03*
X02165000Y01075000D03*
X02210000Y01075000D03*
X02075000Y01075000D03*
X02030000Y01075000D03*
X01985000Y01075000D03*
X01985000Y01025000D03*
X02030000Y01025000D03*
X02075000Y01025000D03*
X01940000Y01025000D03*
X01940000Y01075000D03*
X01890000Y01075000D03*
X01845000Y01075000D03*
X01845000Y01025000D03*
X01890000Y01025000D03*
X01800000Y01025000D03*
X01755000Y01025000D03*
X01710000Y01025000D03*
X01710000Y01075000D03*
X01755000Y01075000D03*
X01800000Y01075000D03*
X02210000Y01210000D03*
X02320000Y01285000D03*
X02560000Y01350000D03*
X02485000Y01050000D03*
X02485000Y01000000D03*
X02290000Y00930000D03*
X02485000Y00850000D03*
X02485000Y00800000D03*
X02530000Y00405000D03*
X02580000Y00405000D03*
X02580000Y00360000D03*
X02580000Y00315000D03*
X02530000Y00315000D03*
X02530000Y00360000D03*
X01715000Y01460000D03*
X01750000Y01540000D03*
X01750000Y01665000D03*
X01820000Y01710000D03*
X01880000Y01685000D03*
X01785000Y01830000D03*
X01635000Y01860000D03*
X01625000Y01805000D03*
X01580000Y01790000D03*
X01510000Y01835000D03*
X01475000Y01855000D03*
X01555000Y01885000D03*
X01405000Y01740000D03*
X01355000Y01735000D03*
X01395000Y01545000D03*
X01595000Y01635000D03*
X01285000Y01940000D03*
X01205000Y02060000D03*
X01100000Y02065000D03*
X01000000Y02145000D03*
X01100000Y02325000D03*
X01200000Y02325000D03*
X01300000Y02325000D03*
X01400000Y02325000D03*
X01410000Y02385000D03*
X01470000Y02465000D03*
X01637402Y02430000D03*
X01700000Y02325000D03*
X01810000Y02325000D03*
X01900000Y02325000D03*
X02000000Y02325000D03*
X02100000Y02330000D03*
X02320000Y02440000D03*
X02625000Y02160000D03*
X02730000Y02005000D03*
X02830000Y02005000D03*
X03000000Y02115000D03*
X03060000Y02120000D03*
X03115000Y02110000D03*
X03170000Y02020000D03*
X03375000Y02115000D03*
X03320000Y02435000D03*
X02940000Y02230000D03*
X02820000Y02195000D03*
X02700000Y02395000D03*
X02765000Y02445000D03*
X02820000Y02510000D03*
X02800000Y02545000D03*
X02840000Y02545000D03*
X02100000Y02085000D03*
X01920000Y02035000D03*
X01900000Y02080000D03*
X01850000Y02085000D03*
X01810000Y02144016D03*
X01700000Y02145000D03*
X01605000Y02080000D03*
X01520000Y02075000D03*
X01400000Y02142500D03*
X01300000Y02145000D03*
X00765000Y01820000D03*
X00725000Y01720000D03*
X00645000Y01735000D03*
X00580000Y01665000D03*
X00580000Y01620000D03*
X00815000Y01630000D03*
X00815000Y01680000D03*
X01210000Y01270000D03*
X00745000Y01135000D03*
X00745000Y01090000D03*
X00695000Y01090000D03*
X00695000Y01135000D03*
X00645000Y01135000D03*
X00645000Y01090000D03*
X00595000Y01090000D03*
X00595000Y01135000D03*
X00545000Y01135000D03*
X00545000Y01090000D03*
X00495000Y01090000D03*
X00495000Y01135000D03*
X00705000Y01025000D03*
X00750000Y01025000D03*
X00750000Y00975000D03*
X00705000Y00975000D03*
X00705000Y00925000D03*
X00750000Y00925000D03*
X00750000Y00875000D03*
X00750000Y00825000D03*
X00705000Y00825000D03*
X00705000Y00875000D03*
X00705000Y00775000D03*
X00750000Y00775000D03*
X00575000Y00880000D03*
X00575000Y00925000D03*
X00525000Y00925000D03*
X00475000Y00925000D03*
X00475000Y00880000D03*
X00525000Y00880000D03*
X00425000Y00880000D03*
X00375000Y00880000D03*
X00375000Y00925000D03*
X00425000Y00925000D03*
X00325000Y00925000D03*
X00325000Y00880000D03*
X00325000Y00695000D03*
X00325000Y00650000D03*
X00275000Y00650000D03*
X00275000Y00695000D03*
X00275000Y00605000D03*
X00325000Y00605000D03*
X00325000Y00560000D03*
X00275000Y00560000D03*
X00375000Y00560000D03*
X00425000Y00560000D03*
X00425000Y00605000D03*
X00375000Y00605000D03*
X00375000Y00650000D03*
X00375000Y00695000D03*
X00425000Y00695000D03*
X00425000Y00650000D03*
X00475000Y00650000D03*
X00475000Y00695000D03*
X00525000Y00695000D03*
X00525000Y00650000D03*
X00525000Y00605000D03*
X00475000Y00605000D03*
X00475000Y00560000D03*
X00525000Y00560000D03*
X02065000Y01835000D03*
X02120000Y01870000D03*
X02235000Y01815000D03*
X02185000Y01670000D03*
X02455000Y01700000D03*
X02640000Y01825000D03*
X02770000Y01760000D03*
X02935000Y01735000D03*
X00970000Y02720000D03*
D23*
X00970000Y02685000D01*
X00910000Y02625000D01*
X00615000Y02625000D01*
X00554016Y02685984D01*
X00520000Y02685984D01*
X00441000Y02748000D02*
X00441000Y02492000D01*
X00305000Y02356000D01*
X00305000Y02215000D01*
X00360000Y02160000D01*
X00445000Y02160000D01*
X00441000Y02492000D02*
X00520000Y02571000D01*
X00520000Y02574016D01*
X01000000Y02144016D02*
X01000000Y02040000D01*
X01055000Y01985000D01*
X01235000Y01985000D01*
X01270000Y02020000D01*
X01435000Y02020000D01*
X01475000Y01980000D01*
X01475000Y01855000D01*
X01510000Y01835000D02*
X01510000Y01985000D01*
X01450000Y02045000D01*
X01255000Y02045000D01*
X01230000Y02020000D01*
X01140000Y02020000D01*
X01100000Y02060000D01*
X01100000Y02065000D01*
X01100000Y02144016D01*
X01200000Y02144016D02*
X01200000Y02070000D01*
X01205000Y02065000D01*
X01205000Y02060000D01*
X01205000Y02065000D02*
X01220000Y02080000D01*
X01455000Y02080000D01*
X01555000Y01980000D01*
X01555000Y01885000D01*
X01572992Y01847992D02*
X01605000Y01880000D01*
X01605000Y02025000D01*
X01650000Y02070000D01*
X01645000Y02315984D01*
X01615984Y02350000D01*
X01615984Y02408583D01*
X01637402Y02430000D01*
X01480000Y02495000D02*
X02270000Y02495000D01*
X02320000Y02445000D01*
X02320000Y02440000D01*
X02100000Y02144016D02*
X02100000Y02085000D01*
X02000000Y02085000D02*
X02000000Y02144016D01*
X02000000Y02085000D02*
X01955000Y02035000D01*
X01920000Y02035000D01*
X01900000Y02080000D02*
X01900000Y02144016D01*
X01850000Y02085000D02*
X01825000Y02085000D01*
X01800000Y02110000D01*
X01810000Y02144016D01*
X01605000Y02085000D02*
X01605000Y02080000D01*
X01605000Y02085000D02*
X01590000Y02100000D01*
X01590000Y02144016D01*
X01520000Y02124016D02*
X01520000Y02075000D01*
X01520000Y02124016D02*
X01500000Y02144016D01*
X01572992Y01847992D02*
X01572992Y01835000D01*
X01597992Y01835000D01*
X01625000Y01805000D01*
X01600000Y01770000D02*
X01580000Y01790000D01*
X01600000Y01770000D02*
X01775000Y01770000D01*
X01790000Y01755000D01*
X01790000Y01715000D01*
X01800000Y01705000D01*
X01815000Y01705000D01*
X01820000Y01710000D01*
X01815000Y01675000D02*
X01760000Y01675000D01*
X01750000Y01665000D01*
X01815000Y01675000D02*
X01817500Y01672500D01*
X01817500Y01637402D01*
X01880000Y01685000D02*
X01880000Y01505000D01*
X01855000Y01480000D01*
X01760000Y01480000D01*
X01740000Y01460000D01*
X01715000Y01460000D01*
X01670000Y01425000D02*
X01845000Y01425000D01*
X01905000Y01485000D01*
X01905000Y01655000D01*
X01930000Y01680000D01*
X01930000Y01737598D01*
X01975394Y01737598D01*
X01990000Y01722992D01*
X02050000Y01685000D02*
X02250000Y01885000D01*
X02235000Y01815000D02*
X02235000Y01810000D01*
X02105000Y01680000D01*
X02105000Y01470000D01*
X01995000Y01360000D01*
X01500000Y01360000D01*
X01460000Y01400000D01*
X01460000Y01605000D01*
X01355000Y01710000D01*
X01355000Y01735000D01*
X01405000Y01740000D02*
X01405000Y01690000D01*
X01485000Y01610000D01*
X01485000Y01420000D01*
X01510000Y01395000D01*
X01980000Y01395000D01*
X02050000Y01465000D01*
X02050000Y01685000D01*
X01955394Y01812402D02*
X01930000Y01812402D01*
X01955394Y01812402D02*
X01990000Y01847008D01*
X01992992Y01850000D01*
X02050000Y01850000D01*
X02065000Y01835000D01*
X02075000Y01870000D02*
X02045000Y01900000D01*
X01870000Y01900000D01*
X01805000Y01835000D01*
X01790000Y01835000D01*
X01785000Y01830000D01*
X01697008Y01835000D02*
X01672008Y01860000D01*
X01635000Y01860000D01*
X01595000Y01635000D02*
X01595000Y01562402D01*
X01617598Y01562402D01*
X01650000Y01530000D01*
X01650000Y01445000D01*
X01670000Y01425000D01*
X01750000Y01540000D02*
X01760000Y01540000D01*
X01782598Y01562598D01*
X01817500Y01562598D01*
X02075000Y01870000D02*
X02120000Y01870000D01*
X02376016Y01370000D02*
X02320000Y01313984D01*
X02320000Y01285000D01*
X02230000Y01270000D02*
X02310000Y01190000D01*
X02310000Y00950000D01*
X02290000Y00930000D01*
X02210000Y01210000D02*
X02200000Y01220000D01*
X01570000Y01220000D01*
X01510000Y01160000D01*
X01510000Y00750000D01*
X01530000Y00730000D01*
X01570000Y00730000D01*
X01210000Y01270000D02*
X02230000Y01270000D01*
X02487984Y01370000D02*
X02507984Y01350000D01*
X02560000Y01350000D01*
X01470000Y02465000D02*
X01470000Y02485000D01*
X01480000Y02495000D01*
X00710000Y01735000D02*
X00645000Y01735000D01*
X00710000Y01735000D02*
X00725000Y01720000D01*
D24*
X00765000Y01820000D02*
X00765000Y02170000D01*
X00675000Y02260000D01*
X00675000Y02436000D01*
X00619000Y02492000D01*
X00675000Y02260000D02*
X00445000Y02260000D01*
X01000000Y02145000D02*
X01000000Y02144016D01*
X01285000Y01940000D02*
X01285000Y01365000D01*
X01355000Y01295000D01*
X02035000Y01295000D01*
X02225000Y01485000D01*
X02695000Y01485000D01*
X02780000Y01400000D01*
X03050000Y01400000D01*
X03170000Y01520000D01*
X03170000Y02020000D01*
X03215000Y02070000D02*
X03295000Y02150000D01*
X03295000Y02415000D01*
X03315000Y02435000D01*
X03320000Y02435000D01*
X03060000Y02230000D02*
X03035000Y02255000D01*
X02815000Y02255000D01*
X02745000Y02325000D01*
X02745000Y02425000D01*
X02765000Y02445000D01*
X02700000Y02395000D02*
X02700000Y02040000D01*
X02650000Y01990000D01*
X02650000Y01835000D01*
X02640000Y01825000D01*
X02703465Y01775000D02*
X02709094Y01769370D01*
X02770000Y01769370D01*
X02770000Y01760000D01*
X02770000Y01769370D02*
X02803228Y01769370D01*
X02816181Y01769370D01*
X02816181Y01690630D02*
X02594370Y01690630D01*
X02530000Y01755000D01*
X02530000Y02065000D01*
X02625000Y02160000D01*
X02720000Y02005000D02*
X02730000Y02005000D01*
X02720000Y02005000D02*
X02710000Y01995000D01*
X02710000Y01875591D01*
X02770630Y01854252D02*
X02770630Y01838504D01*
X02833819Y01902500D02*
X02829409Y01906909D01*
X02829409Y01950000D01*
X02830000Y01950591D01*
X02830000Y02005000D01*
X02833819Y01902500D02*
X02848366Y01902500D01*
X02849370Y01901496D01*
X02868504Y01901496D01*
X02875000Y01910000D01*
X02899409Y01910000D01*
X02910000Y01910591D01*
X02970000Y01910591D01*
X02980591Y01910000D01*
X03000000Y01890000D01*
X03000000Y01785000D01*
X02984370Y01769370D01*
X02963819Y01769370D01*
X02935000Y01735000D02*
X02940000Y01730000D01*
X02935000Y01735000D02*
X02914606Y01755394D01*
X02914606Y01769370D01*
X02865394Y01705394D02*
X02865394Y01690630D01*
X02865394Y01669606D01*
X02880000Y01655000D01*
X03040000Y01655000D01*
X03047500Y01647500D01*
X03035000Y01660000D01*
X03035000Y01985000D01*
X02940000Y02080000D01*
X02940000Y02230000D01*
X03060000Y02230000D02*
X03060000Y02120000D01*
X03015000Y02070000D02*
X03215000Y02070000D01*
X03015000Y02070000D02*
X03000000Y02085000D01*
X03000000Y02115000D01*
X02816181Y01690630D02*
X02816181Y01658819D01*
X02840000Y01635000D01*
X02915000Y01635000D01*
X02970000Y01580000D01*
X02970000Y01550000D01*
X03070000Y01550000D02*
X03070000Y01625000D01*
X03047500Y01647500D01*
X02294000Y01175000D02*
X02294000Y00956627D01*
X02292873Y00955500D01*
X02284928Y00955500D01*
X02275555Y00951618D01*
X02268382Y00944445D01*
X02264500Y00935072D01*
X02264500Y00924928D01*
X02268382Y00915555D01*
X02275555Y00908382D01*
X02284928Y00904500D01*
X02295072Y00904500D01*
X02300000Y00906541D01*
X02300000Y00475000D01*
X01525000Y00475000D01*
X01525000Y00714000D01*
X01549938Y00714000D01*
X01555555Y00708382D01*
X01564928Y00704500D01*
X01575072Y00704500D01*
X01584445Y00708382D01*
X01591618Y00715555D01*
X01595500Y00724928D01*
X01595500Y00735072D01*
X01591618Y00744445D01*
X01584445Y00751618D01*
X01575072Y00755500D01*
X01564928Y00755500D01*
X01555555Y00751618D01*
X01549938Y00746000D01*
X01536627Y00746000D01*
X01526000Y00756627D01*
X01526000Y01153373D01*
X01547627Y01175000D01*
X02294000Y01175000D01*
X02294000Y01167784D02*
X01540412Y01167784D01*
X01532413Y01159786D02*
X02294000Y01159786D01*
X02294000Y01151787D02*
X01526000Y01151787D01*
X01526000Y01143789D02*
X02294000Y01143789D01*
X02294000Y01135790D02*
X01526000Y01135790D01*
X01526000Y01127792D02*
X02294000Y01127792D01*
X02294000Y01119793D02*
X01526000Y01119793D01*
X01526000Y01111795D02*
X02294000Y01111795D01*
X02294000Y01103796D02*
X01526000Y01103796D01*
X01526000Y01095798D02*
X02294000Y01095798D01*
X02294000Y01087799D02*
X01526000Y01087799D01*
X01526000Y01079801D02*
X02294000Y01079801D01*
X02294000Y01071802D02*
X01526000Y01071802D01*
X01526000Y01063804D02*
X02294000Y01063804D01*
X02294000Y01055805D02*
X01526000Y01055805D01*
X01526000Y01047807D02*
X02294000Y01047807D01*
X02294000Y01039808D02*
X01526000Y01039808D01*
X01526000Y01031810D02*
X02294000Y01031810D01*
X02294000Y01023811D02*
X01526000Y01023811D01*
X01526000Y01015813D02*
X02294000Y01015813D01*
X02294000Y01007814D02*
X01526000Y01007814D01*
X01526000Y00999815D02*
X02294000Y00999815D01*
X02294000Y00991817D02*
X01526000Y00991817D01*
X01526000Y00983818D02*
X02294000Y00983818D01*
X02294000Y00975820D02*
X01526000Y00975820D01*
X01526000Y00967821D02*
X01681707Y00967821D01*
X01682096Y00968046D02*
X01678904Y00966203D01*
X01676297Y00963596D01*
X01674454Y00960404D01*
X01673500Y00956843D01*
X01673500Y00834000D01*
X01871000Y00834000D01*
X01871000Y00969000D01*
X01685657Y00969000D01*
X01682096Y00968046D01*
X01674298Y00959823D02*
X01526000Y00959823D01*
X01526000Y00951824D02*
X01673500Y00951824D01*
X01673500Y00943826D02*
X01526000Y00943826D01*
X01526000Y00935827D02*
X01673500Y00935827D01*
X01673500Y00927829D02*
X01526000Y00927829D01*
X01526000Y00919830D02*
X01673500Y00919830D01*
X01673500Y00911832D02*
X01526000Y00911832D01*
X01526000Y00903833D02*
X01673500Y00903833D01*
X01673500Y00895835D02*
X01526000Y00895835D01*
X01526000Y00887836D02*
X01673500Y00887836D01*
X01673500Y00879838D02*
X01526000Y00879838D01*
X01526000Y00871839D02*
X01673500Y00871839D01*
X01673500Y00863841D02*
X01526000Y00863841D01*
X01526000Y00855842D02*
X01673500Y00855842D01*
X01673500Y00847844D02*
X01526000Y00847844D01*
X01526000Y00839845D02*
X01673500Y00839845D01*
X01673500Y00826000D02*
X01673500Y00703157D01*
X01674454Y00699596D01*
X01676297Y00696404D01*
X01678904Y00693797D01*
X01682096Y00691954D01*
X01685657Y00691000D01*
X01871000Y00691000D01*
X01871000Y00826000D01*
X01879000Y00826000D01*
X01879000Y00834000D01*
X01871000Y00834000D01*
X01871000Y00826000D01*
X01673500Y00826000D01*
X01673500Y00823848D02*
X01526000Y00823848D01*
X01526000Y00831846D02*
X01871000Y00831846D01*
X01871000Y00823848D02*
X01879000Y00823848D01*
X01879000Y00826000D02*
X01879000Y00691000D01*
X02064343Y00691000D01*
X02067904Y00691954D01*
X02071096Y00693797D01*
X02073703Y00696404D01*
X02075546Y00699596D01*
X02076500Y00703157D01*
X02076500Y00826000D01*
X01879000Y00826000D01*
X01879000Y00831846D02*
X02300000Y00831846D01*
X02300000Y00823848D02*
X02076500Y00823848D01*
X02076500Y00815849D02*
X02300000Y00815849D01*
X02300000Y00807851D02*
X02076500Y00807851D01*
X02076500Y00799852D02*
X02300000Y00799852D01*
X02300000Y00791854D02*
X02076500Y00791854D01*
X02076500Y00783855D02*
X02300000Y00783855D01*
X02300000Y00775857D02*
X02076500Y00775857D01*
X02076500Y00767858D02*
X02300000Y00767858D01*
X02300000Y00759860D02*
X02076500Y00759860D01*
X02076500Y00751861D02*
X02300000Y00751861D01*
X02300000Y00743863D02*
X02076500Y00743863D01*
X02076500Y00735864D02*
X02300000Y00735864D01*
X02300000Y00727866D02*
X02076500Y00727866D01*
X02076500Y00719867D02*
X02300000Y00719867D01*
X02300000Y00711869D02*
X02076500Y00711869D01*
X02076500Y00703870D02*
X02300000Y00703870D01*
X02300000Y00695872D02*
X02073170Y00695872D01*
X02076500Y00834000D02*
X01879000Y00834000D01*
X01879000Y00969000D01*
X02064343Y00969000D01*
X02067904Y00968046D01*
X02071096Y00966203D01*
X02073703Y00963596D01*
X02075546Y00960404D01*
X02076500Y00956843D01*
X02076500Y00834000D01*
X02076500Y00839845D02*
X02300000Y00839845D01*
X02300000Y00847844D02*
X02076500Y00847844D01*
X02076500Y00855842D02*
X02300000Y00855842D01*
X02300000Y00863841D02*
X02076500Y00863841D01*
X02076500Y00871839D02*
X02300000Y00871839D01*
X02300000Y00879838D02*
X02076500Y00879838D01*
X02076500Y00887836D02*
X02300000Y00887836D01*
X02300000Y00895835D02*
X02076500Y00895835D01*
X02076500Y00903833D02*
X02300000Y00903833D01*
X02272106Y00911832D02*
X02076500Y00911832D01*
X02076500Y00919830D02*
X02266611Y00919830D01*
X02264500Y00927829D02*
X02076500Y00927829D01*
X02076500Y00935827D02*
X02264813Y00935827D01*
X02268126Y00943826D02*
X02076500Y00943826D01*
X02076500Y00951824D02*
X02276054Y00951824D01*
X02294000Y00959823D02*
X02075702Y00959823D01*
X02068293Y00967821D02*
X02294000Y00967821D01*
X02300000Y00687873D02*
X01525000Y00687873D01*
X01525000Y00695872D02*
X01676829Y00695872D01*
X01673500Y00703870D02*
X01525000Y00703870D01*
X01525000Y00711869D02*
X01552069Y00711869D01*
X01587931Y00711869D02*
X01673500Y00711869D01*
X01673500Y00719867D02*
X01593404Y00719867D01*
X01595500Y00727866D02*
X01673500Y00727866D01*
X01673500Y00735864D02*
X01595172Y00735864D01*
X01591859Y00743863D02*
X01673500Y00743863D01*
X01673500Y00751861D02*
X01583857Y00751861D01*
X01556143Y00751861D02*
X01530766Y00751861D01*
X01526000Y00759860D02*
X01673500Y00759860D01*
X01673500Y00767858D02*
X01526000Y00767858D01*
X01526000Y00775857D02*
X01673500Y00775857D01*
X01673500Y00783855D02*
X01526000Y00783855D01*
X01526000Y00791854D02*
X01673500Y00791854D01*
X01673500Y00799852D02*
X01526000Y00799852D01*
X01526000Y00807851D02*
X01673500Y00807851D01*
X01673500Y00815849D02*
X01526000Y00815849D01*
X01494000Y00815849D02*
X00825000Y00815849D01*
X00825000Y00807851D02*
X01494000Y00807851D01*
X01494000Y00799852D02*
X00825000Y00799852D01*
X00825000Y00791854D02*
X01494000Y00791854D01*
X01494000Y00783855D02*
X00825000Y00783855D01*
X00825000Y00775857D02*
X01494000Y00775857D01*
X01494000Y00767858D02*
X00825000Y00767858D01*
X00825000Y00759860D02*
X01494000Y00759860D01*
X01494000Y00751861D02*
X00825000Y00751861D01*
X00825000Y00743863D02*
X01494000Y00743863D01*
X01494000Y00743373D02*
X01496197Y00741175D01*
X01500000Y00475000D01*
X00825000Y00475000D01*
X00825000Y01175000D01*
X01490000Y01175000D01*
X01494000Y00894994D01*
X01494000Y00743373D01*
X01496273Y00735864D02*
X00825000Y00735864D01*
X00825000Y00727866D02*
X01496388Y00727866D01*
X01496502Y00719867D02*
X00825000Y00719867D01*
X00825000Y00711869D02*
X01496616Y00711869D01*
X01496730Y00703870D02*
X00825000Y00703870D01*
X00825000Y00695872D02*
X01496845Y00695872D01*
X01496959Y00687873D02*
X00825000Y00687873D01*
X00825000Y00679875D02*
X01497073Y00679875D01*
X01497187Y00671876D02*
X00825000Y00671876D01*
X00825000Y00663877D02*
X01497302Y00663877D01*
X01497416Y00655879D02*
X00825000Y00655879D01*
X00825000Y00647880D02*
X01497530Y00647880D01*
X01497644Y00639882D02*
X00825000Y00639882D01*
X00825000Y00631883D02*
X01497759Y00631883D01*
X01497873Y00623885D02*
X00825000Y00623885D01*
X00825000Y00615886D02*
X01497987Y00615886D01*
X01498102Y00607888D02*
X00825000Y00607888D01*
X00825000Y00599889D02*
X01498216Y00599889D01*
X01498330Y00591891D02*
X00825000Y00591891D01*
X00825000Y00583892D02*
X01498444Y00583892D01*
X01498559Y00575894D02*
X00825000Y00575894D01*
X00825000Y00567895D02*
X01498673Y00567895D01*
X01498787Y00559897D02*
X00825000Y00559897D01*
X00825000Y00551898D02*
X01498901Y00551898D01*
X01499016Y00543900D02*
X00825000Y00543900D01*
X00825000Y00535901D02*
X01499130Y00535901D01*
X01499244Y00527903D02*
X00825000Y00527903D01*
X00825000Y00519904D02*
X01499358Y00519904D01*
X01499473Y00511906D02*
X00825000Y00511906D01*
X00825000Y00503907D02*
X01499587Y00503907D01*
X01499701Y00495908D02*
X00825000Y00495908D01*
X00825000Y00487910D02*
X01499815Y00487910D01*
X01499930Y00479911D02*
X00825000Y00479911D01*
X00825000Y00823848D02*
X01494000Y00823848D01*
X01494000Y00831846D02*
X00825000Y00831846D01*
X00825000Y00839845D02*
X01494000Y00839845D01*
X01494000Y00847844D02*
X00825000Y00847844D01*
X00825000Y00855842D02*
X01494000Y00855842D01*
X01494000Y00863841D02*
X00825000Y00863841D01*
X00825000Y00871839D02*
X01494000Y00871839D01*
X01494000Y00879838D02*
X00825000Y00879838D01*
X00825000Y00887836D02*
X01494000Y00887836D01*
X01493988Y00895835D02*
X00825000Y00895835D01*
X00825000Y00903833D02*
X01493874Y00903833D01*
X01493759Y00911832D02*
X00825000Y00911832D01*
X00825000Y00919830D02*
X01493645Y00919830D01*
X01493531Y00927829D02*
X00825000Y00927829D01*
X00825000Y00935827D02*
X01493417Y00935827D01*
X01493302Y00943826D02*
X00825000Y00943826D01*
X00825000Y00951824D02*
X01493188Y00951824D01*
X01493074Y00959823D02*
X00825000Y00959823D01*
X00825000Y00967821D02*
X01492960Y00967821D01*
X01492845Y00975820D02*
X00825000Y00975820D01*
X00825000Y00983818D02*
X01492731Y00983818D01*
X01492617Y00991817D02*
X00825000Y00991817D01*
X00825000Y00999815D02*
X01492502Y00999815D01*
X01492388Y01007814D02*
X00825000Y01007814D01*
X00825000Y01015813D02*
X01492274Y01015813D01*
X01492160Y01023811D02*
X00825000Y01023811D01*
X00825000Y01031810D02*
X01492046Y01031810D01*
X01491931Y01039808D02*
X00825000Y01039808D01*
X00825000Y01047807D02*
X01491817Y01047807D01*
X01491703Y01055805D02*
X00825000Y01055805D01*
X00825000Y01063804D02*
X01491588Y01063804D01*
X01491474Y01071802D02*
X00825000Y01071802D01*
X00825000Y01079801D02*
X01491360Y01079801D01*
X01491246Y01087799D02*
X00825000Y01087799D01*
X00825000Y01095798D02*
X01491131Y01095798D01*
X01491017Y01103796D02*
X00825000Y01103796D01*
X00825000Y01111795D02*
X01490903Y01111795D01*
X01490789Y01119793D02*
X00825000Y01119793D01*
X00825000Y01127792D02*
X01490674Y01127792D01*
X01490560Y01135790D02*
X00825000Y01135790D01*
X00825000Y01143789D02*
X01490446Y01143789D01*
X01490332Y01151787D02*
X00825000Y01151787D01*
X00825000Y01159786D02*
X01490217Y01159786D01*
X01490103Y01167784D02*
X00825000Y01167784D01*
X01525000Y00679875D02*
X02300000Y00679875D01*
X02300000Y00671876D02*
X01525000Y00671876D01*
X01525000Y00663877D02*
X02300000Y00663877D01*
X02300000Y00655879D02*
X01525000Y00655879D01*
X01525000Y00647880D02*
X02300000Y00647880D01*
X02300000Y00639882D02*
X01525000Y00639882D01*
X01525000Y00631883D02*
X02300000Y00631883D01*
X02300000Y00623885D02*
X01525000Y00623885D01*
X01525000Y00615886D02*
X02300000Y00615886D01*
X02300000Y00607888D02*
X01525000Y00607888D01*
X01525000Y00599889D02*
X02300000Y00599889D01*
X02300000Y00591891D02*
X01525000Y00591891D01*
X01525000Y00583892D02*
X02300000Y00583892D01*
X02300000Y00575894D02*
X01525000Y00575894D01*
X01525000Y00567895D02*
X02300000Y00567895D01*
X02300000Y00559897D02*
X01525000Y00559897D01*
X01525000Y00551898D02*
X02300000Y00551898D01*
X02300000Y00543900D02*
X01525000Y00543900D01*
X01525000Y00535901D02*
X02300000Y00535901D01*
X02300000Y00527903D02*
X01525000Y00527903D01*
X01525000Y00519904D02*
X02300000Y00519904D01*
X02300000Y00511906D02*
X01525000Y00511906D01*
X01525000Y00503907D02*
X02300000Y00503907D01*
X02300000Y00495908D02*
X01525000Y00495908D01*
X01525000Y00487910D02*
X02300000Y00487910D01*
X02300000Y00479911D02*
X01525000Y00479911D01*
X01871000Y00695872D02*
X01879000Y00695872D01*
X01879000Y00703870D02*
X01871000Y00703870D01*
X01871000Y00711869D02*
X01879000Y00711869D01*
X01879000Y00719867D02*
X01871000Y00719867D01*
X01871000Y00727866D02*
X01879000Y00727866D01*
X01879000Y00735864D02*
X01871000Y00735864D01*
X01871000Y00743863D02*
X01879000Y00743863D01*
X01879000Y00751861D02*
X01871000Y00751861D01*
X01871000Y00759860D02*
X01879000Y00759860D01*
X01879000Y00767858D02*
X01871000Y00767858D01*
X01871000Y00775857D02*
X01879000Y00775857D01*
X01879000Y00783855D02*
X01871000Y00783855D01*
X01871000Y00791854D02*
X01879000Y00791854D01*
X01879000Y00799852D02*
X01871000Y00799852D01*
X01871000Y00807851D02*
X01879000Y00807851D01*
X01879000Y00815849D02*
X01871000Y00815849D01*
X01871000Y00839845D02*
X01879000Y00839845D01*
X01879000Y00847844D02*
X01871000Y00847844D01*
X01871000Y00855842D02*
X01879000Y00855842D01*
X01879000Y00863841D02*
X01871000Y00863841D01*
X01871000Y00871839D02*
X01879000Y00871839D01*
X01879000Y00879838D02*
X01871000Y00879838D01*
X01871000Y00887836D02*
X01879000Y00887836D01*
X01879000Y00895835D02*
X01871000Y00895835D01*
X01871000Y00903833D02*
X01879000Y00903833D01*
X01879000Y00911832D02*
X01871000Y00911832D01*
X01871000Y00919830D02*
X01879000Y00919830D01*
X01879000Y00927829D02*
X01871000Y00927829D01*
X01871000Y00935827D02*
X01879000Y00935827D01*
X01879000Y00943826D02*
X01871000Y00943826D01*
X01871000Y00951824D02*
X01879000Y00951824D01*
X01879000Y00959823D02*
X01871000Y00959823D01*
X01871000Y00967821D02*
X01879000Y00967821D01*
X01700000Y02144016D02*
X01700000Y02145000D01*
X01300000Y02145000D02*
X01300000Y02144016D01*
D25*
X00205000Y00450000D02*
X00205000Y00030000D01*
X03520000Y00030000D01*
X03520000Y00450000D01*
X00205000Y00450000D01*
X00205000Y00449934D02*
X03520000Y00449934D01*
X03520000Y00439935D02*
X00205000Y00439935D01*
X00205000Y00429937D02*
X03520000Y00429937D01*
X03520000Y00419938D02*
X00205000Y00419938D01*
X00205000Y00409939D02*
X03520000Y00409939D01*
X03520000Y00399941D02*
X00205000Y00399941D01*
X00205000Y00389942D02*
X03520000Y00389942D01*
X03520000Y00379944D02*
X00205000Y00379944D01*
X00205000Y00369945D02*
X03520000Y00369945D01*
X03520000Y00359947D02*
X02068766Y00359947D01*
X02069503Y00359210D02*
X02066710Y00362003D01*
X02063290Y00363978D01*
X02059475Y00365000D01*
X01875000Y00365000D01*
X01875000Y00230000D01*
X01865000Y00230000D01*
X01865000Y00365000D01*
X01680525Y00365000D01*
X01676710Y00363978D01*
X01673290Y00362003D01*
X01670497Y00359210D01*
X01668522Y00355790D01*
X01667500Y00351975D01*
X01667500Y00230000D01*
X01865000Y00230000D01*
X01865000Y00220000D01*
X01875000Y00220000D01*
X01875000Y00230000D01*
X02072500Y00230000D01*
X02072500Y00351975D01*
X02071478Y00355790D01*
X02069503Y00359210D01*
X02072500Y00349948D02*
X03520000Y00349948D01*
X03520000Y00339950D02*
X02072500Y00339950D01*
X02072500Y00329951D02*
X03520000Y00329951D01*
X03520000Y00319953D02*
X02072500Y00319953D01*
X02072500Y00309954D02*
X03520000Y00309954D01*
X03520000Y00299956D02*
X02072500Y00299956D01*
X02072500Y00289957D02*
X03520000Y00289957D01*
X03520000Y00279959D02*
X02072500Y00279959D01*
X02072500Y00269960D02*
X03520000Y00269960D01*
X03520000Y00259962D02*
X02072500Y00259962D01*
X02072500Y00249963D02*
X03520000Y00249963D01*
X03520000Y00239965D02*
X02072500Y00239965D01*
X02072500Y00220000D02*
X02072500Y00098025D01*
X02071478Y00094210D01*
X02069503Y00090790D01*
X02066710Y00087997D01*
X02063290Y00086022D01*
X02059475Y00085000D01*
X01875000Y00085000D01*
X01875000Y00220000D01*
X02072500Y00220000D01*
X02072500Y00219968D02*
X03520000Y00219968D01*
X03520000Y00229966D02*
X01875000Y00229966D01*
X01875000Y00239965D02*
X01865000Y00239965D01*
X01865000Y00249963D02*
X01875000Y00249963D01*
X01875000Y00259962D02*
X01865000Y00259962D01*
X01865000Y00269960D02*
X01875000Y00269960D01*
X01875000Y00279959D02*
X01865000Y00279959D01*
X01865000Y00289957D02*
X01875000Y00289957D01*
X01875000Y00299956D02*
X01865000Y00299956D01*
X01865000Y00309954D02*
X01875000Y00309954D01*
X01875000Y00319953D02*
X01865000Y00319953D01*
X01865000Y00329951D02*
X01875000Y00329951D01*
X01875000Y00339950D02*
X01865000Y00339950D01*
X01865000Y00349948D02*
X01875000Y00349948D01*
X01875000Y00359947D02*
X01865000Y00359947D01*
X01865000Y00229966D02*
X00205000Y00229966D01*
X00205000Y00239965D02*
X01667500Y00239965D01*
X01667500Y00249963D02*
X00205000Y00249963D01*
X00205000Y00259962D02*
X01667500Y00259962D01*
X01667500Y00269960D02*
X00205000Y00269960D01*
X00205000Y00279959D02*
X01667500Y00279959D01*
X01667500Y00289957D02*
X00205000Y00289957D01*
X00205000Y00299956D02*
X01667500Y00299956D01*
X01667500Y00309954D02*
X00205000Y00309954D01*
X00205000Y00319953D02*
X01667500Y00319953D01*
X01667500Y00329951D02*
X00205000Y00329951D01*
X00205000Y00339950D02*
X01667500Y00339950D01*
X01667500Y00349948D02*
X00205000Y00349948D01*
X00205000Y00359947D02*
X01671234Y00359947D01*
X01667500Y00220000D02*
X01667500Y00098025D01*
X01668522Y00094210D01*
X01670497Y00090790D01*
X01673290Y00087997D01*
X01676710Y00086022D01*
X01680525Y00085000D01*
X01865000Y00085000D01*
X01865000Y00220000D01*
X01667500Y00220000D01*
X01667500Y00219968D02*
X00205000Y00219968D01*
X00205000Y00209969D02*
X01667500Y00209969D01*
X01667500Y00199970D02*
X00205000Y00199970D01*
X00205000Y00189972D02*
X01667500Y00189972D01*
X01667500Y00179973D02*
X00205000Y00179973D01*
X00205000Y00169975D02*
X01667500Y00169975D01*
X01667500Y00159976D02*
X00205000Y00159976D01*
X00205000Y00149978D02*
X01667500Y00149978D01*
X01667500Y00139979D02*
X00205000Y00139979D01*
X00205000Y00129981D02*
X01667500Y00129981D01*
X01667500Y00119982D02*
X00205000Y00119982D01*
X00205000Y00109984D02*
X01667500Y00109984D01*
X01667500Y00099985D02*
X00205000Y00099985D01*
X00205000Y00089987D02*
X01671300Y00089987D01*
X01865000Y00089987D02*
X01875000Y00089987D01*
X01875000Y00099985D02*
X01865000Y00099985D01*
X01865000Y00109984D02*
X01875000Y00109984D01*
X01875000Y00119982D02*
X01865000Y00119982D01*
X01865000Y00129981D02*
X01875000Y00129981D01*
X01875000Y00139979D02*
X01865000Y00139979D01*
X01865000Y00149978D02*
X01875000Y00149978D01*
X01875000Y00159976D02*
X01865000Y00159976D01*
X01865000Y00169975D02*
X01875000Y00169975D01*
X01875000Y00179973D02*
X01865000Y00179973D01*
X01865000Y00189972D02*
X01875000Y00189972D01*
X01875000Y00199970D02*
X01865000Y00199970D01*
X01865000Y00209969D02*
X01875000Y00209969D01*
X01875000Y00219968D02*
X01865000Y00219968D01*
X02072500Y00209969D02*
X03520000Y00209969D01*
X03520000Y00199970D02*
X02072500Y00199970D01*
X02072500Y00189972D02*
X03520000Y00189972D01*
X03520000Y00179973D02*
X02072500Y00179973D01*
X02072500Y00169975D02*
X03520000Y00169975D01*
X03520000Y00159976D02*
X02072500Y00159976D01*
X02072500Y00149978D02*
X03520000Y00149978D01*
X03520000Y00139979D02*
X02072500Y00139979D01*
X02072500Y00129981D02*
X03520000Y00129981D01*
X03520000Y00119982D02*
X02072500Y00119982D01*
X02072500Y00109984D02*
X03520000Y00109984D01*
X03520000Y00099985D02*
X02072500Y00099985D01*
X02068700Y00089987D02*
X03520000Y00089987D01*
X03520000Y00079988D02*
X00205000Y00079988D01*
X00205000Y00069990D02*
X03520000Y00069990D01*
X03520000Y00059991D02*
X00205000Y00059991D01*
X00205000Y00049993D02*
X03520000Y00049993D01*
X03520000Y00039994D02*
X00205000Y00039994D01*
X00205000Y00470000D02*
X00205000Y01240000D01*
X00295000Y01240000D01*
X00295000Y01180000D01*
X00810000Y01180000D01*
X00810000Y00470000D01*
X00205000Y00470000D01*
X00205000Y00479929D02*
X00810000Y00479929D01*
X00810000Y00489928D02*
X00205000Y00489928D01*
X00205000Y00499926D02*
X00810000Y00499926D01*
X00810000Y00509925D02*
X00205000Y00509925D01*
X00205000Y00519923D02*
X00810000Y00519923D01*
X00810000Y00529922D02*
X00205000Y00529922D01*
X00205000Y00539920D02*
X00810000Y00539920D01*
X00810000Y00549919D02*
X00205000Y00549919D01*
X00205000Y00559917D02*
X00810000Y00559917D01*
X00810000Y00569916D02*
X00205000Y00569916D01*
X00205000Y00579914D02*
X00810000Y00579914D01*
X00810000Y00589913D02*
X00205000Y00589913D01*
X00205000Y00599911D02*
X00810000Y00599911D01*
X00810000Y00609910D02*
X00205000Y00609910D01*
X00205000Y00619908D02*
X00810000Y00619908D01*
X00810000Y00629907D02*
X00205000Y00629907D01*
X00205000Y00639906D02*
X00810000Y00639906D01*
X00810000Y00649904D02*
X00205000Y00649904D01*
X00205000Y00659903D02*
X00810000Y00659903D01*
X00810000Y00669901D02*
X00205000Y00669901D01*
X00205000Y00679900D02*
X00810000Y00679900D01*
X00810000Y00689898D02*
X00205000Y00689898D01*
X00205000Y00699897D02*
X00810000Y00699897D01*
X00810000Y00709895D02*
X00205000Y00709895D01*
X00205000Y00719894D02*
X00810000Y00719894D01*
X00810000Y00729892D02*
X00205000Y00729892D01*
X00205000Y00739891D02*
X00810000Y00739891D01*
X00810000Y00749889D02*
X00205000Y00749889D01*
X00205000Y00759888D02*
X00810000Y00759888D01*
X00810000Y00769886D02*
X00205000Y00769886D01*
X00205000Y00779885D02*
X00810000Y00779885D01*
X00810000Y00789883D02*
X00205000Y00789883D01*
X00205000Y00799882D02*
X00810000Y00799882D01*
X00810000Y00809880D02*
X00205000Y00809880D01*
X00205000Y00819879D02*
X00810000Y00819879D01*
X00810000Y00829877D02*
X00205000Y00829877D01*
X00205000Y00839876D02*
X00810000Y00839876D01*
X00810000Y00849875D02*
X00205000Y00849875D01*
X00205000Y00859873D02*
X00810000Y00859873D01*
X00810000Y00869872D02*
X00205000Y00869872D01*
X00205000Y00879870D02*
X00810000Y00879870D01*
X00810000Y00889869D02*
X00205000Y00889869D01*
X00205000Y00899867D02*
X00810000Y00899867D01*
X00810000Y00909866D02*
X00205000Y00909866D01*
X00205000Y00919864D02*
X00810000Y00919864D01*
X00810000Y00929863D02*
X00205000Y00929863D01*
X00205000Y00939861D02*
X00810000Y00939861D01*
X00810000Y00949860D02*
X00205000Y00949860D01*
X00205000Y00959858D02*
X00810000Y00959858D01*
X00810000Y00969857D02*
X00205000Y00969857D01*
X00205000Y00979855D02*
X00810000Y00979855D01*
X00810000Y00989854D02*
X00205000Y00989854D01*
X00205000Y00999852D02*
X00810000Y00999852D01*
X00810000Y01009851D02*
X00205000Y01009851D01*
X00205000Y01019849D02*
X00810000Y01019849D01*
X00810000Y01029848D02*
X00205000Y01029848D01*
X00205000Y01039846D02*
X00810000Y01039846D01*
X00810000Y01049845D02*
X00205000Y01049845D01*
X00205000Y01059844D02*
X00810000Y01059844D01*
X00810000Y01069842D02*
X00205000Y01069842D01*
X00205000Y01079841D02*
X00810000Y01079841D01*
X00810000Y01089839D02*
X00205000Y01089839D01*
X00205000Y01099838D02*
X00810000Y01099838D01*
X00810000Y01109836D02*
X00205000Y01109836D01*
X00205000Y01119835D02*
X00810000Y01119835D01*
X00810000Y01129833D02*
X00205000Y01129833D01*
X00205000Y01139832D02*
X00810000Y01139832D01*
X00810000Y01149830D02*
X00205000Y01149830D01*
X00205000Y01159829D02*
X00810000Y01159829D01*
X00810000Y01169827D02*
X00205000Y01169827D01*
X00205000Y01179826D02*
X00810000Y01179826D01*
X01183500Y01264729D02*
X01187534Y01254989D01*
X01194989Y01247534D01*
X01204729Y01243500D01*
X01215271Y01243500D01*
X01225011Y01247534D01*
X01230477Y01253000D01*
X02222958Y01253000D01*
X02235958Y01240000D01*
X00205000Y01240000D01*
X00205000Y02820000D01*
X03095000Y02820000D01*
X03095000Y02510429D01*
X03097929Y02507500D01*
X03520000Y02507500D01*
X03520000Y01240000D01*
X02284041Y01240000D01*
X02237042Y01287000D01*
X02048213Y01287000D01*
X02231213Y01470000D01*
X02688787Y01470000D01*
X02765000Y01393787D01*
X02773787Y01385000D01*
X03056213Y01385000D01*
X03176213Y01505000D01*
X03185000Y01513787D01*
X03185000Y01997530D01*
X03185011Y01997534D01*
X03192466Y02004989D01*
X03196500Y02014729D01*
X03196500Y02025271D01*
X03192466Y02035011D01*
X03185011Y02042466D01*
X03175271Y02046500D01*
X03164729Y02046500D01*
X03154989Y02042466D01*
X03147534Y02035011D01*
X03143500Y02025271D01*
X03143500Y02014729D01*
X03147534Y02004989D01*
X03154989Y01997534D01*
X03155000Y01997530D01*
X03155000Y01526213D01*
X03043787Y01415000D01*
X02786213Y01415000D01*
X02701213Y01500000D01*
X02218787Y01500000D01*
X02210000Y01491213D01*
X02028787Y01310000D01*
X01361213Y01310000D01*
X01300000Y01371213D01*
X01300000Y01917530D01*
X01300011Y01917534D01*
X01307466Y01924989D01*
X01311500Y01934729D01*
X01311500Y01945271D01*
X01307466Y01955011D01*
X01300011Y01962466D01*
X01290271Y01966500D01*
X01279729Y01966500D01*
X01269989Y01962466D01*
X01262534Y01955011D01*
X01258500Y01945271D01*
X01258500Y01934729D01*
X01262534Y01924989D01*
X01269989Y01917534D01*
X01270000Y01917530D01*
X01270000Y01358787D01*
X01340000Y01288787D01*
X01341787Y01287000D01*
X01230477Y01287000D01*
X01225011Y01292466D01*
X01215271Y01296500D01*
X01204729Y01296500D01*
X01194989Y01292466D01*
X01187534Y01285011D01*
X01183500Y01275271D01*
X01183500Y01264729D01*
X01183500Y01269813D02*
X00205000Y01269813D01*
X00205000Y01279811D02*
X01185381Y01279811D01*
X01192333Y01289810D02*
X00205000Y01289810D01*
X00205000Y01299808D02*
X01328979Y01299808D01*
X01338977Y01289810D02*
X01227667Y01289810D01*
X01288984Y01339802D02*
X00205000Y01339802D01*
X00205000Y01329804D02*
X01298983Y01329804D01*
X01308982Y01319805D02*
X00205000Y01319805D01*
X00205000Y01309807D02*
X01318980Y01309807D01*
X01341409Y01329804D02*
X02048590Y01329804D01*
X02058589Y01339802D02*
X01331411Y01339802D01*
X01321412Y01349801D02*
X01486158Y01349801D01*
X01483000Y01352958D02*
X01492958Y01343000D01*
X02002042Y01343000D01*
X02112042Y01453000D01*
X02122000Y01462958D01*
X02122000Y01672958D01*
X02237542Y01788500D01*
X02240271Y01788500D01*
X02250011Y01792534D01*
X02257466Y01799989D01*
X02261500Y01809729D01*
X02261500Y01820271D01*
X02257466Y01830011D01*
X02250011Y01837466D01*
X02240271Y01841500D01*
X02230541Y01841500D01*
X02255041Y01866000D01*
X02257870Y01866000D01*
X02309000Y01917130D01*
X02309000Y02127130D01*
X02392870Y02211000D01*
X02685000Y02211000D01*
X02685000Y02046213D01*
X02643787Y02005000D01*
X02635000Y01996213D01*
X02635000Y01851500D01*
X02634729Y01851500D01*
X02624989Y01847466D01*
X02617534Y01840011D01*
X02613500Y01830271D01*
X02613500Y01819729D01*
X02617534Y01809989D01*
X02617838Y01809685D01*
X02612907Y01809685D01*
X02609092Y01808663D01*
X02605672Y01806688D01*
X02602879Y01803895D01*
X02600904Y01800475D01*
X02599882Y01796660D01*
X02599882Y01779843D01*
X02631692Y01779843D01*
X02631692Y01770157D01*
X02599882Y01770157D01*
X02599882Y01753340D01*
X02600904Y01749525D01*
X02602879Y01746105D01*
X02605672Y01743312D01*
X02609092Y01741337D01*
X02612907Y01740315D01*
X02630630Y01740315D01*
X02630630Y01726890D01*
X02657519Y01726890D01*
X02657519Y01723110D01*
X02630630Y01723110D01*
X02630630Y01705630D01*
X02600583Y01705630D01*
X02545000Y01761213D01*
X02545000Y02058787D01*
X02619718Y02133505D01*
X02619729Y02133500D01*
X02630271Y02133500D01*
X02640011Y02137534D01*
X02647466Y02144989D01*
X02651500Y02154729D01*
X02651500Y02165271D01*
X02647466Y02175011D01*
X02640011Y02182466D01*
X02630271Y02186500D01*
X02619729Y02186500D01*
X02609989Y02182466D01*
X02602534Y02175011D01*
X02598500Y02165271D01*
X02598500Y02154729D01*
X02598505Y02154718D01*
X02515000Y02071213D01*
X02515000Y01748787D01*
X02523787Y01740000D01*
X02588157Y01675630D01*
X02794354Y01675630D01*
X02794354Y01667373D01*
X02800798Y01660929D01*
X02801181Y01660929D01*
X02801181Y01652606D01*
X02825000Y01628787D01*
X02833787Y01620000D01*
X02849384Y01620000D01*
X02846415Y01618487D01*
X02840684Y01614324D01*
X02835676Y01609315D01*
X02831513Y01603585D01*
X02828297Y01597274D01*
X02826108Y01590538D01*
X02825000Y01583542D01*
X02825000Y01555000D01*
X02864999Y01555000D01*
X02864999Y01545000D01*
X02825000Y01545000D01*
X02825000Y01516458D01*
X02826108Y01509462D01*
X02828297Y01502726D01*
X02831513Y01496415D01*
X02835676Y01490684D01*
X02840684Y01485676D01*
X02846415Y01481513D01*
X02852726Y01478297D01*
X02859462Y01476108D01*
X02865000Y01475231D01*
X02865000Y01544999D01*
X02875000Y01544999D01*
X02875000Y01475231D01*
X02880538Y01476108D01*
X02887274Y01478297D01*
X02893585Y01481513D01*
X02899315Y01485676D01*
X02904324Y01490684D01*
X02908487Y01496415D01*
X02911703Y01502726D01*
X02913892Y01509462D01*
X02915000Y01516458D01*
X02915000Y01545000D01*
X02875000Y01545000D01*
X02875000Y01555000D01*
X02915000Y01555000D01*
X02915000Y01583542D01*
X02913892Y01590538D01*
X02911703Y01597274D01*
X02908487Y01603585D01*
X02904324Y01609315D01*
X02899315Y01614324D01*
X02893585Y01618487D01*
X02890616Y01620000D01*
X02908787Y01620000D01*
X02932407Y01596380D01*
X02929000Y01588155D01*
X02929000Y01511844D01*
X02935242Y01496775D01*
X02946775Y01485242D01*
X02961844Y01479000D01*
X02978155Y01479000D01*
X02993225Y01485242D01*
X03004758Y01496775D01*
X03011000Y01511844D01*
X03011000Y01588155D01*
X03004758Y01603225D01*
X02993225Y01614758D01*
X02978155Y01621000D01*
X02961844Y01621000D01*
X02953620Y01617593D01*
X02931213Y01640000D01*
X03033787Y01640000D01*
X03055000Y01618787D01*
X03055000Y01618165D01*
X03046775Y01614758D01*
X03035242Y01603225D01*
X03029000Y01588155D01*
X03029000Y01511844D01*
X03035242Y01496775D01*
X03046775Y01485242D01*
X03061844Y01479000D01*
X03078155Y01479000D01*
X03093225Y01485242D01*
X03104758Y01496775D01*
X03111000Y01511844D01*
X03111000Y01588155D01*
X03104758Y01603225D01*
X03093225Y01614758D01*
X03085000Y01618165D01*
X03085000Y01631213D01*
X03076213Y01640000D01*
X03053713Y01662500D01*
X03050000Y01666213D01*
X03050000Y01991213D01*
X03041213Y02000000D01*
X02955000Y02086213D01*
X02955000Y02207530D01*
X02955011Y02207534D01*
X02962466Y02214989D01*
X02966500Y02224729D01*
X02966500Y02235271D01*
X02964541Y02240000D01*
X03028787Y02240000D01*
X03045000Y02223787D01*
X03045000Y02142470D01*
X03044989Y02142466D01*
X03037534Y02135011D01*
X03033500Y02125271D01*
X03033500Y02114729D01*
X03037534Y02104989D01*
X03044989Y02097534D01*
X03054729Y02093500D01*
X03065271Y02093500D01*
X03075011Y02097534D01*
X03082466Y02104989D01*
X03086500Y02114729D01*
X03086500Y02125271D01*
X03082466Y02135011D01*
X03075011Y02142466D01*
X03075000Y02142470D01*
X03075000Y02236213D01*
X03050000Y02261213D01*
X03041213Y02270000D01*
X02821213Y02270000D01*
X02760000Y02331213D01*
X02760000Y02418500D01*
X02770271Y02418500D01*
X02780011Y02422534D01*
X02787466Y02429989D01*
X02791500Y02439729D01*
X02791500Y02450271D01*
X02787466Y02460011D01*
X02780011Y02467466D01*
X02770271Y02471500D01*
X02759729Y02471500D01*
X02749989Y02467466D01*
X02742534Y02460011D01*
X02738500Y02450271D01*
X02738500Y02439729D01*
X02738505Y02439718D01*
X02730000Y02431213D01*
X02730000Y02318787D01*
X02738787Y02310000D01*
X02799787Y02249000D01*
X02715000Y02249000D01*
X02715000Y02372530D01*
X02715011Y02372534D01*
X02722466Y02379989D01*
X02726500Y02389729D01*
X02726500Y02400271D01*
X02722466Y02410011D01*
X02715011Y02417466D01*
X02705271Y02421500D01*
X02694729Y02421500D01*
X02684989Y02417466D01*
X02677534Y02410011D01*
X02673500Y02400271D01*
X02673500Y02389729D01*
X02677534Y02379989D01*
X02684989Y02372534D01*
X02685000Y02372530D01*
X02685000Y02249000D01*
X02377130Y02249000D01*
X02282130Y02154000D01*
X02271000Y02142870D01*
X02271000Y01932870D01*
X02231000Y01892870D01*
X02231000Y01890041D01*
X02033000Y01692042D01*
X02033000Y01472042D01*
X01972958Y01412000D01*
X01856041Y01412000D01*
X01912042Y01468000D01*
X01922000Y01477958D01*
X01922000Y01647958D01*
X01937042Y01663000D01*
X01947000Y01672958D01*
X01947000Y01701008D01*
X01960299Y01701008D01*
X01960299Y01700719D01*
X01966743Y01694276D01*
X02013257Y01694276D01*
X02019701Y01700719D01*
X02019701Y01745265D01*
X02013257Y01751709D01*
X01985325Y01751709D01*
X01982435Y01754598D01*
X01970527Y01754598D01*
X01970527Y01767745D01*
X01964084Y01774189D01*
X01895916Y01774189D01*
X01889472Y01767745D01*
X01889472Y01709760D01*
X01885271Y01711500D01*
X01874729Y01711500D01*
X01864989Y01707466D01*
X01857534Y01700011D01*
X01853500Y01690271D01*
X01853500Y01679729D01*
X01857534Y01669989D01*
X01863000Y01664523D01*
X01863000Y01512042D01*
X01847958Y01497000D01*
X01752958Y01497000D01*
X01734218Y01478259D01*
X01730011Y01482466D01*
X01720271Y01486500D01*
X01709729Y01486500D01*
X01699989Y01482466D01*
X01692534Y01475011D01*
X01688500Y01465271D01*
X01688500Y01454729D01*
X01692534Y01444989D01*
X01695523Y01442000D01*
X01677042Y01442000D01*
X01667000Y01452042D01*
X01667000Y01537042D01*
X01657042Y01547000D01*
X01635527Y01568514D01*
X01635527Y01592548D01*
X01629084Y01598992D01*
X01612000Y01598992D01*
X01612000Y01614523D01*
X01617466Y01619989D01*
X01621500Y01629729D01*
X01621500Y01640271D01*
X01617466Y01650011D01*
X01610011Y01657466D01*
X01600271Y01661500D01*
X01589729Y01661500D01*
X01579989Y01657466D01*
X01572534Y01650011D01*
X01568500Y01640271D01*
X01568500Y01629729D01*
X01572534Y01619989D01*
X01578000Y01614523D01*
X01578000Y01598992D01*
X01560916Y01598992D01*
X01554472Y01592548D01*
X01554472Y01532255D01*
X01559605Y01527122D01*
X01556262Y01525192D01*
X01553469Y01522399D01*
X01551495Y01518979D01*
X01550472Y01515164D01*
X01550472Y01492598D01*
X01590000Y01492598D01*
X01590000Y01482599D01*
X01550472Y01482599D01*
X01550472Y01460033D01*
X01551495Y01456218D01*
X01553469Y01452798D01*
X01556262Y01450005D01*
X01559683Y01448030D01*
X01563498Y01447008D01*
X01590000Y01447008D01*
X01590000Y01482598D01*
X01600000Y01482598D01*
X01600000Y01447008D01*
X01626502Y01447008D01*
X01630317Y01448030D01*
X01633000Y01449579D01*
X01633000Y01437958D01*
X01653000Y01417958D01*
X01658959Y01412000D01*
X01517042Y01412000D01*
X01502000Y01427042D01*
X01502000Y01617042D01*
X01422000Y01697042D01*
X01422000Y01719523D01*
X01427466Y01724989D01*
X01431500Y01734729D01*
X01431500Y01745271D01*
X01427466Y01755011D01*
X01420011Y01762466D01*
X01410271Y01766500D01*
X01399729Y01766500D01*
X01389989Y01762466D01*
X01382534Y01755011D01*
X01378964Y01746392D01*
X01377466Y01750011D01*
X01370011Y01757466D01*
X01360271Y01761500D01*
X01349729Y01761500D01*
X01339989Y01757466D01*
X01332534Y01750011D01*
X01328500Y01740271D01*
X01328500Y01729729D01*
X01332534Y01719989D01*
X01338000Y01714523D01*
X01338000Y01702958D01*
X01443000Y01597958D01*
X01443000Y01392958D01*
X01483000Y01352958D01*
X01476159Y01359799D02*
X01311414Y01359799D01*
X01301415Y01369798D02*
X01466161Y01369798D01*
X01456162Y01379796D02*
X01300000Y01379796D01*
X01300000Y01389795D02*
X01446164Y01389795D01*
X01443000Y01399793D02*
X01300000Y01399793D01*
X01300000Y01409792D02*
X01443000Y01409792D01*
X01443000Y01419790D02*
X01300000Y01419790D01*
X01300000Y01429789D02*
X01443000Y01429789D01*
X01443000Y01439787D02*
X01300000Y01439787D01*
X01300000Y01449786D02*
X01443000Y01449786D01*
X01443000Y01459784D02*
X01300000Y01459784D01*
X01300000Y01469783D02*
X01443000Y01469783D01*
X01443000Y01479781D02*
X01300000Y01479781D01*
X01300000Y01489780D02*
X01443000Y01489780D01*
X01443000Y01499779D02*
X01300000Y01499779D01*
X01300000Y01509777D02*
X01443000Y01509777D01*
X01443000Y01519776D02*
X01300000Y01519776D01*
X01300000Y01529774D02*
X01443000Y01529774D01*
X01443000Y01539773D02*
X01300000Y01539773D01*
X01300000Y01549771D02*
X01443000Y01549771D01*
X01443000Y01559770D02*
X01300000Y01559770D01*
X01300000Y01569768D02*
X01443000Y01569768D01*
X01443000Y01579767D02*
X01300000Y01579767D01*
X01300000Y01589765D02*
X01443000Y01589765D01*
X01441195Y01599764D02*
X01300000Y01599764D01*
X01300000Y01609762D02*
X01431196Y01609762D01*
X01421197Y01619761D02*
X01300000Y01619761D01*
X01300000Y01629759D02*
X01411199Y01629759D01*
X01401200Y01639758D02*
X01300000Y01639758D01*
X01300000Y01649756D02*
X01391202Y01649756D01*
X01381203Y01659755D02*
X01300000Y01659755D01*
X01300000Y01669753D02*
X01371205Y01669753D01*
X01361206Y01679752D02*
X01300000Y01679752D01*
X01300000Y01689750D02*
X01351208Y01689750D01*
X01341209Y01699749D02*
X01300000Y01699749D01*
X01300000Y01709748D02*
X01338000Y01709748D01*
X01332777Y01719746D02*
X01300000Y01719746D01*
X01300000Y01729745D02*
X01328500Y01729745D01*
X01328500Y01739743D02*
X01300000Y01739743D01*
X01300000Y01749742D02*
X01332423Y01749742D01*
X01345480Y01759740D02*
X01300000Y01759740D01*
X01300000Y01769739D02*
X01562785Y01769739D01*
X01564989Y01767534D02*
X01574729Y01763500D01*
X01582458Y01763500D01*
X01583000Y01762958D01*
X01592958Y01753000D01*
X01767958Y01753000D01*
X01773000Y01747958D01*
X01773000Y01707958D01*
X01783000Y01697958D01*
X01788959Y01692000D01*
X01752958Y01692000D01*
X01752458Y01691500D01*
X01744729Y01691500D01*
X01734989Y01687466D01*
X01727534Y01680011D01*
X01723500Y01670271D01*
X01723500Y01659729D01*
X01727534Y01649989D01*
X01734989Y01642534D01*
X01744729Y01638500D01*
X01755271Y01638500D01*
X01765011Y01642534D01*
X01772466Y01649989D01*
X01775784Y01658000D01*
X01776972Y01658000D01*
X01776972Y01607255D01*
X01783416Y01600811D01*
X01851584Y01600811D01*
X01858027Y01607255D01*
X01858027Y01667548D01*
X01851584Y01673992D01*
X01834500Y01673992D01*
X01834500Y01679542D01*
X01832000Y01682042D01*
X01828998Y01685044D01*
X01835011Y01687534D01*
X01842466Y01694989D01*
X01846500Y01704729D01*
X01846500Y01715271D01*
X01842466Y01725011D01*
X01835011Y01732466D01*
X01825271Y01736500D01*
X01814729Y01736500D01*
X01807000Y01733298D01*
X01807000Y01762042D01*
X01797042Y01772000D01*
X01782042Y01787000D01*
X01644476Y01787000D01*
X01647466Y01789989D01*
X01651500Y01799729D01*
X01651500Y01810271D01*
X01647466Y01820011D01*
X01640011Y01827466D01*
X01630271Y01831500D01*
X01624017Y01831500D01*
X01614992Y01841525D01*
X01614992Y01842042D01*
X01610328Y01846705D01*
X01605915Y01851607D01*
X01605399Y01851634D01*
X01605034Y01852000D01*
X01601709Y01852000D01*
X01601709Y01852667D01*
X01608500Y01859459D01*
X01608500Y01854729D01*
X01612534Y01844989D01*
X01619989Y01837534D01*
X01629729Y01833500D01*
X01640271Y01833500D01*
X01650011Y01837534D01*
X01655477Y01843000D01*
X01664966Y01843000D01*
X01668291Y01839675D01*
X01668291Y01811743D01*
X01674735Y01805299D01*
X01719281Y01805299D01*
X01725724Y01811743D01*
X01725724Y01858257D01*
X01719281Y01864701D01*
X01691349Y01864701D01*
X01679049Y01877000D01*
X01655477Y01877000D01*
X01650011Y01882466D01*
X01640271Y01886500D01*
X01629729Y01886500D01*
X01622000Y01883298D01*
X01622000Y02017958D01*
X01657184Y02053143D01*
X01657386Y02053147D01*
X01662142Y02058101D01*
X01667000Y02062958D01*
X01667000Y02063160D01*
X01667140Y02063305D01*
X01667000Y02070175D01*
X01667000Y02077042D01*
X01666857Y02077184D01*
X01666363Y02101520D01*
X01740048Y02101520D01*
X01746492Y02107963D01*
X01746492Y02180068D01*
X01740048Y02186512D01*
X01664635Y02186512D01*
X01664087Y02213488D01*
X01740048Y02213488D01*
X01746492Y02219932D01*
X01746492Y02292037D01*
X01740048Y02298480D01*
X01719000Y02298480D01*
X01719000Y02306523D01*
X01722466Y02309989D01*
X01726500Y02319729D01*
X01726500Y02330271D01*
X01722466Y02340011D01*
X01715011Y02347466D01*
X01705271Y02351500D01*
X01694729Y02351500D01*
X01684989Y02347466D01*
X01677534Y02340011D01*
X01673500Y02330271D01*
X01673500Y02319729D01*
X01677534Y02309989D01*
X01681000Y02306523D01*
X01681000Y02298480D01*
X01662359Y02298480D01*
X01662014Y02315484D01*
X01662503Y02321659D01*
X01661873Y02322398D01*
X01661853Y02323370D01*
X01658480Y02326609D01*
X01658480Y02390048D01*
X01652037Y02396492D01*
X01632984Y02396492D01*
X01632984Y02401541D01*
X01634943Y02403500D01*
X01642673Y02403500D01*
X01652413Y02407534D01*
X01659867Y02414989D01*
X01663901Y02424729D01*
X01663901Y02435271D01*
X01659867Y02445011D01*
X01652413Y02452466D01*
X01642673Y02456500D01*
X01632130Y02456500D01*
X01622391Y02452466D01*
X01614936Y02445011D01*
X01610902Y02435271D01*
X01610902Y02427542D01*
X01598984Y02415624D01*
X01598984Y02396492D01*
X01579932Y02396492D01*
X01573488Y02390048D01*
X01573488Y02309951D01*
X01579932Y02303508D01*
X01628250Y02303508D01*
X01628352Y02298480D01*
X01549951Y02298480D01*
X01545000Y02293529D01*
X01540048Y02298480D01*
X01523016Y02298480D01*
X01523016Y02303508D01*
X01540068Y02303508D01*
X01546512Y02309951D01*
X01546512Y02390048D01*
X01540068Y02396492D01*
X01467963Y02396492D01*
X01461520Y02390048D01*
X01461520Y02375350D01*
X01444000Y02392870D01*
X01432870Y02404000D01*
X01428477Y02404000D01*
X01425011Y02407466D01*
X01415271Y02411500D01*
X01404729Y02411500D01*
X01394989Y02407466D01*
X01387534Y02400011D01*
X01383500Y02390271D01*
X01383500Y02379729D01*
X01387534Y02369989D01*
X01394989Y02362534D01*
X01404729Y02358500D01*
X01415271Y02358500D01*
X01421889Y02361241D01*
X01452130Y02331000D01*
X01461520Y02331000D01*
X01461520Y02309951D01*
X01467963Y02303508D01*
X01485016Y02303508D01*
X01485016Y02298480D01*
X01459951Y02298480D01*
X01453508Y02292037D01*
X01453508Y02219932D01*
X01459951Y02213488D01*
X01540048Y02213488D01*
X01545000Y02218440D01*
X01549951Y02213488D01*
X01630048Y02213488D01*
X01630079Y02213519D01*
X01630640Y02185920D01*
X01630048Y02186512D01*
X01549951Y02186512D01*
X01545000Y02181560D01*
X01540048Y02186512D01*
X01459951Y02186512D01*
X01453508Y02180068D01*
X01453508Y02107963D01*
X01459951Y02101520D01*
X01503000Y02101520D01*
X01503000Y02095477D01*
X01497534Y02090011D01*
X01493500Y02080271D01*
X01493500Y02069729D01*
X01496461Y02062580D01*
X01462042Y02097000D01*
X01217000Y02097000D01*
X01217000Y02101520D01*
X01240048Y02101520D01*
X01246492Y02107963D01*
X01246492Y02180068D01*
X01240048Y02186512D01*
X01159951Y02186512D01*
X01153508Y02180068D01*
X01153508Y02107963D01*
X01159951Y02101520D01*
X01183000Y02101520D01*
X01183000Y02075477D01*
X01182534Y02075011D01*
X01178500Y02065271D01*
X01178500Y02054729D01*
X01182534Y02044989D01*
X01189989Y02037534D01*
X01191280Y02037000D01*
X01147042Y02037000D01*
X01125859Y02058182D01*
X01126500Y02059729D01*
X01126500Y02070271D01*
X01122466Y02080011D01*
X01117000Y02085477D01*
X01117000Y02101520D01*
X01140048Y02101520D01*
X01146492Y02107963D01*
X01146492Y02180068D01*
X01140048Y02186512D01*
X01059951Y02186512D01*
X01053508Y02180068D01*
X01053508Y02107963D01*
X01059951Y02101520D01*
X01083000Y02101520D01*
X01083000Y02085477D01*
X01077534Y02080011D01*
X01073500Y02070271D01*
X01073500Y02059729D01*
X01077534Y02049989D01*
X01084989Y02042534D01*
X01094729Y02038500D01*
X01097458Y02038500D01*
X01132958Y02003000D01*
X01228959Y02003000D01*
X01227958Y02002000D01*
X01062042Y02002000D01*
X01017000Y02047042D01*
X01017000Y02101520D01*
X01040048Y02101520D01*
X01046492Y02107963D01*
X01046492Y02180068D01*
X01040048Y02186512D01*
X00959951Y02186512D01*
X00953508Y02180068D01*
X00953508Y02107963D01*
X00959951Y02101520D01*
X00983000Y02101520D01*
X00983000Y02032958D01*
X00992958Y02023000D01*
X01047958Y01968000D01*
X01242042Y01968000D01*
X01252000Y01977958D01*
X01277042Y02003000D01*
X01427958Y02003000D01*
X01458000Y01972958D01*
X01458000Y01875477D01*
X01452534Y01870011D01*
X01448500Y01860271D01*
X01448500Y01849729D01*
X01452534Y01839989D01*
X01459989Y01832534D01*
X01469729Y01828500D01*
X01480271Y01828500D01*
X01483500Y01829837D01*
X01483500Y01829729D01*
X01487534Y01819989D01*
X01494989Y01812534D01*
X01504729Y01808500D01*
X01515271Y01808500D01*
X01525011Y01812534D01*
X01532466Y01819989D01*
X01536500Y01829729D01*
X01536500Y01840271D01*
X01532466Y01850011D01*
X01527000Y01855477D01*
X01527000Y01983959D01*
X01538000Y01972958D01*
X01538000Y01905477D01*
X01532534Y01900011D01*
X01528500Y01890271D01*
X01528500Y01879729D01*
X01532534Y01869989D01*
X01539989Y01862534D01*
X01546045Y01860026D01*
X01544276Y01858257D01*
X01544276Y01811743D01*
X01550719Y01805299D01*
X01557823Y01805299D01*
X01557534Y01805011D01*
X01553500Y01795271D01*
X01553500Y01784729D01*
X01557534Y01774989D01*
X01564989Y01767534D01*
X01555567Y01779737D02*
X01300000Y01779737D01*
X01300000Y01789736D02*
X01553500Y01789736D01*
X01555349Y01799734D02*
X01300000Y01799734D01*
X01300000Y01809733D02*
X01501752Y01809733D01*
X01518247Y01809733D02*
X01546286Y01809733D01*
X01544276Y01819731D02*
X01532208Y01819731D01*
X01536500Y01829730D02*
X01544276Y01829730D01*
X01544276Y01839728D02*
X01536500Y01839728D01*
X01532583Y01849727D02*
X01544276Y01849727D01*
X01545744Y01859725D02*
X01527000Y01859725D01*
X01527000Y01869724D02*
X01532799Y01869724D01*
X01528503Y01879722D02*
X01527000Y01879722D01*
X01527000Y01889721D02*
X01528500Y01889721D01*
X01527000Y01899719D02*
X01532414Y01899719D01*
X01527000Y01909718D02*
X01538000Y01909718D01*
X01538000Y01919717D02*
X01527000Y01919717D01*
X01527000Y01929715D02*
X01538000Y01929715D01*
X01538000Y01939714D02*
X01527000Y01939714D01*
X01527000Y01949712D02*
X01538000Y01949712D01*
X01538000Y01959711D02*
X01527000Y01959711D01*
X01527000Y01969709D02*
X01538000Y01969709D01*
X01531251Y01979708D02*
X01527000Y01979708D01*
X01458000Y01969709D02*
X01243751Y01969709D01*
X01253749Y01979708D02*
X01451251Y01979708D01*
X01441252Y01989706D02*
X01263748Y01989706D01*
X01273746Y01999705D02*
X01431254Y01999705D01*
X01458000Y01959711D02*
X01302766Y01959711D01*
X01309660Y01949712D02*
X01458000Y01949712D01*
X01458000Y01939714D02*
X01311500Y01939714D01*
X01309423Y01929715D02*
X01458000Y01929715D01*
X01458000Y01919717D02*
X01302193Y01919717D01*
X01300000Y01909718D02*
X01458000Y01909718D01*
X01458000Y01899719D02*
X01300000Y01899719D01*
X01300000Y01889721D02*
X01458000Y01889721D01*
X01458000Y01879722D02*
X01300000Y01879722D01*
X01300000Y01869724D02*
X01452415Y01869724D01*
X01448500Y01859725D02*
X01300000Y01859725D01*
X01300000Y01849727D02*
X01448501Y01849727D01*
X01452795Y01839728D02*
X01300000Y01839728D01*
X01300000Y01829730D02*
X01466760Y01829730D01*
X01483240Y01829730D02*
X01483500Y01829730D01*
X01487792Y01819731D02*
X01300000Y01819731D01*
X01270000Y01819731D02*
X00791500Y01819731D01*
X00791500Y01814729D02*
X00787466Y01804989D01*
X00780011Y01797534D01*
X00770271Y01793500D01*
X00759729Y01793500D01*
X00749989Y01797534D01*
X00742534Y01804989D01*
X00738500Y01814729D01*
X00738500Y01825271D01*
X00742534Y01835011D01*
X00749989Y01842466D01*
X00750000Y01842470D01*
X00750000Y02163787D01*
X00668787Y02245000D01*
X00513165Y02245000D01*
X00509758Y02236775D01*
X00498225Y02225242D01*
X00483155Y02219000D01*
X00406844Y02219000D01*
X00391775Y02225242D01*
X00380242Y02236775D01*
X00374000Y02251844D01*
X00374000Y02268155D01*
X00380242Y02283225D01*
X00391775Y02294758D01*
X00406844Y02301000D01*
X00483155Y02301000D01*
X00498225Y02294758D01*
X00509758Y02283225D01*
X00513165Y02275000D01*
X00660000Y02275000D01*
X00660000Y02429787D01*
X00652385Y02437402D01*
X00642225Y02427242D01*
X00627155Y02421000D01*
X00610844Y02421000D01*
X00595775Y02427242D01*
X00584242Y02438775D01*
X00578000Y02453844D01*
X00578000Y02530155D01*
X00584242Y02545225D01*
X00595775Y02556758D01*
X00610844Y02563000D01*
X00627155Y02563000D01*
X00642225Y02556758D01*
X00653758Y02545225D01*
X00660000Y02530155D01*
X00660000Y02472213D01*
X00690000Y02442213D01*
X00690000Y02266213D01*
X00771213Y02185000D01*
X00771213Y02185000D01*
X00780000Y02176213D01*
X00780000Y01842470D01*
X00780011Y01842466D01*
X00787466Y01835011D01*
X00791500Y01825271D01*
X00791500Y01814729D01*
X00789430Y01809733D02*
X01270000Y01809733D01*
X01270000Y01799734D02*
X00782211Y01799734D01*
X00789653Y01829730D02*
X01270000Y01829730D01*
X01270000Y01839728D02*
X00782748Y01839728D01*
X00780000Y01849727D02*
X01270000Y01849727D01*
X01270000Y01859725D02*
X00780000Y01859725D01*
X00780000Y01869724D02*
X01270000Y01869724D01*
X01270000Y01879722D02*
X00780000Y01879722D01*
X00780000Y01889721D02*
X01270000Y01889721D01*
X01270000Y01899719D02*
X00780000Y01899719D01*
X00780000Y01909718D02*
X01270000Y01909718D01*
X01267807Y01919717D02*
X00780000Y01919717D01*
X00780000Y01929715D02*
X01260577Y01929715D01*
X01258500Y01939714D02*
X00780000Y01939714D01*
X00780000Y01949712D02*
X01260340Y01949712D01*
X01267234Y01959711D02*
X00780000Y01959711D01*
X00780000Y01969709D02*
X01046249Y01969709D01*
X01036251Y01979708D02*
X00780000Y01979708D01*
X00780000Y01989706D02*
X01026252Y01989706D01*
X01016254Y01999705D02*
X00780000Y01999705D01*
X00780000Y02009703D02*
X01006255Y02009703D01*
X00996257Y02019702D02*
X00780000Y02019702D01*
X00780000Y02029700D02*
X00986258Y02029700D01*
X00983000Y02039699D02*
X00780000Y02039699D01*
X00780000Y02049697D02*
X00983000Y02049697D01*
X00983000Y02059696D02*
X00780000Y02059696D01*
X00780000Y02069694D02*
X00983000Y02069694D01*
X00983000Y02079693D02*
X00780000Y02079693D01*
X00780000Y02089691D02*
X00983000Y02089691D01*
X00983000Y02099690D02*
X00780000Y02099690D01*
X00780000Y02109688D02*
X00953508Y02109688D01*
X00953508Y02119687D02*
X00780000Y02119687D01*
X00780000Y02129686D02*
X00953508Y02129686D01*
X00953508Y02139684D02*
X00780000Y02139684D01*
X00780000Y02149683D02*
X00953508Y02149683D01*
X00953508Y02159681D02*
X00780000Y02159681D01*
X00780000Y02169680D02*
X00953508Y02169680D01*
X00953508Y02179678D02*
X00776535Y02179678D01*
X00766536Y02189677D02*
X01630564Y02189677D01*
X01630361Y02199675D02*
X00756538Y02199675D01*
X00746539Y02209674D02*
X00961841Y02209674D01*
X00962533Y02209488D02*
X00995000Y02209488D01*
X00995000Y02250984D01*
X01005000Y02250984D01*
X01005000Y02209488D01*
X01037467Y02209488D01*
X01041282Y02210510D01*
X01044702Y02212485D01*
X01047495Y02215278D01*
X01049470Y02218698D01*
X01050492Y02222513D01*
X01050492Y02250984D01*
X01005000Y02250984D01*
X01005000Y02260984D01*
X01050492Y02260984D01*
X01050492Y02289455D01*
X01049470Y02293270D01*
X01047495Y02296690D01*
X01044702Y02299483D01*
X01041282Y02301458D01*
X01037467Y02302480D01*
X01005000Y02302480D01*
X01005000Y02260985D01*
X00995000Y02260985D01*
X00995000Y02302480D01*
X00962533Y02302480D01*
X00958718Y02301458D01*
X00955298Y02299483D01*
X00952505Y02296690D01*
X00950530Y02293270D01*
X00949508Y02289455D01*
X00949508Y02260984D01*
X00995000Y02260984D01*
X00995000Y02250984D01*
X00949508Y02250984D01*
X00949508Y02222513D01*
X00950530Y02218698D01*
X00952505Y02215278D01*
X00955298Y02212485D01*
X00958718Y02210510D01*
X00962533Y02209488D01*
X00950269Y02219672D02*
X00736541Y02219672D01*
X00726542Y02229671D02*
X00949508Y02229671D01*
X00949508Y02239669D02*
X00716544Y02239669D01*
X00706545Y02249668D02*
X00949508Y02249668D01*
X00949508Y02269665D02*
X00690000Y02269665D01*
X00690000Y02279663D02*
X00949508Y02279663D01*
X00949563Y02289662D02*
X00690000Y02289662D01*
X00690000Y02299660D02*
X00955605Y02299660D01*
X00995000Y02299660D02*
X01005000Y02299660D01*
X01005000Y02289662D02*
X00995000Y02289662D01*
X00995000Y02279663D02*
X01005000Y02279663D01*
X01005000Y02269665D02*
X00995000Y02269665D01*
X00995000Y02259666D02*
X00696547Y02259666D01*
X00674117Y02239669D02*
X00510957Y02239669D01*
X00502653Y02229671D02*
X00684116Y02229671D01*
X00694115Y02219672D02*
X00484778Y02219672D01*
X00483155Y02201000D02*
X00406844Y02201000D01*
X00391775Y02194758D01*
X00380242Y02183225D01*
X00377664Y02177000D01*
X00367042Y02177000D01*
X00322000Y02222042D01*
X00322000Y02348958D01*
X00409029Y02435988D01*
X00417775Y02427242D01*
X00432844Y02421000D01*
X00449155Y02421000D01*
X00464225Y02427242D01*
X00475758Y02438775D01*
X00482000Y02453844D01*
X00482000Y02508958D01*
X00504561Y02531520D01*
X00560048Y02531520D01*
X00566492Y02537963D01*
X00566492Y02610068D01*
X00560048Y02616512D01*
X00479951Y02616512D01*
X00473508Y02610068D01*
X00473508Y02548549D01*
X00472970Y02548012D01*
X00464225Y02556758D01*
X00458000Y02559336D01*
X00458000Y02680664D01*
X00464225Y02683242D01*
X00473508Y02692525D01*
X00473508Y02649932D01*
X00479951Y02643488D01*
X00560048Y02643488D01*
X00566259Y02649699D01*
X00598000Y02617958D01*
X00607958Y02608000D01*
X00917042Y02608000D01*
X00977042Y02668000D01*
X00987000Y02677958D01*
X00987000Y02699523D01*
X00992466Y02704989D01*
X00996500Y02714729D01*
X00996500Y02725271D01*
X00992466Y02735011D01*
X00985011Y02742466D01*
X00975271Y02746500D01*
X00964729Y02746500D01*
X00954989Y02742466D01*
X00947534Y02735011D01*
X00943500Y02725271D01*
X00943500Y02714729D01*
X00947534Y02704989D01*
X00953000Y02699523D01*
X00953000Y02692042D01*
X00902958Y02642000D01*
X00622042Y02642000D01*
X00566492Y02697549D01*
X00566492Y02722037D01*
X00560048Y02728480D01*
X00482000Y02728480D01*
X00482000Y02786155D01*
X00475758Y02801225D01*
X00464225Y02812758D01*
X00449155Y02819000D01*
X00432844Y02819000D01*
X00417775Y02812758D01*
X00406242Y02801225D01*
X00400000Y02786155D01*
X00400000Y02709844D01*
X00406242Y02694775D01*
X00417775Y02683242D01*
X00424000Y02680664D01*
X00424000Y02559336D01*
X00417775Y02556758D01*
X00406242Y02545225D01*
X00400000Y02530155D01*
X00400000Y02475042D01*
X00288000Y02363042D01*
X00288000Y02207958D01*
X00297958Y02198000D01*
X00352958Y02143000D01*
X00377664Y02143000D01*
X00380242Y02136775D01*
X00391775Y02125242D01*
X00406844Y02119000D01*
X00483155Y02119000D01*
X00498225Y02125242D01*
X00509758Y02136775D01*
X00516000Y02151844D01*
X00516000Y02168155D01*
X00509758Y02183225D01*
X00498225Y02194758D01*
X00483155Y02201000D01*
X00486353Y02199675D02*
X00714112Y02199675D01*
X00724110Y02189677D02*
X00503306Y02189677D01*
X00511227Y02179678D02*
X00734109Y02179678D01*
X00744107Y02169680D02*
X00515369Y02169680D01*
X00516000Y02159681D02*
X00750000Y02159681D01*
X00750000Y02149683D02*
X00515104Y02149683D01*
X00510963Y02139684D02*
X00750000Y02139684D01*
X00750000Y02129686D02*
X00502668Y02129686D01*
X00484814Y02119687D02*
X00750000Y02119687D01*
X00750000Y02109688D02*
X00205000Y02109688D01*
X00205000Y02099690D02*
X00750000Y02099690D01*
X00750000Y02089691D02*
X00205000Y02089691D01*
X00205000Y02079693D02*
X00750000Y02079693D01*
X00750000Y02069694D02*
X00205000Y02069694D01*
X00205000Y02059696D02*
X00750000Y02059696D01*
X00750000Y02049697D02*
X00205000Y02049697D01*
X00205000Y02039699D02*
X00750000Y02039699D01*
X00750000Y02029700D02*
X00205000Y02029700D01*
X00205000Y02019702D02*
X00750000Y02019702D01*
X00750000Y02009703D02*
X00205000Y02009703D01*
X00205000Y01999705D02*
X00750000Y01999705D01*
X00750000Y01989706D02*
X00205000Y01989706D01*
X00205000Y01979708D02*
X00750000Y01979708D01*
X00750000Y01969709D02*
X00205000Y01969709D01*
X00205000Y01959711D02*
X00750000Y01959711D01*
X00750000Y01949712D02*
X00205000Y01949712D01*
X00205000Y01939714D02*
X00750000Y01939714D01*
X00750000Y01929715D02*
X00205000Y01929715D01*
X00205000Y01919717D02*
X00750000Y01919717D01*
X00750000Y01909718D02*
X00205000Y01909718D01*
X00205000Y01899719D02*
X00750000Y01899719D01*
X00750000Y01889721D02*
X00205000Y01889721D01*
X00205000Y01879722D02*
X00750000Y01879722D01*
X00750000Y01869724D02*
X00205000Y01869724D01*
X00205000Y01859725D02*
X00750000Y01859725D01*
X00750000Y01849727D02*
X00205000Y01849727D01*
X00205000Y01839728D02*
X00747252Y01839728D01*
X00740347Y01829730D02*
X00205000Y01829730D01*
X00205000Y01819731D02*
X00738500Y01819731D01*
X00740569Y01809733D02*
X00205000Y01809733D01*
X00205000Y01799734D02*
X00747789Y01799734D01*
X00717042Y01752000D02*
X00665477Y01752000D01*
X00660011Y01757466D01*
X00650271Y01761500D01*
X00639729Y01761500D01*
X00629989Y01757466D01*
X00622534Y01750011D01*
X00618500Y01740271D01*
X00618500Y01729729D01*
X00622534Y01719989D01*
X00629989Y01712534D01*
X00639729Y01708500D01*
X00650271Y01708500D01*
X00660011Y01712534D01*
X00665477Y01718000D01*
X00698500Y01718000D01*
X00698500Y01714729D01*
X00702534Y01704989D01*
X00709989Y01697534D01*
X00719729Y01693500D01*
X00730271Y01693500D01*
X00740011Y01697534D01*
X00747466Y01704989D01*
X00751500Y01714729D01*
X00751500Y01725271D01*
X00747466Y01735011D01*
X00740011Y01742466D01*
X00730271Y01746500D01*
X00722542Y01746500D01*
X00717042Y01752000D01*
X00719300Y01749742D02*
X01270000Y01749742D01*
X01270000Y01759740D02*
X00654520Y01759740D01*
X00635480Y01759740D02*
X00205000Y01759740D01*
X00205000Y01749742D02*
X00622423Y01749742D01*
X00618500Y01739743D02*
X00205000Y01739743D01*
X00205000Y01729745D02*
X00618500Y01729745D01*
X00622777Y01719746D02*
X00205000Y01719746D01*
X00205000Y01709748D02*
X00636717Y01709748D01*
X00653283Y01709748D02*
X00700563Y01709748D01*
X00707774Y01699749D02*
X00205000Y01699749D01*
X00205000Y01689750D02*
X01270000Y01689750D01*
X01270000Y01679752D02*
X00205000Y01679752D01*
X00205000Y01669753D02*
X01270000Y01669753D01*
X01270000Y01659755D02*
X00205000Y01659755D01*
X00205000Y01649756D02*
X01270000Y01649756D01*
X01270000Y01639758D02*
X00205000Y01639758D01*
X00205000Y01629759D02*
X01270000Y01629759D01*
X01270000Y01619761D02*
X00205000Y01619761D01*
X00205000Y01609762D02*
X01270000Y01609762D01*
X01270000Y01599764D02*
X00205000Y01599764D01*
X00205000Y01589765D02*
X01270000Y01589765D01*
X01270000Y01579767D02*
X00205000Y01579767D01*
X00205000Y01569768D02*
X01270000Y01569768D01*
X01270000Y01559770D02*
X00205000Y01559770D01*
X00205000Y01549771D02*
X01270000Y01549771D01*
X01270000Y01539773D02*
X00205000Y01539773D01*
X00205000Y01529774D02*
X01270000Y01529774D01*
X01270000Y01519776D02*
X00205000Y01519776D01*
X00205000Y01509777D02*
X01270000Y01509777D01*
X01270000Y01499779D02*
X00205000Y01499779D01*
X00205000Y01489780D02*
X01270000Y01489780D01*
X01270000Y01479781D02*
X00205000Y01479781D01*
X00205000Y01469783D02*
X01270000Y01469783D01*
X01270000Y01459784D02*
X00205000Y01459784D01*
X00205000Y01449786D02*
X01270000Y01449786D01*
X01270000Y01439787D02*
X00205000Y01439787D01*
X00205000Y01429789D02*
X01270000Y01429789D01*
X01270000Y01419790D02*
X00205000Y01419790D01*
X00205000Y01409792D02*
X01270000Y01409792D01*
X01270000Y01399793D02*
X00205000Y01399793D01*
X00205000Y01389795D02*
X01270000Y01389795D01*
X01270000Y01379796D02*
X00205000Y01379796D01*
X00205000Y01369798D02*
X01270000Y01369798D01*
X01270000Y01359799D02*
X00205000Y01359799D01*
X00205000Y01349801D02*
X01278986Y01349801D01*
X01351408Y01319805D02*
X02038592Y01319805D01*
X02061021Y01299808D02*
X02297450Y01299808D01*
X02297534Y01300011D02*
X02293500Y01290271D01*
X02293500Y01279729D01*
X02297534Y01269989D01*
X02304989Y01262534D01*
X02314729Y01258500D01*
X02325271Y01258500D01*
X02335011Y01262534D01*
X02342466Y01269989D01*
X02346500Y01279729D01*
X02346500Y01290271D01*
X02342466Y01300011D01*
X02337000Y01305477D01*
X02337000Y01306943D01*
X02353565Y01323508D01*
X02412068Y01323508D01*
X02418512Y01329951D01*
X02418512Y01410048D01*
X02412068Y01416492D01*
X02339963Y01416492D01*
X02333520Y01410048D01*
X02333520Y01351546D01*
X02303000Y01321026D01*
X02303000Y01305477D01*
X02297534Y01300011D01*
X02293500Y01289810D02*
X02051023Y01289810D01*
X02071020Y01309807D02*
X02303000Y01309807D01*
X02303000Y01319805D02*
X02081018Y01319805D01*
X02091017Y01329804D02*
X02311778Y01329804D01*
X02321776Y01339802D02*
X02101015Y01339802D01*
X02111014Y01349801D02*
X02331775Y01349801D01*
X02333520Y01359799D02*
X02121012Y01359799D01*
X02131011Y01369798D02*
X02333520Y01369798D01*
X02333520Y01379796D02*
X02141009Y01379796D01*
X02151008Y01389795D02*
X02333520Y01389795D01*
X02333520Y01399793D02*
X02161006Y01399793D01*
X02171005Y01409792D02*
X02333520Y01409792D01*
X02418512Y01409792D02*
X02445488Y01409792D01*
X02445488Y01410048D02*
X02445488Y01329951D01*
X02451932Y01323508D01*
X02521000Y01323508D01*
X02521000Y01322130D01*
X02532130Y01311000D01*
X02547870Y01311000D01*
X02560370Y01323500D01*
X02565271Y01323500D01*
X02575011Y01327534D01*
X02582466Y01334989D01*
X02586500Y01344729D01*
X02586500Y01355271D01*
X02582466Y01365011D01*
X02575011Y01372466D01*
X02565271Y01376500D01*
X02554729Y01376500D01*
X02544989Y01372466D01*
X02539523Y01367000D01*
X02530480Y01367000D01*
X02530480Y01410048D01*
X02524037Y01416492D01*
X02451932Y01416492D01*
X02445488Y01410048D01*
X02445488Y01399793D02*
X02418512Y01399793D01*
X02418512Y01389795D02*
X02445488Y01389795D01*
X02445488Y01379796D02*
X02418512Y01379796D01*
X02418512Y01369798D02*
X02445488Y01369798D01*
X02445488Y01359799D02*
X02418512Y01359799D01*
X02418512Y01349801D02*
X02445488Y01349801D01*
X02445488Y01339802D02*
X02418512Y01339802D01*
X02418364Y01329804D02*
X02445636Y01329804D01*
X02523325Y01319805D02*
X02349862Y01319805D01*
X02339864Y01309807D02*
X03327056Y01309807D01*
X03329684Y01307179D02*
X03359087Y01295000D01*
X03390913Y01295000D01*
X03420316Y01307179D01*
X03442821Y01329684D01*
X03455000Y01359087D01*
X03455000Y01390913D01*
X03442821Y01420316D01*
X03420316Y01442821D01*
X03390913Y01455000D01*
X03359087Y01455000D01*
X03329684Y01442821D01*
X03307179Y01420316D01*
X03295000Y01390913D01*
X03295000Y01359087D01*
X03307179Y01329684D01*
X03329684Y01307179D01*
X03317058Y01319805D02*
X02556675Y01319805D01*
X02577280Y01329804D02*
X03307129Y01329804D01*
X03302988Y01339802D02*
X02584459Y01339802D01*
X02586500Y01349801D02*
X03298846Y01349801D01*
X03295000Y01359799D02*
X02584624Y01359799D01*
X02577679Y01369798D02*
X03295000Y01369798D01*
X03295000Y01379796D02*
X02530480Y01379796D01*
X02530480Y01369798D02*
X02542321Y01369798D01*
X02530480Y01389795D02*
X02768992Y01389795D01*
X02758993Y01399793D02*
X02530480Y01399793D01*
X02530480Y01409792D02*
X02748995Y01409792D01*
X02738996Y01419790D02*
X02181003Y01419790D01*
X02191002Y01429789D02*
X02728998Y01429789D01*
X02718999Y01439787D02*
X02201000Y01439787D01*
X02210999Y01449786D02*
X02709001Y01449786D01*
X02699002Y01459784D02*
X02220998Y01459784D01*
X02230996Y01469783D02*
X02689004Y01469783D01*
X02711433Y01489780D02*
X02836580Y01489780D01*
X02829799Y01499779D02*
X02701435Y01499779D01*
X02721432Y01479781D02*
X02849812Y01479781D01*
X02865000Y01479781D02*
X02875000Y01479781D01*
X02875000Y01489780D02*
X02865000Y01489780D01*
X02865000Y01499779D02*
X02875000Y01499779D01*
X02875000Y01509777D02*
X02865000Y01509777D01*
X02865000Y01519776D02*
X02875000Y01519776D01*
X02875000Y01529774D02*
X02865000Y01529774D01*
X02865000Y01539773D02*
X02875000Y01539773D01*
X02875000Y01549771D02*
X02929000Y01549771D01*
X02929000Y01539773D02*
X02915000Y01539773D01*
X02915000Y01529774D02*
X02929000Y01529774D01*
X02929000Y01519776D02*
X02915000Y01519776D01*
X02913942Y01509777D02*
X02929856Y01509777D01*
X02933998Y01499779D02*
X02910201Y01499779D01*
X02903420Y01489780D02*
X02942237Y01489780D01*
X02959958Y01479781D02*
X02890188Y01479781D01*
X02826058Y01509777D02*
X02122000Y01509777D01*
X02122000Y01499779D02*
X02218565Y01499779D01*
X02208567Y01489780D02*
X02122000Y01489780D01*
X02122000Y01479781D02*
X02198568Y01479781D01*
X02188570Y01469783D02*
X02122000Y01469783D01*
X02118826Y01459784D02*
X02178571Y01459784D01*
X02168573Y01449786D02*
X02108828Y01449786D01*
X02098829Y01439787D02*
X02158574Y01439787D01*
X02148576Y01429789D02*
X02088830Y01429789D01*
X02078832Y01419790D02*
X02138577Y01419790D01*
X02128579Y01409792D02*
X02068833Y01409792D01*
X02058835Y01399793D02*
X02118580Y01399793D01*
X02108582Y01389795D02*
X02048836Y01389795D01*
X02038838Y01379796D02*
X02098583Y01379796D01*
X02088585Y01369798D02*
X02028839Y01369798D01*
X02018841Y01359799D02*
X02078586Y01359799D01*
X02068587Y01349801D02*
X02008842Y01349801D01*
X01980749Y01419790D02*
X01863832Y01419790D01*
X01873830Y01429789D02*
X01990747Y01429789D01*
X02000746Y01439787D02*
X01883829Y01439787D01*
X01893827Y01449786D02*
X02010744Y01449786D01*
X02020743Y01459784D02*
X01903826Y01459784D01*
X01913825Y01469783D02*
X02030741Y01469783D01*
X02033000Y01479781D02*
X01922000Y01479781D01*
X01922000Y01489780D02*
X02033000Y01489780D01*
X02033000Y01499779D02*
X01922000Y01499779D01*
X01922000Y01509777D02*
X02033000Y01509777D01*
X02033000Y01519776D02*
X01922000Y01519776D01*
X01922000Y01529774D02*
X02033000Y01529774D01*
X02033000Y01539773D02*
X01922000Y01539773D01*
X01922000Y01549771D02*
X02033000Y01549771D01*
X02033000Y01559770D02*
X01922000Y01559770D01*
X01922000Y01569768D02*
X02033000Y01569768D01*
X02033000Y01579767D02*
X01922000Y01579767D01*
X01922000Y01589765D02*
X02033000Y01589765D01*
X02033000Y01599764D02*
X01922000Y01599764D01*
X01922000Y01609762D02*
X02033000Y01609762D01*
X02033000Y01619761D02*
X01922000Y01619761D01*
X01922000Y01629759D02*
X02033000Y01629759D01*
X02033000Y01639758D02*
X01922000Y01639758D01*
X01923798Y01649756D02*
X02033000Y01649756D01*
X02033000Y01659755D02*
X01933797Y01659755D01*
X01943795Y01669753D02*
X02033000Y01669753D01*
X02033000Y01679752D02*
X01947000Y01679752D01*
X01947000Y01689750D02*
X02033000Y01689750D01*
X02040708Y01699749D02*
X02018731Y01699749D01*
X02019701Y01709748D02*
X02050706Y01709748D01*
X02060705Y01719746D02*
X02019701Y01719746D01*
X02019701Y01729745D02*
X02070703Y01729745D01*
X02080702Y01739743D02*
X02019701Y01739743D01*
X02015224Y01749742D02*
X02090700Y01749742D01*
X02100699Y01759740D02*
X01970527Y01759740D01*
X01968534Y01769739D02*
X02110697Y01769739D01*
X02120696Y01779737D02*
X01968010Y01779737D01*
X01970527Y01782255D02*
X01970527Y01803494D01*
X01985325Y01818291D01*
X02013257Y01818291D01*
X02019701Y01824735D01*
X02019701Y01833000D01*
X02038500Y01833000D01*
X02038500Y01829729D01*
X02042534Y01819989D01*
X02049989Y01812534D01*
X02059729Y01808500D01*
X02070271Y01808500D01*
X02080011Y01812534D01*
X02087466Y01819989D01*
X02091500Y01829729D01*
X02091500Y01840271D01*
X02087466Y01850011D01*
X02084476Y01853000D01*
X02099523Y01853000D01*
X02104989Y01847534D01*
X02114729Y01843500D01*
X02125271Y01843500D01*
X02135011Y01847534D01*
X02142466Y01854989D01*
X02146500Y01864729D01*
X02146500Y01875271D01*
X02142466Y01885011D01*
X02135011Y01892466D01*
X02125271Y01896500D01*
X02114729Y01896500D01*
X02104989Y01892466D01*
X02099523Y01887000D01*
X02082042Y01887000D01*
X02062000Y01907042D01*
X02052042Y01917000D01*
X01862958Y01917000D01*
X01853000Y01907042D01*
X01853000Y01907041D01*
X01798889Y01852930D01*
X01790271Y01856500D01*
X01779729Y01856500D01*
X01769989Y01852466D01*
X01762534Y01845011D01*
X01758500Y01835271D01*
X01758500Y01824729D01*
X01762534Y01814989D01*
X01769989Y01807534D01*
X01779729Y01803500D01*
X01790271Y01803500D01*
X01800011Y01807534D01*
X01807466Y01814989D01*
X01808713Y01818000D01*
X01812042Y01818000D01*
X01822000Y01827958D01*
X01822000Y01827958D01*
X01877041Y01883000D01*
X02037958Y01883000D01*
X02053959Y01867000D01*
X02019701Y01867000D01*
X02019701Y01869281D01*
X02013257Y01875724D01*
X01966743Y01875724D01*
X01960299Y01869281D01*
X01960299Y01848992D01*
X01895916Y01848992D01*
X01889472Y01842548D01*
X01889472Y01782255D01*
X01895916Y01775811D01*
X01964084Y01775811D01*
X01970527Y01782255D01*
X01970527Y01789736D02*
X02130694Y01789736D01*
X02140693Y01799734D02*
X01970527Y01799734D01*
X01976766Y01809733D02*
X02056752Y01809733D01*
X02073247Y01809733D02*
X02150691Y01809733D01*
X02160690Y01819731D02*
X02087208Y01819731D01*
X02091500Y01829730D02*
X02170688Y01829730D01*
X02180687Y01839728D02*
X02091500Y01839728D01*
X02087583Y01849727D02*
X02102796Y01849727D01*
X02137203Y01849727D02*
X02190685Y01849727D01*
X02200684Y01859725D02*
X02144427Y01859725D01*
X02146500Y01869724D02*
X02210682Y01869724D01*
X02220681Y01879722D02*
X02144656Y01879722D01*
X02137756Y01889721D02*
X02230680Y01889721D01*
X02237850Y01899719D02*
X02069322Y01899719D01*
X02079320Y01889721D02*
X02102244Y01889721D01*
X02059323Y01909718D02*
X02247848Y01909718D01*
X02257847Y01919717D02*
X01622000Y01919717D01*
X01622000Y01929715D02*
X02267845Y01929715D01*
X02271000Y01939714D02*
X01622000Y01939714D01*
X01622000Y01949712D02*
X02271000Y01949712D01*
X02271000Y01959711D02*
X01622000Y01959711D01*
X01622000Y01969709D02*
X02271000Y01969709D01*
X02271000Y01979708D02*
X01622000Y01979708D01*
X01622000Y01989706D02*
X02271000Y01989706D01*
X02271000Y01999705D02*
X01622000Y01999705D01*
X01622000Y02009703D02*
X01911824Y02009703D01*
X01914729Y02008500D02*
X01925271Y02008500D01*
X01935011Y02012534D01*
X01940477Y02018000D01*
X01948477Y02018000D01*
X01948861Y02017653D01*
X01955446Y02018000D01*
X01962042Y02018000D01*
X01962408Y02018366D01*
X01962925Y02018394D01*
X01967336Y02023295D01*
X01972000Y02027958D01*
X01972000Y02028477D01*
X02012337Y02073296D01*
X02017000Y02077958D01*
X02017000Y02078477D01*
X02017346Y02078861D01*
X02017000Y02085447D01*
X02017000Y02101520D01*
X02040048Y02101520D01*
X02046492Y02107963D01*
X02046492Y02180068D01*
X02040048Y02186512D01*
X01959951Y02186512D01*
X01953508Y02180068D01*
X01953508Y02107963D01*
X01959951Y02101520D01*
X01983000Y02101520D01*
X01983000Y02091523D01*
X01947429Y02052000D01*
X01940477Y02052000D01*
X01935011Y02057466D01*
X01925271Y02061500D01*
X01918976Y02061500D01*
X01922466Y02064989D01*
X01926500Y02074729D01*
X01926500Y02085271D01*
X01922466Y02095011D01*
X01917000Y02100477D01*
X01917000Y02101520D01*
X01940048Y02101520D01*
X01946492Y02107963D01*
X01946492Y02180068D01*
X01940048Y02186512D01*
X01859951Y02186512D01*
X01855000Y02181560D01*
X01850048Y02186512D01*
X01769951Y02186512D01*
X01763508Y02180068D01*
X01763508Y02107963D01*
X01769951Y02101520D01*
X01784439Y02101520D01*
X01786249Y02099710D01*
X01788449Y02095676D01*
X01791045Y02094913D01*
X01817958Y02068000D01*
X01829523Y02068000D01*
X01834989Y02062534D01*
X01844729Y02058500D01*
X01855271Y02058500D01*
X01865011Y02062534D01*
X01872466Y02069989D01*
X01873964Y02073608D01*
X01877534Y02064989D01*
X01884989Y02057534D01*
X01894729Y02053500D01*
X01901023Y02053500D01*
X01897534Y02050011D01*
X01893500Y02040271D01*
X01893500Y02029729D01*
X01897534Y02019989D01*
X01904989Y02012534D01*
X01914729Y02008500D01*
X01928176Y02009703D02*
X02271000Y02009703D01*
X02271000Y02019702D02*
X01964103Y02019702D01*
X01973101Y02029700D02*
X02271000Y02029700D01*
X02271000Y02039699D02*
X01982100Y02039699D01*
X01991099Y02049697D02*
X02271000Y02049697D01*
X02271000Y02059696D02*
X02108158Y02059696D01*
X02105271Y02058500D02*
X02115011Y02062534D01*
X02122466Y02069989D01*
X02126500Y02079729D01*
X02126500Y02090271D01*
X02122466Y02100011D01*
X02120957Y02101520D01*
X02140048Y02101520D01*
X02146492Y02107963D01*
X02146492Y02180068D01*
X02140048Y02186512D01*
X02059951Y02186512D01*
X02053508Y02180068D01*
X02053508Y02107963D01*
X02059951Y02101520D01*
X02079043Y02101520D01*
X02077534Y02100011D01*
X02073500Y02090271D01*
X02073500Y02079729D01*
X02077534Y02069989D01*
X02084989Y02062534D01*
X02094729Y02058500D01*
X02105271Y02058500D01*
X02091842Y02059696D02*
X02000097Y02059696D01*
X02009096Y02069694D02*
X02077829Y02069694D01*
X02073515Y02079693D02*
X02017303Y02079693D01*
X02017000Y02089691D02*
X02073500Y02089691D01*
X02077401Y02099690D02*
X02017000Y02099690D01*
X02046492Y02109688D02*
X02053508Y02109688D01*
X02053508Y02119687D02*
X02046492Y02119687D01*
X02046492Y02129686D02*
X02053508Y02129686D01*
X02053508Y02139684D02*
X02046492Y02139684D01*
X02046492Y02149683D02*
X02053508Y02149683D01*
X02053508Y02159681D02*
X02046492Y02159681D01*
X02046492Y02169680D02*
X02053508Y02169680D01*
X02053508Y02179678D02*
X02046492Y02179678D01*
X02040048Y02213488D02*
X02046492Y02219932D01*
X02046492Y02292037D01*
X02040048Y02298480D01*
X02019000Y02298480D01*
X02019000Y02306523D01*
X02022466Y02309989D01*
X02026500Y02319729D01*
X02026500Y02330271D01*
X02022466Y02340011D01*
X02015011Y02347466D01*
X02005271Y02351500D01*
X01994729Y02351500D01*
X01984989Y02347466D01*
X01977534Y02340011D01*
X01973500Y02330271D01*
X01973500Y02319729D01*
X01977534Y02309989D01*
X01981000Y02306523D01*
X01981000Y02298480D01*
X01959951Y02298480D01*
X01953508Y02292037D01*
X01953508Y02219932D01*
X01959951Y02213488D01*
X02040048Y02213488D01*
X02046233Y02219672D02*
X02053767Y02219672D01*
X02053508Y02219932D02*
X02059951Y02213488D01*
X02140048Y02213488D01*
X02146492Y02219932D01*
X02146492Y02292037D01*
X02140048Y02298480D01*
X02119000Y02298480D01*
X02119000Y02311523D01*
X02122466Y02314989D01*
X02126500Y02324729D01*
X02126500Y02335271D01*
X02122466Y02345011D01*
X02115011Y02352466D01*
X02105271Y02356500D01*
X02094729Y02356500D01*
X02084989Y02352466D01*
X02077534Y02345011D01*
X02073500Y02335271D01*
X02073500Y02324729D01*
X02077534Y02314989D01*
X02081000Y02311523D01*
X02081000Y02298480D01*
X02059951Y02298480D01*
X02053508Y02292037D01*
X02053508Y02219932D01*
X02053508Y02229671D02*
X02046492Y02229671D01*
X02046492Y02239669D02*
X02053508Y02239669D01*
X02053508Y02249668D02*
X02046492Y02249668D01*
X02046492Y02259666D02*
X02053508Y02259666D01*
X02053508Y02269665D02*
X02046492Y02269665D01*
X02046492Y02279663D02*
X02053508Y02279663D01*
X02053508Y02289662D02*
X02046492Y02289662D01*
X02019000Y02299660D02*
X02081000Y02299660D01*
X02081000Y02309659D02*
X02022136Y02309659D01*
X02026470Y02319657D02*
X02075601Y02319657D01*
X02073500Y02329656D02*
X02026500Y02329656D01*
X02022613Y02339655D02*
X02075316Y02339655D01*
X02082176Y02349653D02*
X02009730Y02349653D01*
X01990270Y02349653D02*
X01909730Y02349653D01*
X01905271Y02351500D02*
X01915011Y02347466D01*
X01922466Y02340011D01*
X01926500Y02330271D01*
X01926500Y02319729D01*
X01922466Y02309989D01*
X01919000Y02306523D01*
X01919000Y02298480D01*
X01940048Y02298480D01*
X01946492Y02292037D01*
X01946492Y02219932D01*
X01940048Y02213488D01*
X01859951Y02213488D01*
X01855000Y02218440D01*
X01850048Y02213488D01*
X01769951Y02213488D01*
X01763508Y02219932D01*
X01763508Y02292037D01*
X01769951Y02298480D01*
X01791000Y02298480D01*
X01791000Y02306523D01*
X01787534Y02309989D01*
X01783500Y02319729D01*
X01783500Y02330271D01*
X01787534Y02340011D01*
X01794989Y02347466D01*
X01804729Y02351500D01*
X01815271Y02351500D01*
X01825011Y02347466D01*
X01832466Y02340011D01*
X01836500Y02330271D01*
X01836500Y02319729D01*
X01832466Y02309989D01*
X01829000Y02306523D01*
X01829000Y02298480D01*
X01850048Y02298480D01*
X01855000Y02293529D01*
X01859951Y02298480D01*
X01881000Y02298480D01*
X01881000Y02306523D01*
X01877534Y02309989D01*
X01873500Y02319729D01*
X01873500Y02330271D01*
X01877534Y02340011D01*
X01884989Y02347466D01*
X01894729Y02351500D01*
X01905271Y02351500D01*
X01890270Y02349653D02*
X01819730Y02349653D01*
X01832613Y02339655D02*
X01877387Y02339655D01*
X01873500Y02329656D02*
X01836500Y02329656D01*
X01836470Y02319657D02*
X01873529Y02319657D01*
X01877864Y02309659D02*
X01832135Y02309659D01*
X01829000Y02299660D02*
X01881000Y02299660D01*
X01919000Y02299660D02*
X01981000Y02299660D01*
X01977864Y02309659D02*
X01922136Y02309659D01*
X01926470Y02319657D02*
X01973529Y02319657D01*
X01973500Y02329656D02*
X01926500Y02329656D01*
X01922613Y02339655D02*
X01977387Y02339655D01*
X01953508Y02289662D02*
X01946492Y02289662D01*
X01946492Y02279663D02*
X01953508Y02279663D01*
X01953508Y02269665D02*
X01946492Y02269665D01*
X01946492Y02259666D02*
X01953508Y02259666D01*
X01953508Y02249668D02*
X01946492Y02249668D01*
X01946492Y02239669D02*
X01953508Y02239669D01*
X01953508Y02229671D02*
X01946492Y02229671D01*
X01946233Y02219672D02*
X01953767Y02219672D01*
X01953508Y02179678D02*
X01946492Y02179678D01*
X01946492Y02169680D02*
X01953508Y02169680D01*
X01953508Y02159681D02*
X01946492Y02159681D01*
X01946492Y02149683D02*
X01953508Y02149683D01*
X01953508Y02139684D02*
X01946492Y02139684D01*
X01946492Y02129686D02*
X01953508Y02129686D01*
X01953508Y02119687D02*
X01946492Y02119687D01*
X01946492Y02109688D02*
X01953508Y02109688D01*
X01983000Y02099690D02*
X01917787Y02099690D01*
X01924669Y02089691D02*
X01981351Y02089691D01*
X01972353Y02079693D02*
X01926500Y02079693D01*
X01924414Y02069694D02*
X01963354Y02069694D01*
X01954355Y02059696D02*
X01929626Y02059696D01*
X01897405Y02049697D02*
X01653739Y02049697D01*
X01643740Y02039699D02*
X01893500Y02039699D01*
X01893512Y02029700D02*
X01633742Y02029700D01*
X01623743Y02019702D02*
X01897821Y02019702D01*
X01882827Y02059696D02*
X01858158Y02059696D01*
X01841842Y02059696D02*
X01663737Y02059696D01*
X01667010Y02069694D02*
X01816264Y02069694D01*
X01806265Y02079693D02*
X01666806Y02079693D01*
X01666603Y02089691D02*
X01796267Y02089691D01*
X01786259Y02099690D02*
X01666400Y02099690D01*
X01746492Y02109688D02*
X01763508Y02109688D01*
X01763508Y02119687D02*
X01746492Y02119687D01*
X01746492Y02129686D02*
X01763508Y02129686D01*
X01763508Y02139684D02*
X01746492Y02139684D01*
X01746492Y02149683D02*
X01763508Y02149683D01*
X01763508Y02159681D02*
X01746492Y02159681D01*
X01746492Y02169680D02*
X01763508Y02169680D01*
X01763508Y02179678D02*
X01746492Y02179678D01*
X01746233Y02219672D02*
X01763767Y02219672D01*
X01763508Y02229671D02*
X01746492Y02229671D01*
X01746492Y02239669D02*
X01763508Y02239669D01*
X01763508Y02249668D02*
X01746492Y02249668D01*
X01746492Y02259666D02*
X01763508Y02259666D01*
X01763508Y02269665D02*
X01746492Y02269665D01*
X01746492Y02279663D02*
X01763508Y02279663D01*
X01763508Y02289662D02*
X01746492Y02289662D01*
X01719000Y02299660D02*
X01791000Y02299660D01*
X01787864Y02309659D02*
X01722136Y02309659D01*
X01726470Y02319657D02*
X01783529Y02319657D01*
X01783500Y02329656D02*
X01726500Y02329656D01*
X01722613Y02339655D02*
X01787387Y02339655D01*
X01800270Y02349653D02*
X01709730Y02349653D01*
X01690270Y02349653D02*
X01658480Y02349653D01*
X01658480Y02339655D02*
X01677387Y02339655D01*
X01673500Y02329656D02*
X01658480Y02329656D01*
X01662345Y02319657D02*
X01673529Y02319657D01*
X01677864Y02309659D02*
X01662132Y02309659D01*
X01662335Y02299660D02*
X01681000Y02299660D01*
X01628328Y02299660D02*
X01523016Y02299660D01*
X01546219Y02309659D02*
X01573781Y02309659D01*
X01573488Y02319657D02*
X01546512Y02319657D01*
X01546512Y02329656D02*
X01573488Y02329656D01*
X01573488Y02339655D02*
X01546512Y02339655D01*
X01546512Y02349653D02*
X01573488Y02349653D01*
X01573488Y02359652D02*
X01546512Y02359652D01*
X01546512Y02369650D02*
X01573488Y02369650D01*
X01573488Y02379649D02*
X01546512Y02379649D01*
X01546512Y02389647D02*
X01573488Y02389647D01*
X01598984Y02399646D02*
X01437224Y02399646D01*
X01447223Y02389647D02*
X01461520Y02389647D01*
X01461520Y02379649D02*
X01457221Y02379649D01*
X01433477Y02349653D02*
X01409730Y02349653D01*
X01405271Y02351500D02*
X01394729Y02351500D01*
X01384989Y02347466D01*
X01377534Y02340011D01*
X01373500Y02330271D01*
X01373500Y02319729D01*
X01377534Y02309989D01*
X01381000Y02306523D01*
X01381000Y02298480D01*
X01359951Y02298480D01*
X01353508Y02292037D01*
X01353508Y02219932D01*
X01359951Y02213488D01*
X01440048Y02213488D01*
X01446492Y02219932D01*
X01446492Y02292037D01*
X01440048Y02298480D01*
X01419000Y02298480D01*
X01419000Y02306523D01*
X01422466Y02309989D01*
X01426500Y02319729D01*
X01426500Y02330271D01*
X01422466Y02340011D01*
X01415011Y02347466D01*
X01405271Y02351500D01*
X01401948Y02359652D02*
X00690000Y02359652D01*
X00690000Y02369650D02*
X01387873Y02369650D01*
X01383533Y02379649D02*
X00690000Y02379649D01*
X00690000Y02389647D02*
X01383500Y02389647D01*
X01387383Y02399646D02*
X00690000Y02399646D01*
X00690000Y02409644D02*
X01400249Y02409644D01*
X01419751Y02409644D02*
X01598984Y02409644D01*
X01603003Y02419643D02*
X00690000Y02419643D01*
X00690000Y02429641D02*
X01610902Y02429641D01*
X01612711Y02439640D02*
X01478023Y02439640D01*
X01475271Y02438500D02*
X01485011Y02442534D01*
X01492466Y02449989D01*
X01496500Y02459729D01*
X01496500Y02470271D01*
X01493298Y02478000D01*
X02262958Y02478000D01*
X02294141Y02446818D01*
X02293500Y02445271D01*
X02293500Y02434729D01*
X02297534Y02424989D01*
X02304989Y02417534D01*
X02314729Y02413500D01*
X02325271Y02413500D01*
X02335011Y02417534D01*
X02342466Y02424989D01*
X02346500Y02434729D01*
X02346500Y02445271D01*
X02342466Y02455011D01*
X02335011Y02462466D01*
X02325271Y02466500D01*
X02322542Y02466500D01*
X02277042Y02512000D01*
X01472958Y02512000D01*
X01463000Y02502042D01*
X01453000Y02492042D01*
X01453000Y02485477D01*
X01447534Y02480011D01*
X01443500Y02470271D01*
X01443500Y02459729D01*
X01447534Y02449989D01*
X01454989Y02442534D01*
X01464729Y02438500D01*
X01475271Y02438500D01*
X01461977Y02439640D02*
X00690000Y02439640D01*
X00682575Y02449638D02*
X01447885Y02449638D01*
X01443538Y02459637D02*
X00672576Y02459637D01*
X00662578Y02469635D02*
X01443500Y02469635D01*
X01447378Y02479634D02*
X00660000Y02479634D01*
X00660000Y02489632D02*
X01453000Y02489632D01*
X01460589Y02499631D02*
X00660000Y02499631D01*
X00660000Y02509629D02*
X01470588Y02509629D01*
X01496500Y02469635D02*
X02271323Y02469635D01*
X02281321Y02459637D02*
X01496462Y02459637D01*
X01492115Y02449638D02*
X01619563Y02449638D01*
X01655240Y02449638D02*
X02291320Y02449638D01*
X02293500Y02439640D02*
X01662092Y02439640D01*
X01663901Y02429641D02*
X02295607Y02429641D01*
X02302881Y02419643D02*
X01661795Y02419643D01*
X01654522Y02409644D02*
X02677383Y02409644D01*
X02673500Y02399646D02*
X01632984Y02399646D01*
X01658480Y02389647D02*
X02673534Y02389647D01*
X02677875Y02379649D02*
X01658480Y02379649D01*
X01658480Y02369650D02*
X02685000Y02369650D01*
X02685000Y02359652D02*
X01658480Y02359652D01*
X01664164Y02209674D02*
X02337804Y02209674D01*
X02347802Y02219672D02*
X02146233Y02219672D01*
X02146492Y02229671D02*
X02357801Y02229671D01*
X02367799Y02239669D02*
X02146492Y02239669D01*
X02146492Y02249668D02*
X02685000Y02249668D01*
X02685000Y02259666D02*
X02146492Y02259666D01*
X02146492Y02269665D02*
X02685000Y02269665D01*
X02685000Y02279663D02*
X02146492Y02279663D01*
X02146492Y02289662D02*
X02685000Y02289662D01*
X02685000Y02299660D02*
X02119000Y02299660D01*
X02119000Y02309659D02*
X02685000Y02309659D01*
X02685000Y02319657D02*
X02124399Y02319657D01*
X02126500Y02329656D02*
X02685000Y02329656D01*
X02685000Y02339655D02*
X02124684Y02339655D01*
X02117823Y02349653D02*
X02685000Y02349653D01*
X02715000Y02349653D02*
X02730000Y02349653D01*
X02730000Y02339655D02*
X02715000Y02339655D01*
X02715000Y02329656D02*
X02730000Y02329656D01*
X02730000Y02319657D02*
X02715000Y02319657D01*
X02715000Y02309659D02*
X02739128Y02309659D01*
X02749126Y02299660D02*
X02715000Y02299660D01*
X02715000Y02289662D02*
X02759125Y02289662D01*
X02769123Y02279663D02*
X02715000Y02279663D01*
X02715000Y02269665D02*
X02779122Y02269665D01*
X02789120Y02259666D02*
X02715000Y02259666D01*
X02715000Y02249668D02*
X02799119Y02249668D01*
X02811550Y02279663D02*
X03280000Y02279663D01*
X03280000Y02269665D02*
X03041548Y02269665D01*
X03051547Y02259666D02*
X03280000Y02259666D01*
X03280000Y02249668D02*
X03061545Y02249668D01*
X03071544Y02239669D02*
X03280000Y02239669D01*
X03280000Y02229671D02*
X03075000Y02229671D01*
X03075000Y02219672D02*
X03280000Y02219672D01*
X03280000Y02209674D02*
X03075000Y02209674D01*
X03075000Y02199675D02*
X03280000Y02199675D01*
X03280000Y02189677D02*
X03075000Y02189677D01*
X03075000Y02179678D02*
X03280000Y02179678D01*
X03280000Y02169680D02*
X03075000Y02169680D01*
X03075000Y02159681D02*
X03280000Y02159681D01*
X03280000Y02156213D02*
X03208787Y02085000D01*
X03021213Y02085000D01*
X03015000Y02091213D01*
X03015000Y02092530D01*
X03015011Y02092534D01*
X03022466Y02099989D01*
X03026500Y02109729D01*
X03026500Y02120271D01*
X03022466Y02130011D01*
X03015011Y02137466D01*
X03005271Y02141500D01*
X02994729Y02141500D01*
X02984989Y02137466D01*
X02977534Y02130011D01*
X02973500Y02120271D01*
X02973500Y02109729D01*
X02977534Y02099989D01*
X02984989Y02092534D01*
X02985000Y02092530D01*
X02985000Y02078787D01*
X03000000Y02063787D01*
X03008787Y02055000D01*
X03221213Y02055000D01*
X03301213Y02135000D01*
X03310000Y02143787D01*
X03310000Y02408787D01*
X03311182Y02409969D01*
X03314729Y02408500D01*
X03325271Y02408500D01*
X03335011Y02412534D01*
X03342466Y02419989D01*
X03346500Y02429729D01*
X03346500Y02440271D01*
X03342466Y02450011D01*
X03335011Y02457466D01*
X03325271Y02461500D01*
X03314729Y02461500D01*
X03304989Y02457466D01*
X03297534Y02450011D01*
X03293500Y02440271D01*
X03293500Y02434713D01*
X03280000Y02421213D01*
X03280000Y02156213D01*
X03273469Y02149683D02*
X03075000Y02149683D01*
X03077792Y02139684D02*
X03263471Y02139684D01*
X03253472Y02129686D02*
X03084672Y02129686D01*
X03086500Y02119687D02*
X03243474Y02119687D01*
X03233475Y02109688D02*
X03084412Y02109688D01*
X03077167Y02099690D02*
X03223477Y02099690D01*
X03213478Y02089691D02*
X03016522Y02089691D01*
X03022167Y02099690D02*
X03042833Y02099690D01*
X03035588Y02109688D02*
X03026483Y02109688D01*
X03026500Y02119687D02*
X03033500Y02119687D01*
X03035328Y02129686D02*
X03022600Y02129686D01*
X03009655Y02139684D02*
X03042207Y02139684D01*
X03045000Y02149683D02*
X02955000Y02149683D01*
X02955000Y02159681D02*
X03045000Y02159681D01*
X03045000Y02169680D02*
X02955000Y02169680D01*
X02955000Y02179678D02*
X03045000Y02179678D01*
X03045000Y02189677D02*
X02955000Y02189677D01*
X02955000Y02199675D02*
X03045000Y02199675D01*
X03045000Y02209674D02*
X02957150Y02209674D01*
X02964405Y02219672D02*
X03045000Y02219672D01*
X03039116Y02229671D02*
X02966500Y02229671D01*
X02964678Y02239669D02*
X03029117Y02239669D01*
X02925000Y02207530D02*
X02925000Y02073787D01*
X02933787Y02065000D01*
X03020000Y01978787D01*
X03020000Y01670000D01*
X02985646Y01670000D01*
X02985646Y01713887D01*
X02979202Y01720331D01*
X02948436Y01720331D01*
X02941992Y01713887D01*
X02941992Y01670000D01*
X02936433Y01670000D01*
X02936433Y01713887D01*
X02929989Y01720331D01*
X02899223Y01720331D01*
X02892780Y01713887D01*
X02892780Y01670000D01*
X02887220Y01670000D01*
X02887220Y01713887D01*
X02880777Y01720331D01*
X02871670Y01720331D01*
X02871607Y01720394D01*
X02859180Y01720394D01*
X02859117Y01720331D01*
X02855129Y01720331D01*
X02859000Y01724201D01*
X02874468Y01739669D01*
X02880777Y01739669D01*
X02887220Y01746113D01*
X02887220Y01790137D01*
X02888780Y01788578D01*
X02888779Y01769783D01*
X02914192Y01769783D01*
X02914192Y01768956D01*
X02888780Y01768956D01*
X02888780Y01748694D01*
X02889802Y01744879D01*
X02891777Y01741459D01*
X02894569Y01738666D01*
X02897990Y01736692D01*
X02901805Y01735669D01*
X02914193Y01735669D01*
X02914193Y01768956D01*
X02915020Y01768956D01*
X02915020Y01735669D01*
X02927408Y01735669D01*
X02931223Y01736692D01*
X02934643Y01738666D01*
X02937436Y01741459D01*
X02939411Y01744879D01*
X02940433Y01748694D01*
X02940433Y01768956D01*
X02915020Y01768956D01*
X02915020Y01769783D01*
X02940433Y01769783D01*
X02940433Y01783645D01*
X02941021Y01783306D01*
X02941992Y01783046D01*
X02941992Y01746113D01*
X02948436Y01739669D01*
X02979202Y01739669D01*
X02985646Y01746113D01*
X02985646Y01754370D01*
X02990583Y01754370D01*
X03006213Y01770000D01*
X03015000Y01778787D01*
X03015000Y01889886D01*
X03015091Y01895988D01*
X03015000Y01896082D01*
X03015000Y01896213D01*
X03010684Y01900529D01*
X02998716Y01912861D01*
X02998716Y01928926D01*
X02992273Y01935370D01*
X02947727Y01935370D01*
X02941283Y01928926D01*
X02941283Y01925590D01*
X02938716Y01925590D01*
X02938716Y01928926D01*
X02932273Y01935370D01*
X02909370Y01935370D01*
X02909370Y01948110D01*
X02882481Y01948110D01*
X02882481Y01951890D01*
X02909370Y01951890D01*
X02909370Y01969691D01*
X02908348Y01973506D01*
X02906373Y01976927D01*
X02903580Y01979719D01*
X02900160Y01981694D01*
X02896345Y01982716D01*
X02882480Y01982716D01*
X02882480Y01951891D01*
X02878701Y01951891D01*
X02878701Y01982716D01*
X02864836Y01982716D01*
X02861021Y01981694D01*
X02857601Y01979719D01*
X02854808Y01976927D01*
X02852878Y01973584D01*
X02847745Y01978716D01*
X02845000Y01978716D01*
X02845000Y01982530D01*
X02845011Y01982534D01*
X02852466Y01989989D01*
X02856500Y01999729D01*
X02856500Y02010271D01*
X02852466Y02020011D01*
X02845011Y02027466D01*
X02835271Y02031500D01*
X02824729Y02031500D01*
X02814989Y02027466D01*
X02809000Y02021476D01*
X02809000Y02169201D01*
X02810182Y02170383D01*
X02814729Y02168500D01*
X02825271Y02168500D01*
X02835011Y02172534D01*
X02842466Y02179989D01*
X02846500Y02189729D01*
X02846500Y02200271D01*
X02842466Y02210011D01*
X02841476Y02211000D01*
X02921523Y02211000D01*
X02924989Y02207534D01*
X02925000Y02207530D01*
X02922850Y02209674D02*
X02842605Y02209674D01*
X02846500Y02199675D02*
X02925000Y02199675D01*
X02925000Y02189677D02*
X02846478Y02189677D01*
X02842155Y02179678D02*
X02925000Y02179678D01*
X02925000Y02169680D02*
X02828119Y02169680D01*
X02811881Y02169680D02*
X02809478Y02169680D01*
X02809000Y02159681D02*
X02925000Y02159681D01*
X02925000Y02149683D02*
X02809000Y02149683D01*
X02809000Y02139684D02*
X02925000Y02139684D01*
X02925000Y02129686D02*
X02809000Y02129686D01*
X02809000Y02119687D02*
X02925000Y02119687D01*
X02925000Y02109688D02*
X02809000Y02109688D01*
X02809000Y02099690D02*
X02925000Y02099690D01*
X02925000Y02089691D02*
X02809000Y02089691D01*
X02809000Y02079693D02*
X02925000Y02079693D01*
X02929092Y02069694D02*
X02809000Y02069694D01*
X02809000Y02059696D02*
X02939091Y02059696D01*
X02949089Y02049697D02*
X02809000Y02049697D01*
X02809000Y02039699D02*
X02959088Y02039699D01*
X02969086Y02029700D02*
X02839616Y02029700D01*
X02852594Y02019702D02*
X02979085Y02019702D01*
X02989083Y02009703D02*
X02856500Y02009703D01*
X02856490Y01999705D02*
X02999082Y01999705D01*
X03009080Y01989706D02*
X02852183Y01989706D01*
X02857589Y01979708D02*
X02845000Y01979708D01*
X02878701Y01979708D02*
X02882480Y01979708D01*
X02882480Y01969709D02*
X02878701Y01969709D01*
X02878701Y01959711D02*
X02882480Y01959711D01*
X02882481Y01949712D02*
X03020000Y01949712D01*
X03020000Y01939714D02*
X02909370Y01939714D01*
X02909370Y01959711D02*
X03020000Y01959711D01*
X03020000Y01969709D02*
X02909365Y01969709D01*
X02903592Y01979708D02*
X03019079Y01979708D01*
X03041213Y02000000D02*
X03041213Y02000000D01*
X03041508Y01999705D02*
X03152819Y01999705D01*
X03155000Y01989706D02*
X03050000Y01989706D01*
X03050000Y01979708D02*
X03155000Y01979708D01*
X03155000Y01969709D02*
X03050000Y01969709D01*
X03050000Y01959711D02*
X03155000Y01959711D01*
X03155000Y01949712D02*
X03050000Y01949712D01*
X03050000Y01939714D02*
X03155000Y01939714D01*
X03155000Y01929715D02*
X03050000Y01929715D01*
X03050000Y01919717D02*
X03155000Y01919717D01*
X03155000Y01909718D02*
X03050000Y01909718D01*
X03050000Y01899719D02*
X03155000Y01899719D01*
X03155000Y01889721D02*
X03050000Y01889721D01*
X03050000Y01879722D02*
X03155000Y01879722D01*
X03155000Y01869724D02*
X03050000Y01869724D01*
X03050000Y01859725D02*
X03155000Y01859725D01*
X03155000Y01849727D02*
X03050000Y01849727D01*
X03050000Y01839728D02*
X03155000Y01839728D01*
X03155000Y01829730D02*
X03050000Y01829730D01*
X03050000Y01819731D02*
X03155000Y01819731D01*
X03155000Y01809733D02*
X03050000Y01809733D01*
X03050000Y01799734D02*
X03155000Y01799734D01*
X03155000Y01789736D02*
X03050000Y01789736D01*
X03050000Y01779737D02*
X03155000Y01779737D01*
X03155000Y01769739D02*
X03050000Y01769739D01*
X03050000Y01759740D02*
X03155000Y01759740D01*
X03155000Y01749742D02*
X03050000Y01749742D01*
X03050000Y01739743D02*
X03155000Y01739743D01*
X03155000Y01729745D02*
X03050000Y01729745D01*
X03050000Y01719746D02*
X03155000Y01719746D01*
X03155000Y01709748D02*
X03050000Y01709748D01*
X03050000Y01699749D02*
X03155000Y01699749D01*
X03155000Y01689750D02*
X03050000Y01689750D01*
X03050000Y01679752D02*
X03155000Y01679752D01*
X03155000Y01669753D02*
X03050000Y01669753D01*
X03056458Y01659755D02*
X03155000Y01659755D01*
X03155000Y01649756D02*
X03066457Y01649756D01*
X03076455Y01639758D02*
X03155000Y01639758D01*
X03155000Y01629759D02*
X03085000Y01629759D01*
X03085000Y01619761D02*
X03155000Y01619761D01*
X03155000Y01609762D02*
X03098220Y01609762D01*
X03106192Y01599764D02*
X03155000Y01599764D01*
X03155000Y01589765D02*
X03110333Y01589765D01*
X03111000Y01579767D02*
X03155000Y01579767D01*
X03155000Y01569768D02*
X03111000Y01569768D01*
X03111000Y01559770D02*
X03155000Y01559770D01*
X03155000Y01549771D02*
X03111000Y01549771D01*
X03111000Y01539773D02*
X03155000Y01539773D01*
X03155000Y01529774D02*
X03111000Y01529774D01*
X03111000Y01519776D02*
X03148562Y01519776D01*
X03138564Y01509777D02*
X03110143Y01509777D01*
X03106002Y01499779D02*
X03128565Y01499779D01*
X03118567Y01489780D02*
X03097763Y01489780D01*
X03108568Y01479781D02*
X03080042Y01479781D01*
X03059958Y01479781D02*
X02980042Y01479781D01*
X02997763Y01489780D02*
X03042237Y01489780D01*
X03033998Y01499779D02*
X03006002Y01499779D01*
X03010143Y01509777D02*
X03029856Y01509777D01*
X03029000Y01519776D02*
X03011000Y01519776D01*
X03011000Y01529774D02*
X03029000Y01529774D01*
X03029000Y01539773D02*
X03011000Y01539773D01*
X03011000Y01549771D02*
X03029000Y01549771D01*
X03029000Y01559770D02*
X03011000Y01559770D01*
X03011000Y01569768D02*
X03029000Y01569768D01*
X03029000Y01579767D02*
X03011000Y01579767D01*
X03010333Y01589765D02*
X03029667Y01589765D01*
X03033808Y01599764D02*
X03006192Y01599764D01*
X02998220Y01609762D02*
X03041780Y01609762D01*
X03054026Y01619761D02*
X02981147Y01619761D01*
X02958853Y01619761D02*
X02951452Y01619761D01*
X02941454Y01629759D02*
X03044027Y01629759D01*
X03034029Y01639758D02*
X02931455Y01639758D01*
X02909026Y01619761D02*
X02891086Y01619761D01*
X02903877Y01609762D02*
X02919024Y01609762D01*
X02910434Y01599764D02*
X02929023Y01599764D01*
X02929667Y01589765D02*
X02914014Y01589765D01*
X02915000Y01579767D02*
X02929000Y01579767D01*
X02929000Y01569768D02*
X02915000Y01569768D01*
X02915000Y01559770D02*
X02929000Y01559770D01*
X02864999Y01549771D02*
X02122000Y01549771D01*
X02122000Y01539773D02*
X02825000Y01539773D01*
X02825000Y01529774D02*
X02122000Y01529774D01*
X02122000Y01519776D02*
X02825000Y01519776D01*
X02825000Y01559770D02*
X02122000Y01559770D01*
X02122000Y01569768D02*
X02825000Y01569768D01*
X02825000Y01579767D02*
X02122000Y01579767D01*
X02122000Y01589765D02*
X02825986Y01589765D01*
X02829566Y01599764D02*
X02406650Y01599764D01*
X02406694Y01599840D02*
X02407716Y01603655D01*
X02407716Y01617519D01*
X02376891Y01617519D01*
X02376891Y01621299D01*
X02407716Y01621299D01*
X02407716Y01635164D01*
X02406694Y01638979D01*
X02404719Y01642399D01*
X02401927Y01645192D01*
X02398584Y01647122D01*
X02403052Y01651591D01*
X02443461Y01651591D01*
X02462870Y01671000D01*
X02468975Y01677105D01*
X02470011Y01677534D01*
X02477466Y01684989D01*
X02481500Y01694729D01*
X02481500Y01705271D01*
X02477466Y01715011D01*
X02470011Y01722466D01*
X02460271Y01726500D01*
X02449729Y01726500D01*
X02439989Y01722466D01*
X02432534Y01715011D01*
X02428500Y01705271D01*
X02428500Y01694729D01*
X02429777Y01691647D01*
X02427720Y01689590D01*
X02403052Y01689590D01*
X02397273Y01695370D01*
X02352727Y01695370D01*
X02350000Y01692643D01*
X02347273Y01695370D01*
X02302727Y01695370D01*
X02300000Y01692643D01*
X02297273Y01695370D01*
X02252727Y01695370D01*
X02246357Y01689000D01*
X02203477Y01689000D01*
X02200011Y01692466D01*
X02190271Y01696500D01*
X02179729Y01696500D01*
X02169989Y01692466D01*
X02162534Y01685011D01*
X02158500Y01675271D01*
X02158500Y01664729D01*
X02162534Y01654989D01*
X02169989Y01647534D01*
X02179729Y01643500D01*
X02190271Y01643500D01*
X02200011Y01647534D01*
X02203477Y01651000D01*
X02247538Y01651000D01*
X02251416Y01647122D01*
X02248073Y01645192D01*
X02245281Y01642399D01*
X02243306Y01638979D01*
X02242283Y01635164D01*
X02242283Y01621299D01*
X02273109Y01621299D01*
X02273109Y01617519D01*
X02242283Y01617519D01*
X02242283Y01603655D01*
X02243306Y01599840D01*
X02245281Y01596420D01*
X02248073Y01593627D01*
X02251494Y01591652D01*
X02255309Y01590630D01*
X02273110Y01590630D01*
X02273110Y01617519D01*
X02276890Y01617519D01*
X02276890Y01590630D01*
X02294691Y01590630D01*
X02298506Y01591652D01*
X02300000Y01592515D01*
X02301494Y01591652D01*
X02305309Y01590630D01*
X02323110Y01590630D01*
X02323110Y01617519D01*
X02326890Y01617519D01*
X02326890Y01590630D01*
X02344691Y01590630D01*
X02348506Y01591652D01*
X02350000Y01592515D01*
X02351494Y01591652D01*
X02355309Y01590630D01*
X02373110Y01590630D01*
X02373110Y01617519D01*
X02376890Y01617519D01*
X02376890Y01590630D01*
X02394691Y01590630D01*
X02398506Y01591652D01*
X02401927Y01593627D01*
X02404719Y01596420D01*
X02406694Y01599840D01*
X02407716Y01609762D02*
X02836123Y01609762D01*
X02848914Y01619761D02*
X02376891Y01619761D01*
X02373109Y01619761D02*
X02326891Y01619761D01*
X02326891Y01621299D02*
X02373109Y01621299D01*
X02373109Y01617519D01*
X02342283Y01617519D01*
X02326891Y01617519D01*
X02326891Y01621299D01*
X02323109Y01621299D02*
X02323109Y01617519D01*
X02276891Y01617519D01*
X02276891Y01621299D01*
X02307716Y01621299D01*
X02323109Y01621299D01*
X02323109Y01619761D02*
X02276891Y01619761D01*
X02273109Y01619761D02*
X02122000Y01619761D01*
X02122000Y01629759D02*
X02242283Y01629759D01*
X02243756Y01639758D02*
X02122000Y01639758D01*
X02122000Y01649756D02*
X02167767Y01649756D01*
X02160560Y01659755D02*
X02122000Y01659755D01*
X02122000Y01669753D02*
X02158500Y01669753D01*
X02160356Y01679752D02*
X02128794Y01679752D01*
X02138792Y01689750D02*
X02167274Y01689750D01*
X02148791Y01699749D02*
X02428500Y01699749D01*
X02427881Y01689750D02*
X02402892Y01689750D01*
X02430354Y01709748D02*
X02158789Y01709748D01*
X02168788Y01719746D02*
X02437269Y01719746D01*
X02472730Y01719746D02*
X02544041Y01719746D01*
X02554039Y01709748D02*
X02479646Y01709748D01*
X02481500Y01699749D02*
X02564038Y01699749D01*
X02574036Y01689750D02*
X02479438Y01689750D01*
X02472229Y01679752D02*
X02584035Y01679752D01*
X02596466Y01709748D02*
X02630630Y01709748D01*
X02630630Y01719746D02*
X02586467Y01719746D01*
X02576469Y01729745D02*
X02630630Y01729745D01*
X02630630Y01739743D02*
X02566470Y01739743D01*
X02556471Y01749742D02*
X02600846Y01749742D01*
X02599882Y01759740D02*
X02546473Y01759740D01*
X02545000Y01769739D02*
X02599882Y01769739D01*
X02599882Y01789736D02*
X02545000Y01789736D01*
X02545000Y01799734D02*
X02600706Y01799734D01*
X02617790Y01809733D02*
X02545000Y01809733D01*
X02545000Y01819731D02*
X02613500Y01819731D01*
X02613500Y01829730D02*
X02545000Y01829730D01*
X02545000Y01839728D02*
X02617417Y01839728D01*
X02630448Y01849727D02*
X02545000Y01849727D01*
X02545000Y01859725D02*
X02635000Y01859725D01*
X02635000Y01869724D02*
X02545000Y01869724D01*
X02545000Y01879722D02*
X02635000Y01879722D01*
X02635000Y01889721D02*
X02545000Y01889721D01*
X02545000Y01899719D02*
X02635000Y01899719D01*
X02635000Y01909718D02*
X02545000Y01909718D01*
X02545000Y01919717D02*
X02635000Y01919717D01*
X02635000Y01929715D02*
X02545000Y01929715D01*
X02545000Y01939714D02*
X02635000Y01939714D01*
X02635000Y01949712D02*
X02545000Y01949712D01*
X02545000Y01959711D02*
X02635000Y01959711D01*
X02635000Y01969709D02*
X02545000Y01969709D01*
X02545000Y01979708D02*
X02635000Y01979708D01*
X02635000Y01989706D02*
X02545000Y01989706D01*
X02545000Y01999705D02*
X02638492Y01999705D01*
X02648490Y02009703D02*
X02545000Y02009703D01*
X02545000Y02019702D02*
X02658489Y02019702D01*
X02668487Y02029700D02*
X02545000Y02029700D01*
X02545000Y02039699D02*
X02678486Y02039699D01*
X02685000Y02049697D02*
X02545000Y02049697D01*
X02545909Y02059696D02*
X02685000Y02059696D01*
X02685000Y02069694D02*
X02555907Y02069694D01*
X02565906Y02079693D02*
X02685000Y02079693D01*
X02685000Y02089691D02*
X02575905Y02089691D01*
X02585903Y02099690D02*
X02685000Y02099690D01*
X02685000Y02109688D02*
X02595902Y02109688D01*
X02605900Y02119687D02*
X02685000Y02119687D01*
X02685000Y02129686D02*
X02615899Y02129686D01*
X02642161Y02139684D02*
X02685000Y02139684D01*
X02685000Y02149683D02*
X02649410Y02149683D01*
X02651500Y02159681D02*
X02685000Y02159681D01*
X02685000Y02169680D02*
X02649674Y02169680D01*
X02642798Y02179678D02*
X02685000Y02179678D01*
X02685000Y02189677D02*
X02371547Y02189677D01*
X02381545Y02199675D02*
X02685000Y02199675D01*
X02685000Y02209674D02*
X02391544Y02209674D01*
X02361548Y02179678D02*
X02607202Y02179678D01*
X02600326Y02169680D02*
X02351550Y02169680D01*
X02341551Y02159681D02*
X02598500Y02159681D01*
X02593469Y02149683D02*
X02331553Y02149683D01*
X02321554Y02139684D02*
X02583471Y02139684D01*
X02573472Y02129686D02*
X02311555Y02129686D01*
X02309000Y02119687D02*
X02563474Y02119687D01*
X02553475Y02109688D02*
X02309000Y02109688D01*
X02309000Y02099690D02*
X02543477Y02099690D01*
X02533478Y02089691D02*
X02309000Y02089691D01*
X02309000Y02079693D02*
X02523480Y02079693D01*
X02515000Y02069694D02*
X02309000Y02069694D01*
X02309000Y02059696D02*
X02515000Y02059696D01*
X02515000Y02049697D02*
X02309000Y02049697D01*
X02309000Y02039699D02*
X02515000Y02039699D01*
X02515000Y02029700D02*
X02309000Y02029700D01*
X02309000Y02019702D02*
X02515000Y02019702D01*
X02515000Y02009703D02*
X02309000Y02009703D01*
X02309000Y01999705D02*
X02515000Y01999705D01*
X02515000Y01989706D02*
X02309000Y01989706D01*
X02309000Y01979708D02*
X02515000Y01979708D01*
X02515000Y01969709D02*
X02309000Y01969709D01*
X02309000Y01959711D02*
X02515000Y01959711D01*
X02515000Y01949712D02*
X02309000Y01949712D01*
X02309000Y01939714D02*
X02515000Y01939714D01*
X02515000Y01929715D02*
X02309000Y01929715D01*
X02309000Y01919717D02*
X02515000Y01919717D01*
X02515000Y01909718D02*
X02301588Y01909718D01*
X02291589Y01899719D02*
X02515000Y01899719D01*
X02515000Y01889721D02*
X02281591Y01889721D01*
X02271592Y01879722D02*
X02515000Y01879722D01*
X02515000Y01869724D02*
X02261594Y01869724D01*
X02248767Y01859725D02*
X02515000Y01859725D01*
X02515000Y01849727D02*
X02238768Y01849727D01*
X02244548Y01839728D02*
X02515000Y01839728D01*
X02515000Y01829730D02*
X02257582Y01829730D01*
X02261500Y01819731D02*
X02515000Y01819731D01*
X02515000Y01809733D02*
X02261500Y01809733D01*
X02257211Y01799734D02*
X02515000Y01799734D01*
X02515000Y01789736D02*
X02243254Y01789736D01*
X02228779Y01779737D02*
X02515000Y01779737D01*
X02515000Y01769739D02*
X02218780Y01769739D01*
X02208782Y01759740D02*
X02515000Y01759740D01*
X02515000Y01749742D02*
X02198783Y01749742D01*
X02188785Y01739743D02*
X02524044Y01739743D01*
X02534042Y01729745D02*
X02178786Y01729745D01*
X02202726Y01689750D02*
X02247108Y01689750D01*
X02248782Y01649756D02*
X02202233Y01649756D01*
X02242283Y01609762D02*
X02122000Y01609762D01*
X02122000Y01599764D02*
X02243350Y01599764D01*
X02273110Y01599764D02*
X02276890Y01599764D01*
X02276890Y01609762D02*
X02273110Y01609762D01*
X02323110Y01609762D02*
X02326890Y01609762D01*
X02326890Y01599764D02*
X02323110Y01599764D01*
X02373110Y01599764D02*
X02376890Y01599764D01*
X02376890Y01609762D02*
X02373110Y01609762D01*
X02407716Y01629759D02*
X02824027Y01629759D01*
X02814029Y01639758D02*
X02406244Y01639758D01*
X02401218Y01649756D02*
X02804030Y01649756D01*
X02801181Y01659755D02*
X02451625Y01659755D01*
X02461623Y01669753D02*
X02794354Y01669753D01*
X02835895Y01744000D02*
X02838008Y01746113D01*
X02838008Y01792627D01*
X02831564Y01799071D01*
X02800798Y01799071D01*
X02794354Y01792627D01*
X02794354Y01784370D01*
X02780413Y01784370D01*
X02775271Y01786500D01*
X02764729Y01786500D01*
X02759587Y01784370D01*
X02736118Y01784370D01*
X02736118Y01798160D01*
X02736927Y01798627D01*
X02739719Y01801420D01*
X02741694Y01804840D01*
X02742716Y01808655D01*
X02742716Y01822519D01*
X02711891Y01822519D01*
X02711891Y01826299D01*
X02742716Y01826299D01*
X02742716Y01840164D01*
X02741694Y01843979D01*
X02739719Y01847399D01*
X02736927Y01850192D01*
X02733584Y01852122D01*
X02738331Y01856870D01*
X02739201Y01856000D01*
X02745787Y01856000D01*
X02745787Y01854252D01*
X02750599Y01854252D01*
X02750597Y01854251D01*
X02745787Y01854251D01*
X02745787Y01847553D01*
X02746102Y01846378D01*
X02745787Y01845203D01*
X02745787Y01838504D01*
X02750597Y01838504D01*
X02750599Y01838503D01*
X02745787Y01838503D01*
X02745787Y01831805D01*
X02746810Y01827990D01*
X02748784Y01824569D01*
X02751577Y01821777D01*
X02754998Y01819802D01*
X02758813Y01818780D01*
X02770629Y01818780D01*
X02770629Y01838503D01*
X02770630Y01838503D01*
X02770630Y01818780D01*
X02782447Y01818780D01*
X02786262Y01819802D01*
X02789683Y01821777D01*
X02792475Y01824569D01*
X02794450Y01827990D01*
X02795472Y01831805D01*
X02795472Y01838503D01*
X02790661Y01838503D01*
X02790662Y01838504D01*
X02795472Y01838504D01*
X02795472Y01845203D01*
X02795157Y01846378D01*
X02795472Y01847553D01*
X02795472Y01854251D01*
X02790663Y01854251D01*
X02790661Y01854252D01*
X02795472Y01854252D01*
X02795472Y01860951D01*
X02794450Y01864766D01*
X02792475Y01868187D01*
X02791472Y01869189D01*
X02791472Y01870811D01*
X02792475Y01871813D01*
X02794450Y01875234D01*
X02794559Y01875642D01*
X02798453Y01871748D01*
X02828528Y01871748D01*
X02828528Y01829223D01*
X02834971Y01822780D01*
X02863769Y01822780D01*
X02866000Y01825011D01*
X02866000Y01814201D01*
X02871000Y01809201D01*
X02879201Y01801000D01*
X02884630Y01801000D01*
X02884630Y01795218D01*
X02880777Y01799071D01*
X02850010Y01799071D01*
X02843567Y01792627D01*
X02843567Y01748366D01*
X02839201Y01744000D01*
X02835895Y01744000D01*
X02838008Y01749742D02*
X02843567Y01749742D01*
X02843567Y01759740D02*
X02838008Y01759740D01*
X02838008Y01769739D02*
X02843567Y01769739D01*
X02843567Y01779737D02*
X02838008Y01779737D01*
X02838008Y01789736D02*
X02843567Y01789736D01*
X02870468Y01809733D02*
X02742716Y01809733D01*
X02742716Y01819731D02*
X02755261Y01819731D01*
X02746343Y01829730D02*
X02742716Y01829730D01*
X02742716Y01839728D02*
X02745787Y01839728D01*
X02745787Y01849727D02*
X02737392Y01849727D01*
X02770629Y01849727D02*
X02770630Y01849727D01*
X02770630Y01854251D02*
X02770630Y01838505D01*
X02770629Y01838505D01*
X02770629Y01854251D01*
X02770630Y01854251D01*
X02770629Y01839728D02*
X02770630Y01839728D01*
X02770629Y01829730D02*
X02770630Y01829730D01*
X02770629Y01819731D02*
X02770630Y01819731D01*
X02785999Y01819731D02*
X02866000Y01819731D01*
X02884630Y01799734D02*
X02738034Y01799734D01*
X02736118Y01789736D02*
X02794354Y01789736D01*
X02803228Y01769370D02*
X02816181Y01769370D01*
X02864544Y01729745D02*
X03020000Y01729745D01*
X03020000Y01739743D02*
X02979276Y01739743D01*
X02985646Y01749742D02*
X03020000Y01749742D01*
X03020000Y01759740D02*
X02995953Y01759740D01*
X03005952Y01769739D02*
X03020000Y01769739D01*
X03020000Y01779737D02*
X03015000Y01779737D01*
X03015000Y01789736D02*
X03020000Y01789736D01*
X03020000Y01799734D02*
X03015000Y01799734D01*
X03015000Y01809733D02*
X03020000Y01809733D01*
X03020000Y01819731D02*
X03015000Y01819731D01*
X03015000Y01829730D02*
X03020000Y01829730D01*
X03020000Y01839728D02*
X03015000Y01839728D01*
X03015000Y01849727D02*
X03020000Y01849727D01*
X03020000Y01859725D02*
X03015000Y01859725D01*
X03015000Y01869724D02*
X03020000Y01869724D01*
X03020000Y01879722D02*
X03015000Y01879722D01*
X03015000Y01889721D02*
X03020000Y01889721D01*
X03020000Y01899719D02*
X03011494Y01899719D01*
X03020000Y01909718D02*
X03001766Y01909718D01*
X02998716Y01919717D02*
X03020000Y01919717D01*
X03020000Y01929715D02*
X02997928Y01929715D01*
X02942072Y01929715D02*
X02937928Y01929715D01*
X02937283Y01857519D02*
X02968109Y01857519D01*
X02968109Y01861299D01*
X02911891Y01861299D01*
X02911891Y01857519D01*
X02937283Y01857519D01*
X02911891Y01859725D02*
X02968109Y01859725D01*
X02941992Y01779737D02*
X02940433Y01779737D01*
X02941992Y01769739D02*
X02915020Y01769739D01*
X02914192Y01769739D02*
X02887220Y01769739D01*
X02887220Y01779737D02*
X02888780Y01779737D01*
X02887621Y01789736D02*
X02887220Y01789736D01*
X02887220Y01759740D02*
X02888780Y01759740D01*
X02888780Y01749742D02*
X02887220Y01749742D01*
X02893492Y01739743D02*
X02880851Y01739743D01*
X02881361Y01719746D02*
X02898639Y01719746D01*
X02892780Y01709748D02*
X02887220Y01709748D01*
X02887220Y01699749D02*
X02892780Y01699749D01*
X02892780Y01689750D02*
X02887220Y01689750D01*
X02887220Y01679752D02*
X02892780Y01679752D01*
X02936433Y01679752D02*
X02941992Y01679752D01*
X02941992Y01689750D02*
X02936433Y01689750D01*
X02936433Y01699749D02*
X02941992Y01699749D01*
X02941992Y01709748D02*
X02936433Y01709748D01*
X02930574Y01719746D02*
X02947851Y01719746D01*
X02948362Y01739743D02*
X02935720Y01739743D01*
X02940433Y01749742D02*
X02941992Y01749742D01*
X02941992Y01759740D02*
X02940433Y01759740D01*
X02915020Y01759740D02*
X02914193Y01759740D01*
X02914193Y01749742D02*
X02915020Y01749742D01*
X02915020Y01739743D02*
X02914193Y01739743D01*
X02979787Y01719746D02*
X03020000Y01719746D01*
X03020000Y01709748D02*
X02985646Y01709748D01*
X02985646Y01699749D02*
X03020000Y01699749D01*
X03020000Y01689750D02*
X02985646Y01689750D01*
X02985646Y01679752D02*
X03020000Y01679752D01*
X03185000Y01679752D02*
X03364009Y01679752D01*
X03365242Y01676775D02*
X03376775Y01665242D01*
X03391844Y01659000D01*
X03468155Y01659000D01*
X03483225Y01665242D01*
X03494758Y01676775D01*
X03501000Y01691844D01*
X03501000Y01708155D01*
X03494758Y01723225D01*
X03483225Y01734758D01*
X03468155Y01741000D01*
X03391844Y01741000D01*
X03376775Y01734758D01*
X03365242Y01723225D01*
X03359000Y01708155D01*
X03359000Y01691844D01*
X03365242Y01676775D01*
X03372264Y01669753D02*
X03185000Y01669753D01*
X03185000Y01659755D02*
X03390022Y01659755D01*
X03389462Y01643892D02*
X03382726Y01641703D01*
X03376415Y01638487D01*
X03370684Y01634324D01*
X03365676Y01629315D01*
X03361513Y01623585D01*
X03358297Y01617274D01*
X03356108Y01610538D01*
X03355231Y01605000D01*
X03424999Y01605000D01*
X03424999Y01595000D01*
X03355231Y01595000D01*
X03356108Y01589462D01*
X03358297Y01582726D01*
X03361513Y01576415D01*
X03365676Y01570684D01*
X03370684Y01565676D01*
X03376415Y01561513D01*
X03382726Y01558297D01*
X03389462Y01556108D01*
X03396458Y01555000D01*
X03425000Y01555000D01*
X03425000Y01594999D01*
X03435000Y01594999D01*
X03435000Y01555000D01*
X03463542Y01555000D01*
X03470538Y01556108D01*
X03477274Y01558297D01*
X03483585Y01561513D01*
X03489315Y01565676D01*
X03494324Y01570684D01*
X03498487Y01576415D01*
X03501703Y01582726D01*
X03503892Y01589462D01*
X03504769Y01595000D01*
X03435000Y01595000D01*
X03435000Y01605000D01*
X03425000Y01605000D01*
X03425000Y01645000D01*
X03396458Y01645000D01*
X03389462Y01643892D01*
X03378908Y01639758D02*
X03185000Y01639758D01*
X03185000Y01649756D02*
X03520000Y01649756D01*
X03520000Y01639758D02*
X03481092Y01639758D01*
X03483585Y01638487D02*
X03477274Y01641703D01*
X03470538Y01643892D01*
X03463542Y01645000D01*
X03435000Y01645000D01*
X03435000Y01605000D01*
X03504769Y01605000D01*
X03503892Y01610538D01*
X03501703Y01617274D01*
X03498487Y01623585D01*
X03494324Y01629315D01*
X03489315Y01634324D01*
X03483585Y01638487D01*
X03493880Y01629759D02*
X03520000Y01629759D01*
X03520000Y01619761D02*
X03500436Y01619761D01*
X03504015Y01609762D02*
X03520000Y01609762D01*
X03520000Y01599764D02*
X03435000Y01599764D01*
X03435000Y01609762D02*
X03425000Y01609762D01*
X03424999Y01599764D02*
X03185000Y01599764D01*
X03185000Y01609762D02*
X03355985Y01609762D01*
X03359564Y01619761D02*
X03185000Y01619761D01*
X03185000Y01629759D02*
X03366120Y01629759D01*
X03356060Y01589765D02*
X03185000Y01589765D01*
X03185000Y01579767D02*
X03359805Y01579767D01*
X03366592Y01569768D02*
X03185000Y01569768D01*
X03185000Y01559770D02*
X03379835Y01559770D01*
X03425000Y01559770D02*
X03435000Y01559770D01*
X03435000Y01569768D02*
X03425000Y01569768D01*
X03425000Y01579767D02*
X03435000Y01579767D01*
X03435000Y01589765D02*
X03425000Y01589765D01*
X03425000Y01619761D02*
X03435000Y01619761D01*
X03435000Y01629759D02*
X03425000Y01629759D01*
X03425000Y01639758D02*
X03435000Y01639758D01*
X03469978Y01659755D02*
X03520000Y01659755D01*
X03520000Y01669753D02*
X03487736Y01669753D01*
X03495991Y01679752D02*
X03520000Y01679752D01*
X03520000Y01689750D02*
X03500133Y01689750D01*
X03501000Y01699749D02*
X03520000Y01699749D01*
X03520000Y01709748D02*
X03500340Y01709748D01*
X03496199Y01719746D02*
X03520000Y01719746D01*
X03520000Y01729745D02*
X03488238Y01729745D01*
X03471190Y01739743D02*
X03520000Y01739743D01*
X03520000Y01749742D02*
X03185000Y01749742D01*
X03185000Y01759740D02*
X03520000Y01759740D01*
X03520000Y01769739D02*
X03185000Y01769739D01*
X03185000Y01779737D02*
X03520000Y01779737D01*
X03520000Y01789736D02*
X03185000Y01789736D01*
X03185000Y01799734D02*
X03520000Y01799734D01*
X03520000Y01809733D02*
X03185000Y01809733D01*
X03185000Y01819731D02*
X03520000Y01819731D01*
X03520000Y01829730D02*
X03185000Y01829730D01*
X03185000Y01839728D02*
X03520000Y01839728D01*
X03520000Y01849727D02*
X03185000Y01849727D01*
X03185000Y01859725D02*
X03520000Y01859725D01*
X03520000Y01869724D02*
X03185000Y01869724D01*
X03185000Y01879722D02*
X03520000Y01879722D01*
X03520000Y01889721D02*
X03185000Y01889721D01*
X03185000Y01899719D02*
X03520000Y01899719D01*
X03520000Y01909718D02*
X03185000Y01909718D01*
X03185000Y01919717D02*
X03520000Y01919717D01*
X03520000Y01929715D02*
X03185000Y01929715D01*
X03185000Y01939714D02*
X03520000Y01939714D01*
X03520000Y01949712D02*
X03185000Y01949712D01*
X03185000Y01959711D02*
X03520000Y01959711D01*
X03520000Y01969709D02*
X03185000Y01969709D01*
X03185000Y01979708D02*
X03520000Y01979708D01*
X03520000Y01989706D02*
X03185000Y01989706D01*
X03187181Y01999705D02*
X03520000Y01999705D01*
X03520000Y02009703D02*
X03194418Y02009703D01*
X03196500Y02019702D02*
X03520000Y02019702D01*
X03520000Y02029700D02*
X03194665Y02029700D01*
X03187778Y02039699D02*
X03520000Y02039699D01*
X03520000Y02049697D02*
X02991516Y02049697D01*
X03001514Y02039699D02*
X03152222Y02039699D01*
X03145335Y02029700D02*
X03011513Y02029700D01*
X03021511Y02019702D02*
X03143500Y02019702D01*
X03145582Y02009703D02*
X03031510Y02009703D01*
X03004091Y02059696D02*
X02981517Y02059696D01*
X02971519Y02069694D02*
X02994092Y02069694D01*
X02985000Y02079693D02*
X02961520Y02079693D01*
X02955000Y02089691D02*
X02985000Y02089691D01*
X02977833Y02099690D02*
X02955000Y02099690D01*
X02955000Y02109688D02*
X02973517Y02109688D01*
X02973500Y02119687D02*
X02955000Y02119687D01*
X02955000Y02129686D02*
X02977400Y02129686D01*
X02990345Y02139684D02*
X02955000Y02139684D01*
X02820384Y02029700D02*
X02809000Y02029700D01*
X02756630Y02029700D02*
X02739616Y02029700D01*
X02735271Y02031500D02*
X02724729Y02031500D01*
X02714989Y02027466D01*
X02707534Y02020011D01*
X02703500Y02010271D01*
X02703500Y02009713D01*
X02695000Y02001213D01*
X02695000Y01900370D01*
X02687727Y01900370D01*
X02681283Y01893926D01*
X02681283Y01857255D01*
X02686416Y01852122D01*
X02683073Y01850192D01*
X02680281Y01847399D01*
X02678306Y01843979D01*
X02677283Y01840164D01*
X02677283Y01826299D01*
X02708109Y01826299D01*
X02708109Y01822519D01*
X02677283Y01822519D01*
X02677283Y01808655D01*
X02678079Y01805685D01*
X02677255Y01805685D01*
X02672122Y01800552D01*
X02670192Y01803895D01*
X02667399Y01806688D01*
X02663979Y01808663D01*
X02661739Y01809263D01*
X02662466Y01809989D01*
X02666500Y01819729D01*
X02666500Y01830271D01*
X02665000Y01833892D01*
X02665000Y01983787D01*
X02715000Y02033787D01*
X02715000Y02211000D01*
X02756630Y02211000D01*
X02756630Y01917220D01*
X02756231Y01917220D01*
X02749787Y01910777D01*
X02749787Y01900685D01*
X02748784Y01899683D01*
X02746810Y01896262D01*
X02745787Y01892447D01*
X02745787Y01889011D01*
X02745208Y01889590D01*
X02738716Y01889590D01*
X02738716Y01893926D01*
X02732273Y01900370D01*
X02725000Y01900370D01*
X02725000Y01978500D01*
X02735271Y01978500D01*
X02745011Y01982534D01*
X02752466Y01989989D01*
X02756500Y01999729D01*
X02756500Y02010271D01*
X02752466Y02020011D01*
X02745011Y02027466D01*
X02735271Y02031500D01*
X02720384Y02029700D02*
X02710914Y02029700D01*
X02707406Y02019702D02*
X02700915Y02019702D01*
X02703490Y02009703D02*
X02690916Y02009703D01*
X02695000Y01999705D02*
X02680918Y01999705D01*
X02670919Y01989706D02*
X02695000Y01989706D01*
X02695000Y01979708D02*
X02665000Y01979708D01*
X02665000Y01969709D02*
X02695000Y01969709D01*
X02695000Y01959711D02*
X02665000Y01959711D01*
X02665000Y01949712D02*
X02695000Y01949712D01*
X02695000Y01939714D02*
X02665000Y01939714D01*
X02665000Y01929715D02*
X02695000Y01929715D01*
X02695000Y01919717D02*
X02665000Y01919717D01*
X02665000Y01909718D02*
X02695000Y01909718D01*
X02687077Y01899719D02*
X02665000Y01899719D01*
X02665000Y01889721D02*
X02681283Y01889721D01*
X02681283Y01879722D02*
X02665000Y01879722D01*
X02665000Y01869724D02*
X02681283Y01869724D01*
X02681283Y01859725D02*
X02665000Y01859725D01*
X02665000Y01849727D02*
X02682608Y01849727D01*
X02677283Y01839728D02*
X02665000Y01839728D01*
X02666500Y01829730D02*
X02677283Y01829730D01*
X02677283Y01819731D02*
X02666500Y01819731D01*
X02662209Y01809733D02*
X02677283Y01809733D01*
X02631692Y01779737D02*
X02545000Y01779737D01*
X02725000Y01909718D02*
X02749787Y01909718D01*
X02748821Y01899719D02*
X02732923Y01899719D01*
X02738716Y01889721D02*
X02745787Y01889721D01*
X02770631Y01885749D02*
X02784452Y01885749D01*
X02784454Y01885747D01*
X02770631Y01885747D01*
X02770631Y01885749D01*
X02791472Y01869724D02*
X02828528Y01869724D01*
X02828528Y01859725D02*
X02795472Y01859725D01*
X02795472Y01849727D02*
X02828528Y01849727D01*
X02828528Y01839728D02*
X02795472Y01839728D01*
X02794916Y01829730D02*
X02828528Y01829730D01*
X02756630Y01919717D02*
X02725000Y01919717D01*
X02725000Y01929715D02*
X02756630Y01929715D01*
X02756630Y01939714D02*
X02725000Y01939714D01*
X02725000Y01949712D02*
X02756630Y01949712D01*
X02756630Y01959711D02*
X02725000Y01959711D01*
X02725000Y01969709D02*
X02756630Y01969709D01*
X02756630Y01979708D02*
X02738187Y01979708D01*
X02752183Y01989706D02*
X02756630Y01989706D01*
X02756490Y01999705D02*
X02756630Y01999705D01*
X02756500Y02009703D02*
X02756630Y02009703D01*
X02756630Y02019702D02*
X02752594Y02019702D01*
X02756630Y02039699D02*
X02715000Y02039699D01*
X02715000Y02049697D02*
X02756630Y02049697D01*
X02756630Y02059696D02*
X02715000Y02059696D01*
X02715000Y02069694D02*
X02756630Y02069694D01*
X02756630Y02079693D02*
X02715000Y02079693D01*
X02715000Y02089691D02*
X02756630Y02089691D01*
X02756630Y02099690D02*
X02715000Y02099690D01*
X02715000Y02109688D02*
X02756630Y02109688D01*
X02756630Y02119687D02*
X02715000Y02119687D01*
X02715000Y02129686D02*
X02756630Y02129686D01*
X02756630Y02139684D02*
X02715000Y02139684D01*
X02715000Y02149683D02*
X02756630Y02149683D01*
X02756630Y02159681D02*
X02715000Y02159681D01*
X02715000Y02169680D02*
X02756630Y02169680D01*
X02756630Y02179678D02*
X02715000Y02179678D01*
X02715000Y02189677D02*
X02756630Y02189677D01*
X02756630Y02199675D02*
X02715000Y02199675D01*
X02715000Y02209674D02*
X02756630Y02209674D01*
X02801551Y02289662D02*
X03280000Y02289662D01*
X03280000Y02299660D02*
X02791553Y02299660D01*
X02781554Y02309659D02*
X03280000Y02309659D01*
X03280000Y02319657D02*
X02771556Y02319657D01*
X02761557Y02329656D02*
X03280000Y02329656D01*
X03280000Y02339655D02*
X02760000Y02339655D01*
X02760000Y02349653D02*
X03280000Y02349653D01*
X03280000Y02359652D02*
X02760000Y02359652D01*
X02760000Y02369650D02*
X03280000Y02369650D01*
X03280000Y02379649D02*
X02760000Y02379649D01*
X02760000Y02389647D02*
X03280000Y02389647D01*
X03280000Y02399646D02*
X02760000Y02399646D01*
X02760000Y02409644D02*
X03280000Y02409644D01*
X03280000Y02419643D02*
X02773030Y02419643D01*
X02787118Y02429641D02*
X03288428Y02429641D01*
X03293500Y02439640D02*
X02791463Y02439640D01*
X02791500Y02449638D02*
X03297380Y02449638D01*
X03310231Y02459637D02*
X02787621Y02459637D01*
X02774773Y02469635D02*
X03520000Y02469635D01*
X03520000Y02459637D02*
X03329769Y02459637D01*
X03342620Y02449638D02*
X03520000Y02449638D01*
X03520000Y02439640D02*
X03346500Y02439640D01*
X03346464Y02429641D02*
X03520000Y02429641D01*
X03520000Y02419643D02*
X03342119Y02419643D01*
X03328033Y02409644D02*
X03520000Y02409644D01*
X03520000Y02399646D02*
X03310000Y02399646D01*
X03310000Y02389647D02*
X03520000Y02389647D01*
X03520000Y02379649D02*
X03310000Y02379649D01*
X03310000Y02369650D02*
X03520000Y02369650D01*
X03520000Y02359652D02*
X03310000Y02359652D01*
X03310000Y02349653D02*
X03520000Y02349653D01*
X03520000Y02339655D02*
X03310000Y02339655D01*
X03310000Y02329656D02*
X03520000Y02329656D01*
X03520000Y02319657D02*
X03310000Y02319657D01*
X03310000Y02309659D02*
X03520000Y02309659D01*
X03520000Y02299660D02*
X03310000Y02299660D01*
X03310000Y02289662D02*
X03520000Y02289662D01*
X03520000Y02279663D02*
X03310000Y02279663D01*
X03310000Y02269665D02*
X03520000Y02269665D01*
X03520000Y02259666D02*
X03310000Y02259666D01*
X03310000Y02249668D02*
X03520000Y02249668D01*
X03520000Y02239669D02*
X03310000Y02239669D01*
X03310000Y02229671D02*
X03520000Y02229671D01*
X03520000Y02219672D02*
X03310000Y02219672D01*
X03310000Y02209674D02*
X03520000Y02209674D01*
X03520000Y02199675D02*
X03310000Y02199675D01*
X03310000Y02189677D02*
X03520000Y02189677D01*
X03520000Y02179678D02*
X03310000Y02179678D01*
X03310000Y02169680D02*
X03520000Y02169680D01*
X03520000Y02159681D02*
X03310000Y02159681D01*
X03310000Y02149683D02*
X03520000Y02149683D01*
X03520000Y02139684D02*
X03305897Y02139684D01*
X03295899Y02129686D02*
X03520000Y02129686D01*
X03520000Y02119687D02*
X03285900Y02119687D01*
X03275902Y02109688D02*
X03520000Y02109688D01*
X03520000Y02099690D02*
X03265903Y02099690D01*
X03255905Y02089691D02*
X03520000Y02089691D01*
X03520000Y02079693D02*
X03245906Y02079693D01*
X03235908Y02069694D02*
X03520000Y02069694D01*
X03520000Y02059696D02*
X03225909Y02059696D01*
X03185000Y01739743D02*
X03388810Y01739743D01*
X03371762Y01729745D02*
X03185000Y01729745D01*
X03185000Y01719746D02*
X03363801Y01719746D01*
X03359660Y01709748D02*
X03185000Y01709748D01*
X03185000Y01699749D02*
X03359000Y01699749D01*
X03359867Y01689750D02*
X03185000Y01689750D01*
X03185000Y01549771D02*
X03520000Y01549771D01*
X03520000Y01539773D02*
X03185000Y01539773D01*
X03185000Y01529774D02*
X03520000Y01529774D01*
X03520000Y01519776D02*
X03185000Y01519776D01*
X03180990Y01509777D02*
X03520000Y01509777D01*
X03520000Y01499779D02*
X03170992Y01499779D01*
X03160993Y01489780D02*
X03520000Y01489780D01*
X03520000Y01479781D02*
X03150995Y01479781D01*
X03140996Y01469783D02*
X03520000Y01469783D01*
X03520000Y01459784D02*
X03130998Y01459784D01*
X03120999Y01449786D02*
X03346499Y01449786D01*
X03326650Y01439787D02*
X03111001Y01439787D01*
X03101002Y01429789D02*
X03316652Y01429789D01*
X03306961Y01419790D02*
X03091004Y01419790D01*
X03081005Y01409792D02*
X03302820Y01409792D01*
X03298678Y01399793D02*
X03071007Y01399793D01*
X03061008Y01389795D02*
X03295000Y01389795D01*
X03347479Y01299808D02*
X02342550Y01299808D01*
X02346500Y01289810D02*
X03520000Y01289810D01*
X03520000Y01299808D02*
X03402521Y01299808D01*
X03422944Y01309807D02*
X03520000Y01309807D01*
X03520000Y01319805D02*
X03432942Y01319805D01*
X03442870Y01329804D02*
X03520000Y01329804D01*
X03520000Y01339802D02*
X03447012Y01339802D01*
X03451153Y01349801D02*
X03520000Y01349801D01*
X03520000Y01359799D02*
X03455000Y01359799D01*
X03455000Y01369798D02*
X03520000Y01369798D01*
X03520000Y01379796D02*
X03455000Y01379796D01*
X03455000Y01389795D02*
X03520000Y01389795D01*
X03520000Y01399793D02*
X03451322Y01399793D01*
X03447180Y01409792D02*
X03520000Y01409792D01*
X03520000Y01419790D02*
X03443039Y01419790D01*
X03433348Y01429789D02*
X03520000Y01429789D01*
X03520000Y01439787D02*
X03423350Y01439787D01*
X03403501Y01449786D02*
X03520000Y01449786D01*
X03520000Y01559770D02*
X03480164Y01559770D01*
X03493408Y01569768D02*
X03520000Y01569768D01*
X03520000Y01579767D02*
X03500195Y01579767D01*
X03503940Y01589765D02*
X03520000Y01589765D01*
X03520000Y01279811D02*
X02346500Y01279811D01*
X02342289Y01269813D02*
X03520000Y01269813D01*
X03520000Y01259814D02*
X02328443Y01259814D01*
X02311556Y01259814D02*
X02264227Y01259814D01*
X02254229Y01269813D02*
X02297711Y01269813D01*
X02293500Y01279811D02*
X02244230Y01279811D01*
X02226143Y01249815D02*
X01227292Y01249815D01*
X01192708Y01249815D02*
X00205000Y01249815D01*
X00205000Y01239817D02*
X00295000Y01239817D01*
X00295000Y01229818D02*
X00205000Y01229818D01*
X00205000Y01219820D02*
X00295000Y01219820D01*
X00295000Y01209821D02*
X00205000Y01209821D01*
X00205000Y01199823D02*
X00295000Y01199823D01*
X00295000Y01189824D02*
X00205000Y01189824D01*
X00205000Y01259814D02*
X01185536Y01259814D01*
X01502000Y01429789D02*
X01641169Y01429789D01*
X01633000Y01439787D02*
X01502000Y01439787D01*
X01502000Y01449786D02*
X01556641Y01449786D01*
X01550539Y01459784D02*
X01502000Y01459784D01*
X01502000Y01469783D02*
X01550472Y01469783D01*
X01550472Y01479781D02*
X01502000Y01479781D01*
X01502000Y01489780D02*
X01590000Y01489780D01*
X01590000Y01479781D02*
X01600000Y01479781D01*
X01600000Y01469783D02*
X01590000Y01469783D01*
X01590000Y01459784D02*
X01600000Y01459784D01*
X01600000Y01449786D02*
X01590000Y01449786D01*
X01550472Y01499779D02*
X01502000Y01499779D01*
X01502000Y01509777D02*
X01550472Y01509777D01*
X01551955Y01519776D02*
X01502000Y01519776D01*
X01502000Y01529774D02*
X01556953Y01529774D01*
X01554472Y01539773D02*
X01502000Y01539773D01*
X01502000Y01549771D02*
X01554472Y01549771D01*
X01554472Y01559770D02*
X01502000Y01559770D01*
X01502000Y01569768D02*
X01554472Y01569768D01*
X01554472Y01579767D02*
X01502000Y01579767D01*
X01502000Y01589765D02*
X01554472Y01589765D01*
X01578000Y01599764D02*
X01502000Y01599764D01*
X01502000Y01609762D02*
X01578000Y01609762D01*
X01572762Y01619761D02*
X01499281Y01619761D01*
X01489282Y01629759D02*
X01568500Y01629759D01*
X01568500Y01639758D02*
X01479284Y01639758D01*
X01469285Y01649756D02*
X01572429Y01649756D01*
X01585516Y01659755D02*
X01459287Y01659755D01*
X01449288Y01669753D02*
X01723500Y01669753D01*
X01723500Y01659755D02*
X01604484Y01659755D01*
X01617571Y01649756D02*
X01727767Y01649756D01*
X01741692Y01639758D02*
X01621500Y01639758D01*
X01621500Y01629759D02*
X01776972Y01629759D01*
X01776972Y01619761D02*
X01617237Y01619761D01*
X01612000Y01609762D02*
X01776972Y01609762D01*
X01783416Y01599189D02*
X01776972Y01592745D01*
X01776972Y01579598D01*
X01775557Y01579598D01*
X01760353Y01564395D01*
X01755271Y01566500D01*
X01744729Y01566500D01*
X01734989Y01562466D01*
X01727534Y01555011D01*
X01723500Y01545271D01*
X01723500Y01534729D01*
X01727534Y01524989D01*
X01734989Y01517534D01*
X01744729Y01513500D01*
X01755271Y01513500D01*
X01765011Y01517534D01*
X01772466Y01524989D01*
X01774894Y01530853D01*
X01776972Y01532931D01*
X01776972Y01532451D01*
X01783416Y01526008D01*
X01851584Y01526008D01*
X01858027Y01532451D01*
X01858027Y01592745D01*
X01851584Y01599189D01*
X01783416Y01599189D01*
X01776972Y01589765D02*
X01635527Y01589765D01*
X01635527Y01579767D02*
X01776972Y01579767D01*
X01765727Y01569768D02*
X01635527Y01569768D01*
X01644272Y01559770D02*
X01732293Y01559770D01*
X01725364Y01549771D02*
X01654270Y01549771D01*
X01664269Y01539773D02*
X01723500Y01539773D01*
X01725552Y01529774D02*
X01667000Y01529774D01*
X01667000Y01519776D02*
X01732748Y01519776D01*
X01745739Y01489780D02*
X01667000Y01489780D01*
X01667000Y01499779D02*
X01850737Y01499779D01*
X01860735Y01509777D02*
X01667000Y01509777D01*
X01667000Y01479781D02*
X01697305Y01479781D01*
X01690369Y01469783D02*
X01667000Y01469783D01*
X01667000Y01459784D02*
X01688500Y01459784D01*
X01690547Y01449786D02*
X01669256Y01449786D01*
X01651168Y01419790D02*
X01509251Y01419790D01*
X01612000Y01599764D02*
X01863000Y01599764D01*
X01863000Y01609762D02*
X01858027Y01609762D01*
X01858027Y01619761D02*
X01863000Y01619761D01*
X01863000Y01629759D02*
X01858027Y01629759D01*
X01858027Y01639758D02*
X01863000Y01639758D01*
X01863000Y01649756D02*
X01858027Y01649756D01*
X01858027Y01659755D02*
X01863000Y01659755D01*
X01857770Y01669753D02*
X01855822Y01669753D01*
X01853500Y01679752D02*
X01834289Y01679752D01*
X01837227Y01689750D02*
X01853500Y01689750D01*
X01857426Y01699749D02*
X01844437Y01699749D01*
X01846500Y01709748D02*
X01870498Y01709748D01*
X01889472Y01719746D02*
X01844646Y01719746D01*
X01837732Y01729745D02*
X01889472Y01729745D01*
X01889472Y01739743D02*
X01807000Y01739743D01*
X01807000Y01749742D02*
X01889472Y01749742D01*
X01889472Y01759740D02*
X01807000Y01759740D01*
X01799303Y01769739D02*
X01891466Y01769739D01*
X01891990Y01779737D02*
X01789304Y01779737D01*
X01802209Y01809733D02*
X01889472Y01809733D01*
X01889472Y01819731D02*
X01813773Y01819731D01*
X01823771Y01829730D02*
X01889472Y01829730D01*
X01889472Y01839728D02*
X01833770Y01839728D01*
X01843768Y01849727D02*
X01960299Y01849727D01*
X01960299Y01859725D02*
X01853767Y01859725D01*
X01863765Y01869724D02*
X01960742Y01869724D01*
X02019258Y01869724D02*
X02051234Y01869724D01*
X02041236Y01879722D02*
X01873764Y01879722D01*
X01845678Y01899719D02*
X01622000Y01899719D01*
X01622000Y01889721D02*
X01835680Y01889721D01*
X01825681Y01879722D02*
X01652754Y01879722D01*
X01686325Y01869724D02*
X01815682Y01869724D01*
X01805684Y01859725D02*
X01724256Y01859725D01*
X01725724Y01849727D02*
X01767250Y01849727D01*
X01760346Y01839728D02*
X01725724Y01839728D01*
X01725724Y01829730D02*
X01758500Y01829730D01*
X01760570Y01819731D02*
X01725724Y01819731D01*
X01723714Y01809733D02*
X01767790Y01809733D01*
X01771217Y01749742D02*
X01429648Y01749742D01*
X01431500Y01739743D02*
X01773000Y01739743D01*
X01773000Y01729745D02*
X01429435Y01729745D01*
X01422223Y01719746D02*
X01773000Y01719746D01*
X01773000Y01709748D02*
X01422000Y01709748D01*
X01422000Y01699749D02*
X01781209Y01699749D01*
X01740505Y01689750D02*
X01429291Y01689750D01*
X01439289Y01679752D02*
X01727427Y01679752D01*
X01758308Y01639758D02*
X01776972Y01639758D01*
X01776972Y01649756D02*
X01772233Y01649756D01*
X01858027Y01589765D02*
X01863000Y01589765D01*
X01863000Y01579767D02*
X01858027Y01579767D01*
X01858027Y01569768D02*
X01863000Y01569768D01*
X01863000Y01559770D02*
X01858027Y01559770D01*
X01858027Y01549771D02*
X01863000Y01549771D01*
X01863000Y01539773D02*
X01858027Y01539773D01*
X01855350Y01529774D02*
X01863000Y01529774D01*
X01863000Y01519776D02*
X01767252Y01519776D01*
X01774447Y01529774D02*
X01779650Y01529774D01*
X01735740Y01479781D02*
X01732695Y01479781D01*
X01947000Y01699749D02*
X01961269Y01699749D01*
X01889472Y01789736D02*
X01647212Y01789736D01*
X01651500Y01799734D02*
X01889472Y01799734D01*
X01855676Y01909718D02*
X01622000Y01909718D01*
X01610572Y01849727D02*
X01607608Y01849727D01*
X01616609Y01839728D02*
X01617795Y01839728D01*
X01634545Y01829730D02*
X01668291Y01829730D01*
X01668238Y01839728D02*
X01652205Y01839728D01*
X01647581Y01819731D02*
X01668291Y01819731D01*
X01670301Y01809733D02*
X01651500Y01809733D01*
X01586218Y01759740D02*
X01422736Y01759740D01*
X01387264Y01759740D02*
X01364520Y01759740D01*
X01377577Y01749742D02*
X01380352Y01749742D01*
X01270000Y01739743D02*
X00742733Y01739743D01*
X00749647Y01729745D02*
X01270000Y01729745D01*
X01270000Y01719746D02*
X00751500Y01719746D01*
X00749437Y01709748D02*
X01270000Y01709748D01*
X01270000Y01699749D02*
X00742226Y01699749D01*
X01054338Y02009703D02*
X01126255Y02009703D01*
X01116257Y02019702D02*
X01044340Y02019702D01*
X01034341Y02029700D02*
X01106258Y02029700D01*
X01091834Y02039699D02*
X01024343Y02039699D01*
X01017000Y02049697D02*
X01077826Y02049697D01*
X01073514Y02059696D02*
X01017000Y02059696D01*
X01017000Y02069694D02*
X01073500Y02069694D01*
X01077403Y02079693D02*
X01017000Y02079693D01*
X01017000Y02089691D02*
X01083000Y02089691D01*
X01083000Y02099690D02*
X01017000Y02099690D01*
X01046492Y02109688D02*
X01053508Y02109688D01*
X01053508Y02119687D02*
X01046492Y02119687D01*
X01046492Y02129686D02*
X01053508Y02129686D01*
X01053508Y02139684D02*
X01046492Y02139684D01*
X01046492Y02149683D02*
X01053508Y02149683D01*
X01053508Y02159681D02*
X01046492Y02159681D01*
X01046492Y02169680D02*
X01053508Y02169680D01*
X01053508Y02179678D02*
X01046492Y02179678D01*
X01038159Y02209674D02*
X01630157Y02209674D01*
X01664368Y02199675D02*
X02327805Y02199675D01*
X02317807Y02189677D02*
X01664571Y02189677D01*
X01503000Y02099690D02*
X01217000Y02099690D01*
X01246492Y02109688D02*
X01253508Y02109688D01*
X01253508Y02107963D02*
X01259951Y02101520D01*
X01340048Y02101520D01*
X01346492Y02107963D01*
X01346492Y02180068D01*
X01340048Y02186512D01*
X01259951Y02186512D01*
X01253508Y02180068D01*
X01253508Y02107963D01*
X01253508Y02119687D02*
X01246492Y02119687D01*
X01246492Y02129686D02*
X01253508Y02129686D01*
X01253508Y02139684D02*
X01246492Y02139684D01*
X01246492Y02149683D02*
X01253508Y02149683D01*
X01253508Y02159681D02*
X01246492Y02159681D01*
X01246492Y02169680D02*
X01253508Y02169680D01*
X01253508Y02179678D02*
X01246492Y02179678D01*
X01240048Y02213488D02*
X01159951Y02213488D01*
X01153508Y02219932D01*
X01153508Y02292037D01*
X01159951Y02298480D01*
X01181000Y02298480D01*
X01181000Y02306523D01*
X01177534Y02309989D01*
X01173500Y02319729D01*
X01173500Y02330271D01*
X01177534Y02340011D01*
X01184989Y02347466D01*
X01194729Y02351500D01*
X01205271Y02351500D01*
X01215011Y02347466D01*
X01222466Y02340011D01*
X01226500Y02330271D01*
X01226500Y02319729D01*
X01222466Y02309989D01*
X01219000Y02306523D01*
X01219000Y02298480D01*
X01240048Y02298480D01*
X01246492Y02292037D01*
X01246492Y02219932D01*
X01240048Y02213488D01*
X01246233Y02219672D02*
X01253767Y02219672D01*
X01253508Y02219932D02*
X01259951Y02213488D01*
X01340048Y02213488D01*
X01346492Y02219932D01*
X01346492Y02292037D01*
X01340048Y02298480D01*
X01319000Y02298480D01*
X01319000Y02306523D01*
X01322466Y02309989D01*
X01326500Y02319729D01*
X01326500Y02330271D01*
X01322466Y02340011D01*
X01315011Y02347466D01*
X01305271Y02351500D01*
X01294729Y02351500D01*
X01284989Y02347466D01*
X01277534Y02340011D01*
X01273500Y02330271D01*
X01273500Y02319729D01*
X01277534Y02309989D01*
X01281000Y02306523D01*
X01281000Y02298480D01*
X01259951Y02298480D01*
X01253508Y02292037D01*
X01253508Y02219932D01*
X01253508Y02229671D02*
X01246492Y02229671D01*
X01246492Y02239669D02*
X01253508Y02239669D01*
X01253508Y02249668D02*
X01246492Y02249668D01*
X01246492Y02259666D02*
X01253508Y02259666D01*
X01253508Y02269665D02*
X01246492Y02269665D01*
X01246492Y02279663D02*
X01253508Y02279663D01*
X01253508Y02289662D02*
X01246492Y02289662D01*
X01219000Y02299660D02*
X01281000Y02299660D01*
X01277864Y02309659D02*
X01222136Y02309659D01*
X01226470Y02319657D02*
X01273529Y02319657D01*
X01273500Y02329656D02*
X01226500Y02329656D01*
X01222613Y02339655D02*
X01277387Y02339655D01*
X01290270Y02349653D02*
X01209730Y02349653D01*
X01190270Y02349653D02*
X01109730Y02349653D01*
X01105271Y02351500D02*
X01094729Y02351500D01*
X01084989Y02347466D01*
X01077534Y02340011D01*
X01073500Y02330271D01*
X01073500Y02319729D01*
X01077534Y02309989D01*
X01081000Y02306523D01*
X01081000Y02298480D01*
X01059951Y02298480D01*
X01053508Y02292037D01*
X01053508Y02219932D01*
X01059951Y02213488D01*
X01140048Y02213488D01*
X01146492Y02219932D01*
X01146492Y02292037D01*
X01140048Y02298480D01*
X01119000Y02298480D01*
X01119000Y02306523D01*
X01122466Y02309989D01*
X01126500Y02319729D01*
X01126500Y02330271D01*
X01122466Y02340011D01*
X01115011Y02347466D01*
X01105271Y02351500D01*
X01090270Y02349653D02*
X00690000Y02349653D01*
X00690000Y02339655D02*
X01077387Y02339655D01*
X01073500Y02329656D02*
X00690000Y02329656D01*
X00690000Y02319657D02*
X01073529Y02319657D01*
X01077864Y02309659D02*
X00690000Y02309659D01*
X00660000Y02309659D02*
X00322000Y02309659D01*
X00322000Y02319657D02*
X00660000Y02319657D01*
X00660000Y02329656D02*
X00322000Y02329656D01*
X00322000Y02339655D02*
X00660000Y02339655D01*
X00660000Y02349653D02*
X00322695Y02349653D01*
X00332693Y02359652D02*
X00660000Y02359652D01*
X00660000Y02369650D02*
X00342692Y02369650D01*
X00352690Y02379649D02*
X00660000Y02379649D01*
X00660000Y02389647D02*
X00362689Y02389647D01*
X00372687Y02399646D02*
X00660000Y02399646D01*
X00660000Y02409644D02*
X00382686Y02409644D01*
X00392684Y02419643D02*
X00660000Y02419643D01*
X00660000Y02429641D02*
X00644624Y02429641D01*
X00593376Y02429641D02*
X00466624Y02429641D01*
X00476116Y02439640D02*
X00583884Y02439640D01*
X00579742Y02449638D02*
X00480258Y02449638D01*
X00482000Y02459637D02*
X00578000Y02459637D01*
X00578000Y02469635D02*
X00482000Y02469635D01*
X00482000Y02479634D02*
X00578000Y02479634D01*
X00578000Y02489632D02*
X00482000Y02489632D01*
X00482000Y02499631D02*
X00578000Y02499631D01*
X00578000Y02509629D02*
X00482671Y02509629D01*
X00492670Y02519628D02*
X00578000Y02519628D01*
X00578000Y02529626D02*
X00502668Y02529626D01*
X00473508Y02549624D02*
X00471359Y02549624D01*
X00473508Y02559622D02*
X00458000Y02559622D01*
X00458000Y02569621D02*
X00473508Y02569621D01*
X00473508Y02579619D02*
X00458000Y02579619D01*
X00458000Y02589618D02*
X00473508Y02589618D01*
X00473508Y02599616D02*
X00458000Y02599616D01*
X00458000Y02609615D02*
X00473508Y02609615D01*
X00458000Y02619613D02*
X00596345Y02619613D01*
X00606344Y02609615D02*
X00566492Y02609615D01*
X00566492Y02599616D02*
X02587741Y02599616D01*
X02584630Y02602727D02*
X02591073Y02596283D01*
X02627745Y02596283D01*
X02632878Y02601416D01*
X02634808Y02598073D01*
X02637601Y02595281D01*
X02641021Y02593306D01*
X02644836Y02592283D01*
X02658701Y02592283D01*
X02658701Y02623109D01*
X02662480Y02623109D01*
X02662480Y02592283D01*
X02676345Y02592283D01*
X02680160Y02593306D01*
X02683580Y02595281D01*
X02686373Y02598073D01*
X02688348Y02601494D01*
X02689370Y02605309D01*
X02689370Y02623110D01*
X02662481Y02623110D01*
X02662481Y02626890D01*
X02689370Y02626890D01*
X02689370Y02644691D01*
X02688348Y02648506D01*
X02686373Y02651927D01*
X02683580Y02654719D01*
X02680160Y02656694D01*
X02676345Y02657716D01*
X02662480Y02657716D01*
X02662480Y02626891D01*
X02658701Y02626891D01*
X02658701Y02657716D01*
X02652127Y02657716D01*
X02658225Y02660242D01*
X02669758Y02671775D01*
X02676000Y02686844D01*
X02676000Y02763155D01*
X02669758Y02778225D01*
X02658225Y02789758D01*
X02643155Y02796000D01*
X02626844Y02796000D01*
X02611775Y02789758D01*
X02600242Y02778225D01*
X02594000Y02763155D01*
X02594000Y02686844D01*
X02598679Y02675549D01*
X02591000Y02667870D01*
X02591000Y02653643D01*
X02584630Y02647273D01*
X02584630Y02602727D01*
X02584630Y02609615D02*
X00918656Y02609615D01*
X00928655Y02619613D02*
X02584630Y02619613D01*
X02584630Y02629612D02*
X00938653Y02629612D01*
X00948652Y02639610D02*
X02584630Y02639610D01*
X02586966Y02649609D02*
X00958650Y02649609D01*
X00968649Y02659607D02*
X02513307Y02659607D01*
X02511775Y02660242D02*
X02526844Y02654000D01*
X02543155Y02654000D01*
X02558225Y02660242D01*
X02569758Y02671775D01*
X02576000Y02686844D01*
X02576000Y02763155D01*
X02569758Y02778225D01*
X02558225Y02789758D01*
X02543155Y02796000D01*
X02526844Y02796000D01*
X02511775Y02789758D01*
X02500242Y02778225D01*
X02494000Y02763155D01*
X02494000Y02686844D01*
X02500242Y02671775D01*
X02511775Y02660242D01*
X02502411Y02669606D02*
X00978647Y02669606D01*
X00987000Y02679604D02*
X02496999Y02679604D01*
X02494000Y02689603D02*
X00987000Y02689603D01*
X00987078Y02699601D02*
X02494000Y02699601D01*
X02494000Y02709600D02*
X00994375Y02709600D01*
X00996500Y02719598D02*
X02494000Y02719598D01*
X02494000Y02729597D02*
X00994708Y02729597D01*
X00987881Y02739595D02*
X02494000Y02739595D01*
X02494000Y02749594D02*
X00660000Y02749594D01*
X00660000Y02739595D02*
X00952119Y02739595D01*
X00945292Y02729597D02*
X00660000Y02729597D01*
X00660000Y02719598D02*
X00943500Y02719598D01*
X00945624Y02709600D02*
X00659898Y02709600D01*
X00660000Y02709844D02*
X00653758Y02694775D01*
X00642225Y02683242D01*
X00627155Y02677000D01*
X00610844Y02677000D01*
X00595775Y02683242D01*
X00584242Y02694775D01*
X00578000Y02709844D01*
X00578000Y02786155D01*
X00584242Y02801225D01*
X00595775Y02812758D01*
X00610844Y02819000D01*
X00627155Y02819000D01*
X00642225Y02812758D01*
X00653758Y02801225D01*
X00660000Y02786155D01*
X00660000Y02709844D01*
X00655757Y02699601D02*
X00952922Y02699601D01*
X00950561Y02689603D02*
X00648586Y02689603D01*
X00633443Y02679604D02*
X00940563Y02679604D01*
X00930564Y02669606D02*
X00594436Y02669606D01*
X00604434Y02659607D02*
X00920566Y02659607D01*
X00910567Y02649609D02*
X00614433Y02649609D01*
X00604557Y02679604D02*
X00584437Y02679604D01*
X00589414Y02689603D02*
X00574439Y02689603D01*
X00582243Y02699601D02*
X00566492Y02699601D01*
X00566492Y02709600D02*
X00578101Y02709600D01*
X00578000Y02719598D02*
X00566492Y02719598D01*
X00578000Y02729597D02*
X00482000Y02729597D01*
X00482000Y02739595D02*
X00578000Y02739595D01*
X00578000Y02749594D02*
X00482000Y02749594D01*
X00482000Y02759593D02*
X00578000Y02759593D01*
X00578000Y02769591D02*
X00482000Y02769591D01*
X00482000Y02779590D02*
X00578000Y02779590D01*
X00579422Y02789588D02*
X00480578Y02789588D01*
X00476437Y02799587D02*
X00583563Y02799587D01*
X00592602Y02809585D02*
X00467397Y02809585D01*
X00414602Y02809585D02*
X00205000Y02809585D01*
X00205000Y02799587D02*
X00405563Y02799587D01*
X00401422Y02789588D02*
X00205000Y02789588D01*
X00205000Y02779590D02*
X00400000Y02779590D01*
X00400000Y02769591D02*
X00205000Y02769591D01*
X00205000Y02759593D02*
X00400000Y02759593D01*
X00400000Y02749594D02*
X00205000Y02749594D01*
X00205000Y02739595D02*
X00400000Y02739595D01*
X00400000Y02729597D02*
X00205000Y02729597D01*
X00205000Y02719598D02*
X00400000Y02719598D01*
X00400101Y02709600D02*
X00205000Y02709600D01*
X00205000Y02699601D02*
X00271054Y02699601D01*
X00284087Y02705000D02*
X00254684Y02692821D01*
X00232179Y02670316D01*
X00220000Y02640913D01*
X00220000Y02609087D01*
X00232179Y02579684D01*
X00254684Y02557179D01*
X00284087Y02545000D01*
X00315913Y02545000D01*
X00345316Y02557179D01*
X00367821Y02579684D01*
X00380000Y02609087D01*
X00380000Y02640913D01*
X00367821Y02670316D01*
X00345316Y02692821D01*
X00315913Y02705000D01*
X00284087Y02705000D01*
X00251466Y02689603D02*
X00205000Y02689603D01*
X00205000Y02679604D02*
X00241467Y02679604D01*
X00231885Y02669606D02*
X00205000Y02669606D01*
X00205000Y02659607D02*
X00227743Y02659607D01*
X00223602Y02649609D02*
X00205000Y02649609D01*
X00205000Y02639610D02*
X00220000Y02639610D01*
X00220000Y02629612D02*
X00205000Y02629612D01*
X00205000Y02619613D02*
X00220000Y02619613D01*
X00220000Y02609615D02*
X00205000Y02609615D01*
X00205000Y02599616D02*
X00223923Y02599616D01*
X00228064Y02589618D02*
X00205000Y02589618D01*
X00205000Y02579619D02*
X00232244Y02579619D01*
X00242242Y02569621D02*
X00205000Y02569621D01*
X00205000Y02559622D02*
X00252241Y02559622D01*
X00272925Y02549624D02*
X00205000Y02549624D01*
X00205000Y02539625D02*
X00403922Y02539625D01*
X00400000Y02529626D02*
X00205000Y02529626D01*
X00205000Y02519628D02*
X00400000Y02519628D01*
X00400000Y02509629D02*
X00205000Y02509629D01*
X00205000Y02499631D02*
X00400000Y02499631D01*
X00400000Y02489632D02*
X00205000Y02489632D01*
X00205000Y02479634D02*
X00400000Y02479634D01*
X00394594Y02469635D02*
X00205000Y02469635D01*
X00205000Y02459637D02*
X00384595Y02459637D01*
X00374597Y02449638D02*
X00205000Y02449638D01*
X00205000Y02439640D02*
X00364598Y02439640D01*
X00354600Y02429641D02*
X00205000Y02429641D01*
X00205000Y02419643D02*
X00344601Y02419643D01*
X00334603Y02409644D02*
X00205000Y02409644D01*
X00205000Y02399646D02*
X00324604Y02399646D01*
X00314606Y02389647D02*
X00205000Y02389647D01*
X00205000Y02379649D02*
X00304607Y02379649D01*
X00294609Y02369650D02*
X00205000Y02369650D01*
X00205000Y02359652D02*
X00288000Y02359652D01*
X00288000Y02349653D02*
X00205000Y02349653D01*
X00205000Y02339655D02*
X00288000Y02339655D01*
X00288000Y02329656D02*
X00205000Y02329656D01*
X00205000Y02319657D02*
X00288000Y02319657D01*
X00288000Y02309659D02*
X00205000Y02309659D01*
X00205000Y02299660D02*
X00288000Y02299660D01*
X00288000Y02289662D02*
X00205000Y02289662D01*
X00205000Y02279663D02*
X00288000Y02279663D01*
X00288000Y02269665D02*
X00205000Y02269665D01*
X00205000Y02259666D02*
X00288000Y02259666D01*
X00288000Y02249668D02*
X00205000Y02249668D01*
X00205000Y02239669D02*
X00288000Y02239669D01*
X00288000Y02229671D02*
X00205000Y02229671D01*
X00205000Y02219672D02*
X00288000Y02219672D01*
X00288000Y02209674D02*
X00205000Y02209674D01*
X00205000Y02199675D02*
X00296283Y02199675D01*
X00306282Y02189677D02*
X00205000Y02189677D01*
X00205000Y02179678D02*
X00316280Y02179678D01*
X00326279Y02169680D02*
X00205000Y02169680D01*
X00205000Y02159681D02*
X00336277Y02159681D01*
X00346276Y02149683D02*
X00205000Y02149683D01*
X00205000Y02139684D02*
X00379037Y02139684D01*
X00387332Y02129686D02*
X00205000Y02129686D01*
X00205000Y02119687D02*
X00405186Y02119687D01*
X00378773Y02179678D02*
X00364363Y02179678D01*
X00354365Y02189677D02*
X00386694Y02189677D01*
X00403647Y02199675D02*
X00344366Y02199675D01*
X00334368Y02209674D02*
X00704113Y02209674D01*
X00660000Y02279663D02*
X00511233Y02279663D01*
X00503321Y02289662D02*
X00660000Y02289662D01*
X00660000Y02299660D02*
X00486389Y02299660D01*
X00403611Y02299660D02*
X00322000Y02299660D01*
X00322000Y02289662D02*
X00386679Y02289662D01*
X00378767Y02279663D02*
X00322000Y02279663D01*
X00322000Y02269665D02*
X00374625Y02269665D01*
X00374000Y02259666D02*
X00322000Y02259666D01*
X00322000Y02249668D02*
X00374902Y02249668D01*
X00379043Y02239669D02*
X00322000Y02239669D01*
X00322000Y02229671D02*
X00387346Y02229671D01*
X00405221Y02219672D02*
X00324369Y02219672D01*
X00402683Y02429641D02*
X00415376Y02429641D01*
X00410641Y02549624D02*
X00327075Y02549624D01*
X00347759Y02559622D02*
X00424000Y02559622D01*
X00424000Y02569621D02*
X00357758Y02569621D01*
X00367756Y02579619D02*
X00424000Y02579619D01*
X00424000Y02589618D02*
X00371935Y02589618D01*
X00376077Y02599616D02*
X00424000Y02599616D01*
X00424000Y02609615D02*
X00380000Y02609615D01*
X00380000Y02619613D02*
X00424000Y02619613D01*
X00424000Y02629612D02*
X00380000Y02629612D01*
X00380000Y02639610D02*
X00424000Y02639610D01*
X00424000Y02649609D02*
X00376398Y02649609D01*
X00372257Y02659607D02*
X00424000Y02659607D01*
X00424000Y02669606D02*
X00368115Y02669606D01*
X00358533Y02679604D02*
X00424000Y02679604D01*
X00411414Y02689603D02*
X00348534Y02689603D01*
X00328946Y02699601D02*
X00404243Y02699601D01*
X00458000Y02679604D02*
X00473508Y02679604D01*
X00473508Y02669606D02*
X00458000Y02669606D01*
X00458000Y02659607D02*
X00473508Y02659607D01*
X00473831Y02649609D02*
X00458000Y02649609D01*
X00458000Y02639610D02*
X00576348Y02639610D01*
X00586347Y02629612D02*
X00458000Y02629612D01*
X00470585Y02689603D02*
X00473508Y02689603D01*
X00566169Y02649609D02*
X00566350Y02649609D01*
X00566492Y02589618D02*
X03095000Y02589618D01*
X03095000Y02599616D02*
X02687264Y02599616D01*
X02689370Y02609615D02*
X03095000Y02609615D01*
X03095000Y02619613D02*
X02689370Y02619613D01*
X02689370Y02629612D02*
X03095000Y02629612D01*
X03095000Y02639610D02*
X02689370Y02639610D01*
X02687711Y02649609D02*
X03095000Y02649609D01*
X03095000Y02659607D02*
X02656692Y02659607D01*
X02658701Y02649609D02*
X02662480Y02649609D01*
X02662480Y02639610D02*
X02658701Y02639610D01*
X02658701Y02629612D02*
X02662480Y02629612D01*
X02662480Y02619613D02*
X02658701Y02619613D01*
X02658701Y02609615D02*
X02662480Y02609615D01*
X02662480Y02599616D02*
X02658701Y02599616D01*
X02633917Y02599616D02*
X02631078Y02599616D01*
X02591000Y02659607D02*
X02556692Y02659607D01*
X02567588Y02669606D02*
X02592736Y02669606D01*
X02596999Y02679604D02*
X02573001Y02679604D01*
X02576000Y02689603D02*
X02594000Y02689603D01*
X02594000Y02699601D02*
X02576000Y02699601D01*
X02576000Y02709600D02*
X02594000Y02709600D01*
X02594000Y02719598D02*
X02576000Y02719598D01*
X02576000Y02729597D02*
X02594000Y02729597D01*
X02594000Y02739595D02*
X02576000Y02739595D01*
X02576000Y02749594D02*
X02594000Y02749594D01*
X02594000Y02759593D02*
X02576000Y02759593D01*
X02573334Y02769591D02*
X02596666Y02769591D01*
X02601607Y02779590D02*
X02568393Y02779590D01*
X02558394Y02789588D02*
X02611605Y02789588D01*
X02658394Y02789588D02*
X03095000Y02789588D01*
X03095000Y02779590D02*
X02668393Y02779590D01*
X02673334Y02769591D02*
X03095000Y02769591D01*
X03095000Y02759593D02*
X02676000Y02759593D01*
X02676000Y02749594D02*
X03095000Y02749594D01*
X03095000Y02739595D02*
X02676000Y02739595D01*
X02676000Y02729597D02*
X03095000Y02729597D01*
X03095000Y02719598D02*
X02676000Y02719598D01*
X02676000Y02709600D02*
X03095000Y02709600D01*
X03095000Y02699601D02*
X02676000Y02699601D01*
X02676000Y02689603D02*
X03095000Y02689603D01*
X03095000Y02679604D02*
X02673001Y02679604D01*
X02667588Y02669606D02*
X03095000Y02669606D01*
X03095000Y02579619D02*
X00566492Y02579619D01*
X00566492Y02569621D02*
X03095000Y02569621D01*
X03095000Y02559622D02*
X00635310Y02559622D01*
X00649359Y02549624D02*
X03095000Y02549624D01*
X03095000Y02539625D02*
X00656078Y02539625D01*
X00660000Y02529626D02*
X03095000Y02529626D01*
X03095000Y02519628D02*
X00660000Y02519628D01*
X00602690Y02559622D02*
X00566492Y02559622D01*
X00566492Y02549624D02*
X00588641Y02549624D01*
X00581922Y02539625D02*
X00566492Y02539625D01*
X00660000Y02759593D02*
X02494000Y02759593D01*
X02496666Y02769591D02*
X00660000Y02769591D01*
X00660000Y02779590D02*
X02501607Y02779590D01*
X02511605Y02789588D02*
X00658578Y02789588D01*
X00654437Y02799587D02*
X03095000Y02799587D01*
X03095000Y02809585D02*
X00645397Y02809585D01*
X00205000Y02819584D02*
X03095000Y02819584D01*
X03095799Y02509629D02*
X02279412Y02509629D01*
X02289411Y02499631D02*
X03520000Y02499631D01*
X03520000Y02489632D02*
X02299409Y02489632D01*
X02309408Y02479634D02*
X03520000Y02479634D01*
X03311967Y02409644D02*
X03310857Y02409644D01*
X02755227Y02469635D02*
X02319406Y02469635D01*
X02337840Y02459637D02*
X02742379Y02459637D01*
X02738500Y02449638D02*
X02344691Y02449638D01*
X02346500Y02439640D02*
X02738427Y02439640D01*
X02730000Y02429641D02*
X02344392Y02429641D01*
X02337119Y02419643D02*
X02690245Y02419643D01*
X02709755Y02419643D02*
X02730000Y02419643D01*
X02730000Y02409644D02*
X02722617Y02409644D01*
X02726500Y02399646D02*
X02730000Y02399646D01*
X02730000Y02389647D02*
X02726466Y02389647D01*
X02730000Y02379649D02*
X02722125Y02379649D01*
X02715000Y02369650D02*
X02730000Y02369650D01*
X02730000Y02359652D02*
X02715000Y02359652D01*
X02307808Y02179678D02*
X02146492Y02179678D01*
X02146492Y02169680D02*
X02297810Y02169680D01*
X02287811Y02159681D02*
X02146492Y02159681D01*
X02146492Y02149683D02*
X02277813Y02149683D01*
X02271000Y02139684D02*
X02146492Y02139684D01*
X02146492Y02129686D02*
X02271000Y02129686D01*
X02271000Y02119687D02*
X02146492Y02119687D01*
X02146492Y02109688D02*
X02271000Y02109688D01*
X02271000Y02099690D02*
X02122599Y02099690D01*
X02126500Y02089691D02*
X02271000Y02089691D01*
X02271000Y02079693D02*
X02126485Y02079693D01*
X02122171Y02069694D02*
X02271000Y02069694D01*
X02038500Y01829730D02*
X02019701Y01829730D01*
X02014697Y01819731D02*
X02042792Y01819731D01*
X01875585Y02069694D02*
X01872171Y02069694D01*
X01497402Y02089691D02*
X01469350Y02089691D01*
X01479349Y02079693D02*
X01493500Y02079693D01*
X01493514Y02069694D02*
X01489347Y02069694D01*
X01453508Y02109688D02*
X01446492Y02109688D01*
X01446492Y02107963D02*
X01446492Y02180068D01*
X01440048Y02186512D01*
X01359951Y02186512D01*
X01353508Y02180068D01*
X01353508Y02107963D01*
X01359951Y02101520D01*
X01440048Y02101520D01*
X01446492Y02107963D01*
X01446492Y02119687D02*
X01453508Y02119687D01*
X01453508Y02129686D02*
X01446492Y02129686D01*
X01446492Y02139684D02*
X01453508Y02139684D01*
X01453508Y02149683D02*
X01446492Y02149683D01*
X01446492Y02159681D02*
X01453508Y02159681D01*
X01453508Y02169680D02*
X01446492Y02169680D01*
X01446492Y02179678D02*
X01453508Y02179678D01*
X01400000Y02144016D02*
X01400000Y02142500D01*
X01400000Y02144016D01*
X01353508Y02139684D02*
X01346492Y02139684D01*
X01346492Y02149683D02*
X01353508Y02149683D01*
X01353508Y02159681D02*
X01346492Y02159681D01*
X01346492Y02169680D02*
X01353508Y02169680D01*
X01353508Y02179678D02*
X01346492Y02179678D01*
X01346492Y02129686D02*
X01353508Y02129686D01*
X01353508Y02119687D02*
X01346492Y02119687D01*
X01346492Y02109688D02*
X01353508Y02109688D01*
X01353767Y02219672D02*
X01346233Y02219672D01*
X01346492Y02229671D02*
X01353508Y02229671D01*
X01353508Y02239669D02*
X01346492Y02239669D01*
X01346492Y02249668D02*
X01353508Y02249668D01*
X01353508Y02259666D02*
X01346492Y02259666D01*
X01346492Y02269665D02*
X01353508Y02269665D01*
X01353508Y02279663D02*
X01346492Y02279663D01*
X01346492Y02289662D02*
X01353508Y02289662D01*
X01381000Y02299660D02*
X01319000Y02299660D01*
X01322136Y02309659D02*
X01377864Y02309659D01*
X01373529Y02319657D02*
X01326470Y02319657D01*
X01326500Y02329656D02*
X01373500Y02329656D01*
X01377387Y02339655D02*
X01322613Y02339655D01*
X01309730Y02349653D02*
X01390270Y02349653D01*
X01418051Y02359652D02*
X01423478Y02359652D01*
X01422613Y02339655D02*
X01443475Y02339655D01*
X01426500Y02329656D02*
X01461520Y02329656D01*
X01461520Y02319657D02*
X01426470Y02319657D01*
X01422136Y02309659D02*
X01461812Y02309659D01*
X01453508Y02289662D02*
X01446492Y02289662D01*
X01446492Y02279663D02*
X01453508Y02279663D01*
X01453508Y02269665D02*
X01446492Y02269665D01*
X01446492Y02259666D02*
X01453508Y02259666D01*
X01453508Y02249668D02*
X01446492Y02249668D01*
X01446492Y02239669D02*
X01453508Y02239669D01*
X01453508Y02229671D02*
X01446492Y02229671D01*
X01446233Y02219672D02*
X01453767Y02219672D01*
X01485016Y02299660D02*
X01419000Y02299660D01*
X01181000Y02299660D02*
X01119000Y02299660D01*
X01122136Y02309659D02*
X01177864Y02309659D01*
X01173529Y02319657D02*
X01126470Y02319657D01*
X01126500Y02329656D02*
X01173500Y02329656D01*
X01177387Y02339655D02*
X01122613Y02339655D01*
X01146492Y02289662D02*
X01153508Y02289662D01*
X01153508Y02279663D02*
X01146492Y02279663D01*
X01146492Y02269665D02*
X01153508Y02269665D01*
X01153508Y02259666D02*
X01146492Y02259666D01*
X01146492Y02249668D02*
X01153508Y02249668D01*
X01153508Y02239669D02*
X01146492Y02239669D01*
X01146492Y02229671D02*
X01153508Y02229671D01*
X01153767Y02219672D02*
X01146233Y02219672D01*
X01146492Y02179678D02*
X01153508Y02179678D01*
X01153508Y02169680D02*
X01146492Y02169680D01*
X01146492Y02159681D02*
X01153508Y02159681D01*
X01153508Y02149683D02*
X01146492Y02149683D01*
X01146492Y02139684D02*
X01153508Y02139684D01*
X01153508Y02129686D02*
X01146492Y02129686D01*
X01146492Y02119687D02*
X01153508Y02119687D01*
X01153508Y02109688D02*
X01146492Y02109688D01*
X01117000Y02099690D02*
X01183000Y02099690D01*
X01183000Y02089691D02*
X01117000Y02089691D01*
X01122597Y02079693D02*
X01183000Y02079693D01*
X01180332Y02069694D02*
X01126500Y02069694D01*
X01126486Y02059696D02*
X01178500Y02059696D01*
X01180584Y02049697D02*
X01134344Y02049697D01*
X01144343Y02039699D02*
X01187824Y02039699D01*
X01053767Y02219672D02*
X01049731Y02219672D01*
X01050492Y02229671D02*
X01053508Y02229671D01*
X01053508Y02239669D02*
X01050492Y02239669D01*
X01050492Y02249668D02*
X01053508Y02249668D01*
X01053508Y02259666D02*
X01005000Y02259666D01*
X01005000Y02249668D02*
X00995000Y02249668D01*
X00995000Y02239669D02*
X01005000Y02239669D01*
X01005000Y02229671D02*
X00995000Y02229671D01*
X00995000Y02219672D02*
X01005000Y02219672D01*
X01005000Y02209674D02*
X00995000Y02209674D01*
X01050492Y02269665D02*
X01053508Y02269665D01*
X01053508Y02279663D02*
X01050492Y02279663D01*
X01050437Y02289662D02*
X01053508Y02289662D01*
X01044395Y02299660D02*
X01081000Y02299660D01*
X01270000Y01789736D02*
X00205000Y01789736D01*
X00205000Y01779737D02*
X01270000Y01779737D01*
X01270000Y01769739D02*
X00205000Y01769739D01*
X02274226Y01249815D02*
X03520000Y01249815D01*
X03520000Y01180000D02*
X03520000Y00470000D01*
X02325000Y00470000D01*
X02325000Y00940958D01*
X02327000Y00942958D01*
X02327000Y01180000D01*
X03520000Y01180000D01*
X03520000Y01179826D02*
X02327000Y01179826D01*
X02327000Y01169827D02*
X03520000Y01169827D01*
X03520000Y01159829D02*
X02327000Y01159829D01*
X02327000Y01149830D02*
X03520000Y01149830D01*
X03520000Y01139832D02*
X02327000Y01139832D01*
X02327000Y01129833D02*
X03520000Y01129833D01*
X03520000Y01119835D02*
X02327000Y01119835D01*
X02327000Y01109836D02*
X03520000Y01109836D01*
X03520000Y01099838D02*
X02327000Y01099838D01*
X02327000Y01089839D02*
X03520000Y01089839D01*
X03520000Y01079841D02*
X02327000Y01079841D01*
X02327000Y01069842D02*
X03520000Y01069842D01*
X03520000Y01059844D02*
X02327000Y01059844D01*
X02327000Y01049845D02*
X03520000Y01049845D01*
X03520000Y01039846D02*
X02327000Y01039846D01*
X02327000Y01029848D02*
X03520000Y01029848D01*
X03520000Y01019849D02*
X02327000Y01019849D01*
X02327000Y01009851D02*
X03520000Y01009851D01*
X03520000Y00999852D02*
X02327000Y00999852D01*
X02327000Y00989854D02*
X03520000Y00989854D01*
X03520000Y00979855D02*
X02327000Y00979855D01*
X02327000Y00969857D02*
X03520000Y00969857D01*
X03520000Y00959858D02*
X02327000Y00959858D01*
X02327000Y00949860D02*
X03520000Y00949860D01*
X03520000Y00939861D02*
X02325000Y00939861D01*
X02325000Y00929863D02*
X03520000Y00929863D01*
X03520000Y00919864D02*
X02325000Y00919864D01*
X02325000Y00909866D02*
X03520000Y00909866D01*
X03520000Y00899867D02*
X02325000Y00899867D01*
X02325000Y00889869D02*
X03520000Y00889869D01*
X03520000Y00879870D02*
X02325000Y00879870D01*
X02325000Y00869872D02*
X03520000Y00869872D01*
X03520000Y00859873D02*
X02325000Y00859873D01*
X02325000Y00849875D02*
X03520000Y00849875D01*
X03520000Y00839876D02*
X02325000Y00839876D01*
X02325000Y00829877D02*
X03520000Y00829877D01*
X03520000Y00819879D02*
X02325000Y00819879D01*
X02325000Y00809880D02*
X03520000Y00809880D01*
X03520000Y00799882D02*
X02325000Y00799882D01*
X02325000Y00789883D02*
X03520000Y00789883D01*
X03520000Y00779885D02*
X02325000Y00779885D01*
X02325000Y00769886D02*
X03520000Y00769886D01*
X03520000Y00759888D02*
X02325000Y00759888D01*
X02325000Y00749889D02*
X03520000Y00749889D01*
X03520000Y00739891D02*
X02325000Y00739891D01*
X02325000Y00729892D02*
X03520000Y00729892D01*
X03520000Y00719894D02*
X02325000Y00719894D01*
X02325000Y00709895D02*
X03520000Y00709895D01*
X03520000Y00699897D02*
X02325000Y00699897D01*
X02325000Y00689898D02*
X03520000Y00689898D01*
X03520000Y00679900D02*
X02325000Y00679900D01*
X02325000Y00669901D02*
X03520000Y00669901D01*
X03520000Y00659903D02*
X02325000Y00659903D01*
X02325000Y00649904D02*
X03520000Y00649904D01*
X03520000Y00639906D02*
X02325000Y00639906D01*
X02325000Y00629907D02*
X03520000Y00629907D01*
X03520000Y00619908D02*
X02325000Y00619908D01*
X02325000Y00609910D02*
X03520000Y00609910D01*
X03520000Y00599911D02*
X02325000Y00599911D01*
X02325000Y00589913D02*
X03520000Y00589913D01*
X03520000Y00579914D02*
X02325000Y00579914D01*
X02325000Y00569916D02*
X03520000Y00569916D01*
X03520000Y00559917D02*
X02325000Y00559917D01*
X02325000Y00549919D02*
X03520000Y00549919D01*
X03520000Y00539920D02*
X02325000Y00539920D01*
X02325000Y00529922D02*
X03520000Y00529922D01*
X03520000Y00519923D02*
X02325000Y00519923D01*
X02325000Y00509925D02*
X03520000Y00509925D01*
X03520000Y00499926D02*
X02325000Y00499926D01*
X02325000Y00489928D02*
X03520000Y00489928D01*
X03520000Y00479929D02*
X02325000Y00479929D01*
X02781423Y01419790D02*
X03048577Y01419790D01*
X03058576Y01429789D02*
X02771424Y01429789D01*
X02761426Y01439787D02*
X03068574Y01439787D01*
X03078573Y01449786D02*
X02751427Y01449786D01*
X02741429Y01459784D02*
X03088571Y01459784D01*
X03098570Y01469783D02*
X02731430Y01469783D01*
D26*
X02560000Y01350000D02*
X02540000Y01330000D01*
X02435591Y01670591D02*
X02375000Y01670591D01*
X02325000Y01670591D01*
X02275000Y01670591D01*
X02274409Y01670000D01*
X02185000Y01670000D01*
X02250000Y01885000D02*
X02290000Y01925000D01*
X02290000Y02135000D01*
X02385000Y02230000D01*
X02795000Y02230000D01*
X02940000Y02230000D01*
X02785630Y02625000D02*
X02660591Y02625000D01*
X02610000Y02625591D02*
X02610000Y02660000D01*
X02635000Y02685000D01*
X02635000Y02725000D01*
X02610000Y02625591D02*
X02609409Y02625000D01*
X02100000Y02330000D02*
X02100000Y02255984D01*
X02000000Y02255984D02*
X02000000Y02325000D01*
X01900000Y02325000D02*
X01900000Y02255984D01*
X01810000Y02255984D02*
X01810000Y02325000D01*
X01700000Y02325000D02*
X01700000Y02255984D01*
X01590000Y02255984D02*
X01500000Y02255984D01*
X01504016Y02260000D01*
X01504016Y02350000D01*
X01460000Y02350000D01*
X01425000Y02385000D01*
X01410000Y02385000D01*
X01400000Y02325000D02*
X01400000Y02255984D01*
X01300000Y02255984D02*
X01300000Y02325000D01*
X01200000Y02325000D02*
X01200000Y02255984D01*
X01100000Y02255984D02*
X01100000Y02325000D01*
X02435591Y01670591D02*
X02455000Y01690000D01*
X02455000Y01700000D01*
D27*
X02636535Y01747874D02*
X02659409Y01725000D01*
X02636535Y01747874D02*
X02636535Y01775000D01*
X02636535Y01776535D01*
X02665000Y01805000D01*
X02690591Y01805000D01*
X02710000Y01824409D01*
X02724409Y01810000D01*
X02750000Y01810000D01*
X02770630Y01830630D01*
X02770630Y01838504D01*
X02770630Y01870000D02*
X02745000Y01870000D01*
X02739409Y01875591D01*
X02710000Y01875591D01*
X02770630Y01885748D02*
X02784252Y01885748D01*
X02800000Y01870000D01*
X02800000Y01825000D01*
X02785000Y01810000D01*
X02750000Y01810000D01*
X02804252Y01885748D02*
X02795000Y01895000D01*
X02795000Y02175000D01*
X02815000Y02195000D01*
X02820000Y02195000D01*
X02795000Y02230000D02*
X02770630Y02205630D01*
X02770630Y01901496D01*
X02804252Y01885748D02*
X02849370Y01885748D01*
X02849370Y01854252D02*
X02865748Y01854252D01*
X02880000Y01840000D01*
X02880000Y01820000D01*
X02885000Y01815000D01*
X02909409Y01815000D01*
X02910000Y01859409D02*
X02940000Y01859409D01*
X02940000Y01930000D01*
X02920000Y01950000D01*
X02880591Y01950000D01*
X02940000Y01859409D02*
X02970000Y01859409D01*
X02960591Y01850000D01*
X02960591Y01815000D01*
X02914961Y01769370D01*
X02914606Y01769370D01*
X02865394Y01769370D02*
X02865394Y01750394D01*
X02845000Y01730000D01*
X02715591Y01730000D01*
X02710591Y01725000D01*
M02*
