G75*
%MOIN*%
%OFA0B0*%
%FSLAX26Y26*%
%IPPOS*%
%LPD*%
%AMOC8*
5,1,8,0,0,1.08239X$1,22.5*
%
%ADD10R,0.027559X0.035433*%
%ADD11C,0.060000*%
%ADD12R,0.027559X0.039370*%
%ADD13R,0.035433X0.027559*%
%ADD14R,0.061024X0.023622*%
%ADD15C,0.016000*%
%ADD16C,0.029780*%
D10*
X00543386Y00475000D03*
X00594567Y00475000D03*
X00250591Y00485000D03*
X00199409Y00485000D03*
D11*
X00170000Y00400000D02*
X00230000Y00400000D01*
X00230000Y00300000D02*
X00170000Y00300000D01*
X01070000Y00250000D02*
X01130000Y00250000D01*
X01130000Y00350000D02*
X01070000Y00350000D01*
X01070000Y00450000D02*
X01130000Y00450000D01*
D12*
X00900000Y00347244D03*
X00862598Y00252756D03*
X00937402Y00252756D03*
D13*
X00731024Y00289409D03*
X00731024Y00340591D03*
X00900000Y00414409D03*
X00900000Y00465591D03*
X00745000Y00474567D03*
X00745000Y00423386D03*
D14*
X00393701Y00275000D03*
X00393701Y00325000D03*
X00393701Y00375000D03*
X00393701Y00425000D03*
X00606299Y00425000D03*
X00606299Y00375000D03*
X00606299Y00325000D03*
X00606299Y00275000D03*
D15*
X00575000Y00275000D01*
X00550000Y00300000D01*
X00550000Y00468386D01*
X00543386Y00475000D01*
X00594567Y00475000D02*
X00606299Y00463268D01*
X00606299Y00425000D01*
X00606299Y00375000D02*
X00696614Y00375000D01*
X00731024Y00340591D01*
X00809409Y00340591D01*
X00850000Y00300000D01*
X00850000Y00265354D01*
X00862598Y00252756D01*
X00937402Y00252756D02*
X00950000Y00252756D01*
X00897244Y00200000D01*
X00750000Y00200000D01*
X00731024Y00218976D01*
X00731024Y00289409D01*
X00716614Y00275000D01*
X00606299Y00275000D01*
X00393701Y00325000D02*
X00225000Y00325000D01*
X00200000Y00300000D01*
X00300000Y00400000D02*
X00325000Y00375000D01*
X00393701Y00375000D01*
X00300000Y00400000D02*
X00300000Y00435591D01*
X00250591Y00485000D01*
X00199409Y00485000D02*
X00199409Y00400591D01*
X00200000Y00400000D01*
X00594567Y00475000D02*
X00745000Y00474567D01*
X00891024Y00474567D01*
X00900000Y00465591D01*
X01084409Y00465591D01*
X01100000Y00450000D01*
X00900000Y00414409D02*
X00900000Y00347244D01*
X01097244Y00347244D01*
X01100000Y00350000D01*
X01097244Y00252756D02*
X00950000Y00252756D01*
X01097244Y00252756D02*
X01100000Y00250000D01*
X00800000Y00400000D02*
X00776614Y00423386D01*
X00745000Y00423386D01*
D16*
X00800000Y00400000D03*
M02*
